%TF.GenerationSoftware,KiCad,Pcbnew,7.0.10*%
%TF.CreationDate,2024-01-19T03:53:19-05:00*%
%TF.ProjectId,Dattalogger_Board,44617474-616c-46f6-9767-65725f426f61,1*%
%TF.SameCoordinates,Original*%
%TF.FileFunction,Copper,L1,Top*%
%TF.FilePolarity,Positive*%
%FSLAX46Y46*%
G04 Gerber Fmt 4.6, Leading zero omitted, Abs format (unit mm)*
G04 Created by KiCad (PCBNEW 7.0.10) date 2024-01-19 03:53:19*
%MOMM*%
%LPD*%
G01*
G04 APERTURE LIST*
G04 Aperture macros list*
%AMRoundRect*
0 Rectangle with rounded corners*
0 $1 Rounding radius*
0 $2 $3 $4 $5 $6 $7 $8 $9 X,Y pos of 4 corners*
0 Add a 4 corners polygon primitive as box body*
4,1,4,$2,$3,$4,$5,$6,$7,$8,$9,$2,$3,0*
0 Add four circle primitives for the rounded corners*
1,1,$1+$1,$2,$3*
1,1,$1+$1,$4,$5*
1,1,$1+$1,$6,$7*
1,1,$1+$1,$8,$9*
0 Add four rect primitives between the rounded corners*
20,1,$1+$1,$2,$3,$4,$5,0*
20,1,$1+$1,$4,$5,$6,$7,0*
20,1,$1+$1,$6,$7,$8,$9,0*
20,1,$1+$1,$8,$9,$2,$3,0*%
G04 Aperture macros list end*
%TA.AperFunction,SMDPad,CuDef*%
%ADD10RoundRect,0.150000X-0.650000X-0.150000X0.650000X-0.150000X0.650000X0.150000X-0.650000X0.150000X0*%
%TD*%
%TA.AperFunction,SMDPad,CuDef*%
%ADD11RoundRect,0.038500X-0.696500X-0.236500X0.696500X-0.236500X0.696500X0.236500X-0.696500X0.236500X0*%
%TD*%
%TA.AperFunction,SMDPad,CuDef*%
%ADD12RoundRect,0.099000X-0.176000X-0.636000X0.176000X-0.636000X0.176000X0.636000X-0.176000X0.636000X0*%
%TD*%
%TA.AperFunction,SMDPad,CuDef*%
%ADD13RoundRect,0.041300X-0.943700X-0.253700X0.943700X-0.253700X0.943700X0.253700X-0.943700X0.253700X0*%
%TD*%
%TA.AperFunction,SMDPad,CuDef*%
%ADD14R,2.400000X3.500000*%
%TD*%
%TA.AperFunction,SMDPad,CuDef*%
%ADD15R,3.500000X2.400000*%
%TD*%
%TA.AperFunction,ComponentPad*%
%ADD16R,1.700000X1.700000*%
%TD*%
%TA.AperFunction,ComponentPad*%
%ADD17O,1.700000X1.700000*%
%TD*%
%TA.AperFunction,SMDPad,CuDef*%
%ADD18RoundRect,0.250000X-0.262500X-0.450000X0.262500X-0.450000X0.262500X0.450000X-0.262500X0.450000X0*%
%TD*%
%TA.AperFunction,SMDPad,CuDef*%
%ADD19RoundRect,0.250000X0.262500X0.450000X-0.262500X0.450000X-0.262500X-0.450000X0.262500X-0.450000X0*%
%TD*%
%TA.AperFunction,SMDPad,CuDef*%
%ADD20RoundRect,0.243750X-0.243750X-0.456250X0.243750X-0.456250X0.243750X0.456250X-0.243750X0.456250X0*%
%TD*%
%TA.AperFunction,SMDPad,CuDef*%
%ADD21RoundRect,0.250000X0.250000X0.475000X-0.250000X0.475000X-0.250000X-0.475000X0.250000X-0.475000X0*%
%TD*%
%TA.AperFunction,SMDPad,CuDef*%
%ADD22RoundRect,0.250000X-0.250000X-0.475000X0.250000X-0.475000X0.250000X0.475000X-0.250000X0.475000X0*%
%TD*%
%TA.AperFunction,ViaPad*%
%ADD23C,0.800000*%
%TD*%
%TA.AperFunction,Conductor*%
%ADD24C,0.250000*%
%TD*%
%TA.AperFunction,Conductor*%
%ADD25C,0.350000*%
%TD*%
G04 APERTURE END LIST*
D10*
%TO.P,U1,1,A0*%
%TO.N,/Vcc*%
X136735000Y-73660000D03*
%TO.P,U1,2,A1*%
X136735000Y-74930000D03*
%TO.P,U1,3,A2*%
X136735000Y-76200000D03*
%TO.P,U1,4,GND*%
%TO.N,GND*%
X136735000Y-77470000D03*
%TO.P,U1,5,SDA*%
%TO.N,/SDA*%
X143935000Y-77470000D03*
%TO.P,U1,6,SCL*%
%TO.N,/SCK*%
X143935000Y-76200000D03*
%TO.P,U1,7,WP*%
%TO.N,GND*%
X143935000Y-74930000D03*
%TO.P,U1,8,VCC*%
%TO.N,/Vcc*%
X143935000Y-73660000D03*
%TD*%
D11*
%TO.P,U4,1,PD3*%
%TO.N,/D3*%
X148230000Y-74035000D03*
%TO.P,U4,2,PD4*%
%TO.N,/D4*%
X148230000Y-74835000D03*
%TO.P,U4,3,GND*%
%TO.N,GND*%
X148230000Y-75635000D03*
%TO.P,U4,4,VCC*%
%TO.N,/Vcc*%
X148230000Y-76435000D03*
%TO.P,U4,5,GND*%
%TO.N,GND*%
X148230000Y-77235000D03*
%TO.P,U4,6,VCC*%
%TO.N,/Vcc*%
X148230000Y-78035000D03*
%TO.P,U4,7,PB6*%
%TO.N,Net-(U4-PB6)*%
X148230000Y-78835000D03*
%TO.P,U4,8,PB7*%
%TO.N,Net-(U4-PB7)*%
X148230000Y-79635000D03*
D12*
%TO.P,U4,9,PD5*%
%TO.N,/D5*%
X149600000Y-81005000D03*
%TO.P,U4,10,PD6*%
%TO.N,/D6*%
X150400000Y-81005000D03*
%TO.P,U4,11,PD7*%
%TO.N,/D7*%
X151200000Y-81005000D03*
%TO.P,U4,12,PB0*%
%TO.N,/D8*%
X152000000Y-81005000D03*
%TO.P,U4,13,PB1*%
%TO.N,unconnected-(U4-PB1-Pad13)*%
X152800000Y-81005000D03*
%TO.P,U4,14,PB2*%
%TO.N,unconnected-(U4-PB2-Pad14)*%
X153600000Y-81005000D03*
%TO.P,U4,15,PB3*%
%TO.N,/MOSI*%
X154400000Y-81005000D03*
%TO.P,U4,16,PB4*%
%TO.N,/MISO*%
X155200000Y-81005000D03*
D11*
%TO.P,U4,17,PB5*%
%TO.N,/SCK*%
X156570000Y-79635000D03*
%TO.P,U4,18,AVCC*%
%TO.N,/Vcc*%
X156570000Y-78835000D03*
%TO.P,U4,19,ADC6*%
%TO.N,unconnected-(U4-ADC6-Pad19)*%
X156570000Y-78035000D03*
%TO.P,U4,20,AREF*%
%TO.N,Net-(U4-AREF)*%
X156570000Y-77235000D03*
%TO.P,U4,21,GND*%
%TO.N,GND*%
X156570000Y-76435000D03*
%TO.P,U4,22,ADC7*%
%TO.N,unconnected-(U4-ADC7-Pad22)*%
X156570000Y-75635000D03*
%TO.P,U4,23,PC0*%
%TO.N,unconnected-(U4-PC0-Pad23)*%
X156570000Y-74835000D03*
%TO.P,U4,24,PC1*%
%TO.N,unconnected-(U4-PC1-Pad24)*%
X156570000Y-74035000D03*
D12*
%TO.P,U4,25,PC2*%
%TO.N,unconnected-(U4-PC2-Pad25)*%
X155200000Y-72665000D03*
%TO.P,U4,26,PC3*%
%TO.N,unconnected-(U4-PC3-Pad26)*%
X154400000Y-72665000D03*
%TO.P,U4,27,PC4*%
%TO.N,/SDA*%
X153600000Y-72665000D03*
%TO.P,U4,28,PC5*%
%TO.N,/SCK*%
X152800000Y-72665000D03*
%TO.P,U4,29,PC6/~{RESET}*%
%TO.N,/RESET*%
X152000000Y-72665000D03*
%TO.P,U4,30,PD0*%
%TO.N,/RX*%
X151200000Y-72665000D03*
%TO.P,U4,31,PD1*%
%TO.N,/TX*%
X150400000Y-72665000D03*
%TO.P,U4,32,PD2*%
%TO.N,/D2*%
X149600000Y-72665000D03*
%TD*%
D13*
%TO.P,U2,1,X1*%
%TO.N,Net-(U2-X1)*%
X137860000Y-80645000D03*
%TO.P,U2,2,X2*%
%TO.N,Net-(U2-X2)*%
X137860000Y-81915000D03*
%TO.P,U2,3,~{INTA}*%
%TO.N,Net-(U2-~{INTA})*%
X137860000Y-83185000D03*
%TO.P,U2,4,GND*%
%TO.N,GND*%
X137860000Y-84455000D03*
%TO.P,U2,5,SDA*%
%TO.N,/SDA*%
X142810000Y-84455000D03*
%TO.P,U2,6,SCL*%
%TO.N,/SCK*%
X142810000Y-83185000D03*
%TO.P,U2,7,SQW/~INT*%
%TO.N,Net-(U2-SQW{slash}~INT)*%
X142810000Y-81915000D03*
%TO.P,U2,8,VCC*%
%TO.N,/Vcc*%
X142810000Y-80645000D03*
%TD*%
D10*
%TO.P,U3,1,A0*%
%TO.N,/Vcc*%
X136735000Y-66040000D03*
%TO.P,U3,2,A1*%
%TO.N,GND*%
X136735000Y-67310000D03*
%TO.P,U3,3,A2*%
%TO.N,/Vcc*%
X136735000Y-68580000D03*
%TO.P,U3,4,GND*%
%TO.N,GND*%
X136735000Y-69850000D03*
%TO.P,U3,5,SDA*%
%TO.N,/SDA*%
X143935000Y-69850000D03*
%TO.P,U3,6,SCL*%
%TO.N,/SCK*%
X143935000Y-68580000D03*
%TO.P,U3,7,WP*%
%TO.N,GND*%
X143935000Y-67310000D03*
%TO.P,U3,8,VCC*%
%TO.N,/Vcc*%
X143935000Y-66040000D03*
%TD*%
D14*
%TO.P,Y1,1*%
%TO.N,Net-(U2-X2)*%
X132080000Y-85785000D03*
%TO.P,Y1,2*%
%TO.N,Net-(U2-X1)*%
X132080000Y-80585000D03*
%TD*%
D15*
%TO.P,Y2,1*%
%TO.N,Net-(U4-PB6)*%
X149800000Y-86360000D03*
%TO.P,Y2,2*%
%TO.N,Net-(U4-PB7)*%
X155000000Y-86360000D03*
%TD*%
D16*
%TO.P,BT1,1,+*%
%TO.N,/Vcc*%
X132080000Y-73655000D03*
D17*
%TO.P,BT1,2,-*%
%TO.N,GND*%
X132080000Y-76195000D03*
%TD*%
D18*
%TO.P,R5,1*%
%TO.N,Net-(D2-K)*%
X161012500Y-69850000D03*
%TO.P,R5,2*%
%TO.N,GND*%
X162837500Y-69850000D03*
%TD*%
D19*
%TO.P,R4,1*%
%TO.N,/Vcc*%
X162837500Y-73025000D03*
%TO.P,R4,2*%
%TO.N,/SDA*%
X161012500Y-73025000D03*
%TD*%
%TO.P,R3,2*%
%TO.N,/SCK*%
X161012500Y-76200000D03*
%TO.P,R3,1*%
%TO.N,/Vcc*%
X162837500Y-76200000D03*
%TD*%
D20*
%TO.P,D2,2,A*%
%TO.N,/Vcc*%
X162862500Y-66040000D03*
%TO.P,D2,1,K*%
%TO.N,Net-(D2-K)*%
X160987500Y-66040000D03*
%TD*%
D21*
%TO.P,C4,1*%
%TO.N,GND*%
X162240000Y-86995000D03*
%TO.P,C4,2*%
%TO.N,Net-(U4-AREF)*%
X160340000Y-86995000D03*
%TD*%
%TO.P,C2,1*%
%TO.N,GND*%
X162240000Y-83820000D03*
%TO.P,C2,2*%
%TO.N,Net-(U4-PB6)*%
X160340000Y-83820000D03*
%TD*%
D19*
%TO.P,R7,2*%
%TO.N,Net-(D1-K)*%
X164822500Y-69850000D03*
%TO.P,R7,1*%
%TO.N,GND*%
X166647500Y-69850000D03*
%TD*%
D18*
%TO.P,R6,2*%
%TO.N,/RESET*%
X166647500Y-73025000D03*
%TO.P,R6,1*%
%TO.N,/Vcc*%
X164822500Y-73025000D03*
%TD*%
D19*
%TO.P,R2,1*%
%TO.N,/Vcc*%
X142517500Y-86995000D03*
%TO.P,R2,2*%
%TO.N,Net-(U2-SQW{slash}~INT)*%
X140692500Y-86995000D03*
%TD*%
D18*
%TO.P,R1,1*%
%TO.N,/Vcc*%
X136882500Y-86995000D03*
%TO.P,R1,2*%
%TO.N,Net-(U2-~{INTA})*%
X138707500Y-86995000D03*
%TD*%
D17*
%TO.P,J4,9,Pin_9*%
%TO.N,/Vcc*%
X154950000Y-91440000D03*
%TO.P,J4,8,Pin_8*%
%TO.N,GND*%
X152410000Y-91440000D03*
%TO.P,J4,7,Pin_7*%
%TO.N,/D8*%
X149870000Y-91440000D03*
%TO.P,J4,6,Pin_6*%
%TO.N,/D7*%
X147330000Y-91440000D03*
%TO.P,J4,5,Pin_5*%
%TO.N,/D6*%
X144790000Y-91440000D03*
%TO.P,J4,4,Pin_4*%
%TO.N,/D5*%
X142250000Y-91440000D03*
%TO.P,J4,3,Pin_3*%
%TO.N,/D4*%
X139710000Y-91440000D03*
%TO.P,J4,2,Pin_2*%
%TO.N,/D3*%
X137170000Y-91440000D03*
D16*
%TO.P,J4,1,Pin_1*%
%TO.N,/D2*%
X134630000Y-91440000D03*
%TD*%
D17*
%TO.P,J3,6,Pin_6*%
%TO.N,GND*%
X172715000Y-74310000D03*
%TO.P,J3,5,Pin_5*%
%TO.N,/RESET*%
X170175000Y-74310000D03*
%TO.P,J3,4,Pin_4*%
%TO.N,/MOSI*%
X172715000Y-71770000D03*
%TO.P,J3,3,Pin_3*%
%TO.N,/SCK*%
X170175000Y-71770000D03*
%TO.P,J3,2,Pin_2*%
%TO.N,/Vcc*%
X172715000Y-69230000D03*
D16*
%TO.P,J3,1,Pin_1*%
%TO.N,/MISO*%
X170175000Y-69230000D03*
%TD*%
%TO.P,J2,1,Pin_1*%
%TO.N,GND*%
X161300000Y-91440000D03*
D17*
%TO.P,J2,2,Pin_2*%
%TO.N,/Vcc*%
X163840000Y-91440000D03*
%TO.P,J2,3,Pin_3*%
%TO.N,/RX*%
X166380000Y-91440000D03*
%TO.P,J2,4,Pin_4*%
%TO.N,/TX*%
X168920000Y-91440000D03*
%TD*%
D16*
%TO.P,J1,1,Pin_1*%
%TO.N,GND*%
X172720000Y-79385000D03*
D17*
%TO.P,J1,2,Pin_2*%
%TO.N,/Vcc*%
X172720000Y-81925000D03*
%TO.P,J1,3,Pin_3*%
%TO.N,/SDA*%
X172720000Y-84465000D03*
%TO.P,J1,4,Pin_4*%
%TO.N,/SCK*%
X172720000Y-87005000D03*
%TD*%
D20*
%TO.P,D1,1,K*%
%TO.N,Net-(D1-K)*%
X164797500Y-66040000D03*
%TO.P,D1,2,A*%
%TO.N,/SCK*%
X166672500Y-66040000D03*
%TD*%
D22*
%TO.P,C5,2*%
%TO.N,GND*%
X157795000Y-66040000D03*
%TO.P,C5,1*%
%TO.N,/Vcc*%
X155895000Y-66040000D03*
%TD*%
%TO.P,C3,2*%
%TO.N,Net-(U4-PB7)*%
X153380668Y-66192568D03*
%TO.P,C3,1*%
%TO.N,GND*%
X151480668Y-66192568D03*
%TD*%
%TO.P,C1,2*%
%TO.N,GND*%
X148905000Y-66155000D03*
%TO.P,C1,1*%
%TO.N,/Vcc*%
X147005000Y-66155000D03*
%TD*%
D23*
%TO.N,Net-(U4-PB7)*%
X154470404Y-67551215D03*
%TO.N,Net-(U4-PB6)*%
X160276894Y-82269328D03*
X152400000Y-85090000D03*
%TO.N,Net-(U4-PB7)*%
X152400000Y-86995000D03*
%TO.N,Net-(U4-PB6)*%
X150216192Y-78763556D03*
%TO.N,Net-(U4-PB7)*%
X149715270Y-79629051D03*
%TO.N,/MOSI*%
X154325675Y-82564731D03*
%TO.N,/MISO*%
X156503076Y-80727185D03*
%TO.N,/TX*%
X150323650Y-74103922D03*
%TO.N,/RX*%
X151323557Y-74117810D03*
%TO.N,/SCK*%
X167898445Y-66048787D03*
X161037297Y-77644594D03*
X155181215Y-79573916D03*
X152792836Y-74027164D03*
X142417293Y-68610496D03*
X142369997Y-76205685D03*
X141191487Y-83212567D03*
%TO.N,/SDA*%
X159867431Y-73067298D03*
X146050000Y-69850000D03*
X153670000Y-70108445D03*
X144145000Y-78740000D03*
X143340000Y-85527432D03*
%TO.N,GND*%
X149860000Y-77470000D03*
%TO.N,/Vcc*%
X165166678Y-75762710D03*
X158160744Y-78949599D03*
X142498186Y-66083418D03*
X145983924Y-67593514D03*
X154656485Y-66100476D03*
X163830000Y-67310000D03*
X135296092Y-66113140D03*
X135285754Y-68594214D03*
X138439734Y-73737705D03*
X142452442Y-73648111D03*
X146836764Y-77255806D03*
X144468573Y-80656630D03*
X136186752Y-88392557D03*
X143510000Y-86995000D03*
%TO.N,GND*%
X145400785Y-66675000D03*
X135345541Y-67270544D03*
X142364053Y-75012702D03*
X155370397Y-76470678D03*
X163195000Y-84455000D03*
X163387203Y-87005079D03*
X163195000Y-68580000D03*
X167005000Y-68580000D03*
X158750000Y-66040000D03*
X150149458Y-66068515D03*
X136650805Y-85594456D03*
X136735000Y-78530000D03*
X135255000Y-69850000D03*
%TD*%
D24*
%TO.N,Net-(U4-PB6)*%
X150144748Y-78835000D02*
X150216192Y-78763556D01*
X148230000Y-78835000D02*
X150144748Y-78835000D01*
%TO.N,/D4*%
X146685000Y-83233604D02*
X146685000Y-78200058D01*
%TO.N,/RESET*%
X164742500Y-71120000D02*
X166647500Y-73025000D01*
X160655000Y-71120000D02*
X164742500Y-71120000D01*
X158918445Y-69383445D02*
X160655000Y-71120000D01*
X152000000Y-70753140D02*
X153369695Y-69383445D01*
X153369695Y-69383445D02*
X158918445Y-69383445D01*
X152000000Y-72665000D02*
X152000000Y-70753140D01*
%TO.N,Net-(U4-AREF)*%
X159385000Y-86040000D02*
X160340000Y-86995000D01*
X157542161Y-77235000D02*
X159385000Y-79077839D01*
X156570000Y-77235000D02*
X157542161Y-77235000D01*
X159385000Y-79077839D02*
X159385000Y-86040000D01*
%TO.N,Net-(U4-PB7)*%
X154470404Y-67282304D02*
X153380668Y-66192568D01*
X154470404Y-67551215D02*
X154470404Y-67282304D01*
%TO.N,Net-(U4-PB6)*%
X160340000Y-82332434D02*
X160276894Y-82269328D01*
X160340000Y-83820000D02*
X160340000Y-82332434D01*
X151130000Y-86360000D02*
X149800000Y-86360000D01*
X152400000Y-85090000D02*
X151130000Y-86360000D01*
%TO.N,Net-(U4-PB7)*%
X154365000Y-86995000D02*
X155000000Y-86360000D01*
X152400000Y-86995000D02*
X154365000Y-86995000D01*
X148230000Y-79635000D02*
X149709321Y-79635000D01*
%TO.N,Net-(U2-X1)*%
X137860000Y-80645000D02*
X132140000Y-80645000D01*
X132140000Y-80645000D02*
X132080000Y-80585000D01*
%TO.N,Net-(U2-X2)*%
X133005001Y-85785000D02*
X132080000Y-85785000D01*
X137860000Y-81915000D02*
X136875001Y-81915000D01*
X136875001Y-81915000D02*
X133005001Y-85785000D01*
%TO.N,Net-(U2-SQW{slash}~INT)*%
X144145000Y-81915000D02*
X142810000Y-81915000D01*
X144328604Y-82098604D02*
X144145000Y-81915000D01*
X144328604Y-87442208D02*
X144328604Y-82098604D01*
X143507906Y-88262906D02*
X144328604Y-87442208D01*
X141960406Y-88262906D02*
X143507906Y-88262906D01*
X140692500Y-86995000D02*
X141960406Y-88262906D01*
%TO.N,/D2*%
X148151866Y-72665000D02*
X149600000Y-72665000D01*
X145161764Y-75655102D02*
X148151866Y-72665000D01*
X145785000Y-78740000D02*
X145161764Y-78116764D01*
X145785000Y-82860812D02*
X145785000Y-78740000D01*
X144778604Y-83867208D02*
X145785000Y-82860812D01*
X144778604Y-87628604D02*
X144778604Y-83867208D01*
X143508604Y-88898604D02*
X144778604Y-87628604D01*
X137171396Y-88898604D02*
X143508604Y-88898604D01*
X134630000Y-91440000D02*
X137171396Y-88898604D01*
X145161764Y-78116764D02*
X145161764Y-75655102D01*
%TO.N,/SDA*%
X142810000Y-84997432D02*
X142810000Y-84455000D01*
X143340000Y-85527432D02*
X142810000Y-84997432D01*
%TO.N,/D3*%
X147578604Y-74035000D02*
X148230000Y-74035000D01*
X145611764Y-76001840D02*
X147578604Y-74035000D01*
X145611764Y-77763218D02*
X145611764Y-76001840D01*
X146235000Y-83047208D02*
X146235000Y-78386454D01*
X145475000Y-83807208D02*
X146235000Y-83047208D01*
X143323604Y-89720000D02*
X145475000Y-87568604D01*
X145475000Y-87568604D02*
X145475000Y-83807208D01*
X139520000Y-89720000D02*
X143323604Y-89720000D01*
X137800000Y-91440000D02*
X139520000Y-89720000D01*
X146235000Y-78386454D02*
X145611764Y-77763218D01*
X137170000Y-91440000D02*
X137800000Y-91440000D01*
D25*
%TO.N,/Vcc*%
X146836764Y-77431320D02*
X146836764Y-77255806D01*
X147440444Y-78035000D02*
X146836764Y-77431320D01*
X148230000Y-78035000D02*
X147440444Y-78035000D01*
X146836764Y-77038680D02*
X146836764Y-77255806D01*
X147440444Y-76435000D02*
X146836764Y-77038680D01*
X148230000Y-76435000D02*
X147440444Y-76435000D01*
D24*
%TO.N,/D4*%
X147415000Y-74835000D02*
X148230000Y-74835000D01*
X146061764Y-76188236D02*
X147415000Y-74835000D01*
X146061764Y-77576822D02*
X146061764Y-76188236D01*
X145925000Y-83993604D02*
X146685000Y-83233604D01*
X145925000Y-87755000D02*
X145925000Y-83993604D01*
X146685000Y-78200058D02*
X146061764Y-77576822D01*
X140980000Y-90170000D02*
X143510000Y-90170000D01*
X143510000Y-90170000D02*
X145925000Y-87755000D01*
X139710000Y-91440000D02*
X140980000Y-90170000D01*
%TO.N,/D5*%
X149600000Y-82175000D02*
X149600000Y-81005000D01*
X149277906Y-82497094D02*
X149600000Y-82175000D01*
X148057906Y-82497094D02*
X149277906Y-82497094D01*
X146375000Y-84180000D02*
X148057906Y-82497094D01*
X146375000Y-87945000D02*
X146375000Y-84180000D01*
X142880000Y-91440000D02*
X146375000Y-87945000D01*
X142250000Y-91440000D02*
X142880000Y-91440000D01*
%TO.N,/D6*%
X146825000Y-89405000D02*
X146825000Y-84366396D01*
X148244302Y-82947094D02*
X149520113Y-82947094D01*
X144790000Y-91440000D02*
X146825000Y-89405000D01*
X146825000Y-84366396D02*
X148244302Y-82947094D01*
X149520113Y-82947094D02*
X150400000Y-82067207D01*
X150400000Y-82067207D02*
X150400000Y-81005000D01*
%TO.N,/D7*%
X148430698Y-83397094D02*
X149706509Y-83397094D01*
X147275000Y-84552792D02*
X148430698Y-83397094D01*
X151200000Y-81903603D02*
X151200000Y-81005000D01*
X147275000Y-91385000D02*
X147275000Y-84552792D01*
X147330000Y-91440000D02*
X147275000Y-91385000D01*
X149706509Y-83397094D02*
X151200000Y-81903603D01*
%TO.N,/SDA*%
X143935000Y-77470000D02*
X143935000Y-78530000D01*
X143935000Y-78530000D02*
X144145000Y-78740000D01*
%TO.N,/D8*%
X149892905Y-83847094D02*
X152000000Y-81739999D01*
X152000000Y-81739999D02*
X152000000Y-81005000D01*
X148617094Y-83847094D02*
X149892905Y-83847094D01*
X147725000Y-84739188D02*
X148617094Y-83847094D01*
X147725000Y-89295000D02*
X147725000Y-84739188D01*
X149870000Y-91440000D02*
X147725000Y-89295000D01*
D25*
%TO.N,/Vcc*%
X136882500Y-87696809D02*
X136186752Y-88392557D01*
X136882500Y-86995000D02*
X136882500Y-87696809D01*
%TO.N,GND*%
X137790261Y-84455000D02*
X136650805Y-85594456D01*
X137860000Y-84455000D02*
X137790261Y-84455000D01*
D24*
%TO.N,Net-(U2-~{INTA})*%
X139220000Y-86482500D02*
X138707500Y-86995000D01*
X139220000Y-83560001D02*
X139220000Y-86482500D01*
X138844999Y-83185000D02*
X139220000Y-83560001D01*
X137860000Y-83185000D02*
X138844999Y-83185000D01*
%TO.N,/SDA*%
X159909729Y-73025000D02*
X161012500Y-73025000D01*
X159867431Y-73067298D02*
X159909729Y-73025000D01*
%TO.N,/MISO*%
X156225261Y-81005000D02*
X155200000Y-81005000D01*
X156503076Y-80727185D02*
X156225261Y-81005000D01*
%TO.N,/MOSI*%
X154400000Y-82490406D02*
X154325675Y-82564731D01*
X154400000Y-81005000D02*
X154400000Y-82490406D01*
D25*
%TO.N,GND*%
X136735000Y-78530000D02*
X136735000Y-77470000D01*
D24*
%TO.N,/D2*%
X134630000Y-91440000D02*
X134480000Y-91290000D01*
%TO.N,Net-(U4-PB7)*%
X148148833Y-79716167D02*
X148230000Y-79635000D01*
%TO.N,Net-(D2-K)*%
X161012500Y-69850000D02*
X161012500Y-66065000D01*
X161012500Y-66065000D02*
X160987500Y-66040000D01*
%TO.N,/RESET*%
X168890000Y-73025000D02*
X170175000Y-74310000D01*
X166647500Y-73025000D02*
X168890000Y-73025000D01*
%TO.N,Net-(D1-K)*%
X164797500Y-69825000D02*
X164822500Y-69850000D01*
X164797500Y-66040000D02*
X164797500Y-69825000D01*
%TO.N,/TX*%
X150400000Y-74027572D02*
X150323650Y-74103922D01*
X150400000Y-72665000D02*
X150400000Y-74027572D01*
%TO.N,/RX*%
X151200000Y-73994253D02*
X151323557Y-74117810D01*
X151200000Y-72665000D02*
X151200000Y-73994253D01*
%TO.N,/SCK*%
X167898445Y-66048787D02*
X166681287Y-66048787D01*
X166681287Y-66048787D02*
X166672500Y-66040000D01*
X161012500Y-77619797D02*
X161037297Y-77644594D01*
X161012500Y-76200000D02*
X161012500Y-77619797D01*
X155242299Y-79635000D02*
X155181215Y-79573916D01*
X156570000Y-79635000D02*
X155242299Y-79635000D01*
X152800000Y-72665000D02*
X152800000Y-74020000D01*
X152800000Y-74020000D02*
X152792836Y-74027164D01*
X143935000Y-68580000D02*
X142447789Y-68580000D01*
X142447789Y-68580000D02*
X142417293Y-68610496D01*
X142375682Y-76200000D02*
X142369997Y-76205685D01*
X143935000Y-76200000D02*
X142375682Y-76200000D01*
X142810000Y-83185000D02*
X141219054Y-83185000D01*
X141219054Y-83185000D02*
X141191487Y-83212567D01*
%TO.N,/SDA*%
X153600000Y-70178445D02*
X153670000Y-70108445D01*
X153600000Y-72665000D02*
X153600000Y-70178445D01*
X143935000Y-69850000D02*
X146050000Y-69850000D01*
D25*
%TO.N,GND*%
X149860000Y-77470000D02*
X149860000Y-76475444D01*
X149860000Y-76475444D02*
X149390000Y-76005444D01*
X149019556Y-77235000D02*
X148230000Y-77235000D01*
X149390000Y-76005444D02*
X149390000Y-76864556D01*
X149390000Y-76864556D02*
X149019556Y-77235000D01*
X149019556Y-75635000D02*
X149390000Y-76005444D01*
X148230000Y-75635000D02*
X149019556Y-75635000D01*
%TO.N,/Vcc*%
X164822500Y-75418532D02*
X165166678Y-75762710D01*
X164822500Y-73025000D02*
X164822500Y-75418532D01*
X164822500Y-73025000D02*
X162837500Y-73025000D01*
X162837500Y-76200000D02*
X164729388Y-76200000D01*
X164729388Y-76200000D02*
X165166678Y-75762710D01*
X158046145Y-78835000D02*
X156570000Y-78835000D01*
X158160744Y-78949599D02*
X158046145Y-78835000D01*
X142541604Y-66040000D02*
X142498186Y-66083418D01*
X143935000Y-66040000D02*
X142541604Y-66040000D01*
X145983924Y-67593514D02*
X147005000Y-66572438D01*
X147005000Y-66572438D02*
X147005000Y-66155000D01*
%TO.N,GND*%
X144765785Y-67310000D02*
X143935000Y-67310000D01*
X145400785Y-66675000D02*
X144765785Y-67310000D01*
%TO.N,/Vcc*%
X154716961Y-66040000D02*
X154656485Y-66100476D01*
X155895000Y-66040000D02*
X154716961Y-66040000D01*
X162862500Y-66342500D02*
X163830000Y-67310000D01*
X162862500Y-66040000D02*
X162862500Y-66342500D01*
X135299968Y-68580000D02*
X135285754Y-68594214D01*
X136735000Y-68580000D02*
X135299968Y-68580000D01*
X135369232Y-66040000D02*
X135296092Y-66113140D01*
X136735000Y-66040000D02*
X135369232Y-66040000D01*
X138362029Y-73660000D02*
X138439734Y-73737705D01*
X136735000Y-73660000D02*
X138362029Y-73660000D01*
X136735000Y-76200000D02*
X136735000Y-73660000D01*
X143923111Y-73648111D02*
X143935000Y-73660000D01*
X142452442Y-73648111D02*
X143923111Y-73648111D01*
X144456943Y-80645000D02*
X144468573Y-80656630D01*
X142810000Y-80645000D02*
X144456943Y-80645000D01*
X142517500Y-86995000D02*
X143510000Y-86995000D01*
%TO.N,GND*%
X135384997Y-67310000D02*
X135345541Y-67270544D01*
X136735000Y-67310000D02*
X135384997Y-67310000D01*
X142446755Y-74930000D02*
X142364053Y-75012702D01*
X143935000Y-74930000D02*
X142446755Y-74930000D01*
X155406075Y-76435000D02*
X155370397Y-76470678D01*
X156570000Y-76435000D02*
X155406075Y-76435000D01*
X163377124Y-86995000D02*
X163387203Y-87005079D01*
X162240000Y-86995000D02*
X163377124Y-86995000D01*
X162560000Y-83820000D02*
X163195000Y-84455000D01*
X162240000Y-83820000D02*
X162560000Y-83820000D01*
X162837500Y-68937500D02*
X163195000Y-68580000D01*
X162837500Y-69850000D02*
X162837500Y-68937500D01*
X166647500Y-68937500D02*
X167005000Y-68580000D01*
X166647500Y-69850000D02*
X166647500Y-68937500D01*
X157795000Y-66040000D02*
X158750000Y-66040000D01*
X150273511Y-66192568D02*
X150149458Y-66068515D01*
X151480668Y-66192568D02*
X150273511Y-66192568D01*
X150177973Y-66040000D02*
X150149458Y-66068515D01*
X150062973Y-66155000D02*
X150149458Y-66068515D01*
X148905000Y-66155000D02*
X150062973Y-66155000D01*
X136735000Y-69850000D02*
X135255000Y-69850000D01*
%TD*%
M02*
