%TF.GenerationSoftware,KiCad,Pcbnew,7.0.10*%
%TF.CreationDate,2024-01-19T03:53:19-05:00*%
%TF.ProjectId,Dattalogger_Board,44617474-616c-46f6-9767-65725f426f61,1*%
%TF.SameCoordinates,Original*%
%TF.FileFunction,Legend,Bot*%
%TF.FilePolarity,Positive*%
%FSLAX46Y46*%
G04 Gerber Fmt 4.6, Leading zero omitted, Abs format (unit mm)*
G04 Created by KiCad (PCBNEW 7.0.10) date 2024-01-19 03:53:19*
%MOMM*%
%LPD*%
G01*
G04 APERTURE LIST*
%ADD10C,0.150000*%
G04 APERTURE END LIST*
D10*
X151332982Y-71441177D02*
X151332982Y-70041177D01*
X151332982Y-70041177D02*
X150866316Y-71041177D01*
X150866316Y-71041177D02*
X150399649Y-70041177D01*
X150399649Y-70041177D02*
X150399649Y-71441177D01*
X148932982Y-71307844D02*
X148999649Y-71374511D01*
X148999649Y-71374511D02*
X149199649Y-71441177D01*
X149199649Y-71441177D02*
X149332982Y-71441177D01*
X149332982Y-71441177D02*
X149532982Y-71374511D01*
X149532982Y-71374511D02*
X149666316Y-71241177D01*
X149666316Y-71241177D02*
X149732982Y-71107844D01*
X149732982Y-71107844D02*
X149799649Y-70841177D01*
X149799649Y-70841177D02*
X149799649Y-70641177D01*
X149799649Y-70641177D02*
X149732982Y-70374511D01*
X149732982Y-70374511D02*
X149666316Y-70241177D01*
X149666316Y-70241177D02*
X149532982Y-70107844D01*
X149532982Y-70107844D02*
X149332982Y-70041177D01*
X149332982Y-70041177D02*
X149199649Y-70041177D01*
X149199649Y-70041177D02*
X148999649Y-70107844D01*
X148999649Y-70107844D02*
X148932982Y-70174511D01*
X148332982Y-70041177D02*
X148332982Y-71174511D01*
X148332982Y-71174511D02*
X148266316Y-71307844D01*
X148266316Y-71307844D02*
X148199649Y-71374511D01*
X148199649Y-71374511D02*
X148066316Y-71441177D01*
X148066316Y-71441177D02*
X147799649Y-71441177D01*
X147799649Y-71441177D02*
X147666316Y-71374511D01*
X147666316Y-71374511D02*
X147599649Y-71307844D01*
X147599649Y-71307844D02*
X147532982Y-71174511D01*
X147532982Y-71174511D02*
X147532982Y-70041177D01*
X145799648Y-71441177D02*
X145799648Y-70041177D01*
X145799648Y-70041177D02*
X145466315Y-70041177D01*
X145466315Y-70041177D02*
X145266315Y-70107844D01*
X145266315Y-70107844D02*
X145132982Y-70241177D01*
X145132982Y-70241177D02*
X145066315Y-70374511D01*
X145066315Y-70374511D02*
X144999648Y-70641177D01*
X144999648Y-70641177D02*
X144999648Y-70841177D01*
X144999648Y-70841177D02*
X145066315Y-71107844D01*
X145066315Y-71107844D02*
X145132982Y-71241177D01*
X145132982Y-71241177D02*
X145266315Y-71374511D01*
X145266315Y-71374511D02*
X145466315Y-71441177D01*
X145466315Y-71441177D02*
X145799648Y-71441177D01*
X143799648Y-71441177D02*
X143799648Y-70707844D01*
X143799648Y-70707844D02*
X143866315Y-70574511D01*
X143866315Y-70574511D02*
X143999648Y-70507844D01*
X143999648Y-70507844D02*
X144266315Y-70507844D01*
X144266315Y-70507844D02*
X144399648Y-70574511D01*
X143799648Y-71374511D02*
X143932982Y-71441177D01*
X143932982Y-71441177D02*
X144266315Y-71441177D01*
X144266315Y-71441177D02*
X144399648Y-71374511D01*
X144399648Y-71374511D02*
X144466315Y-71241177D01*
X144466315Y-71241177D02*
X144466315Y-71107844D01*
X144466315Y-71107844D02*
X144399648Y-70974511D01*
X144399648Y-70974511D02*
X144266315Y-70907844D01*
X144266315Y-70907844D02*
X143932982Y-70907844D01*
X143932982Y-70907844D02*
X143799648Y-70841177D01*
X143332981Y-70507844D02*
X142799648Y-70507844D01*
X143132981Y-70041177D02*
X143132981Y-71241177D01*
X143132981Y-71241177D02*
X143066315Y-71374511D01*
X143066315Y-71374511D02*
X142932981Y-71441177D01*
X142932981Y-71441177D02*
X142799648Y-71441177D01*
X141732981Y-71441177D02*
X141732981Y-70707844D01*
X141732981Y-70707844D02*
X141799648Y-70574511D01*
X141799648Y-70574511D02*
X141932981Y-70507844D01*
X141932981Y-70507844D02*
X142199648Y-70507844D01*
X142199648Y-70507844D02*
X142332981Y-70574511D01*
X141732981Y-71374511D02*
X141866315Y-71441177D01*
X141866315Y-71441177D02*
X142199648Y-71441177D01*
X142199648Y-71441177D02*
X142332981Y-71374511D01*
X142332981Y-71374511D02*
X142399648Y-71241177D01*
X142399648Y-71241177D02*
X142399648Y-71107844D01*
X142399648Y-71107844D02*
X142332981Y-70974511D01*
X142332981Y-70974511D02*
X142199648Y-70907844D01*
X142199648Y-70907844D02*
X141866315Y-70907844D01*
X141866315Y-70907844D02*
X141732981Y-70841177D01*
X139332981Y-71441177D02*
X139999647Y-71441177D01*
X139999647Y-71441177D02*
X139999647Y-70041177D01*
X138666314Y-71441177D02*
X138799648Y-71374511D01*
X138799648Y-71374511D02*
X138866314Y-71307844D01*
X138866314Y-71307844D02*
X138932981Y-71174511D01*
X138932981Y-71174511D02*
X138932981Y-70774511D01*
X138932981Y-70774511D02*
X138866314Y-70641177D01*
X138866314Y-70641177D02*
X138799648Y-70574511D01*
X138799648Y-70574511D02*
X138666314Y-70507844D01*
X138666314Y-70507844D02*
X138466314Y-70507844D01*
X138466314Y-70507844D02*
X138332981Y-70574511D01*
X138332981Y-70574511D02*
X138266314Y-70641177D01*
X138266314Y-70641177D02*
X138199648Y-70774511D01*
X138199648Y-70774511D02*
X138199648Y-71174511D01*
X138199648Y-71174511D02*
X138266314Y-71307844D01*
X138266314Y-71307844D02*
X138332981Y-71374511D01*
X138332981Y-71374511D02*
X138466314Y-71441177D01*
X138466314Y-71441177D02*
X138666314Y-71441177D01*
X136999647Y-70507844D02*
X136999647Y-71641177D01*
X136999647Y-71641177D02*
X137066314Y-71774511D01*
X137066314Y-71774511D02*
X137132981Y-71841177D01*
X137132981Y-71841177D02*
X137266314Y-71907844D01*
X137266314Y-71907844D02*
X137466314Y-71907844D01*
X137466314Y-71907844D02*
X137599647Y-71841177D01*
X136999647Y-71374511D02*
X137132981Y-71441177D01*
X137132981Y-71441177D02*
X137399647Y-71441177D01*
X137399647Y-71441177D02*
X137532981Y-71374511D01*
X137532981Y-71374511D02*
X137599647Y-71307844D01*
X137599647Y-71307844D02*
X137666314Y-71174511D01*
X137666314Y-71174511D02*
X137666314Y-70774511D01*
X137666314Y-70774511D02*
X137599647Y-70641177D01*
X137599647Y-70641177D02*
X137532981Y-70574511D01*
X137532981Y-70574511D02*
X137399647Y-70507844D01*
X137399647Y-70507844D02*
X137132981Y-70507844D01*
X137132981Y-70507844D02*
X136999647Y-70574511D01*
X135732980Y-70507844D02*
X135732980Y-71641177D01*
X135732980Y-71641177D02*
X135799647Y-71774511D01*
X135799647Y-71774511D02*
X135866314Y-71841177D01*
X135866314Y-71841177D02*
X135999647Y-71907844D01*
X135999647Y-71907844D02*
X136199647Y-71907844D01*
X136199647Y-71907844D02*
X136332980Y-71841177D01*
X135732980Y-71374511D02*
X135866314Y-71441177D01*
X135866314Y-71441177D02*
X136132980Y-71441177D01*
X136132980Y-71441177D02*
X136266314Y-71374511D01*
X136266314Y-71374511D02*
X136332980Y-71307844D01*
X136332980Y-71307844D02*
X136399647Y-71174511D01*
X136399647Y-71174511D02*
X136399647Y-70774511D01*
X136399647Y-70774511D02*
X136332980Y-70641177D01*
X136332980Y-70641177D02*
X136266314Y-70574511D01*
X136266314Y-70574511D02*
X136132980Y-70507844D01*
X136132980Y-70507844D02*
X135866314Y-70507844D01*
X135866314Y-70507844D02*
X135732980Y-70574511D01*
X134532980Y-71374511D02*
X134666313Y-71441177D01*
X134666313Y-71441177D02*
X134932980Y-71441177D01*
X134932980Y-71441177D02*
X135066313Y-71374511D01*
X135066313Y-71374511D02*
X135132980Y-71241177D01*
X135132980Y-71241177D02*
X135132980Y-70707844D01*
X135132980Y-70707844D02*
X135066313Y-70574511D01*
X135066313Y-70574511D02*
X134932980Y-70507844D01*
X134932980Y-70507844D02*
X134666313Y-70507844D01*
X134666313Y-70507844D02*
X134532980Y-70574511D01*
X134532980Y-70574511D02*
X134466313Y-70707844D01*
X134466313Y-70707844D02*
X134466313Y-70841177D01*
X134466313Y-70841177D02*
X135132980Y-70974511D01*
X133866313Y-71441177D02*
X133866313Y-70507844D01*
X133866313Y-70774511D02*
X133799647Y-70641177D01*
X133799647Y-70641177D02*
X133732980Y-70574511D01*
X133732980Y-70574511D02*
X133599647Y-70507844D01*
X133599647Y-70507844D02*
X133466313Y-70507844D01*
X150866316Y-72961844D02*
X151332982Y-72961844D01*
X151332982Y-73695177D02*
X151332982Y-72295177D01*
X151332982Y-72295177D02*
X150666316Y-72295177D01*
X149932982Y-73695177D02*
X150066316Y-73628511D01*
X150066316Y-73628511D02*
X150132982Y-73561844D01*
X150132982Y-73561844D02*
X150199649Y-73428511D01*
X150199649Y-73428511D02*
X150199649Y-73028511D01*
X150199649Y-73028511D02*
X150132982Y-72895177D01*
X150132982Y-72895177D02*
X150066316Y-72828511D01*
X150066316Y-72828511D02*
X149932982Y-72761844D01*
X149932982Y-72761844D02*
X149732982Y-72761844D01*
X149732982Y-72761844D02*
X149599649Y-72828511D01*
X149599649Y-72828511D02*
X149532982Y-72895177D01*
X149532982Y-72895177D02*
X149466316Y-73028511D01*
X149466316Y-73028511D02*
X149466316Y-73428511D01*
X149466316Y-73428511D02*
X149532982Y-73561844D01*
X149532982Y-73561844D02*
X149599649Y-73628511D01*
X149599649Y-73628511D02*
X149732982Y-73695177D01*
X149732982Y-73695177D02*
X149932982Y-73695177D01*
X148866315Y-73695177D02*
X148866315Y-72761844D01*
X148866315Y-73028511D02*
X148799649Y-72895177D01*
X148799649Y-72895177D02*
X148732982Y-72828511D01*
X148732982Y-72828511D02*
X148599649Y-72761844D01*
X148599649Y-72761844D02*
X148466315Y-72761844D01*
X146999648Y-73295177D02*
X146332981Y-73295177D01*
X147132981Y-73695177D02*
X146666315Y-72295177D01*
X146666315Y-72295177D02*
X146199648Y-73695177D01*
X145932981Y-72761844D02*
X145399648Y-72761844D01*
X145732981Y-72295177D02*
X145732981Y-73495177D01*
X145732981Y-73495177D02*
X145666315Y-73628511D01*
X145666315Y-73628511D02*
X145532981Y-73695177D01*
X145532981Y-73695177D02*
X145399648Y-73695177D01*
X144932981Y-73695177D02*
X144932981Y-72295177D01*
X144932981Y-72295177D02*
X144466315Y-73295177D01*
X144466315Y-73295177D02*
X143999648Y-72295177D01*
X143999648Y-72295177D02*
X143999648Y-73695177D01*
X142799648Y-73628511D02*
X142932981Y-73695177D01*
X142932981Y-73695177D02*
X143199648Y-73695177D01*
X143199648Y-73695177D02*
X143332981Y-73628511D01*
X143332981Y-73628511D02*
X143399648Y-73495177D01*
X143399648Y-73495177D02*
X143399648Y-72961844D01*
X143399648Y-72961844D02*
X143332981Y-72828511D01*
X143332981Y-72828511D02*
X143199648Y-72761844D01*
X143199648Y-72761844D02*
X142932981Y-72761844D01*
X142932981Y-72761844D02*
X142799648Y-72828511D01*
X142799648Y-72828511D02*
X142732981Y-72961844D01*
X142732981Y-72961844D02*
X142732981Y-73095177D01*
X142732981Y-73095177D02*
X143399648Y-73228511D01*
X141532981Y-72761844D02*
X141532981Y-73895177D01*
X141532981Y-73895177D02*
X141599648Y-74028511D01*
X141599648Y-74028511D02*
X141666315Y-74095177D01*
X141666315Y-74095177D02*
X141799648Y-74161844D01*
X141799648Y-74161844D02*
X141999648Y-74161844D01*
X141999648Y-74161844D02*
X142132981Y-74095177D01*
X141532981Y-73628511D02*
X141666315Y-73695177D01*
X141666315Y-73695177D02*
X141932981Y-73695177D01*
X141932981Y-73695177D02*
X142066315Y-73628511D01*
X142066315Y-73628511D02*
X142132981Y-73561844D01*
X142132981Y-73561844D02*
X142199648Y-73428511D01*
X142199648Y-73428511D02*
X142199648Y-73028511D01*
X142199648Y-73028511D02*
X142132981Y-72895177D01*
X142132981Y-72895177D02*
X142066315Y-72828511D01*
X142066315Y-72828511D02*
X141932981Y-72761844D01*
X141932981Y-72761844D02*
X141666315Y-72761844D01*
X141666315Y-72761844D02*
X141532981Y-72828511D01*
X140266314Y-73695177D02*
X140266314Y-72961844D01*
X140266314Y-72961844D02*
X140332981Y-72828511D01*
X140332981Y-72828511D02*
X140466314Y-72761844D01*
X140466314Y-72761844D02*
X140732981Y-72761844D01*
X140732981Y-72761844D02*
X140866314Y-72828511D01*
X140266314Y-73628511D02*
X140399648Y-73695177D01*
X140399648Y-73695177D02*
X140732981Y-73695177D01*
X140732981Y-73695177D02*
X140866314Y-73628511D01*
X140866314Y-73628511D02*
X140932981Y-73495177D01*
X140932981Y-73495177D02*
X140932981Y-73361844D01*
X140932981Y-73361844D02*
X140866314Y-73228511D01*
X140866314Y-73228511D02*
X140732981Y-73161844D01*
X140732981Y-73161844D02*
X140399648Y-73161844D01*
X140399648Y-73161844D02*
X140266314Y-73095177D01*
X138666314Y-72295177D02*
X137799647Y-72295177D01*
X137799647Y-72295177D02*
X138266314Y-72828511D01*
X138266314Y-72828511D02*
X138066314Y-72828511D01*
X138066314Y-72828511D02*
X137932980Y-72895177D01*
X137932980Y-72895177D02*
X137866314Y-72961844D01*
X137866314Y-72961844D02*
X137799647Y-73095177D01*
X137799647Y-73095177D02*
X137799647Y-73428511D01*
X137799647Y-73428511D02*
X137866314Y-73561844D01*
X137866314Y-73561844D02*
X137932980Y-73628511D01*
X137932980Y-73628511D02*
X138066314Y-73695177D01*
X138066314Y-73695177D02*
X138466314Y-73695177D01*
X138466314Y-73695177D02*
X138599647Y-73628511D01*
X138599647Y-73628511D02*
X138666314Y-73561844D01*
X137266314Y-72428511D02*
X137199647Y-72361844D01*
X137199647Y-72361844D02*
X137066314Y-72295177D01*
X137066314Y-72295177D02*
X136732981Y-72295177D01*
X136732981Y-72295177D02*
X136599647Y-72361844D01*
X136599647Y-72361844D02*
X136532981Y-72428511D01*
X136532981Y-72428511D02*
X136466314Y-72561844D01*
X136466314Y-72561844D02*
X136466314Y-72695177D01*
X136466314Y-72695177D02*
X136532981Y-72895177D01*
X136532981Y-72895177D02*
X137332981Y-73695177D01*
X137332981Y-73695177D02*
X136466314Y-73695177D01*
X135666314Y-72895177D02*
X135799648Y-72828511D01*
X135799648Y-72828511D02*
X135866314Y-72761844D01*
X135866314Y-72761844D02*
X135932981Y-72628511D01*
X135932981Y-72628511D02*
X135932981Y-72561844D01*
X135932981Y-72561844D02*
X135866314Y-72428511D01*
X135866314Y-72428511D02*
X135799648Y-72361844D01*
X135799648Y-72361844D02*
X135666314Y-72295177D01*
X135666314Y-72295177D02*
X135399648Y-72295177D01*
X135399648Y-72295177D02*
X135266314Y-72361844D01*
X135266314Y-72361844D02*
X135199648Y-72428511D01*
X135199648Y-72428511D02*
X135132981Y-72561844D01*
X135132981Y-72561844D02*
X135132981Y-72628511D01*
X135132981Y-72628511D02*
X135199648Y-72761844D01*
X135199648Y-72761844D02*
X135266314Y-72828511D01*
X135266314Y-72828511D02*
X135399648Y-72895177D01*
X135399648Y-72895177D02*
X135666314Y-72895177D01*
X135666314Y-72895177D02*
X135799648Y-72961844D01*
X135799648Y-72961844D02*
X135866314Y-73028511D01*
X135866314Y-73028511D02*
X135932981Y-73161844D01*
X135932981Y-73161844D02*
X135932981Y-73428511D01*
X135932981Y-73428511D02*
X135866314Y-73561844D01*
X135866314Y-73561844D02*
X135799648Y-73628511D01*
X135799648Y-73628511D02*
X135666314Y-73695177D01*
X135666314Y-73695177D02*
X135399648Y-73695177D01*
X135399648Y-73695177D02*
X135266314Y-73628511D01*
X135266314Y-73628511D02*
X135199648Y-73561844D01*
X135199648Y-73561844D02*
X135132981Y-73428511D01*
X135132981Y-73428511D02*
X135132981Y-73161844D01*
X135132981Y-73161844D02*
X135199648Y-73028511D01*
X135199648Y-73028511D02*
X135266314Y-72961844D01*
X135266314Y-72961844D02*
X135399648Y-72895177D01*
X134532981Y-73695177D02*
X134532981Y-72295177D01*
X134532981Y-72295177D02*
X133999648Y-72295177D01*
X133999648Y-72295177D02*
X133866315Y-72361844D01*
X133866315Y-72361844D02*
X133799648Y-72428511D01*
X133799648Y-72428511D02*
X133732981Y-72561844D01*
X133732981Y-72561844D02*
X133732981Y-72761844D01*
X133732981Y-72761844D02*
X133799648Y-72895177D01*
X133799648Y-72895177D02*
X133866315Y-72961844D01*
X133866315Y-72961844D02*
X133999648Y-73028511D01*
X133999648Y-73028511D02*
X134532981Y-73028511D01*
X151332982Y-77669844D02*
X150266316Y-77669844D01*
X148599649Y-76936511D02*
X148532982Y-76869844D01*
X148532982Y-76869844D02*
X148399649Y-76803177D01*
X148399649Y-76803177D02*
X148066316Y-76803177D01*
X148066316Y-76803177D02*
X147932982Y-76869844D01*
X147932982Y-76869844D02*
X147866316Y-76936511D01*
X147866316Y-76936511D02*
X147799649Y-77069844D01*
X147799649Y-77069844D02*
X147799649Y-77203177D01*
X147799649Y-77203177D02*
X147866316Y-77403177D01*
X147866316Y-77403177D02*
X148666316Y-78203177D01*
X148666316Y-78203177D02*
X147799649Y-78203177D01*
X147199649Y-78203177D02*
X147199649Y-76803177D01*
X147199649Y-76803177D02*
X146732983Y-77803177D01*
X146732983Y-77803177D02*
X146266316Y-76803177D01*
X146266316Y-76803177D02*
X146266316Y-78203177D01*
X145599649Y-78203177D02*
X145599649Y-76803177D01*
X145599649Y-77336511D02*
X145466316Y-77269844D01*
X145466316Y-77269844D02*
X145199649Y-77269844D01*
X145199649Y-77269844D02*
X145066316Y-77336511D01*
X145066316Y-77336511D02*
X144999649Y-77403177D01*
X144999649Y-77403177D02*
X144932983Y-77536511D01*
X144932983Y-77536511D02*
X144932983Y-77936511D01*
X144932983Y-77936511D02*
X144999649Y-78069844D01*
X144999649Y-78069844D02*
X145066316Y-78136511D01*
X145066316Y-78136511D02*
X145199649Y-78203177D01*
X145199649Y-78203177D02*
X145466316Y-78203177D01*
X145466316Y-78203177D02*
X145599649Y-78136511D01*
X144332982Y-78203177D02*
X144332982Y-77269844D01*
X144332982Y-76803177D02*
X144399649Y-76869844D01*
X144399649Y-76869844D02*
X144332982Y-76936511D01*
X144332982Y-76936511D02*
X144266316Y-76869844D01*
X144266316Y-76869844D02*
X144332982Y-76803177D01*
X144332982Y-76803177D02*
X144332982Y-76936511D01*
X143866315Y-77269844D02*
X143332982Y-77269844D01*
X143666315Y-76803177D02*
X143666315Y-78003177D01*
X143666315Y-78003177D02*
X143599649Y-78136511D01*
X143599649Y-78136511D02*
X143466315Y-78203177D01*
X143466315Y-78203177D02*
X143332982Y-78203177D01*
X141799648Y-77469844D02*
X141332982Y-77469844D01*
X141132982Y-78203177D02*
X141799648Y-78203177D01*
X141799648Y-78203177D02*
X141799648Y-76803177D01*
X141799648Y-76803177D02*
X141132982Y-76803177D01*
X140532981Y-77469844D02*
X140066315Y-77469844D01*
X139866315Y-78203177D02*
X140532981Y-78203177D01*
X140532981Y-78203177D02*
X140532981Y-76803177D01*
X140532981Y-76803177D02*
X139866315Y-76803177D01*
X139266314Y-78203177D02*
X139266314Y-76803177D01*
X139266314Y-76803177D02*
X138732981Y-76803177D01*
X138732981Y-76803177D02*
X138599648Y-76869844D01*
X138599648Y-76869844D02*
X138532981Y-76936511D01*
X138532981Y-76936511D02*
X138466314Y-77069844D01*
X138466314Y-77069844D02*
X138466314Y-77269844D01*
X138466314Y-77269844D02*
X138532981Y-77403177D01*
X138532981Y-77403177D02*
X138599648Y-77469844D01*
X138599648Y-77469844D02*
X138732981Y-77536511D01*
X138732981Y-77536511D02*
X139266314Y-77536511D01*
X137066314Y-78203177D02*
X137532981Y-77536511D01*
X137866314Y-78203177D02*
X137866314Y-76803177D01*
X137866314Y-76803177D02*
X137332981Y-76803177D01*
X137332981Y-76803177D02*
X137199648Y-76869844D01*
X137199648Y-76869844D02*
X137132981Y-76936511D01*
X137132981Y-76936511D02*
X137066314Y-77069844D01*
X137066314Y-77069844D02*
X137066314Y-77269844D01*
X137066314Y-77269844D02*
X137132981Y-77403177D01*
X137132981Y-77403177D02*
X137199648Y-77469844D01*
X137199648Y-77469844D02*
X137332981Y-77536511D01*
X137332981Y-77536511D02*
X137866314Y-77536511D01*
X136199648Y-76803177D02*
X135932981Y-76803177D01*
X135932981Y-76803177D02*
X135799648Y-76869844D01*
X135799648Y-76869844D02*
X135666314Y-77003177D01*
X135666314Y-77003177D02*
X135599648Y-77269844D01*
X135599648Y-77269844D02*
X135599648Y-77736511D01*
X135599648Y-77736511D02*
X135666314Y-78003177D01*
X135666314Y-78003177D02*
X135799648Y-78136511D01*
X135799648Y-78136511D02*
X135932981Y-78203177D01*
X135932981Y-78203177D02*
X136199648Y-78203177D01*
X136199648Y-78203177D02*
X136332981Y-78136511D01*
X136332981Y-78136511D02*
X136466314Y-78003177D01*
X136466314Y-78003177D02*
X136532981Y-77736511D01*
X136532981Y-77736511D02*
X136532981Y-77269844D01*
X136532981Y-77269844D02*
X136466314Y-77003177D01*
X136466314Y-77003177D02*
X136332981Y-76869844D01*
X136332981Y-76869844D02*
X136199648Y-76803177D01*
X134999647Y-78203177D02*
X134999647Y-76803177D01*
X134999647Y-76803177D02*
X134532981Y-77803177D01*
X134532981Y-77803177D02*
X134066314Y-76803177D01*
X134066314Y-76803177D02*
X134066314Y-78203177D01*
X151332982Y-79923844D02*
X150266316Y-79923844D01*
X147732982Y-80457177D02*
X148199649Y-79790511D01*
X148532982Y-80457177D02*
X148532982Y-79057177D01*
X148532982Y-79057177D02*
X147999649Y-79057177D01*
X147999649Y-79057177D02*
X147866316Y-79123844D01*
X147866316Y-79123844D02*
X147799649Y-79190511D01*
X147799649Y-79190511D02*
X147732982Y-79323844D01*
X147732982Y-79323844D02*
X147732982Y-79523844D01*
X147732982Y-79523844D02*
X147799649Y-79657177D01*
X147799649Y-79657177D02*
X147866316Y-79723844D01*
X147866316Y-79723844D02*
X147999649Y-79790511D01*
X147999649Y-79790511D02*
X148532982Y-79790511D01*
X147332982Y-79057177D02*
X146532982Y-79057177D01*
X146932982Y-80457177D02*
X146932982Y-79057177D01*
X145266315Y-80323844D02*
X145332982Y-80390511D01*
X145332982Y-80390511D02*
X145532982Y-80457177D01*
X145532982Y-80457177D02*
X145666315Y-80457177D01*
X145666315Y-80457177D02*
X145866315Y-80390511D01*
X145866315Y-80390511D02*
X145999649Y-80257177D01*
X145999649Y-80257177D02*
X146066315Y-80123844D01*
X146066315Y-80123844D02*
X146132982Y-79857177D01*
X146132982Y-79857177D02*
X146132982Y-79657177D01*
X146132982Y-79657177D02*
X146066315Y-79390511D01*
X146066315Y-79390511D02*
X145999649Y-79257177D01*
X145999649Y-79257177D02*
X145866315Y-79123844D01*
X145866315Y-79123844D02*
X145666315Y-79057177D01*
X145666315Y-79057177D02*
X145532982Y-79057177D01*
X145532982Y-79057177D02*
X145332982Y-79123844D01*
X145332982Y-79123844D02*
X145266315Y-79190511D01*
X151332982Y-82177844D02*
X150266316Y-82177844D01*
X148532982Y-82711177D02*
X148532982Y-81311177D01*
X147932982Y-81444511D02*
X147866315Y-81377844D01*
X147866315Y-81377844D02*
X147732982Y-81311177D01*
X147732982Y-81311177D02*
X147399649Y-81311177D01*
X147399649Y-81311177D02*
X147266315Y-81377844D01*
X147266315Y-81377844D02*
X147199649Y-81444511D01*
X147199649Y-81444511D02*
X147132982Y-81577844D01*
X147132982Y-81577844D02*
X147132982Y-81711177D01*
X147132982Y-81711177D02*
X147199649Y-81911177D01*
X147199649Y-81911177D02*
X147999649Y-82711177D01*
X147999649Y-82711177D02*
X147132982Y-82711177D01*
X145732982Y-82577844D02*
X145799649Y-82644511D01*
X145799649Y-82644511D02*
X145999649Y-82711177D01*
X145999649Y-82711177D02*
X146132982Y-82711177D01*
X146132982Y-82711177D02*
X146332982Y-82644511D01*
X146332982Y-82644511D02*
X146466316Y-82511177D01*
X146466316Y-82511177D02*
X146532982Y-82377844D01*
X146532982Y-82377844D02*
X146599649Y-82111177D01*
X146599649Y-82111177D02*
X146599649Y-81911177D01*
X146599649Y-81911177D02*
X146532982Y-81644511D01*
X146532982Y-81644511D02*
X146466316Y-81511177D01*
X146466316Y-81511177D02*
X146332982Y-81377844D01*
X146332982Y-81377844D02*
X146132982Y-81311177D01*
X146132982Y-81311177D02*
X145999649Y-81311177D01*
X145999649Y-81311177D02*
X145799649Y-81377844D01*
X145799649Y-81377844D02*
X145732982Y-81444511D01*
X145066316Y-82644511D02*
X145066316Y-82711177D01*
X145066316Y-82711177D02*
X145132982Y-82844511D01*
X145132982Y-82844511D02*
X145199649Y-82911177D01*
X143466315Y-82644511D02*
X143266315Y-82711177D01*
X143266315Y-82711177D02*
X142932982Y-82711177D01*
X142932982Y-82711177D02*
X142799648Y-82644511D01*
X142799648Y-82644511D02*
X142732982Y-82577844D01*
X142732982Y-82577844D02*
X142666315Y-82444511D01*
X142666315Y-82444511D02*
X142666315Y-82311177D01*
X142666315Y-82311177D02*
X142732982Y-82177844D01*
X142732982Y-82177844D02*
X142799648Y-82111177D01*
X142799648Y-82111177D02*
X142932982Y-82044511D01*
X142932982Y-82044511D02*
X143199648Y-81977844D01*
X143199648Y-81977844D02*
X143332982Y-81911177D01*
X143332982Y-81911177D02*
X143399648Y-81844511D01*
X143399648Y-81844511D02*
X143466315Y-81711177D01*
X143466315Y-81711177D02*
X143466315Y-81577844D01*
X143466315Y-81577844D02*
X143399648Y-81444511D01*
X143399648Y-81444511D02*
X143332982Y-81377844D01*
X143332982Y-81377844D02*
X143199648Y-81311177D01*
X143199648Y-81311177D02*
X142866315Y-81311177D01*
X142866315Y-81311177D02*
X142666315Y-81377844D01*
X142066315Y-82711177D02*
X142066315Y-81311177D01*
X142066315Y-81311177D02*
X141532982Y-81311177D01*
X141532982Y-81311177D02*
X141399649Y-81377844D01*
X141399649Y-81377844D02*
X141332982Y-81444511D01*
X141332982Y-81444511D02*
X141266315Y-81577844D01*
X141266315Y-81577844D02*
X141266315Y-81777844D01*
X141266315Y-81777844D02*
X141332982Y-81911177D01*
X141332982Y-81911177D02*
X141399649Y-81977844D01*
X141399649Y-81977844D02*
X141532982Y-82044511D01*
X141532982Y-82044511D02*
X142066315Y-82044511D01*
X140666315Y-82711177D02*
X140666315Y-81311177D01*
X139932982Y-82644511D02*
X139932982Y-82711177D01*
X139932982Y-82711177D02*
X139999648Y-82844511D01*
X139999648Y-82844511D02*
X140066315Y-82911177D01*
X137532981Y-81377844D02*
X137666314Y-81311177D01*
X137666314Y-81311177D02*
X137866314Y-81311177D01*
X137866314Y-81311177D02*
X138066314Y-81377844D01*
X138066314Y-81377844D02*
X138199648Y-81511177D01*
X138199648Y-81511177D02*
X138266314Y-81644511D01*
X138266314Y-81644511D02*
X138332981Y-81911177D01*
X138332981Y-81911177D02*
X138332981Y-82111177D01*
X138332981Y-82111177D02*
X138266314Y-82377844D01*
X138266314Y-82377844D02*
X138199648Y-82511177D01*
X138199648Y-82511177D02*
X138066314Y-82644511D01*
X138066314Y-82644511D02*
X137866314Y-82711177D01*
X137866314Y-82711177D02*
X137732981Y-82711177D01*
X137732981Y-82711177D02*
X137532981Y-82644511D01*
X137532981Y-82644511D02*
X137466314Y-82577844D01*
X137466314Y-82577844D02*
X137466314Y-82111177D01*
X137466314Y-82111177D02*
X137732981Y-82111177D01*
X136866314Y-82711177D02*
X136866314Y-81311177D01*
X136866314Y-81311177D02*
X136332981Y-81311177D01*
X136332981Y-81311177D02*
X136199648Y-81377844D01*
X136199648Y-81377844D02*
X136132981Y-81444511D01*
X136132981Y-81444511D02*
X136066314Y-81577844D01*
X136066314Y-81577844D02*
X136066314Y-81777844D01*
X136066314Y-81777844D02*
X136132981Y-81911177D01*
X136132981Y-81911177D02*
X136199648Y-81977844D01*
X136199648Y-81977844D02*
X136332981Y-82044511D01*
X136332981Y-82044511D02*
X136866314Y-82044511D01*
X135466314Y-82711177D02*
X135466314Y-81311177D01*
X134532981Y-81311177D02*
X134266314Y-81311177D01*
X134266314Y-81311177D02*
X134132981Y-81377844D01*
X134132981Y-81377844D02*
X133999647Y-81511177D01*
X133999647Y-81511177D02*
X133932981Y-81777844D01*
X133932981Y-81777844D02*
X133932981Y-82244511D01*
X133932981Y-82244511D02*
X133999647Y-82511177D01*
X133999647Y-82511177D02*
X134132981Y-82644511D01*
X134132981Y-82644511D02*
X134266314Y-82711177D01*
X134266314Y-82711177D02*
X134532981Y-82711177D01*
X134532981Y-82711177D02*
X134666314Y-82644511D01*
X134666314Y-82644511D02*
X134799647Y-82511177D01*
X134799647Y-82511177D02*
X134866314Y-82244511D01*
X134866314Y-82244511D02*
X134866314Y-81777844D01*
X134866314Y-81777844D02*
X134799647Y-81511177D01*
X134799647Y-81511177D02*
X134666314Y-81377844D01*
X134666314Y-81377844D02*
X134532981Y-81311177D01*
X133399647Y-82644511D02*
X133266314Y-82711177D01*
X133266314Y-82711177D02*
X132999647Y-82711177D01*
X132999647Y-82711177D02*
X132866314Y-82644511D01*
X132866314Y-82644511D02*
X132799647Y-82511177D01*
X132799647Y-82511177D02*
X132799647Y-82444511D01*
X132799647Y-82444511D02*
X132866314Y-82311177D01*
X132866314Y-82311177D02*
X132999647Y-82244511D01*
X132999647Y-82244511D02*
X133199647Y-82244511D01*
X133199647Y-82244511D02*
X133332980Y-82177844D01*
X133332980Y-82177844D02*
X133399647Y-82044511D01*
X133399647Y-82044511D02*
X133399647Y-81977844D01*
X133399647Y-81977844D02*
X133332980Y-81844511D01*
X133332980Y-81844511D02*
X133199647Y-81777844D01*
X133199647Y-81777844D02*
X132999647Y-81777844D01*
X132999647Y-81777844D02*
X132866314Y-81844511D01*
%TO.C,Majed*%
G36*
X166650662Y-69090836D02*
G01*
X166949483Y-69408484D01*
X167475518Y-70090508D01*
X167484136Y-70101681D01*
X167895582Y-70815321D01*
X167917668Y-70853629D01*
X168248218Y-71660829D01*
X168473924Y-72519782D01*
X168500832Y-72712733D01*
X168519688Y-72847949D01*
X168548286Y-73263418D01*
X168557951Y-73718541D01*
X168548691Y-74174647D01*
X168520515Y-74593069D01*
X168473430Y-74935137D01*
X168472765Y-74938553D01*
X168414980Y-75158183D01*
X168250139Y-75784711D01*
X167923549Y-76586358D01*
X167499231Y-77333995D01*
X166983416Y-78018122D01*
X166382341Y-78629241D01*
X165702237Y-79157852D01*
X165586652Y-79233907D01*
X165270817Y-79425170D01*
X164953428Y-79596800D01*
X164658889Y-79736867D01*
X164411605Y-79833443D01*
X164235980Y-79874598D01*
X164066109Y-79886812D01*
X164066109Y-79417528D01*
X164066109Y-78948244D01*
X164286086Y-78893903D01*
X164312728Y-78886976D01*
X164459993Y-78822308D01*
X164506063Y-78732587D01*
X164497570Y-78684852D01*
X164448303Y-78647209D01*
X164332469Y-78629828D01*
X164124770Y-78625612D01*
X163743476Y-78625612D01*
X163743476Y-79293025D01*
X163743404Y-79393154D01*
X163738439Y-79680332D01*
X163716272Y-79877310D01*
X163663951Y-80005247D01*
X163568521Y-80085300D01*
X163417028Y-80138628D01*
X163196519Y-80186387D01*
X162928943Y-80238232D01*
X162737104Y-80257960D01*
X162620091Y-80225402D01*
X162557105Y-80124374D01*
X162527349Y-79938691D01*
X162510027Y-79652170D01*
X162488601Y-79341779D01*
X162456437Y-79116947D01*
X162404893Y-78953931D01*
X162325109Y-78824829D01*
X162208224Y-78701737D01*
X162205355Y-78699063D01*
X161919292Y-78503496D01*
X161610872Y-78421155D01*
X161291705Y-78452996D01*
X160973403Y-78599976D01*
X160931504Y-78628464D01*
X160759261Y-78785543D01*
X160642288Y-78984254D01*
X160569805Y-79249072D01*
X160531035Y-79604472D01*
X160507642Y-79863423D01*
X160473652Y-80034269D01*
X160431163Y-80092124D01*
X160422628Y-80091464D01*
X160319819Y-80067350D01*
X160144932Y-80015504D01*
X159930495Y-79945457D01*
X159468128Y-79768340D01*
X158701070Y-79379078D01*
X157996038Y-78896534D01*
X157360629Y-78328859D01*
X156802440Y-77684210D01*
X156600412Y-77379710D01*
X158913160Y-77379710D01*
X158936420Y-77547725D01*
X158990263Y-77627356D01*
X159134024Y-77672378D01*
X159216049Y-77665183D01*
X159272629Y-77613329D01*
X159285278Y-77480675D01*
X159258881Y-77333403D01*
X159168442Y-77243746D01*
X159025841Y-77253466D01*
X158988168Y-77271853D01*
X158913160Y-77379710D01*
X156600412Y-77379710D01*
X156382703Y-77051574D01*
X161112620Y-77051574D01*
X161112639Y-77301483D01*
X161118608Y-77480675D01*
X161119245Y-77499800D01*
X161131717Y-77613718D01*
X161171083Y-77693997D01*
X161282658Y-77745704D01*
X161322790Y-77742368D01*
X161358684Y-77718222D01*
X161377297Y-77662177D01*
X161829810Y-77662177D01*
X161899475Y-77808568D01*
X162040450Y-77904275D01*
X162183246Y-77904881D01*
X162292232Y-77817402D01*
X162335624Y-77653164D01*
X162300626Y-77518319D01*
X162185337Y-77422585D01*
X162017663Y-77416657D01*
X161984687Y-77426876D01*
X161861955Y-77522540D01*
X161829810Y-77662177D01*
X161377297Y-77662177D01*
X161380048Y-77653894D01*
X161389607Y-77530114D01*
X161390082Y-77327610D01*
X161384196Y-77027113D01*
X161378813Y-76812672D01*
X161369595Y-76579946D01*
X161364714Y-76528026D01*
X161948122Y-76528026D01*
X161958834Y-76777806D01*
X161973387Y-76900521D01*
X162012399Y-77102247D01*
X162060484Y-77193686D01*
X162119558Y-77179630D01*
X162122098Y-77176707D01*
X162147185Y-77085970D01*
X162158941Y-76922867D01*
X162158455Y-76725280D01*
X162151611Y-76611106D01*
X163156871Y-76611106D01*
X163162775Y-76873215D01*
X163167679Y-76922867D01*
X163190336Y-77152261D01*
X163239625Y-77323328D01*
X163242619Y-77327610D01*
X163373961Y-77515430D01*
X163526530Y-77653164D01*
X163602397Y-77721654D01*
X163854886Y-77855043D01*
X163933588Y-77880018D01*
X164102466Y-77913628D01*
X164261937Y-77899399D01*
X164469412Y-77835507D01*
X164654644Y-77760528D01*
X164751269Y-77684855D01*
X164763969Y-77586851D01*
X164708145Y-77441072D01*
X164703738Y-77431805D01*
X164647059Y-77290514D01*
X164647468Y-77217688D01*
X164865347Y-77217688D01*
X164894638Y-77321516D01*
X164965371Y-77400505D01*
X165090102Y-77437325D01*
X165207281Y-77367674D01*
X165250383Y-77286805D01*
X165239777Y-77169819D01*
X165189532Y-77115349D01*
X166214539Y-77115349D01*
X166215535Y-77286805D01*
X166216000Y-77366833D01*
X166222173Y-77540907D01*
X166234042Y-77651701D01*
X166252591Y-77713345D01*
X166278802Y-77739969D01*
X166313660Y-77745704D01*
X166375247Y-77740079D01*
X166461413Y-77706597D01*
X166461491Y-77706517D01*
X166473796Y-77637488D01*
X166484506Y-77470285D01*
X166492966Y-77223934D01*
X166498523Y-76917463D01*
X166500520Y-76569900D01*
X166500819Y-76303824D01*
X166504148Y-75966207D01*
X166514201Y-75720668D01*
X166534648Y-75551707D01*
X166569162Y-75443819D01*
X166621415Y-75381504D01*
X166695078Y-75349258D01*
X166793823Y-75331579D01*
X166897083Y-75293877D01*
X166959601Y-75176392D01*
X166962049Y-75158183D01*
X166960408Y-75093083D01*
X166917685Y-75060495D01*
X166808542Y-75051973D01*
X166607638Y-75059071D01*
X166236548Y-75076651D01*
X166220781Y-76411177D01*
X166219722Y-76507485D01*
X166216808Y-76772325D01*
X166214539Y-77115349D01*
X165189532Y-77115349D01*
X165162276Y-77085801D01*
X165048182Y-77061296D01*
X164927797Y-77122848D01*
X164865347Y-77217688D01*
X164647468Y-77217688D01*
X164647649Y-77185495D01*
X164705000Y-77054106D01*
X164762581Y-76907394D01*
X164794772Y-76703190D01*
X164777743Y-76520211D01*
X164715400Y-76388438D01*
X164611652Y-76337852D01*
X164590128Y-76377606D01*
X164571779Y-76506053D01*
X164564723Y-76692481D01*
X164563859Y-76780450D01*
X164548541Y-76964030D01*
X164504821Y-77087107D01*
X164420738Y-77191095D01*
X164411024Y-77200589D01*
X164226046Y-77313065D01*
X164034157Y-77319192D01*
X163860797Y-77217759D01*
X163825903Y-77178304D01*
X163783300Y-77097774D01*
X163758268Y-76978120D01*
X163746447Y-76793307D01*
X163743476Y-76517295D01*
X163741293Y-76353274D01*
X163730214Y-76129758D01*
X163711882Y-75969808D01*
X163688682Y-75900288D01*
X163666103Y-75894768D01*
X163552816Y-75910597D01*
X163395380Y-75961856D01*
X163156871Y-76057288D01*
X163156871Y-76611106D01*
X162151611Y-76611106D01*
X162146815Y-76531095D01*
X162125108Y-76378196D01*
X162094424Y-76304468D01*
X162033038Y-76290777D01*
X161973918Y-76361977D01*
X161948122Y-76528026D01*
X161364714Y-76528026D01*
X161355722Y-76432380D01*
X161333617Y-76350762D01*
X161299704Y-76315880D01*
X161250405Y-76308521D01*
X161247748Y-76308531D01*
X161194893Y-76318247D01*
X161160138Y-76360594D01*
X161138628Y-76456742D01*
X161125512Y-76627863D01*
X161115934Y-76895127D01*
X161112620Y-77051574D01*
X156382703Y-77051574D01*
X156329071Y-76970739D01*
X156124260Y-76554542D01*
X158998700Y-76554542D01*
X159003857Y-76681123D01*
X159019400Y-76800720D01*
X159060773Y-76926005D01*
X159109821Y-76976003D01*
X159150798Y-76938993D01*
X159167957Y-76803255D01*
X159168041Y-76793416D01*
X159184932Y-76686549D01*
X159242849Y-76578302D01*
X159358664Y-76444718D01*
X159549250Y-76261840D01*
X159569493Y-76243074D01*
X159776753Y-76036038D01*
X159899357Y-75881437D01*
X159933824Y-75784699D01*
X159876677Y-75751247D01*
X159854575Y-75759419D01*
X159752608Y-75823488D01*
X159594760Y-75937375D01*
X159404610Y-76084438D01*
X159355784Y-76123362D01*
X159176185Y-76270018D01*
X159068028Y-76374056D01*
X159014478Y-76460542D01*
X158998700Y-76554542D01*
X156124260Y-76554542D01*
X155948117Y-76196602D01*
X155667179Y-75369953D01*
X155639097Y-75263782D01*
X155588797Y-75055077D01*
X155553408Y-74863202D01*
X155530352Y-74661329D01*
X155517053Y-74422632D01*
X155510934Y-74120284D01*
X155509418Y-73727459D01*
X155509719Y-73503400D01*
X155513098Y-73165026D01*
X155522350Y-72902941D01*
X155531869Y-72788891D01*
X156410913Y-72788891D01*
X156411370Y-73053074D01*
X156415273Y-73436694D01*
X156424890Y-73722616D01*
X156442285Y-73923371D01*
X156469520Y-74051488D01*
X156508657Y-74119498D01*
X156561760Y-74139932D01*
X156630890Y-74125318D01*
X156642114Y-74116939D01*
X156666420Y-74052242D01*
X156684052Y-73916460D01*
X156685942Y-73881140D01*
X157818765Y-73881140D01*
X157819611Y-73894226D01*
X157879215Y-74025848D01*
X158021594Y-74203389D01*
X158230977Y-74414066D01*
X158491592Y-74645097D01*
X158787669Y-74883698D01*
X159103437Y-75117086D01*
X159423123Y-75332478D01*
X159730957Y-75517092D01*
X160011168Y-75658143D01*
X160122054Y-75705886D01*
X160331031Y-75784699D01*
X160341799Y-75788760D01*
X160463361Y-75810426D01*
X160489013Y-75769390D01*
X160421027Y-75664155D01*
X160261677Y-75493225D01*
X160150180Y-75374846D01*
X159841669Y-74945206D01*
X159637805Y-74479184D01*
X159538841Y-73990121D01*
X159541735Y-73756789D01*
X159725231Y-73756789D01*
X159726886Y-73979925D01*
X159737476Y-74210372D01*
X159763023Y-74384903D01*
X159809391Y-74539001D01*
X159882445Y-74708149D01*
X159926527Y-74796653D01*
X160203441Y-75206995D01*
X160561660Y-75558175D01*
X160891078Y-75769390D01*
X160974305Y-75822753D01*
X161008333Y-75839374D01*
X161211985Y-75929055D01*
X161396446Y-75983695D01*
X161607192Y-76013529D01*
X161889702Y-76028795D01*
X162253189Y-76024276D01*
X162632361Y-75963690D01*
X162975588Y-75832200D01*
X163321244Y-75618815D01*
X163658859Y-75323566D01*
X163944137Y-74945435D01*
X164137329Y-74528622D01*
X164240835Y-74087772D01*
X164257054Y-73637527D01*
X164188388Y-73192531D01*
X164037236Y-72767428D01*
X163805998Y-72376861D01*
X163497075Y-72035473D01*
X163112866Y-71757908D01*
X163014413Y-71715024D01*
X163451033Y-71715024D01*
X163462717Y-71768757D01*
X163545717Y-71877670D01*
X163707623Y-72053803D01*
X163797144Y-72152113D01*
X164107629Y-72589770D01*
X164313643Y-73058848D01*
X164414940Y-73545711D01*
X164414254Y-73637527D01*
X164411274Y-74036725D01*
X164302400Y-74518253D01*
X164088069Y-74976661D01*
X163768037Y-75398314D01*
X163760003Y-75406941D01*
X163630595Y-75558386D01*
X163549759Y-75676902D01*
X163534698Y-75737485D01*
X163570235Y-75737937D01*
X163692800Y-75697044D01*
X163722895Y-75683758D01*
X164140005Y-75683758D01*
X164161412Y-75754739D01*
X164280313Y-75882577D01*
X164493801Y-76064096D01*
X164674954Y-76214272D01*
X164819716Y-76355927D01*
X164902048Y-76476250D01*
X164941548Y-76598637D01*
X164967533Y-76702059D01*
X164968178Y-76703190D01*
X165025731Y-76804047D01*
X165085635Y-76801324D01*
X165132437Y-76700326D01*
X165151328Y-76507485D01*
X165151238Y-76490045D01*
X165139364Y-76371286D01*
X165093004Y-76274263D01*
X164991459Y-76169530D01*
X164814030Y-76027641D01*
X164690840Y-75934457D01*
X164467006Y-75775782D01*
X164310291Y-75685360D01*
X164206807Y-75656011D01*
X164142666Y-75680555D01*
X164140005Y-75683758D01*
X163722895Y-75683758D01*
X163877637Y-75615443D01*
X164100846Y-75503033D01*
X164112793Y-75496692D01*
X164367960Y-75365052D01*
X164530006Y-75291628D01*
X164606346Y-75274708D01*
X164604389Y-75312580D01*
X164531549Y-75403531D01*
X164499097Y-75443291D01*
X164482085Y-75506572D01*
X164527989Y-75586334D01*
X164648637Y-75713929D01*
X164711047Y-75774901D01*
X164906573Y-75940572D01*
X165044744Y-76011272D01*
X165122422Y-75985203D01*
X165129218Y-75968617D01*
X165132425Y-75848024D01*
X165105501Y-75670854D01*
X165058331Y-75479181D01*
X165000800Y-75315080D01*
X164942794Y-75220627D01*
X164883210Y-75160103D01*
X164871958Y-75078126D01*
X164975347Y-75017990D01*
X165043993Y-74982677D01*
X165092668Y-74909687D01*
X165102407Y-74884139D01*
X165176380Y-74782574D01*
X165307219Y-74633430D01*
X165475945Y-74459021D01*
X165686900Y-74244227D01*
X165911737Y-73991570D01*
X166051696Y-73795170D01*
X166112242Y-73646955D01*
X166098838Y-73538854D01*
X166089655Y-73523313D01*
X165990965Y-73400324D01*
X165826131Y-73227676D01*
X165616776Y-73025236D01*
X165384524Y-72812871D01*
X165150999Y-72610448D01*
X164937827Y-72437834D01*
X164922440Y-72426785D01*
X165620612Y-72426785D01*
X165620620Y-72440981D01*
X165626725Y-72648380D01*
X165656609Y-72790320D01*
X165728458Y-72915891D01*
X165860457Y-73074181D01*
X165978652Y-73197542D01*
X166090392Y-73290557D01*
X166153760Y-73313620D01*
X166170184Y-73273832D01*
X166189310Y-73136194D01*
X166202379Y-72926337D01*
X166207218Y-72670393D01*
X166209294Y-72398431D01*
X166218683Y-72208884D01*
X166239874Y-72086395D01*
X166277351Y-72005466D01*
X166335600Y-71940599D01*
X166340994Y-71935649D01*
X166526922Y-71836018D01*
X166724109Y-71843356D01*
X166900918Y-71956759D01*
X166927483Y-71986567D01*
X166973202Y-72056658D01*
X167002648Y-72150357D01*
X167019332Y-72291088D01*
X167026767Y-72502274D01*
X167028465Y-72807337D01*
X167028224Y-72947103D01*
X167024535Y-73210236D01*
X167013707Y-73388687D01*
X166992329Y-73505494D01*
X166956993Y-73583693D01*
X166904287Y-73646325D01*
X166903538Y-73646955D01*
X166835273Y-73704382D01*
X166712053Y-73747870D01*
X166528260Y-73742114D01*
X166500722Y-73739121D01*
X166344114Y-73734920D01*
X166244043Y-73777357D01*
X166149091Y-73885934D01*
X166129322Y-73913697D01*
X166056887Y-74074947D01*
X166092749Y-74196018D01*
X166238863Y-74285614D01*
X166371078Y-74324008D01*
X166684649Y-74337247D01*
X166993338Y-74257735D01*
X167265135Y-74096444D01*
X167468027Y-73864345D01*
X167485988Y-73829219D01*
X167542764Y-73636196D01*
X167584443Y-73365455D01*
X167610032Y-73047475D01*
X167618538Y-72712733D01*
X167608968Y-72391708D01*
X167580328Y-72114879D01*
X167531625Y-71912723D01*
X167525006Y-71895798D01*
X167356859Y-71610982D01*
X167124810Y-71404840D01*
X166850514Y-71283359D01*
X166555626Y-71252525D01*
X166261800Y-71318324D01*
X165990693Y-71486744D01*
X165883047Y-71591281D01*
X165729012Y-71814151D01*
X165645653Y-72082190D01*
X165620612Y-72426785D01*
X164922440Y-72426785D01*
X164766630Y-72314898D01*
X164573088Y-72197545D01*
X164310933Y-72052952D01*
X164045169Y-71918818D01*
X163801862Y-71807593D01*
X163607081Y-71731727D01*
X163486895Y-71703672D01*
X163451033Y-71715024D01*
X163014413Y-71715024D01*
X162889585Y-71660652D01*
X164002662Y-71660652D01*
X164021267Y-71727267D01*
X164032233Y-71737334D01*
X164095874Y-71758057D01*
X164189562Y-71717447D01*
X164340246Y-71605189D01*
X164595982Y-71392611D01*
X164782618Y-71217203D01*
X164898873Y-71073941D01*
X164958524Y-70945691D01*
X164975347Y-70815321D01*
X164968117Y-70710964D01*
X164927879Y-70584642D01*
X164864921Y-70540598D01*
X164793705Y-70596272D01*
X164761329Y-70681084D01*
X164741603Y-70829265D01*
X164739999Y-70854807D01*
X164738816Y-70857892D01*
X164698260Y-70963619D01*
X164587893Y-71092193D01*
X164409739Y-71245848D01*
X164392728Y-71260520D01*
X164202225Y-71420063D01*
X164060221Y-71561719D01*
X164002662Y-71660652D01*
X162889585Y-71660652D01*
X162655773Y-71558809D01*
X162330099Y-71487644D01*
X161863341Y-71470968D01*
X161396492Y-71540304D01*
X160971208Y-71692350D01*
X160878182Y-71741194D01*
X160478672Y-72024886D01*
X160137612Y-72388983D01*
X159882445Y-72805429D01*
X159826392Y-72931505D01*
X159773339Y-73086185D01*
X159742703Y-73251637D01*
X159728622Y-73463344D01*
X159725231Y-73756789D01*
X159541735Y-73756789D01*
X159545028Y-73491359D01*
X159656619Y-72996240D01*
X159873866Y-72518106D01*
X160197020Y-72070300D01*
X160212242Y-72052857D01*
X160331457Y-71905824D01*
X160399817Y-71801798D01*
X160402912Y-71762332D01*
X160390324Y-71763185D01*
X160261830Y-71804396D01*
X160192266Y-71837372D01*
X160064520Y-71897928D01*
X159821687Y-72030529D01*
X159556622Y-72188950D01*
X159292621Y-72359941D01*
X159052974Y-72530250D01*
X158833731Y-72708248D01*
X158592385Y-72928026D01*
X158357903Y-73162177D01*
X158146792Y-73392632D01*
X157975560Y-73601324D01*
X157860715Y-73770182D01*
X157818765Y-73881140D01*
X156685942Y-73881140D01*
X156695741Y-73698050D01*
X156702218Y-73385467D01*
X156704215Y-72967167D01*
X156704757Y-72605460D01*
X156708965Y-72284319D01*
X156720690Y-72052151D01*
X156727310Y-72006751D01*
X158640012Y-72006751D01*
X158640407Y-72064682D01*
X158648944Y-72269081D01*
X158666344Y-72412289D01*
X158689581Y-72466258D01*
X158726375Y-72458514D01*
X158822617Y-72368757D01*
X158901551Y-72201408D01*
X158947630Y-71985434D01*
X158956864Y-71807446D01*
X158928030Y-71687135D01*
X158848079Y-71588939D01*
X158846306Y-71587280D01*
X158744720Y-71514774D01*
X158679656Y-71507600D01*
X158675230Y-71514892D01*
X158667324Y-71557020D01*
X158657325Y-71610303D01*
X158644756Y-71784713D01*
X158640012Y-72006751D01*
X156727310Y-72006751D01*
X156743784Y-71893765D01*
X156782096Y-71793968D01*
X156839478Y-71737569D01*
X156919778Y-71709376D01*
X157026848Y-71694197D01*
X157046601Y-71691714D01*
X157167901Y-71649197D01*
X157202830Y-71557020D01*
X157200924Y-71526493D01*
X157168410Y-71469419D01*
X157074043Y-71438518D01*
X156890100Y-71421803D01*
X156785922Y-71419330D01*
X156602932Y-71434702D01*
X156494142Y-71472982D01*
X156488009Y-71478793D01*
X156460789Y-71531320D01*
X156440489Y-71631643D01*
X156426231Y-71793663D01*
X156417135Y-72031277D01*
X156412322Y-72358387D01*
X156410913Y-72788891D01*
X155531869Y-72788891D01*
X155540080Y-72690518D01*
X155568895Y-72501131D01*
X155611403Y-72308156D01*
X155670208Y-72084965D01*
X155744400Y-71836319D01*
X155990134Y-71183936D01*
X156173179Y-70805992D01*
X158825463Y-70805992D01*
X158827445Y-70982970D01*
X158838470Y-71103513D01*
X158867482Y-71210052D01*
X158932355Y-71305147D01*
X159052522Y-71415940D01*
X159247418Y-71569575D01*
X159319917Y-71624485D01*
X159504080Y-71754903D01*
X159588634Y-71807446D01*
X159650081Y-71845630D01*
X159731367Y-71879653D01*
X159756685Y-71878273D01*
X159814313Y-71837372D01*
X159776633Y-71744738D01*
X159648172Y-71607183D01*
X159433459Y-71431518D01*
X159317057Y-71340291D01*
X161181973Y-71340291D01*
X161279735Y-71346687D01*
X161387832Y-71336723D01*
X161514377Y-71293048D01*
X161530386Y-71282438D01*
X161561807Y-71245848D01*
X161485047Y-71239409D01*
X161404894Y-71248836D01*
X161250405Y-71293048D01*
X161194011Y-71318765D01*
X161181973Y-71340291D01*
X159317057Y-71340291D01*
X159254060Y-71290919D01*
X159123380Y-71165701D01*
X159051111Y-71053026D01*
X159015338Y-70926420D01*
X159011726Y-70907061D01*
X158961465Y-70760835D01*
X158893273Y-70706443D01*
X158852839Y-70721861D01*
X158825463Y-70805992D01*
X156173179Y-70805992D01*
X156297679Y-70548930D01*
X156644161Y-69980722D01*
X156694905Y-69909559D01*
X156856105Y-69701337D01*
X157045448Y-69475078D01*
X157246000Y-69249032D01*
X157440822Y-69041450D01*
X157612980Y-68870581D01*
X157745536Y-68754676D01*
X157821554Y-68711986D01*
X157839100Y-68741163D01*
X157859153Y-68867826D01*
X157872548Y-69075607D01*
X157877425Y-69343501D01*
X157877439Y-69359759D01*
X157889109Y-69729379D01*
X157927997Y-70006939D01*
X158002109Y-70215292D01*
X158119448Y-70377293D01*
X158288019Y-70515796D01*
X158447393Y-70611790D01*
X158561105Y-70650061D01*
X158600937Y-70618063D01*
X158556853Y-70515796D01*
X158549382Y-70504067D01*
X158517689Y-70443399D01*
X158493822Y-70366135D01*
X158486443Y-70319295D01*
X158636940Y-70319295D01*
X158710405Y-70460069D01*
X158785428Y-70511522D01*
X158932526Y-70515484D01*
X159080181Y-70412902D01*
X159136907Y-70310952D01*
X159134259Y-70166408D01*
X159055617Y-70050192D01*
X158916974Y-70002517D01*
X158906317Y-70002698D01*
X158751368Y-70054124D01*
X158656086Y-70171818D01*
X158636940Y-70319295D01*
X158486443Y-70319295D01*
X158476391Y-70255489D01*
X158464007Y-70094673D01*
X158455280Y-69866900D01*
X158448820Y-69555381D01*
X158443238Y-69143330D01*
X158442540Y-69080773D01*
X158442009Y-68791460D01*
X158449304Y-68592389D01*
X158467255Y-68460640D01*
X158498693Y-68373290D01*
X158546448Y-68307418D01*
X158624550Y-68241474D01*
X158810382Y-68181793D01*
X159004020Y-68216419D01*
X159167278Y-68343153D01*
X159208205Y-68399928D01*
X159241554Y-68468682D01*
X159263747Y-68561445D01*
X159276441Y-68696872D01*
X159281293Y-68893619D01*
X159279960Y-69170341D01*
X159274100Y-69545694D01*
X159270335Y-69849384D01*
X159270176Y-70145101D01*
X159272837Y-70310952D01*
X159273935Y-70379371D01*
X159281296Y-70533582D01*
X159291940Y-70589122D01*
X159295278Y-70588741D01*
X159368330Y-70549864D01*
X159483851Y-70466621D01*
X159522179Y-70435608D01*
X159632315Y-70328071D01*
X159711014Y-70205015D01*
X159763365Y-70046108D01*
X159794456Y-69831023D01*
X159809379Y-69539429D01*
X159813222Y-69150996D01*
X159813216Y-69147373D01*
X160605139Y-69147373D01*
X160605346Y-69351104D01*
X160607817Y-69651884D01*
X160615102Y-69866985D01*
X160629685Y-70017000D01*
X160654050Y-70122525D01*
X160690682Y-70204154D01*
X160742065Y-70282482D01*
X160764611Y-70311899D01*
X160923637Y-70467164D01*
X161106357Y-70590450D01*
X161185547Y-70628762D01*
X161402699Y-70700908D01*
X161533933Y-70685494D01*
X161766538Y-70685494D01*
X161781919Y-70920010D01*
X161793887Y-71002794D01*
X161840412Y-71176541D01*
X161902429Y-71234388D01*
X161908175Y-71234089D01*
X161952775Y-71194457D01*
X161976605Y-71075229D01*
X161983661Y-70857892D01*
X161982664Y-70753232D01*
X161965935Y-70495092D01*
X161927607Y-70344632D01*
X161866423Y-70295819D01*
X161813710Y-70345621D01*
X161778390Y-70484759D01*
X161766538Y-70685494D01*
X161533933Y-70685494D01*
X161545563Y-70684128D01*
X161617384Y-70577086D01*
X161621407Y-70378447D01*
X161578900Y-70255688D01*
X161426386Y-70119679D01*
X161351290Y-70074558D01*
X161241349Y-69978907D01*
X161169256Y-69852360D01*
X161160817Y-69815165D01*
X161672460Y-69815165D01*
X161694695Y-69951960D01*
X161766423Y-70025557D01*
X161892755Y-70062050D01*
X162003214Y-70022070D01*
X162014153Y-70009630D01*
X162047707Y-69888848D01*
X162009571Y-69758240D01*
X161914805Y-69676648D01*
X161856730Y-69666673D01*
X161736059Y-69708077D01*
X161672460Y-69815165D01*
X161160817Y-69815165D01*
X161128668Y-69673478D01*
X161113240Y-69420820D01*
X161116627Y-69072947D01*
X161119842Y-68957736D01*
X161130044Y-68702485D01*
X161145625Y-68532400D01*
X161171338Y-68423737D01*
X161211935Y-68352750D01*
X161272167Y-68295695D01*
X161302064Y-68273053D01*
X161502156Y-68189992D01*
X161697870Y-68212499D01*
X161862082Y-68338603D01*
X161909564Y-68408791D01*
X161955166Y-68528862D01*
X161977647Y-68698698D01*
X161983661Y-68951872D01*
X161983802Y-69013885D01*
X161989936Y-69231402D01*
X162011033Y-69372313D01*
X162055142Y-69469847D01*
X162130312Y-69557230D01*
X162244020Y-69715312D01*
X162264847Y-69888848D01*
X162266487Y-69902515D01*
X162180188Y-70118913D01*
X162169202Y-70138397D01*
X162118699Y-70279106D01*
X162120256Y-70389555D01*
X162167034Y-70442165D01*
X162252195Y-70409354D01*
X162323002Y-70342155D01*
X162403948Y-70224333D01*
X162456702Y-70078157D01*
X164589950Y-70078157D01*
X164649897Y-70211762D01*
X164675953Y-70247033D01*
X164807495Y-70338851D01*
X164943360Y-70337190D01*
X165049700Y-70251319D01*
X165092668Y-70090508D01*
X165078611Y-70003045D01*
X164994111Y-69883523D01*
X164865032Y-69826998D01*
X164728410Y-69844683D01*
X164621279Y-69947790D01*
X164615731Y-69958471D01*
X164589950Y-70078157D01*
X162456702Y-70078157D01*
X162460762Y-70066906D01*
X162497756Y-69850494D01*
X162519243Y-69555720D01*
X162529535Y-69163205D01*
X162531149Y-69009083D01*
X162527480Y-68660200D01*
X162507057Y-68398967D01*
X162463619Y-68203881D01*
X162390901Y-68053442D01*
X162282639Y-67926146D01*
X162132570Y-67800493D01*
X161895128Y-67670931D01*
X161590772Y-67612892D01*
X161282215Y-67650067D01*
X160997693Y-67778458D01*
X160765446Y-67994065D01*
X160711073Y-68067683D01*
X160666715Y-68144089D01*
X160636875Y-68234311D01*
X160618674Y-68359049D01*
X160609236Y-68539005D01*
X160605684Y-68794879D01*
X160605139Y-69147373D01*
X159813216Y-69147373D01*
X159812967Y-69005960D01*
X159808104Y-68676385D01*
X159793300Y-68433593D01*
X159763685Y-68255197D01*
X159714389Y-68118809D01*
X159640541Y-68002042D01*
X159537272Y-67882508D01*
X159461634Y-67794385D01*
X159440950Y-67730987D01*
X159489540Y-67677126D01*
X159621427Y-67617298D01*
X159850632Y-67535996D01*
X159891342Y-67522392D01*
X159988143Y-67494568D01*
X160096384Y-67472349D01*
X160229302Y-67455112D01*
X160400130Y-67442234D01*
X160622104Y-67433094D01*
X160908457Y-67427068D01*
X161272426Y-67423534D01*
X161727244Y-67421871D01*
X162286147Y-67421455D01*
X162787793Y-67421854D01*
X163251342Y-67423529D01*
X163617994Y-67426933D01*
X163898565Y-67432517D01*
X164103870Y-67440729D01*
X164244725Y-67452020D01*
X164331945Y-67466840D01*
X164376345Y-67485637D01*
X164388742Y-67508861D01*
X164437632Y-67575657D01*
X164574899Y-67669144D01*
X164778198Y-67772856D01*
X165191573Y-67986037D01*
X165706154Y-68312173D01*
X166205661Y-68689691D01*
X166559971Y-69009083D01*
X166650662Y-69090836D01*
G37*
G36*
X162739506Y-72350255D02*
G01*
X162975921Y-72449335D01*
X163159684Y-72586591D01*
X163168640Y-72596269D01*
X163252455Y-72702175D01*
X163312574Y-72822121D01*
X163352767Y-72976743D01*
X163376807Y-73186677D01*
X163388465Y-73472559D01*
X163391513Y-73855026D01*
X163391338Y-73928211D01*
X163379167Y-74327523D01*
X163338455Y-74627751D01*
X163256084Y-74843985D01*
X163118935Y-74991315D01*
X162913889Y-75084830D01*
X162627828Y-75139621D01*
X162247633Y-75170777D01*
X162225459Y-75172016D01*
X161804174Y-75188864D01*
X161480139Y-75185579D01*
X161235539Y-75160376D01*
X161052560Y-75111470D01*
X160913386Y-75037077D01*
X160881340Y-75013624D01*
X160769572Y-74913697D01*
X160688423Y-74795133D01*
X160632573Y-74638209D01*
X160596704Y-74423203D01*
X160575499Y-74130390D01*
X160563638Y-73740048D01*
X160560204Y-73513639D01*
X160564056Y-73186136D01*
X160586368Y-72945065D01*
X160633660Y-72770755D01*
X160712451Y-72643536D01*
X160829258Y-72543736D01*
X160990602Y-72451684D01*
X161144927Y-72393270D01*
X161333596Y-72356625D01*
X161509594Y-72349973D01*
X161639617Y-72374315D01*
X161690358Y-72430652D01*
X161663766Y-72500831D01*
X161535701Y-72563030D01*
X161299755Y-72583579D01*
X161276173Y-72583990D01*
X161091130Y-72628364D01*
X160916660Y-72761648D01*
X160738591Y-72939717D01*
X160760795Y-73748224D01*
X160771047Y-74041701D01*
X160798533Y-74387997D01*
X160853704Y-74640036D01*
X160951167Y-74811570D01*
X161105528Y-74916348D01*
X161331393Y-74968124D01*
X161643368Y-74980648D01*
X162056060Y-74967671D01*
X162245113Y-74958213D01*
X162597824Y-74928285D01*
X162854791Y-74874132D01*
X163029700Y-74780370D01*
X163136236Y-74631616D01*
X163188087Y-74412486D01*
X163198938Y-74107596D01*
X163182475Y-73701563D01*
X163161290Y-73409847D01*
X163131681Y-73139324D01*
X163098044Y-72930762D01*
X163064061Y-72811819D01*
X162972530Y-72693897D01*
X162759081Y-72572863D01*
X162457463Y-72512361D01*
X162332864Y-72488469D01*
X162244201Y-72433523D01*
X162247327Y-72369864D01*
X162352910Y-72317388D01*
X162500085Y-72305916D01*
X162739506Y-72350255D01*
G37*
G36*
X162570266Y-81421151D02*
G01*
X162568406Y-81555887D01*
X162551399Y-81727661D01*
X162507626Y-81843518D01*
X162426281Y-81942597D01*
X162426193Y-81942685D01*
X162285260Y-82054366D01*
X162145373Y-82080272D01*
X161958149Y-82029373D01*
X161854341Y-82001780D01*
X161807679Y-82029373D01*
X161801699Y-82042194D01*
X161719975Y-82073892D01*
X161573037Y-82086582D01*
X161338395Y-82086582D01*
X161338395Y-81470024D01*
X161821924Y-81470024D01*
X161825836Y-81558537D01*
X161844110Y-81752997D01*
X161876354Y-81858817D01*
X161927861Y-81897341D01*
X161967584Y-81902497D01*
X162036168Y-81884109D01*
X162076719Y-81807333D01*
X162096052Y-81652607D01*
X162100982Y-81400368D01*
X162099483Y-81259974D01*
X162086955Y-81078249D01*
X162057736Y-80976929D01*
X162007071Y-80932313D01*
X161919530Y-80927216D01*
X161855138Y-81007282D01*
X161823514Y-81185572D01*
X161821924Y-81470024D01*
X161338395Y-81470024D01*
X161338395Y-81181297D01*
X161338295Y-81031407D01*
X161336427Y-80728293D01*
X161330465Y-80517469D01*
X161318178Y-80381020D01*
X161297338Y-80301031D01*
X161265713Y-80259588D01*
X161221074Y-80238776D01*
X161200692Y-80231463D01*
X161149370Y-80193308D01*
X161120067Y-80114659D01*
X161106842Y-79969931D01*
X161103753Y-79733542D01*
X161103942Y-79661275D01*
X161110265Y-79444426D01*
X161131237Y-79303875D01*
X161174510Y-79207095D01*
X161247738Y-79121559D01*
X161257843Y-79111676D01*
X161382610Y-79016640D01*
X161486237Y-78977575D01*
X161614064Y-79005099D01*
X161771933Y-79082605D01*
X161880107Y-79177003D01*
X161902429Y-79260639D01*
X161917248Y-79426051D01*
X161923197Y-79638082D01*
X161920679Y-79863984D01*
X161910095Y-80071008D01*
X161891848Y-80226409D01*
X161866340Y-80297436D01*
X161849528Y-80319060D01*
X161819552Y-80432695D01*
X161807679Y-80600477D01*
X161807914Y-80648115D01*
X161816957Y-80785117D01*
X161847368Y-80834747D01*
X161910335Y-80821042D01*
X162107230Y-80776219D01*
X162310658Y-80807552D01*
X162463623Y-80911991D01*
X162516015Y-80999451D01*
X162557783Y-81168227D01*
X162569240Y-81400368D01*
X162570266Y-81421151D01*
G37*
G36*
X166180630Y-81762274D02*
G01*
X166128715Y-81924510D01*
X166009038Y-82028880D01*
X165912192Y-82063269D01*
X165766073Y-82077455D01*
X165595101Y-82029373D01*
X165507172Y-82006250D01*
X165287789Y-82031796D01*
X165280534Y-82034456D01*
X165133109Y-82061266D01*
X164975734Y-82054702D01*
X164850467Y-82020552D01*
X164799365Y-81964600D01*
X164809256Y-81939801D01*
X164887356Y-81910600D01*
X164929707Y-81891543D01*
X164957514Y-81817002D01*
X164971501Y-81666389D01*
X164975347Y-81419168D01*
X164975901Y-81317047D01*
X164980263Y-81238241D01*
X165437560Y-81238241D01*
X165455761Y-81559206D01*
X165469627Y-81712579D01*
X165505257Y-81847355D01*
X165564812Y-81897413D01*
X165659616Y-81888071D01*
X165728206Y-81806185D01*
X165739973Y-81674169D01*
X165693595Y-81521920D01*
X165587747Y-81379334D01*
X165437560Y-81238241D01*
X164980263Y-81238241D01*
X164989816Y-81065660D01*
X165035383Y-80904910D01*
X165129665Y-80814820D01*
X165289724Y-80775416D01*
X165532622Y-80766720D01*
X165673503Y-80771005D01*
X165909500Y-80812266D01*
X166045964Y-80900087D01*
X166089897Y-81037875D01*
X166080593Y-81094646D01*
X166023364Y-81145017D01*
X165950094Y-81117150D01*
X165903330Y-81016027D01*
X165893231Y-80980967D01*
X165807308Y-80894602D01*
X165676007Y-80855238D01*
X165546065Y-80870228D01*
X165464222Y-80946928D01*
X165459575Y-81083119D01*
X165566512Y-81207801D01*
X165788488Y-81311516D01*
X165845332Y-81333070D01*
X166013721Y-81425831D01*
X166124271Y-81528773D01*
X166154557Y-81586546D01*
X166167558Y-81674169D01*
X166180630Y-81762274D01*
G37*
G36*
X162859297Y-73974576D02*
G01*
X162861541Y-74200731D01*
X162853868Y-74347954D01*
X162832939Y-74438846D01*
X162795415Y-74496009D01*
X162737956Y-74542045D01*
X162715301Y-74556407D01*
X162614709Y-74595274D01*
X162462099Y-74619949D01*
X162235768Y-74632926D01*
X161914012Y-74636697D01*
X161816622Y-74636583D01*
X161549622Y-74633543D01*
X161372306Y-74623927D01*
X161263276Y-74604496D01*
X161201133Y-74572011D01*
X161164478Y-74523232D01*
X161141599Y-74428188D01*
X161138862Y-74402055D01*
X161334426Y-74402055D01*
X161954187Y-74402055D01*
X162223517Y-74398775D01*
X162433531Y-74385976D01*
X162555190Y-74361770D01*
X162603774Y-74324329D01*
X162610263Y-74290902D01*
X162618693Y-74152648D01*
X162621012Y-73943405D01*
X162616599Y-73693728D01*
X162599596Y-73140854D01*
X161983661Y-73140854D01*
X161367726Y-73140854D01*
X161351076Y-73771455D01*
X161334426Y-74402055D01*
X161138862Y-74402055D01*
X161121945Y-74240530D01*
X161108644Y-73989901D01*
X161103753Y-73704049D01*
X161103936Y-73580026D01*
X161107229Y-73316995D01*
X161117080Y-73142343D01*
X161136612Y-73034965D01*
X161168950Y-72973755D01*
X161217218Y-72937606D01*
X161298792Y-72916488D01*
X161478804Y-72895967D01*
X161722769Y-72882024D01*
X162001952Y-72876882D01*
X162205036Y-72877950D01*
X162444797Y-72885244D01*
X162601993Y-72901805D01*
X162697884Y-72930372D01*
X162753730Y-72973681D01*
X162772728Y-73005712D01*
X162810481Y-73151794D01*
X162837155Y-73400477D01*
X162853664Y-73758937D01*
X162858483Y-73943405D01*
X162859297Y-73974576D01*
G37*
G36*
X158464030Y-81420343D02*
G01*
X158462903Y-81486289D01*
X158426161Y-81725926D01*
X158327075Y-81889590D01*
X158151444Y-82003790D01*
X157999424Y-82049472D01*
X157765061Y-82058336D01*
X157548126Y-82007452D01*
X157393476Y-81902794D01*
X157322958Y-81805519D01*
X157296884Y-81709402D01*
X157364901Y-81675958D01*
X157425516Y-81706461D01*
X157496887Y-81807944D01*
X157593365Y-81928458D01*
X157723303Y-81964341D01*
X157853809Y-81920428D01*
X157954438Y-81807269D01*
X157994746Y-81635416D01*
X157986745Y-81563009D01*
X157943691Y-81520961D01*
X157838171Y-81503465D01*
X157642783Y-81499976D01*
X157482779Y-81497710D01*
X157358187Y-81483228D01*
X157303175Y-81447288D01*
X157290820Y-81380771D01*
X157291371Y-81354214D01*
X157330940Y-81182141D01*
X157701444Y-81182141D01*
X157701907Y-81204381D01*
X157736109Y-81299418D01*
X157848095Y-81323995D01*
X157871087Y-81323546D01*
X157969338Y-81290464D01*
X157994746Y-81182141D01*
X157985698Y-81055766D01*
X157935130Y-80908364D01*
X157848095Y-80854711D01*
X157791493Y-80874913D01*
X157725475Y-80987817D01*
X157701444Y-81182141D01*
X157330940Y-81182141D01*
X157346637Y-81113878D01*
X157477016Y-80917587D01*
X157660530Y-80799873D01*
X157850313Y-80764231D01*
X158091458Y-80803984D01*
X158286284Y-80935976D01*
X158416554Y-81146123D01*
X158422790Y-81182141D01*
X158464030Y-81420343D01*
G37*
G36*
X163919458Y-81420343D02*
G01*
X163918330Y-81486289D01*
X163881588Y-81725926D01*
X163782503Y-81889590D01*
X163606871Y-82003790D01*
X163454851Y-82049472D01*
X163220488Y-82058336D01*
X163003553Y-82007452D01*
X162848903Y-81902794D01*
X162778385Y-81805519D01*
X162752311Y-81709402D01*
X162820328Y-81675958D01*
X162880943Y-81706461D01*
X162952314Y-81807944D01*
X163048792Y-81928458D01*
X163178730Y-81964341D01*
X163309236Y-81920428D01*
X163409865Y-81807269D01*
X163450174Y-81635416D01*
X163442172Y-81563009D01*
X163399118Y-81520961D01*
X163293598Y-81503465D01*
X163098211Y-81499976D01*
X162938206Y-81497710D01*
X162813615Y-81483228D01*
X162758602Y-81447288D01*
X162746248Y-81380771D01*
X162746798Y-81354214D01*
X162786367Y-81182141D01*
X163156871Y-81182141D01*
X163157335Y-81204381D01*
X163191536Y-81299418D01*
X163303522Y-81323995D01*
X163326514Y-81323546D01*
X163424765Y-81290464D01*
X163450174Y-81182141D01*
X163441125Y-81055766D01*
X163390557Y-80908364D01*
X163303522Y-80854711D01*
X163246921Y-80874913D01*
X163180902Y-80987817D01*
X163156871Y-81182141D01*
X162786367Y-81182141D01*
X162802065Y-81113878D01*
X162932443Y-80917587D01*
X163115958Y-80799873D01*
X163305740Y-80764231D01*
X163546885Y-80803984D01*
X163741711Y-80935976D01*
X163871981Y-81146123D01*
X163878217Y-81182141D01*
X163919458Y-81420343D01*
G37*
G36*
X166719821Y-80279557D02*
G01*
X166997782Y-80297436D01*
X167139738Y-80808433D01*
X167173547Y-80925323D01*
X167237878Y-81122164D01*
X167291062Y-81252684D01*
X167324103Y-81293221D01*
X167335365Y-81277889D01*
X167378710Y-81173028D01*
X167438166Y-80993768D01*
X167504322Y-80767559D01*
X167642133Y-80268106D01*
X167892573Y-80268106D01*
X168143014Y-80268106D01*
X168143014Y-81177344D01*
X168139397Y-81495164D01*
X168127766Y-81778655D01*
X168110277Y-81973751D01*
X168089159Y-82075672D01*
X168066643Y-82079636D01*
X168044960Y-81980863D01*
X168026339Y-81774571D01*
X168013013Y-81455981D01*
X167996363Y-80825381D01*
X167831507Y-81353325D01*
X167793669Y-81474689D01*
X167722360Y-81704482D01*
X167666903Y-81884609D01*
X167636907Y-81983926D01*
X167594072Y-82045582D01*
X167474450Y-82086582D01*
X167466908Y-82086482D01*
X167407082Y-82072568D01*
X167356078Y-82021728D01*
X167304356Y-81914795D01*
X167242377Y-81732601D01*
X167160602Y-81455981D01*
X166979468Y-80825381D01*
X166974636Y-81455981D01*
X166969804Y-82086582D01*
X166705832Y-82086582D01*
X166441860Y-82086582D01*
X166441860Y-81174130D01*
X166441860Y-80261678D01*
X166719821Y-80279557D01*
G37*
G36*
X156088140Y-80741895D02*
G01*
X156142260Y-80819762D01*
X156211266Y-80976727D01*
X156282790Y-81185762D01*
X156302813Y-81249525D01*
X156371033Y-81436594D01*
X156429630Y-81554504D01*
X156468246Y-81581171D01*
X156507342Y-81505355D01*
X156565363Y-81349100D01*
X156628597Y-81148013D01*
X156739341Y-80766720D01*
X156985750Y-80748682D01*
X157049370Y-80744978D01*
X157180122Y-80745305D01*
X157232160Y-80758673D01*
X157220769Y-80799704D01*
X157178165Y-80929596D01*
X157112955Y-81120932D01*
X157034697Y-81346244D01*
X156952945Y-81578064D01*
X156877258Y-81788924D01*
X156817191Y-81951359D01*
X156812402Y-81963529D01*
X156737648Y-82062491D01*
X156606377Y-82075810D01*
X156574775Y-82070880D01*
X156511536Y-82045116D01*
X156456034Y-81984057D01*
X156397610Y-81868525D01*
X156325607Y-81679339D01*
X156229370Y-81397321D01*
X156162815Y-81191201D01*
X156092705Y-80944237D01*
X156063811Y-80790630D01*
X156077872Y-80737939D01*
X156088140Y-80741895D01*
G37*
G36*
X160223846Y-81177344D02*
G01*
X160223846Y-82086582D01*
X159798557Y-82083271D01*
X159617647Y-82077504D01*
X159262638Y-82027292D01*
X159002304Y-81919638D01*
X158827575Y-81747074D01*
X158729387Y-81502131D01*
X158698673Y-81177344D01*
X159226617Y-81177344D01*
X159233859Y-81432135D01*
X159263297Y-81647549D01*
X159317934Y-81780227D01*
X159405859Y-81862349D01*
X159552576Y-81910600D01*
X159695901Y-81910600D01*
X159695901Y-81177344D01*
X159695901Y-80444087D01*
X159552576Y-80444087D01*
X159520515Y-80445399D01*
X159384786Y-80495928D01*
X159293737Y-80627615D01*
X159242603Y-80851180D01*
X159226617Y-81177344D01*
X158698673Y-81177344D01*
X158704015Y-81029702D01*
X158762171Y-80739609D01*
X158891637Y-80526201D01*
X159101478Y-80382012D01*
X159400763Y-80299573D01*
X159798557Y-80271417D01*
X160223846Y-80268106D01*
X160223846Y-80444087D01*
X160223846Y-81177344D01*
G37*
G36*
X162063747Y-73354766D02*
G01*
X162115854Y-73406967D01*
X162245389Y-73471398D01*
X162298846Y-73492696D01*
X162349121Y-73575824D01*
X162370530Y-73745712D01*
X162369583Y-73909928D01*
X162333971Y-73999285D01*
X162247949Y-74049972D01*
X162155052Y-74095736D01*
X162073888Y-74163795D01*
X162046755Y-74197271D01*
X161959216Y-74219081D01*
X161887553Y-74138083D01*
X161838193Y-74084069D01*
X161718713Y-74050092D01*
X161684981Y-74049094D01*
X161618741Y-74025216D01*
X161591316Y-73946024D01*
X161587711Y-73780682D01*
X161590456Y-73706476D01*
X161619767Y-73547457D01*
X161685066Y-73478463D01*
X161761789Y-73440639D01*
X161886303Y-73352693D01*
X161934272Y-73313609D01*
X162001535Y-73291807D01*
X162063747Y-73354766D01*
G37*
G36*
X164611410Y-81455981D02*
G01*
X164611324Y-81459301D01*
X164601803Y-81744216D01*
X164589725Y-81990561D01*
X164576631Y-82172091D01*
X164564062Y-82262563D01*
X164559062Y-82282079D01*
X164584958Y-82330874D01*
X164702062Y-82332829D01*
X164813392Y-82335548D01*
X164830586Y-82376825D01*
X164828014Y-82380581D01*
X164737067Y-82425023D01*
X164583065Y-82441595D01*
X164410704Y-82432463D01*
X164264685Y-82399795D01*
X164189706Y-82345756D01*
X164188018Y-82340510D01*
X164174784Y-82236687D01*
X164164006Y-82044150D01*
X164156755Y-81788461D01*
X164154100Y-81495179D01*
X164154100Y-80737390D01*
X164392094Y-80737390D01*
X164630089Y-80737390D01*
X164611410Y-81455981D01*
G37*
G36*
X164514327Y-80241398D02*
G01*
X164539437Y-80252219D01*
X164610073Y-80337804D01*
X164615939Y-80446220D01*
X164550058Y-80522559D01*
X164544835Y-80524626D01*
X164382333Y-80549196D01*
X164260649Y-80498327D01*
X164212760Y-80385427D01*
X164246886Y-80292831D01*
X164359163Y-80231130D01*
X164514327Y-80241398D01*
G37*
G36*
X161995091Y-72361009D02*
G01*
X162042321Y-72441816D01*
X162008461Y-72505911D01*
X161938170Y-72496062D01*
X161879783Y-72418597D01*
X161881027Y-72383045D01*
X161949442Y-72348937D01*
X161995091Y-72361009D01*
G37*
%TD*%
M02*
