%TF.GenerationSoftware,KiCad,Pcbnew,7.0.10*%
%TF.CreationDate,2024-01-19T03:53:45-05:00*%
%TF.ProjectId,Dattalogger_Board,44617474-616c-46f6-9767-65725f426f61,1*%
%TF.SameCoordinates,Original*%
%TF.FileFunction,Plated,1,4,PTH,Drill*%
%TF.FilePolarity,Positive*%
%FSLAX46Y46*%
G04 Gerber Fmt 4.6, Leading zero omitted, Abs format (unit mm)*
G04 Created by KiCad (PCBNEW 7.0.10) date 2024-01-19 03:53:45*
%MOMM*%
%LPD*%
G01*
G04 APERTURE LIST*
%TA.AperFunction,ViaDrill*%
%ADD10C,0.400000*%
%TD*%
%TA.AperFunction,ComponentDrill*%
%ADD11C,1.000000*%
%TD*%
G04 APERTURE END LIST*
D10*
X135255000Y-69850000D03*
X135285754Y-68594214D03*
X135296092Y-66113140D03*
X135345541Y-67270544D03*
X136186752Y-88392557D03*
X136650805Y-85594456D03*
X136735000Y-78530000D03*
X138439734Y-73737705D03*
X141191487Y-83212567D03*
X142364053Y-75012702D03*
X142369997Y-76205685D03*
X142417293Y-68610496D03*
X142452442Y-73648111D03*
X142498186Y-66083418D03*
X143340000Y-85527432D03*
X143510000Y-86995000D03*
X144145000Y-78740000D03*
X144468573Y-80656630D03*
X145400785Y-66675000D03*
X145983924Y-67593514D03*
X146050000Y-69850000D03*
X146836764Y-77255806D03*
X149715270Y-79629051D03*
X149860000Y-77470000D03*
X150149458Y-66068515D03*
X150216192Y-78763556D03*
X150323650Y-74103922D03*
X151323557Y-74117810D03*
X152400000Y-85090000D03*
X152400000Y-86995000D03*
X152792836Y-74027164D03*
X153670000Y-70108445D03*
X154325675Y-82564731D03*
X154470404Y-67551215D03*
X154656485Y-66100476D03*
X155181215Y-79573916D03*
X155370397Y-76470678D03*
X156503076Y-80727185D03*
X158160744Y-78949599D03*
X158750000Y-66040000D03*
X159867431Y-73067298D03*
X160276894Y-82269328D03*
X161037297Y-77644594D03*
X163195000Y-68580000D03*
X163195000Y-84455000D03*
X163387203Y-87005079D03*
X163830000Y-67310000D03*
X165166678Y-75762710D03*
X167005000Y-68580000D03*
X167898445Y-66048787D03*
D11*
%TO.C,BT1*%
X132080000Y-73655000D03*
X132080000Y-76195000D03*
%TO.C,J4*%
X134630000Y-91440000D03*
X137170000Y-91440000D03*
X139710000Y-91440000D03*
X142250000Y-91440000D03*
X144790000Y-91440000D03*
X147330000Y-91440000D03*
X149870000Y-91440000D03*
X152410000Y-91440000D03*
X154950000Y-91440000D03*
%TO.C,J2*%
X161300000Y-91440000D03*
X163840000Y-91440000D03*
X166380000Y-91440000D03*
X168920000Y-91440000D03*
%TO.C,J3*%
X170175000Y-69230000D03*
X170175000Y-71770000D03*
X170175000Y-74310000D03*
X172715000Y-69230000D03*
X172715000Y-71770000D03*
X172715000Y-74310000D03*
%TO.C,J1*%
X172720000Y-79385000D03*
X172720000Y-81925000D03*
X172720000Y-84465000D03*
X172720000Y-87005000D03*
M02*
