%TF.GenerationSoftware,KiCad,Pcbnew,7.0.10*%
%TF.CreationDate,2024-01-19T04:31:43-05:00*%
%TF.ProjectId,Dattalogger_Board,44617474-616c-46f6-9767-65725f426f61,1*%
%TF.SameCoordinates,Original*%
%TF.FileFunction,Copper,L2,Inr*%
%TF.FilePolarity,Positive*%
%FSLAX46Y46*%
G04 Gerber Fmt 4.6, Leading zero omitted, Abs format (unit mm)*
G04 Created by KiCad (PCBNEW 7.0.10) date 2024-01-19 04:31:43*
%MOMM*%
%LPD*%
G01*
G04 APERTURE LIST*
%TA.AperFunction,ComponentPad*%
%ADD10R,1.700000X1.700000*%
%TD*%
%TA.AperFunction,ComponentPad*%
%ADD11O,1.700000X1.700000*%
%TD*%
%TA.AperFunction,ViaPad*%
%ADD12C,0.800000*%
%TD*%
%TA.AperFunction,Conductor*%
%ADD13C,0.350000*%
%TD*%
%TA.AperFunction,Conductor*%
%ADD14C,0.250000*%
%TD*%
G04 APERTURE END LIST*
D10*
%TO.N,/Vcc*%
%TO.C,BT1*%
X132080000Y-73655000D03*
D11*
%TO.N,GND*%
X132080000Y-76195000D03*
%TD*%
%TO.N,/Vcc*%
%TO.C,J4*%
X154950000Y-91440000D03*
%TO.N,GND*%
X152410000Y-91440000D03*
%TO.N,/D8*%
X149870000Y-91440000D03*
%TO.N,/D7*%
X147330000Y-91440000D03*
%TO.N,/D6*%
X144790000Y-91440000D03*
%TO.N,/D5*%
X142250000Y-91440000D03*
%TO.N,/D4*%
X139710000Y-91440000D03*
%TO.N,/D3*%
X137170000Y-91440000D03*
D10*
%TO.N,/D2*%
X134630000Y-91440000D03*
%TD*%
D11*
%TO.N,GND*%
%TO.C,J3*%
X172715000Y-74310000D03*
%TO.N,/RESET*%
X170175000Y-74310000D03*
%TO.N,/MOSI*%
X172715000Y-71770000D03*
%TO.N,/SCK*%
X170175000Y-71770000D03*
%TO.N,/Vcc*%
X172715000Y-69230000D03*
D10*
%TO.N,/MISO*%
X170175000Y-69230000D03*
%TD*%
%TO.N,GND*%
%TO.C,J2*%
X161300000Y-91440000D03*
D11*
%TO.N,/Vcc*%
X163840000Y-91440000D03*
%TO.N,/RX*%
X166380000Y-91440000D03*
%TO.N,/TX*%
X168920000Y-91440000D03*
%TD*%
D10*
%TO.N,GND*%
%TO.C,J1*%
X172720000Y-79385000D03*
D11*
%TO.N,/Vcc*%
X172720000Y-81925000D03*
%TO.N,/SDA*%
X172720000Y-84465000D03*
%TO.N,/SCK*%
X172720000Y-87005000D03*
%TD*%
D12*
%TO.N,Net-(U4-PB7)*%
X154470404Y-67551215D03*
%TO.N,Net-(U4-PB6)*%
X160276894Y-82269328D03*
X152400000Y-85090000D03*
%TO.N,Net-(U4-PB7)*%
X152400000Y-86995000D03*
%TO.N,Net-(U4-PB6)*%
X150216192Y-78763556D03*
%TO.N,Net-(U4-PB7)*%
X149715270Y-79629051D03*
%TO.N,/MOSI*%
X154325675Y-82564731D03*
%TO.N,/MISO*%
X156503076Y-80727185D03*
%TO.N,/TX*%
X150323650Y-74103922D03*
%TO.N,/RX*%
X151323557Y-74117810D03*
%TO.N,/SCK*%
X167898445Y-66048787D03*
X161037297Y-77644594D03*
X155181215Y-79573916D03*
X152792836Y-74027164D03*
X142417293Y-68610496D03*
X142369997Y-76205685D03*
X141191487Y-83212567D03*
%TO.N,/SDA*%
X159867431Y-73067298D03*
X146050000Y-69850000D03*
X153670000Y-70108445D03*
X144145000Y-78740000D03*
X143340000Y-85527432D03*
%TO.N,GND*%
X149860000Y-77470000D03*
%TO.N,/Vcc*%
X165166678Y-75762710D03*
X158160744Y-78949599D03*
X142498186Y-66083418D03*
X145983924Y-67593514D03*
X154656485Y-66100476D03*
X163830000Y-67310000D03*
X135296092Y-66113140D03*
X135285754Y-68594214D03*
X138439734Y-73737705D03*
X142452442Y-73648111D03*
X146836764Y-77255806D03*
X144468573Y-80656630D03*
X136186752Y-88392557D03*
X143510000Y-86995000D03*
%TO.N,GND*%
X145400785Y-66675000D03*
X135345541Y-67270544D03*
X142364053Y-75012702D03*
X155370397Y-76470678D03*
X163195000Y-84455000D03*
X163387203Y-87005079D03*
X163195000Y-68580000D03*
X167005000Y-68580000D03*
X158750000Y-66040000D03*
X150149458Y-66068515D03*
X136650805Y-85594456D03*
X136735000Y-78530000D03*
X135255000Y-69850000D03*
%TD*%
D13*
%TO.N,/Vcc*%
X146836764Y-77255806D02*
X146836764Y-81280000D01*
D14*
%TO.N,/MISO*%
X156503076Y-80727185D02*
X156210000Y-80434109D01*
D13*
%TO.N,/Vcc*%
X142240000Y-72390000D02*
X144780000Y-72390000D01*
X146836764Y-77255806D02*
X146836764Y-72390000D01*
X144780000Y-72390000D02*
X146836764Y-72390000D01*
X141605000Y-73025000D02*
X142240000Y-72390000D01*
X141605000Y-73737705D02*
X141605000Y-73025000D01*
X136186752Y-89196752D02*
X136525000Y-89535000D01*
X136186752Y-88392557D02*
X136186752Y-89196752D01*
D14*
%TO.N,/MOSI*%
X171540000Y-70595000D02*
X172715000Y-71770000D01*
X169688299Y-70595000D02*
X171540000Y-70595000D01*
X168713299Y-71570000D02*
X169688299Y-70595000D01*
X160206396Y-71570000D02*
X168713299Y-71570000D01*
X157385744Y-74390652D02*
X160206396Y-71570000D01*
X157385744Y-80869822D02*
X157385744Y-74390652D01*
X155690835Y-82564731D02*
X157385744Y-80869822D01*
X154325675Y-82564731D02*
X155690835Y-82564731D01*
%TO.N,/MISO*%
X167640000Y-71120000D02*
X169530000Y-69230000D01*
X160020000Y-71120000D02*
X167640000Y-71120000D01*
X169530000Y-69230000D02*
X170175000Y-69230000D01*
X156210000Y-74930000D02*
X160020000Y-71120000D01*
X156210000Y-80434109D02*
X156210000Y-74930000D01*
D13*
%TO.N,/Vcc*%
X166190122Y-75762710D02*
X167262412Y-76835000D01*
X167262412Y-76835000D02*
X173995000Y-76835000D01*
X165166678Y-75762710D02*
X166190122Y-75762710D01*
X173995000Y-76835000D02*
X173995000Y-70510000D01*
X173995000Y-83200000D02*
X173995000Y-76835000D01*
X156845000Y-89535000D02*
X164465000Y-89535000D01*
X155575000Y-89535000D02*
X156845000Y-89535000D01*
X158750000Y-79538855D02*
X158750000Y-87630000D01*
X158160744Y-78949599D02*
X158750000Y-79538855D01*
X158750000Y-87630000D02*
X156845000Y-89535000D01*
X141648418Y-66083418D02*
X140335000Y-64770000D01*
X140335000Y-64770000D02*
X134620000Y-64770000D01*
X142498186Y-66083418D02*
X141648418Y-66083418D01*
X146050000Y-64770000D02*
X140335000Y-64770000D01*
X146225785Y-64945785D02*
X146050000Y-64770000D01*
X146225785Y-67351653D02*
X146225785Y-64945785D01*
X145983924Y-67593514D02*
X146225785Y-67351653D01*
X153670000Y-64770000D02*
X146050000Y-64770000D01*
X154656485Y-65756485D02*
X153670000Y-64770000D01*
X154656485Y-66100476D02*
X154656485Y-65756485D01*
X162560000Y-64770000D02*
X153670000Y-64770000D01*
X163830000Y-66040000D02*
X162560000Y-64770000D01*
X163830000Y-67310000D02*
X163830000Y-66040000D01*
X171450000Y-64770000D02*
X162560000Y-64770000D01*
X134620000Y-64770000D02*
X133276860Y-66113140D01*
X173995000Y-70510000D02*
X173995000Y-67315000D01*
X173995000Y-67315000D02*
X171450000Y-64770000D01*
X135285754Y-68594214D02*
X133335786Y-68594214D01*
X133335786Y-68594214D02*
X132080000Y-69850000D01*
X132080000Y-69850000D02*
X132080000Y-73655000D01*
X132080000Y-67310000D02*
X132080000Y-69850000D01*
X133276860Y-66113140D02*
X132080000Y-67310000D01*
X135296092Y-66113140D02*
X133276860Y-66113140D01*
X136525000Y-89535000D02*
X143510000Y-89535000D01*
X135890000Y-89535000D02*
X136525000Y-89535000D01*
X143510000Y-86995000D02*
X143510000Y-88900000D01*
X143510000Y-88900000D02*
X144145000Y-89535000D01*
X143510000Y-89535000D02*
X144145000Y-89535000D01*
X144145000Y-89535000D02*
X146685000Y-89535000D01*
X146213394Y-80656630D02*
X146836764Y-81280000D01*
X144468573Y-80656630D02*
X146213394Y-80656630D01*
X146836764Y-81280000D02*
X146836764Y-89383236D01*
X141605000Y-73737705D02*
X142362848Y-73737705D01*
X140970000Y-73737705D02*
X141605000Y-73737705D01*
X138439734Y-73737705D02*
X140970000Y-73737705D01*
X142362848Y-73737705D02*
X142452442Y-73648111D01*
X146836764Y-89383236D02*
X146685000Y-89535000D01*
X146685000Y-89535000D02*
X155575000Y-89535000D01*
X173360000Y-89535000D02*
X173995000Y-88900000D01*
X173995000Y-88900000D02*
X173995000Y-83200000D01*
X164465000Y-89535000D02*
X173360000Y-89535000D01*
X130805000Y-88265000D02*
X132075000Y-89535000D01*
X132075000Y-89535000D02*
X135890000Y-89535000D01*
X130805000Y-74930000D02*
X130805000Y-88265000D01*
X154950000Y-90160000D02*
X155575000Y-89535000D01*
X154950000Y-91440000D02*
X154950000Y-90160000D01*
X163840000Y-91440000D02*
X163840000Y-90160000D01*
X163840000Y-90160000D02*
X164465000Y-89535000D01*
X173995000Y-70510000D02*
X172715000Y-69230000D01*
X173995000Y-83200000D02*
X172720000Y-81925000D01*
X132080000Y-73655000D02*
X130805000Y-74930000D01*
%TD*%
%TA.AperFunction,Conductor*%
%TO.N,/Vcc*%
G36*
X172100931Y-64155002D02*
G01*
X172121905Y-64171905D01*
X174588095Y-66638095D01*
X174622121Y-66700407D01*
X174625000Y-66727190D01*
X174625000Y-90044000D01*
X174604998Y-90112121D01*
X174551342Y-90158614D01*
X174499000Y-90170000D01*
X172085000Y-90170000D01*
X172085000Y-92657810D01*
X172064998Y-92725931D01*
X172048095Y-92746905D01*
X171486905Y-93308095D01*
X171424593Y-93342121D01*
X171397810Y-93345000D01*
X132206000Y-93345000D01*
X132137879Y-93324998D01*
X132091386Y-93271342D01*
X132080000Y-93219000D01*
X132080000Y-92338649D01*
X133271500Y-92338649D01*
X133278009Y-92399196D01*
X133278011Y-92399204D01*
X133329110Y-92536202D01*
X133329112Y-92536207D01*
X133416738Y-92653261D01*
X133533792Y-92740887D01*
X133533794Y-92740888D01*
X133533796Y-92740889D01*
X133587600Y-92760957D01*
X133670795Y-92791988D01*
X133670803Y-92791990D01*
X133731350Y-92798499D01*
X133731355Y-92798499D01*
X133731362Y-92798500D01*
X133731368Y-92798500D01*
X135528632Y-92798500D01*
X135528638Y-92798500D01*
X135528645Y-92798499D01*
X135528649Y-92798499D01*
X135589196Y-92791990D01*
X135589199Y-92791989D01*
X135589201Y-92791989D01*
X135726204Y-92740889D01*
X135746186Y-92725931D01*
X135843261Y-92653261D01*
X135930886Y-92536208D01*
X135930885Y-92536208D01*
X135930889Y-92536204D01*
X135974999Y-92417939D01*
X136017545Y-92361107D01*
X136084066Y-92336296D01*
X136153440Y-92351388D01*
X136185753Y-92376635D01*
X136206529Y-92399204D01*
X136246762Y-92442908D01*
X136301331Y-92485381D01*
X136424424Y-92581189D01*
X136622426Y-92688342D01*
X136622427Y-92688342D01*
X136622428Y-92688343D01*
X136639970Y-92694365D01*
X136835365Y-92761444D01*
X137057431Y-92798500D01*
X137057435Y-92798500D01*
X137282565Y-92798500D01*
X137282569Y-92798500D01*
X137504635Y-92761444D01*
X137717574Y-92688342D01*
X137915576Y-92581189D01*
X138093240Y-92442906D01*
X138245722Y-92277268D01*
X138245927Y-92276955D01*
X138309066Y-92180312D01*
X138334518Y-92141354D01*
X138388520Y-92095268D01*
X138458868Y-92085692D01*
X138523225Y-92115669D01*
X138545480Y-92141353D01*
X138570934Y-92180312D01*
X138634275Y-92277265D01*
X138634279Y-92277270D01*
X138786762Y-92442908D01*
X138841331Y-92485381D01*
X138964424Y-92581189D01*
X139162426Y-92688342D01*
X139162427Y-92688342D01*
X139162428Y-92688343D01*
X139179970Y-92694365D01*
X139375365Y-92761444D01*
X139597431Y-92798500D01*
X139597435Y-92798500D01*
X139822565Y-92798500D01*
X139822569Y-92798500D01*
X140044635Y-92761444D01*
X140257574Y-92688342D01*
X140455576Y-92581189D01*
X140633240Y-92442906D01*
X140785722Y-92277268D01*
X140785927Y-92276955D01*
X140849066Y-92180312D01*
X140874518Y-92141354D01*
X140928520Y-92095268D01*
X140998868Y-92085692D01*
X141063225Y-92115669D01*
X141085480Y-92141353D01*
X141110934Y-92180312D01*
X141174275Y-92277265D01*
X141174279Y-92277270D01*
X141326762Y-92442908D01*
X141381331Y-92485381D01*
X141504424Y-92581189D01*
X141702426Y-92688342D01*
X141702427Y-92688342D01*
X141702428Y-92688343D01*
X141719970Y-92694365D01*
X141915365Y-92761444D01*
X142137431Y-92798500D01*
X142137435Y-92798500D01*
X142362565Y-92798500D01*
X142362569Y-92798500D01*
X142584635Y-92761444D01*
X142797574Y-92688342D01*
X142995576Y-92581189D01*
X143173240Y-92442906D01*
X143325722Y-92277268D01*
X143325927Y-92276955D01*
X143389066Y-92180312D01*
X143414518Y-92141354D01*
X143468520Y-92095268D01*
X143538868Y-92085692D01*
X143603225Y-92115669D01*
X143625480Y-92141353D01*
X143650934Y-92180312D01*
X143714275Y-92277265D01*
X143714279Y-92277270D01*
X143866762Y-92442908D01*
X143921331Y-92485381D01*
X144044424Y-92581189D01*
X144242426Y-92688342D01*
X144242427Y-92688342D01*
X144242428Y-92688343D01*
X144259970Y-92694365D01*
X144455365Y-92761444D01*
X144677431Y-92798500D01*
X144677435Y-92798500D01*
X144902565Y-92798500D01*
X144902569Y-92798500D01*
X145124635Y-92761444D01*
X145337574Y-92688342D01*
X145535576Y-92581189D01*
X145713240Y-92442906D01*
X145865722Y-92277268D01*
X145865927Y-92276955D01*
X145929066Y-92180312D01*
X145954518Y-92141354D01*
X146008520Y-92095268D01*
X146078868Y-92085692D01*
X146143225Y-92115669D01*
X146165480Y-92141353D01*
X146190934Y-92180312D01*
X146254275Y-92277265D01*
X146254279Y-92277270D01*
X146406762Y-92442908D01*
X146461331Y-92485381D01*
X146584424Y-92581189D01*
X146782426Y-92688342D01*
X146782427Y-92688342D01*
X146782428Y-92688343D01*
X146799970Y-92694365D01*
X146995365Y-92761444D01*
X147217431Y-92798500D01*
X147217435Y-92798500D01*
X147442565Y-92798500D01*
X147442569Y-92798500D01*
X147664635Y-92761444D01*
X147877574Y-92688342D01*
X148075576Y-92581189D01*
X148253240Y-92442906D01*
X148405722Y-92277268D01*
X148405927Y-92276955D01*
X148469066Y-92180312D01*
X148494518Y-92141354D01*
X148548520Y-92095268D01*
X148618868Y-92085692D01*
X148683225Y-92115669D01*
X148705480Y-92141353D01*
X148730934Y-92180312D01*
X148794275Y-92277265D01*
X148794279Y-92277270D01*
X148946762Y-92442908D01*
X149001331Y-92485381D01*
X149124424Y-92581189D01*
X149322426Y-92688342D01*
X149322427Y-92688342D01*
X149322428Y-92688343D01*
X149339970Y-92694365D01*
X149535365Y-92761444D01*
X149757431Y-92798500D01*
X149757435Y-92798500D01*
X149982565Y-92798500D01*
X149982569Y-92798500D01*
X150204635Y-92761444D01*
X150417574Y-92688342D01*
X150615576Y-92581189D01*
X150793240Y-92442906D01*
X150945722Y-92277268D01*
X150945927Y-92276955D01*
X151009066Y-92180312D01*
X151034518Y-92141354D01*
X151088520Y-92095268D01*
X151158868Y-92085692D01*
X151223225Y-92115669D01*
X151245480Y-92141353D01*
X151270934Y-92180312D01*
X151334275Y-92277265D01*
X151334279Y-92277270D01*
X151486762Y-92442908D01*
X151541331Y-92485381D01*
X151664424Y-92581189D01*
X151862426Y-92688342D01*
X151862427Y-92688342D01*
X151862428Y-92688343D01*
X151879970Y-92694365D01*
X152075365Y-92761444D01*
X152297431Y-92798500D01*
X152297435Y-92798500D01*
X152522565Y-92798500D01*
X152522569Y-92798500D01*
X152744635Y-92761444D01*
X152957574Y-92688342D01*
X153155576Y-92581189D01*
X153333240Y-92442906D01*
X153485722Y-92277268D01*
X153485927Y-92276955D01*
X153549066Y-92180312D01*
X153574816Y-92140898D01*
X153628819Y-92094810D01*
X153699167Y-92085235D01*
X153763524Y-92115212D01*
X153785782Y-92140898D01*
X153874674Y-92276958D01*
X154027097Y-92442534D01*
X154204698Y-92580767D01*
X154204699Y-92580768D01*
X154402628Y-92687882D01*
X154402630Y-92687883D01*
X154615483Y-92760955D01*
X154615492Y-92760957D01*
X154696000Y-92774391D01*
X154696000Y-91873674D01*
X154807685Y-91924680D01*
X154914237Y-91940000D01*
X154985763Y-91940000D01*
X155092315Y-91924680D01*
X155204000Y-91873674D01*
X155204000Y-92774390D01*
X155284507Y-92760957D01*
X155284516Y-92760955D01*
X155497369Y-92687883D01*
X155497371Y-92687882D01*
X155695300Y-92580768D01*
X155695301Y-92580767D01*
X155872902Y-92442534D01*
X155968535Y-92338649D01*
X159941500Y-92338649D01*
X159948009Y-92399196D01*
X159948011Y-92399204D01*
X159999110Y-92536202D01*
X159999112Y-92536207D01*
X160086738Y-92653261D01*
X160203792Y-92740887D01*
X160203794Y-92740888D01*
X160203796Y-92740889D01*
X160257600Y-92760957D01*
X160340795Y-92791988D01*
X160340803Y-92791990D01*
X160401350Y-92798499D01*
X160401355Y-92798499D01*
X160401362Y-92798500D01*
X160401368Y-92798500D01*
X162198632Y-92798500D01*
X162198638Y-92798500D01*
X162198645Y-92798499D01*
X162198649Y-92798499D01*
X162259196Y-92791990D01*
X162259199Y-92791989D01*
X162259201Y-92791989D01*
X162396204Y-92740889D01*
X162416186Y-92725931D01*
X162513261Y-92653261D01*
X162600886Y-92536208D01*
X162600885Y-92536208D01*
X162600889Y-92536204D01*
X162645196Y-92417413D01*
X162687741Y-92360581D01*
X162754262Y-92335770D01*
X162823636Y-92350862D01*
X162855952Y-92376112D01*
X162917097Y-92442534D01*
X163094698Y-92580767D01*
X163094699Y-92580768D01*
X163292628Y-92687882D01*
X163292630Y-92687883D01*
X163505483Y-92760955D01*
X163505492Y-92760957D01*
X163586000Y-92774391D01*
X163586000Y-91873674D01*
X163697685Y-91924680D01*
X163804237Y-91940000D01*
X163875763Y-91940000D01*
X163982315Y-91924680D01*
X164094000Y-91873674D01*
X164094000Y-92774390D01*
X164174507Y-92760957D01*
X164174516Y-92760955D01*
X164387369Y-92687883D01*
X164387371Y-92687882D01*
X164585300Y-92580768D01*
X164585301Y-92580767D01*
X164762902Y-92442534D01*
X164915327Y-92276955D01*
X165004217Y-92140899D01*
X165058220Y-92094810D01*
X165128568Y-92085235D01*
X165192925Y-92115212D01*
X165215183Y-92140898D01*
X165304279Y-92277270D01*
X165456762Y-92442908D01*
X165511331Y-92485381D01*
X165634424Y-92581189D01*
X165832426Y-92688342D01*
X165832427Y-92688342D01*
X165832428Y-92688343D01*
X165849970Y-92694365D01*
X166045365Y-92761444D01*
X166267431Y-92798500D01*
X166267435Y-92798500D01*
X166492565Y-92798500D01*
X166492569Y-92798500D01*
X166714635Y-92761444D01*
X166927574Y-92688342D01*
X167125576Y-92581189D01*
X167303240Y-92442906D01*
X167455722Y-92277268D01*
X167455927Y-92276955D01*
X167519066Y-92180312D01*
X167544518Y-92141354D01*
X167598520Y-92095268D01*
X167668868Y-92085692D01*
X167733225Y-92115669D01*
X167755480Y-92141353D01*
X167780934Y-92180312D01*
X167844275Y-92277265D01*
X167844279Y-92277270D01*
X167996762Y-92442908D01*
X168051331Y-92485381D01*
X168174424Y-92581189D01*
X168372426Y-92688342D01*
X168372427Y-92688342D01*
X168372428Y-92688343D01*
X168389970Y-92694365D01*
X168585365Y-92761444D01*
X168807431Y-92798500D01*
X168807435Y-92798500D01*
X169032565Y-92798500D01*
X169032569Y-92798500D01*
X169254635Y-92761444D01*
X169467574Y-92688342D01*
X169665576Y-92581189D01*
X169843240Y-92442906D01*
X169995722Y-92277268D01*
X169995927Y-92276955D01*
X170059066Y-92180312D01*
X170118860Y-92088791D01*
X170209296Y-91882616D01*
X170264564Y-91664368D01*
X170283156Y-91440000D01*
X170264564Y-91215632D01*
X170209338Y-90997550D01*
X170209297Y-90997387D01*
X170209296Y-90997386D01*
X170209296Y-90997384D01*
X170118860Y-90791209D01*
X170101500Y-90764637D01*
X169995724Y-90602734D01*
X169995720Y-90602729D01*
X169873708Y-90470191D01*
X169843240Y-90437094D01*
X169843239Y-90437093D01*
X169843237Y-90437091D01*
X169750523Y-90364929D01*
X169665576Y-90298811D01*
X169467574Y-90191658D01*
X169467572Y-90191657D01*
X169467571Y-90191656D01*
X169254639Y-90118557D01*
X169254630Y-90118555D01*
X169177029Y-90105606D01*
X169032569Y-90081500D01*
X168807431Y-90081500D01*
X168662971Y-90105606D01*
X168585369Y-90118555D01*
X168585360Y-90118557D01*
X168372428Y-90191656D01*
X168372426Y-90191658D01*
X168174426Y-90298810D01*
X168174424Y-90298811D01*
X167996762Y-90437091D01*
X167844279Y-90602729D01*
X167755483Y-90738643D01*
X167701479Y-90784731D01*
X167631131Y-90794306D01*
X167566774Y-90764329D01*
X167544517Y-90738643D01*
X167455720Y-90602729D01*
X167333708Y-90470191D01*
X167303240Y-90437094D01*
X167303239Y-90437093D01*
X167303237Y-90437091D01*
X167210523Y-90364929D01*
X167125576Y-90298811D01*
X166927574Y-90191658D01*
X166927572Y-90191657D01*
X166927571Y-90191656D01*
X166714639Y-90118557D01*
X166714630Y-90118555D01*
X166637029Y-90105606D01*
X166492569Y-90081500D01*
X166267431Y-90081500D01*
X166122971Y-90105606D01*
X166045369Y-90118555D01*
X166045360Y-90118557D01*
X165832428Y-90191656D01*
X165832426Y-90191658D01*
X165634426Y-90298810D01*
X165634424Y-90298811D01*
X165456762Y-90437091D01*
X165304279Y-90602729D01*
X165215183Y-90739101D01*
X165161179Y-90785189D01*
X165090831Y-90794764D01*
X165026474Y-90764786D01*
X165004217Y-90739100D01*
X164915327Y-90603044D01*
X164762902Y-90437465D01*
X164585301Y-90299232D01*
X164585300Y-90299231D01*
X164387371Y-90192117D01*
X164387369Y-90192116D01*
X164174512Y-90119043D01*
X164174501Y-90119040D01*
X164094000Y-90105606D01*
X164094000Y-91006325D01*
X163982315Y-90955320D01*
X163875763Y-90940000D01*
X163804237Y-90940000D01*
X163697685Y-90955320D01*
X163586000Y-91006325D01*
X163586000Y-90105607D01*
X163585999Y-90105606D01*
X163505498Y-90119040D01*
X163505487Y-90119043D01*
X163292630Y-90192116D01*
X163292628Y-90192117D01*
X163094699Y-90299231D01*
X163094698Y-90299232D01*
X162917096Y-90437465D01*
X162855951Y-90503888D01*
X162795098Y-90540459D01*
X162724134Y-90538324D01*
X162665588Y-90498163D01*
X162645195Y-90462583D01*
X162600889Y-90343796D01*
X162600887Y-90343792D01*
X162513261Y-90226738D01*
X162396207Y-90139112D01*
X162396202Y-90139110D01*
X162259204Y-90088011D01*
X162259196Y-90088009D01*
X162198649Y-90081500D01*
X162198638Y-90081500D01*
X160401362Y-90081500D01*
X160401350Y-90081500D01*
X160340803Y-90088009D01*
X160340795Y-90088011D01*
X160203797Y-90139110D01*
X160203792Y-90139112D01*
X160086738Y-90226738D01*
X159999112Y-90343792D01*
X159999110Y-90343797D01*
X159948011Y-90480795D01*
X159948009Y-90480803D01*
X159941500Y-90541350D01*
X159941500Y-92338649D01*
X155968535Y-92338649D01*
X156025325Y-92276958D01*
X156148419Y-92088548D01*
X156238820Y-91882456D01*
X156238823Y-91882449D01*
X156286544Y-91694000D01*
X155381116Y-91694000D01*
X155409493Y-91649844D01*
X155450000Y-91511889D01*
X155450000Y-91368111D01*
X155409493Y-91230156D01*
X155381116Y-91186000D01*
X156286544Y-91186000D01*
X156286544Y-91185999D01*
X156238823Y-90997550D01*
X156238820Y-90997543D01*
X156148419Y-90791451D01*
X156025325Y-90603041D01*
X155872902Y-90437465D01*
X155695301Y-90299232D01*
X155695300Y-90299231D01*
X155497371Y-90192117D01*
X155497369Y-90192116D01*
X155284512Y-90119043D01*
X155284501Y-90119040D01*
X155204000Y-90105606D01*
X155204000Y-91006325D01*
X155092315Y-90955320D01*
X154985763Y-90940000D01*
X154914237Y-90940000D01*
X154807685Y-90955320D01*
X154696000Y-91006325D01*
X154696000Y-90105607D01*
X154695999Y-90105606D01*
X154615498Y-90119040D01*
X154615487Y-90119043D01*
X154402630Y-90192116D01*
X154402628Y-90192117D01*
X154204699Y-90299231D01*
X154204698Y-90299232D01*
X154027097Y-90437465D01*
X153874670Y-90603045D01*
X153785780Y-90739101D01*
X153731776Y-90785189D01*
X153661428Y-90794764D01*
X153597071Y-90764786D01*
X153574816Y-90739101D01*
X153512422Y-90643599D01*
X153485724Y-90602734D01*
X153485720Y-90602729D01*
X153363708Y-90470191D01*
X153333240Y-90437094D01*
X153333239Y-90437093D01*
X153333237Y-90437091D01*
X153240523Y-90364929D01*
X153155576Y-90298811D01*
X152957574Y-90191658D01*
X152957572Y-90191657D01*
X152957571Y-90191656D01*
X152744639Y-90118557D01*
X152744630Y-90118555D01*
X152667029Y-90105606D01*
X152522569Y-90081500D01*
X152297431Y-90081500D01*
X152152971Y-90105606D01*
X152075369Y-90118555D01*
X152075360Y-90118557D01*
X151862428Y-90191656D01*
X151862426Y-90191658D01*
X151664426Y-90298810D01*
X151664424Y-90298811D01*
X151486762Y-90437091D01*
X151334279Y-90602729D01*
X151245483Y-90738643D01*
X151191479Y-90784731D01*
X151121131Y-90794306D01*
X151056774Y-90764329D01*
X151034517Y-90738643D01*
X150945720Y-90602729D01*
X150823708Y-90470191D01*
X150793240Y-90437094D01*
X150793239Y-90437093D01*
X150793237Y-90437091D01*
X150700523Y-90364929D01*
X150615576Y-90298811D01*
X150417574Y-90191658D01*
X150417572Y-90191657D01*
X150417571Y-90191656D01*
X150204639Y-90118557D01*
X150204630Y-90118555D01*
X150127029Y-90105606D01*
X149982569Y-90081500D01*
X149757431Y-90081500D01*
X149612971Y-90105606D01*
X149535369Y-90118555D01*
X149535360Y-90118557D01*
X149322428Y-90191656D01*
X149322426Y-90191658D01*
X149124426Y-90298810D01*
X149124424Y-90298811D01*
X148946762Y-90437091D01*
X148794279Y-90602729D01*
X148705483Y-90738643D01*
X148651479Y-90784731D01*
X148581131Y-90794306D01*
X148516774Y-90764329D01*
X148494517Y-90738643D01*
X148405720Y-90602729D01*
X148283708Y-90470191D01*
X148253240Y-90437094D01*
X148253239Y-90437093D01*
X148253237Y-90437091D01*
X148160523Y-90364929D01*
X148075576Y-90298811D01*
X147877574Y-90191658D01*
X147877572Y-90191657D01*
X147877571Y-90191656D01*
X147664639Y-90118557D01*
X147664630Y-90118555D01*
X147587029Y-90105606D01*
X147442569Y-90081500D01*
X147217431Y-90081500D01*
X147072971Y-90105606D01*
X146995369Y-90118555D01*
X146995360Y-90118557D01*
X146782428Y-90191656D01*
X146782426Y-90191658D01*
X146584426Y-90298810D01*
X146584424Y-90298811D01*
X146406762Y-90437091D01*
X146254279Y-90602729D01*
X146165483Y-90738643D01*
X146111479Y-90784731D01*
X146041131Y-90794306D01*
X145976774Y-90764329D01*
X145954517Y-90738643D01*
X145865720Y-90602729D01*
X145743708Y-90470191D01*
X145713240Y-90437094D01*
X145713239Y-90437093D01*
X145713237Y-90437091D01*
X145620523Y-90364929D01*
X145535576Y-90298811D01*
X145337574Y-90191658D01*
X145337572Y-90191657D01*
X145337571Y-90191656D01*
X145124639Y-90118557D01*
X145124630Y-90118555D01*
X145047029Y-90105606D01*
X144902569Y-90081500D01*
X144677431Y-90081500D01*
X144532971Y-90105606D01*
X144455369Y-90118555D01*
X144455360Y-90118557D01*
X144242428Y-90191656D01*
X144242426Y-90191658D01*
X144044426Y-90298810D01*
X144044424Y-90298811D01*
X143866762Y-90437091D01*
X143714279Y-90602729D01*
X143625483Y-90738643D01*
X143571479Y-90784731D01*
X143501131Y-90794306D01*
X143436774Y-90764329D01*
X143414517Y-90738643D01*
X143325720Y-90602729D01*
X143203708Y-90470191D01*
X143173240Y-90437094D01*
X143173239Y-90437093D01*
X143173237Y-90437091D01*
X143080523Y-90364929D01*
X142995576Y-90298811D01*
X142797574Y-90191658D01*
X142797572Y-90191657D01*
X142797571Y-90191656D01*
X142584639Y-90118557D01*
X142584630Y-90118555D01*
X142507029Y-90105606D01*
X142362569Y-90081500D01*
X142137431Y-90081500D01*
X141992971Y-90105606D01*
X141915369Y-90118555D01*
X141915360Y-90118557D01*
X141702428Y-90191656D01*
X141702426Y-90191658D01*
X141504426Y-90298810D01*
X141504424Y-90298811D01*
X141326762Y-90437091D01*
X141174279Y-90602729D01*
X141085483Y-90738643D01*
X141031479Y-90784731D01*
X140961131Y-90794306D01*
X140896774Y-90764329D01*
X140874517Y-90738643D01*
X140785720Y-90602729D01*
X140663708Y-90470191D01*
X140633240Y-90437094D01*
X140633239Y-90437093D01*
X140633237Y-90437091D01*
X140540523Y-90364929D01*
X140455576Y-90298811D01*
X140257574Y-90191658D01*
X140257572Y-90191657D01*
X140257571Y-90191656D01*
X140044639Y-90118557D01*
X140044630Y-90118555D01*
X139967029Y-90105606D01*
X139822569Y-90081500D01*
X139597431Y-90081500D01*
X139452971Y-90105606D01*
X139375369Y-90118555D01*
X139375360Y-90118557D01*
X139162428Y-90191656D01*
X139162426Y-90191658D01*
X138964426Y-90298810D01*
X138964424Y-90298811D01*
X138786762Y-90437091D01*
X138634279Y-90602729D01*
X138545483Y-90738643D01*
X138491479Y-90784731D01*
X138421131Y-90794306D01*
X138356774Y-90764329D01*
X138334517Y-90738643D01*
X138245720Y-90602729D01*
X138123708Y-90470191D01*
X138093240Y-90437094D01*
X138093239Y-90437093D01*
X138093237Y-90437091D01*
X138000523Y-90364929D01*
X137915576Y-90298811D01*
X137717574Y-90191658D01*
X137717572Y-90191657D01*
X137717571Y-90191656D01*
X137504639Y-90118557D01*
X137504630Y-90118555D01*
X137427029Y-90105606D01*
X137282569Y-90081500D01*
X137057431Y-90081500D01*
X136912971Y-90105606D01*
X136835369Y-90118555D01*
X136835360Y-90118557D01*
X136622428Y-90191656D01*
X136622426Y-90191658D01*
X136424426Y-90298810D01*
X136424424Y-90298811D01*
X136246762Y-90437091D01*
X136185754Y-90503363D01*
X136124901Y-90539933D01*
X136053936Y-90537798D01*
X135995391Y-90497636D01*
X135974999Y-90462057D01*
X135938771Y-90364929D01*
X135930889Y-90343796D01*
X135930888Y-90343794D01*
X135930887Y-90343792D01*
X135843261Y-90226738D01*
X135726207Y-90139112D01*
X135726202Y-90139110D01*
X135589204Y-90088011D01*
X135589196Y-90088009D01*
X135528649Y-90081500D01*
X135528638Y-90081500D01*
X133731362Y-90081500D01*
X133731350Y-90081500D01*
X133670803Y-90088009D01*
X133670795Y-90088011D01*
X133533797Y-90139110D01*
X133533792Y-90139112D01*
X133416738Y-90226738D01*
X133329112Y-90343792D01*
X133329110Y-90343797D01*
X133278011Y-90480795D01*
X133278009Y-90480803D01*
X133271500Y-90541350D01*
X133271500Y-92338649D01*
X132080000Y-92338649D01*
X132080000Y-91440000D01*
X130301000Y-91440000D01*
X130232879Y-91419998D01*
X130186386Y-91366342D01*
X130175000Y-91314000D01*
X130175000Y-89787000D01*
X156652341Y-89787000D01*
X156785546Y-89931700D01*
X156788995Y-89935605D01*
X156809350Y-89959639D01*
X156812629Y-89963677D01*
X156838381Y-89996761D01*
X156841496Y-90000938D01*
X156859806Y-90026582D01*
X156862745Y-90030884D01*
X157008769Y-90254391D01*
X157011527Y-90258808D01*
X157027652Y-90285869D01*
X157030224Y-90290397D01*
X157050179Y-90327270D01*
X157052562Y-90331900D01*
X157066399Y-90360203D01*
X157068590Y-90364929D01*
X157175838Y-90609427D01*
X157177832Y-90614241D01*
X157189287Y-90643599D01*
X157191080Y-90648491D01*
X157204692Y-90688146D01*
X157206280Y-90693101D01*
X157215267Y-90723287D01*
X157216650Y-90728309D01*
X157327915Y-91167689D01*
X157329088Y-91224478D01*
X157310526Y-91313000D01*
X157353000Y-91313000D01*
X157353000Y-89787000D01*
X158367000Y-89787000D01*
X158367000Y-91313000D01*
X158927500Y-91313000D01*
X158927500Y-90527792D01*
X158927545Y-90524418D01*
X158928091Y-90504034D01*
X158928226Y-90500670D01*
X158929678Y-90473558D01*
X158929904Y-90470191D01*
X158931541Y-90449844D01*
X158931857Y-90446481D01*
X158943208Y-90340894D01*
X158944294Y-90333094D01*
X158952335Y-90286139D01*
X158953905Y-90278428D01*
X158968484Y-90216739D01*
X158970533Y-90209138D01*
X158984355Y-90163579D01*
X158986873Y-90156126D01*
X159061704Y-89955501D01*
X159065144Y-89947196D01*
X159087746Y-89897700D01*
X159091772Y-89889656D01*
X159126493Y-89826065D01*
X159131083Y-89818329D01*
X159151216Y-89787000D01*
X158367000Y-89787000D01*
X157353000Y-89787000D01*
X156652341Y-89787000D01*
X130175000Y-89787000D01*
X130175000Y-87247000D01*
X131317000Y-87247000D01*
X131317000Y-88773000D01*
X131953000Y-88773000D01*
X131953000Y-87247000D01*
X132967000Y-87247000D01*
X132967000Y-88773000D01*
X134493000Y-88773000D01*
X134493000Y-87247000D01*
X138047000Y-87247000D01*
X138047000Y-88773000D01*
X139573000Y-88773000D01*
X139573000Y-87247000D01*
X140587000Y-87247000D01*
X140587000Y-88773000D01*
X142113000Y-88773000D01*
X143127000Y-88773000D01*
X144653000Y-88773000D01*
X144653000Y-87702333D01*
X144548281Y-87851886D01*
X144534163Y-87868710D01*
X144383710Y-88019163D01*
X144366886Y-88033281D01*
X144192594Y-88155323D01*
X144173572Y-88166305D01*
X143980734Y-88256226D01*
X143960097Y-88263738D01*
X143754575Y-88318808D01*
X143732944Y-88322622D01*
X143520981Y-88341166D01*
X143499019Y-88341166D01*
X143287056Y-88322622D01*
X143265425Y-88318808D01*
X143127000Y-88281716D01*
X143127000Y-88773000D01*
X142113000Y-88773000D01*
X142113000Y-87247000D01*
X145667000Y-87247000D01*
X145667000Y-88773000D01*
X147193000Y-88773000D01*
X147193000Y-87247000D01*
X148207000Y-87247000D01*
X148207000Y-88773000D01*
X149733000Y-88773000D01*
X153287000Y-88773000D01*
X154813000Y-88773000D01*
X154813000Y-87247000D01*
X155827000Y-87247000D01*
X155827000Y-88773000D01*
X157353000Y-88773000D01*
X157353000Y-87247000D01*
X158367000Y-87247000D01*
X158367000Y-88773000D01*
X159893000Y-88773000D01*
X159893000Y-87247000D01*
X160907000Y-87247000D01*
X160907000Y-88773000D01*
X162433000Y-88773000D01*
X162433000Y-88679860D01*
X162400440Y-88661061D01*
X162394817Y-88657614D01*
X162361354Y-88635882D01*
X162355919Y-88632147D01*
X162158455Y-88488681D01*
X162153225Y-88484668D01*
X162122218Y-88459561D01*
X162117201Y-88455276D01*
X162077728Y-88419736D01*
X162072941Y-88415193D01*
X162044715Y-88386967D01*
X162040174Y-88382182D01*
X161876840Y-88200781D01*
X161872554Y-88195763D01*
X161847435Y-88164742D01*
X161843420Y-88159510D01*
X161812202Y-88116541D01*
X161808464Y-88111102D01*
X161786735Y-88077640D01*
X161783291Y-88072019D01*
X161661247Y-87860634D01*
X161658099Y-87854837D01*
X161639978Y-87819273D01*
X161637137Y-87813317D01*
X161615535Y-87764796D01*
X161613011Y-87758702D01*
X161598713Y-87721453D01*
X161596512Y-87715237D01*
X161521085Y-87483099D01*
X161519212Y-87476777D01*
X161508883Y-87438233D01*
X161507343Y-87431816D01*
X161496299Y-87379861D01*
X161495096Y-87373374D01*
X161488852Y-87333952D01*
X161487991Y-87327411D01*
X161479540Y-87247000D01*
X160907000Y-87247000D01*
X159893000Y-87247000D01*
X158367000Y-87247000D01*
X157353000Y-87247000D01*
X155827000Y-87247000D01*
X154813000Y-87247000D01*
X154306604Y-87247000D01*
X154299212Y-87317333D01*
X154298351Y-87323873D01*
X154292107Y-87363295D01*
X154290904Y-87369782D01*
X154279860Y-87421737D01*
X154278320Y-87428154D01*
X154267991Y-87466698D01*
X154266118Y-87473020D01*
X154190691Y-87705158D01*
X154188490Y-87711374D01*
X154174192Y-87748623D01*
X154171668Y-87754717D01*
X154150066Y-87803238D01*
X154147225Y-87809194D01*
X154129104Y-87844758D01*
X154125956Y-87850555D01*
X154003912Y-88061940D01*
X154000468Y-88067561D01*
X153978739Y-88101023D01*
X153975001Y-88106462D01*
X153943783Y-88149431D01*
X153939768Y-88154663D01*
X153914649Y-88185684D01*
X153910363Y-88190702D01*
X153747029Y-88372103D01*
X153742488Y-88376888D01*
X153714262Y-88405114D01*
X153709475Y-88409657D01*
X153670002Y-88445197D01*
X153664985Y-88449482D01*
X153633978Y-88474589D01*
X153628748Y-88478602D01*
X153431284Y-88622068D01*
X153425849Y-88625803D01*
X153392386Y-88647535D01*
X153386763Y-88650982D01*
X153340764Y-88677541D01*
X153334963Y-88680690D01*
X153299400Y-88698810D01*
X153293447Y-88701650D01*
X153287000Y-88704520D01*
X153287000Y-88773000D01*
X149733000Y-88773000D01*
X149733000Y-87247000D01*
X148207000Y-87247000D01*
X147193000Y-87247000D01*
X145667000Y-87247000D01*
X142113000Y-87247000D01*
X140587000Y-87247000D01*
X139573000Y-87247000D01*
X138047000Y-87247000D01*
X134493000Y-87247000D01*
X132967000Y-87247000D01*
X131953000Y-87247000D01*
X131317000Y-87247000D01*
X130175000Y-87247000D01*
X130175000Y-86995000D01*
X151486496Y-86995000D01*
X151506457Y-87184927D01*
X151536526Y-87277470D01*
X151565473Y-87366556D01*
X151565476Y-87366561D01*
X151660958Y-87531941D01*
X151660965Y-87531951D01*
X151788744Y-87673864D01*
X151840372Y-87711374D01*
X151943248Y-87786118D01*
X152117712Y-87863794D01*
X152304513Y-87903500D01*
X152495487Y-87903500D01*
X152682288Y-87863794D01*
X152856752Y-87786118D01*
X153011253Y-87673866D01*
X153139040Y-87531944D01*
X153234527Y-87366556D01*
X153293542Y-87184928D01*
X153312445Y-87005079D01*
X162473699Y-87005079D01*
X162493660Y-87195006D01*
X162523729Y-87287549D01*
X162552676Y-87376635D01*
X162552679Y-87376640D01*
X162648161Y-87542020D01*
X162648168Y-87542030D01*
X162775947Y-87683943D01*
X162827575Y-87721453D01*
X162930451Y-87796197D01*
X163104915Y-87873873D01*
X163291716Y-87913579D01*
X163482690Y-87913579D01*
X163669491Y-87873873D01*
X163843955Y-87796197D01*
X163998456Y-87683945D01*
X164126243Y-87542023D01*
X164221730Y-87376635D01*
X164263851Y-87247000D01*
X165987000Y-87247000D01*
X165987000Y-88773000D01*
X167513000Y-88773000D01*
X167513000Y-87247000D01*
X168527000Y-87247000D01*
X168527000Y-88773000D01*
X170053000Y-88773000D01*
X170053000Y-87247000D01*
X168527000Y-87247000D01*
X167513000Y-87247000D01*
X165987000Y-87247000D01*
X164263851Y-87247000D01*
X164280745Y-87195007D01*
X164300707Y-87005079D01*
X164300699Y-87005000D01*
X171356844Y-87005000D01*
X171371753Y-87184927D01*
X171375437Y-87229375D01*
X171430702Y-87447612D01*
X171430703Y-87447613D01*
X171430704Y-87447616D01*
X171521140Y-87653791D01*
X171521141Y-87653793D01*
X171644275Y-87842265D01*
X171644279Y-87842270D01*
X171796762Y-88007908D01*
X171829361Y-88033281D01*
X171974424Y-88146189D01*
X172172426Y-88253342D01*
X172172427Y-88253342D01*
X172172428Y-88253343D01*
X172284227Y-88291723D01*
X172385365Y-88326444D01*
X172607431Y-88363500D01*
X172607435Y-88363500D01*
X172832565Y-88363500D01*
X172832569Y-88363500D01*
X173054635Y-88326444D01*
X173267574Y-88253342D01*
X173465576Y-88146189D01*
X173643240Y-88007906D01*
X173795722Y-87842268D01*
X173918860Y-87653791D01*
X174009296Y-87447616D01*
X174064564Y-87229368D01*
X174083156Y-87005000D01*
X174064564Y-86780632D01*
X174027311Y-86633523D01*
X174009297Y-86562387D01*
X174009296Y-86562386D01*
X174009296Y-86562384D01*
X173918860Y-86356209D01*
X173894256Y-86318549D01*
X173795724Y-86167734D01*
X173795720Y-86167729D01*
X173643237Y-86002091D01*
X173517459Y-85904194D01*
X173465576Y-85863811D01*
X173432319Y-85845813D01*
X173381929Y-85795802D01*
X173366576Y-85726485D01*
X173391136Y-85659872D01*
X173432320Y-85624186D01*
X173438185Y-85621012D01*
X173465576Y-85606189D01*
X173643240Y-85467906D01*
X173795722Y-85302268D01*
X173918860Y-85113791D01*
X174009296Y-84907616D01*
X174064564Y-84689368D01*
X174083156Y-84465000D01*
X174064564Y-84240632D01*
X174009296Y-84022384D01*
X173918860Y-83816209D01*
X173912140Y-83805924D01*
X173795724Y-83627734D01*
X173795720Y-83627729D01*
X173643237Y-83462091D01*
X173548122Y-83388060D01*
X173465576Y-83323811D01*
X173431792Y-83305528D01*
X173381402Y-83255516D01*
X173366050Y-83186199D01*
X173390610Y-83119586D01*
X173431793Y-83083901D01*
X173465300Y-83065767D01*
X173465301Y-83065767D01*
X173642902Y-82927534D01*
X173795325Y-82761958D01*
X173918419Y-82573548D01*
X174008820Y-82367456D01*
X174008823Y-82367449D01*
X174056544Y-82179000D01*
X173151116Y-82179000D01*
X173179493Y-82134844D01*
X173220000Y-81996889D01*
X173220000Y-81853111D01*
X173179493Y-81715156D01*
X173151116Y-81671000D01*
X174056544Y-81671000D01*
X174056544Y-81670999D01*
X174008823Y-81482550D01*
X174008820Y-81482543D01*
X173918419Y-81276451D01*
X173795325Y-81088041D01*
X173652018Y-80932367D01*
X173620598Y-80868702D01*
X173628585Y-80798156D01*
X173673444Y-80743127D01*
X173700679Y-80728977D01*
X173816204Y-80685889D01*
X173933261Y-80598261D01*
X173978708Y-80537551D01*
X174020887Y-80481207D01*
X174020887Y-80481206D01*
X174020889Y-80481204D01*
X174068797Y-80352758D01*
X174071988Y-80344204D01*
X174071990Y-80344196D01*
X174078499Y-80283649D01*
X174078500Y-80283632D01*
X174078500Y-78486367D01*
X174078499Y-78486350D01*
X174071990Y-78425803D01*
X174071988Y-78425795D01*
X174020889Y-78288797D01*
X174020887Y-78288792D01*
X173933261Y-78171738D01*
X173816207Y-78084112D01*
X173816202Y-78084110D01*
X173679204Y-78033011D01*
X173679196Y-78033009D01*
X173618649Y-78026500D01*
X173618638Y-78026500D01*
X171821362Y-78026500D01*
X171821350Y-78026500D01*
X171760803Y-78033009D01*
X171760795Y-78033011D01*
X171623797Y-78084110D01*
X171623792Y-78084112D01*
X171506738Y-78171738D01*
X171419112Y-78288792D01*
X171419110Y-78288797D01*
X171368011Y-78425795D01*
X171368009Y-78425803D01*
X171361500Y-78486350D01*
X171361500Y-80283649D01*
X171368009Y-80344196D01*
X171368011Y-80344204D01*
X171419110Y-80481202D01*
X171419112Y-80481207D01*
X171506738Y-80598261D01*
X171623792Y-80685887D01*
X171623796Y-80685889D01*
X171739312Y-80728975D01*
X171796148Y-80771522D01*
X171820958Y-80838042D01*
X171805866Y-80907416D01*
X171787981Y-80932367D01*
X171644674Y-81088041D01*
X171521580Y-81276451D01*
X171431179Y-81482543D01*
X171431176Y-81482550D01*
X171383455Y-81670999D01*
X171383456Y-81671000D01*
X172288884Y-81671000D01*
X172260507Y-81715156D01*
X172220000Y-81853111D01*
X172220000Y-81996889D01*
X172260507Y-82134844D01*
X172288884Y-82179000D01*
X171383455Y-82179000D01*
X171431176Y-82367449D01*
X171431179Y-82367456D01*
X171521580Y-82573548D01*
X171644674Y-82761958D01*
X171797097Y-82927534D01*
X171974698Y-83065767D01*
X171974704Y-83065771D01*
X172008207Y-83083902D01*
X172058597Y-83133915D01*
X172073949Y-83203232D01*
X172049388Y-83269845D01*
X172008207Y-83305528D01*
X171974430Y-83323807D01*
X171974424Y-83323811D01*
X171796762Y-83462091D01*
X171644279Y-83627729D01*
X171644275Y-83627734D01*
X171521141Y-83816206D01*
X171430703Y-84022386D01*
X171430702Y-84022387D01*
X171375437Y-84240624D01*
X171375436Y-84240630D01*
X171375436Y-84240632D01*
X171356844Y-84465000D01*
X171375153Y-84685956D01*
X171375437Y-84689375D01*
X171430702Y-84907612D01*
X171430703Y-84907613D01*
X171430704Y-84907616D01*
X171521140Y-85113791D01*
X171521141Y-85113793D01*
X171644275Y-85302265D01*
X171644279Y-85302270D01*
X171796762Y-85467908D01*
X171830649Y-85494283D01*
X171974424Y-85606189D01*
X172001815Y-85621012D01*
X172007680Y-85624186D01*
X172058071Y-85674200D01*
X172073423Y-85743516D01*
X172048862Y-85810129D01*
X172007680Y-85845813D01*
X171974426Y-85863810D01*
X171974424Y-85863811D01*
X171796762Y-86002091D01*
X171644279Y-86167729D01*
X171644275Y-86167734D01*
X171521141Y-86356206D01*
X171430703Y-86562386D01*
X171430702Y-86562387D01*
X171375437Y-86780624D01*
X171375436Y-86780630D01*
X171375436Y-86780632D01*
X171356844Y-87005000D01*
X164300699Y-87005000D01*
X164280745Y-86815151D01*
X164221730Y-86633523D01*
X164126243Y-86468135D01*
X164126241Y-86468133D01*
X164126237Y-86468127D01*
X163998458Y-86326214D01*
X163843955Y-86213961D01*
X163669491Y-86136285D01*
X163482690Y-86096579D01*
X163291716Y-86096579D01*
X163104914Y-86136285D01*
X162930450Y-86213961D01*
X162775947Y-86326214D01*
X162648168Y-86468127D01*
X162648161Y-86468137D01*
X162552679Y-86633517D01*
X162552676Y-86633524D01*
X162493660Y-86815151D01*
X162473699Y-87005079D01*
X153312445Y-87005079D01*
X153313504Y-86995000D01*
X153293542Y-86805072D01*
X153234527Y-86623444D01*
X153139040Y-86458056D01*
X153139038Y-86458054D01*
X153139034Y-86458048D01*
X153011255Y-86316135D01*
X152856752Y-86203882D01*
X152752813Y-86157605D01*
X152698720Y-86111627D01*
X152678070Y-86043700D01*
X152678410Y-86042500D01*
X154069984Y-86042500D01*
X154125956Y-86139445D01*
X154129104Y-86145242D01*
X154147225Y-86180806D01*
X154150066Y-86186762D01*
X154170652Y-86233000D01*
X154813000Y-86233000D01*
X154813000Y-84707000D01*
X155827000Y-84707000D01*
X155827000Y-86233000D01*
X157353000Y-86233000D01*
X157353000Y-84707000D01*
X158367000Y-84707000D01*
X158367000Y-86233000D01*
X159893000Y-86233000D01*
X159893000Y-84707000D01*
X160907000Y-84707000D01*
X160907000Y-86233000D01*
X161621039Y-86233000D01*
X161637137Y-86196841D01*
X161639978Y-86190885D01*
X161658099Y-86155321D01*
X161661247Y-86149524D01*
X161783291Y-85938139D01*
X161786735Y-85932518D01*
X161808464Y-85899056D01*
X161812202Y-85893617D01*
X161843420Y-85850648D01*
X161847435Y-85845416D01*
X161853522Y-85837898D01*
X161852512Y-85836888D01*
X161847971Y-85832103D01*
X161684637Y-85650702D01*
X161680351Y-85645684D01*
X161655232Y-85614663D01*
X161651217Y-85609431D01*
X161619999Y-85566462D01*
X161616261Y-85561023D01*
X161594532Y-85527561D01*
X161591088Y-85521940D01*
X161469044Y-85310555D01*
X161465896Y-85304758D01*
X161447775Y-85269194D01*
X161444934Y-85263238D01*
X161423332Y-85214717D01*
X161420808Y-85208623D01*
X161406510Y-85171374D01*
X161404309Y-85165158D01*
X161328882Y-84933020D01*
X161327009Y-84926698D01*
X161316680Y-84888154D01*
X161315140Y-84881737D01*
X161304096Y-84829782D01*
X161302893Y-84823295D01*
X161296649Y-84783873D01*
X161295788Y-84777333D01*
X161288396Y-84707000D01*
X160907000Y-84707000D01*
X159893000Y-84707000D01*
X158367000Y-84707000D01*
X157353000Y-84707000D01*
X155827000Y-84707000D01*
X154813000Y-84707000D01*
X154289157Y-84707000D01*
X154290904Y-84715218D01*
X154292107Y-84721705D01*
X154298351Y-84761127D01*
X154299212Y-84767668D01*
X154324726Y-85010423D01*
X154325243Y-85017000D01*
X154327331Y-85056851D01*
X154327504Y-85063444D01*
X154327504Y-85116556D01*
X154327331Y-85123149D01*
X154325243Y-85163000D01*
X154324726Y-85169577D01*
X154299212Y-85412332D01*
X154298351Y-85418873D01*
X154292107Y-85458295D01*
X154290904Y-85464782D01*
X154279860Y-85516737D01*
X154278320Y-85523154D01*
X154267991Y-85561698D01*
X154266118Y-85568020D01*
X154190691Y-85800158D01*
X154188490Y-85806374D01*
X154174192Y-85843623D01*
X154171668Y-85849717D01*
X154150066Y-85898238D01*
X154147225Y-85904194D01*
X154129104Y-85939758D01*
X154125956Y-85945555D01*
X154069984Y-86042500D01*
X152678410Y-86042500D01*
X152697422Y-85975392D01*
X152750633Y-85928390D01*
X152752771Y-85927412D01*
X152856752Y-85881118D01*
X153011253Y-85768866D01*
X153109392Y-85659872D01*
X153139034Y-85626951D01*
X153139035Y-85626949D01*
X153139040Y-85626944D01*
X153234527Y-85461556D01*
X153293542Y-85279928D01*
X153313504Y-85090000D01*
X153293542Y-84900072D01*
X153234527Y-84718444D01*
X153139040Y-84553056D01*
X153139038Y-84553054D01*
X153139034Y-84553048D01*
X153050751Y-84455000D01*
X162281496Y-84455000D01*
X162301457Y-84644927D01*
X162327690Y-84725662D01*
X162360473Y-84826556D01*
X162368716Y-84840833D01*
X162455958Y-84991941D01*
X162455965Y-84991951D01*
X162583744Y-85133864D01*
X162630341Y-85167719D01*
X162738248Y-85246118D01*
X162912712Y-85323794D01*
X163099513Y-85363500D01*
X163290487Y-85363500D01*
X163477288Y-85323794D01*
X163651752Y-85246118D01*
X163806253Y-85133866D01*
X163845750Y-85090000D01*
X163934034Y-84991951D01*
X163934035Y-84991949D01*
X163934040Y-84991944D01*
X164029527Y-84826556D01*
X164068373Y-84707000D01*
X165987000Y-84707000D01*
X165987000Y-86233000D01*
X167513000Y-86233000D01*
X167513000Y-84707000D01*
X168527000Y-84707000D01*
X168527000Y-86233000D01*
X170053000Y-86233000D01*
X170053000Y-84707000D01*
X168527000Y-84707000D01*
X167513000Y-84707000D01*
X165987000Y-84707000D01*
X164068373Y-84707000D01*
X164088542Y-84644928D01*
X164108504Y-84455000D01*
X164088542Y-84265072D01*
X164029527Y-84083444D01*
X163934040Y-83918056D01*
X163934038Y-83918054D01*
X163934034Y-83918048D01*
X163806255Y-83776135D01*
X163651752Y-83663882D01*
X163477288Y-83586206D01*
X163290487Y-83546500D01*
X163099513Y-83546500D01*
X162912711Y-83586206D01*
X162738247Y-83663882D01*
X162583744Y-83776135D01*
X162455965Y-83918048D01*
X162455958Y-83918058D01*
X162360476Y-84083438D01*
X162360473Y-84083445D01*
X162301457Y-84265072D01*
X162281496Y-84455000D01*
X153050751Y-84455000D01*
X153011255Y-84411135D01*
X152856752Y-84298882D01*
X152682288Y-84221206D01*
X152495487Y-84181500D01*
X152304513Y-84181500D01*
X152117711Y-84221206D01*
X151943247Y-84298882D01*
X151788744Y-84411135D01*
X151660965Y-84553048D01*
X151660958Y-84553058D01*
X151565476Y-84718438D01*
X151565473Y-84718444D01*
X151551604Y-84761127D01*
X151506457Y-84900072D01*
X151486496Y-85090000D01*
X151506457Y-85279927D01*
X151533612Y-85363500D01*
X151565473Y-85461556D01*
X151565476Y-85461561D01*
X151660958Y-85626941D01*
X151660965Y-85626951D01*
X151788744Y-85768864D01*
X151840372Y-85806374D01*
X151943248Y-85881118D01*
X151983538Y-85899056D01*
X152047184Y-85927393D01*
X152101280Y-85973373D01*
X152121929Y-86041301D01*
X152102577Y-86109609D01*
X152049366Y-86156610D01*
X152047184Y-86157607D01*
X151943247Y-86203882D01*
X151788744Y-86316135D01*
X151660965Y-86458048D01*
X151660958Y-86458058D01*
X151565476Y-86623438D01*
X151565473Y-86623445D01*
X151506457Y-86805072D01*
X151486496Y-86995000D01*
X130175000Y-86995000D01*
X130175000Y-84707000D01*
X131317000Y-84707000D01*
X131317000Y-86233000D01*
X131953000Y-86233000D01*
X131953000Y-84707000D01*
X132967000Y-84707000D01*
X132967000Y-86233000D01*
X134493000Y-86233000D01*
X134493000Y-85594456D01*
X135737301Y-85594456D01*
X135757262Y-85784383D01*
X135780632Y-85856305D01*
X135816278Y-85966012D01*
X135816281Y-85966017D01*
X135911763Y-86131397D01*
X135911770Y-86131407D01*
X136039549Y-86273320D01*
X136039552Y-86273322D01*
X136194053Y-86385574D01*
X136368517Y-86463250D01*
X136555318Y-86502956D01*
X136746292Y-86502956D01*
X136933093Y-86463250D01*
X137107557Y-86385574D01*
X137262058Y-86273322D01*
X137322407Y-86206298D01*
X137389839Y-86131407D01*
X137389840Y-86131405D01*
X137389845Y-86131400D01*
X137485332Y-85966012D01*
X137544347Y-85784384D01*
X137564309Y-85594456D01*
X137544347Y-85404528D01*
X137485332Y-85222900D01*
X137389845Y-85057512D01*
X137389843Y-85057510D01*
X137389839Y-85057504D01*
X137262060Y-84915591D01*
X137107557Y-84803338D01*
X136933093Y-84725662D01*
X136845296Y-84707000D01*
X138358343Y-84707000D01*
X138376761Y-84738901D01*
X138379909Y-84744698D01*
X138398030Y-84780262D01*
X138400871Y-84786218D01*
X138422473Y-84834739D01*
X138424997Y-84840833D01*
X138439295Y-84878082D01*
X138441496Y-84884298D01*
X138516923Y-85116436D01*
X138518796Y-85122758D01*
X138529125Y-85161302D01*
X138530665Y-85167719D01*
X138541709Y-85219674D01*
X138542912Y-85226161D01*
X138549156Y-85265583D01*
X138550017Y-85272124D01*
X138575531Y-85514879D01*
X138576048Y-85521456D01*
X138578136Y-85561307D01*
X138578309Y-85567900D01*
X138578309Y-85621012D01*
X138578136Y-85627605D01*
X138576048Y-85667456D01*
X138575531Y-85674033D01*
X138550017Y-85916788D01*
X138549156Y-85923329D01*
X138542912Y-85962751D01*
X138541709Y-85969238D01*
X138530665Y-86021193D01*
X138529125Y-86027610D01*
X138518796Y-86066154D01*
X138516923Y-86072476D01*
X138464765Y-86233000D01*
X139573000Y-86233000D01*
X139573000Y-85042855D01*
X140587000Y-85042855D01*
X140587000Y-86233000D01*
X141547818Y-86233000D01*
X141473882Y-86005452D01*
X141472009Y-85999130D01*
X141461680Y-85960586D01*
X141460140Y-85954169D01*
X141449096Y-85902214D01*
X141447893Y-85895727D01*
X141441649Y-85856305D01*
X141440788Y-85849764D01*
X141415274Y-85607009D01*
X141414757Y-85600432D01*
X141412669Y-85560581D01*
X141412496Y-85553988D01*
X141412496Y-85527432D01*
X142426496Y-85527432D01*
X142446457Y-85717359D01*
X142473361Y-85800158D01*
X142505473Y-85898988D01*
X142505476Y-85898993D01*
X142600958Y-86064373D01*
X142600965Y-86064383D01*
X142728744Y-86206296D01*
X142728747Y-86206298D01*
X142883248Y-86318550D01*
X143057712Y-86396226D01*
X143244513Y-86435932D01*
X143435487Y-86435932D01*
X143622288Y-86396226D01*
X143796752Y-86318550D01*
X143951253Y-86206298D01*
X143951255Y-86206296D01*
X144079034Y-86064383D01*
X144079035Y-86064381D01*
X144079040Y-86064376D01*
X144174527Y-85898988D01*
X144233542Y-85717360D01*
X144253504Y-85527432D01*
X144233542Y-85337504D01*
X144174527Y-85155876D01*
X144079040Y-84990488D01*
X144079038Y-84990486D01*
X144079034Y-84990480D01*
X143951255Y-84848567D01*
X143796752Y-84736314D01*
X143730911Y-84707000D01*
X145667000Y-84707000D01*
X145667000Y-86233000D01*
X147193000Y-86233000D01*
X147193000Y-84707000D01*
X148207000Y-84707000D01*
X148207000Y-86233000D01*
X149733000Y-86233000D01*
X149733000Y-84707000D01*
X148207000Y-84707000D01*
X147193000Y-84707000D01*
X145667000Y-84707000D01*
X143730911Y-84707000D01*
X143622288Y-84658638D01*
X143435487Y-84618932D01*
X143244513Y-84618932D01*
X143057711Y-84658638D01*
X142883247Y-84736314D01*
X142728744Y-84848567D01*
X142600965Y-84990480D01*
X142600958Y-84990490D01*
X142505476Y-85155870D01*
X142505473Y-85155876D01*
X142491604Y-85198559D01*
X142446457Y-85337504D01*
X142426496Y-85527432D01*
X141412496Y-85527432D01*
X141412496Y-85500876D01*
X141412669Y-85494283D01*
X141414757Y-85454432D01*
X141415274Y-85447855D01*
X141440788Y-85205100D01*
X141441649Y-85198559D01*
X141447893Y-85159137D01*
X141449096Y-85152650D01*
X141455793Y-85121143D01*
X141425893Y-85125879D01*
X141419350Y-85126740D01*
X141366526Y-85132290D01*
X141359952Y-85132807D01*
X141320115Y-85134894D01*
X141313523Y-85135067D01*
X141069451Y-85135067D01*
X141062859Y-85134894D01*
X141023022Y-85132807D01*
X141016448Y-85132290D01*
X140963624Y-85126740D01*
X140957081Y-85125879D01*
X140917648Y-85119634D01*
X140911160Y-85118432D01*
X140672398Y-85067682D01*
X140665983Y-85066141D01*
X140627436Y-85055812D01*
X140621111Y-85053939D01*
X140587000Y-85042855D01*
X139573000Y-85042855D01*
X139573000Y-84707000D01*
X138358343Y-84707000D01*
X136845296Y-84707000D01*
X136746292Y-84685956D01*
X136555318Y-84685956D01*
X136368516Y-84725662D01*
X136194052Y-84803338D01*
X136039549Y-84915591D01*
X135911770Y-85057504D01*
X135911763Y-85057514D01*
X135816281Y-85222894D01*
X135816278Y-85222900D01*
X135808734Y-85246117D01*
X135757262Y-85404528D01*
X135737301Y-85594456D01*
X134493000Y-85594456D01*
X134493000Y-84707000D01*
X132967000Y-84707000D01*
X131953000Y-84707000D01*
X131317000Y-84707000D01*
X130175000Y-84707000D01*
X130175000Y-82167000D01*
X131317000Y-82167000D01*
X131317000Y-83693000D01*
X131953000Y-83693000D01*
X131953000Y-82167000D01*
X132967000Y-82167000D01*
X132967000Y-83693000D01*
X134493000Y-83693000D01*
X134493000Y-82167000D01*
X135507000Y-82167000D01*
X135507000Y-83693000D01*
X136349735Y-83693000D01*
X136370478Y-83688591D01*
X136376966Y-83687389D01*
X136416399Y-83681144D01*
X136422942Y-83680283D01*
X136475766Y-83674733D01*
X136482340Y-83674216D01*
X136522177Y-83672129D01*
X136528769Y-83671956D01*
X136772841Y-83671956D01*
X136779433Y-83672129D01*
X136819270Y-83674216D01*
X136825844Y-83674733D01*
X136878668Y-83680283D01*
X136885211Y-83681144D01*
X136924644Y-83687389D01*
X136931132Y-83688591D01*
X136951875Y-83693000D01*
X137033000Y-83693000D01*
X137033000Y-82167000D01*
X138047000Y-82167000D01*
X138047000Y-83693000D01*
X139326153Y-83693000D01*
X139325369Y-83690587D01*
X139323496Y-83684265D01*
X139313167Y-83645721D01*
X139311627Y-83639304D01*
X139300583Y-83587349D01*
X139299380Y-83580862D01*
X139293136Y-83541440D01*
X139292275Y-83534899D01*
X139266761Y-83292144D01*
X139266244Y-83285567D01*
X139264156Y-83245716D01*
X139263983Y-83239123D01*
X139263983Y-83212567D01*
X140277983Y-83212567D01*
X140297944Y-83402494D01*
X140317309Y-83462091D01*
X140356960Y-83584123D01*
X140356963Y-83584128D01*
X140452445Y-83749508D01*
X140452452Y-83749518D01*
X140580231Y-83891431D01*
X140580234Y-83891433D01*
X140734735Y-84003685D01*
X140909199Y-84081361D01*
X141096000Y-84121067D01*
X141286974Y-84121067D01*
X141473775Y-84081361D01*
X141648239Y-84003685D01*
X141802740Y-83891433D01*
X141930527Y-83749511D01*
X142026014Y-83584123D01*
X142085029Y-83402495D01*
X142104991Y-83212567D01*
X142085029Y-83022639D01*
X142026014Y-82841011D01*
X141930527Y-82675623D01*
X141930525Y-82675621D01*
X141930521Y-82675615D01*
X141802742Y-82533702D01*
X141648239Y-82421449D01*
X141473775Y-82343773D01*
X141286974Y-82304067D01*
X141096000Y-82304067D01*
X140909198Y-82343773D01*
X140734734Y-82421449D01*
X140580231Y-82533702D01*
X140452452Y-82675615D01*
X140452445Y-82675625D01*
X140356963Y-82841005D01*
X140356960Y-82841011D01*
X140343091Y-82883694D01*
X140297944Y-83022639D01*
X140277983Y-83212567D01*
X139263983Y-83212567D01*
X139263983Y-83186011D01*
X139264156Y-83179418D01*
X139266244Y-83139567D01*
X139266761Y-83132990D01*
X139292275Y-82890235D01*
X139293136Y-82883694D01*
X139299380Y-82844272D01*
X139300583Y-82837785D01*
X139311627Y-82785830D01*
X139313167Y-82779413D01*
X139323496Y-82740869D01*
X139325369Y-82734547D01*
X139400796Y-82502409D01*
X139402997Y-82496193D01*
X139417295Y-82458944D01*
X139419819Y-82452850D01*
X139441421Y-82404329D01*
X139444262Y-82398373D01*
X139462383Y-82362809D01*
X139465531Y-82357012D01*
X139573000Y-82170871D01*
X139573000Y-82167000D01*
X143127000Y-82167000D01*
X143127000Y-83611697D01*
X143164961Y-83607709D01*
X143171535Y-83607192D01*
X143211372Y-83605105D01*
X143217964Y-83604932D01*
X143462036Y-83604932D01*
X143468628Y-83605105D01*
X143508465Y-83607192D01*
X143515039Y-83607709D01*
X143567863Y-83613259D01*
X143574406Y-83614120D01*
X143613839Y-83620365D01*
X143620327Y-83621567D01*
X143859089Y-83672317D01*
X143865504Y-83673858D01*
X143904051Y-83684187D01*
X143910376Y-83686060D01*
X143931734Y-83693000D01*
X144653000Y-83693000D01*
X144653000Y-82167000D01*
X145667000Y-82167000D01*
X145667000Y-83693000D01*
X147193000Y-83693000D01*
X147193000Y-82167000D01*
X148207000Y-82167000D01*
X148207000Y-83693000D01*
X149733000Y-83693000D01*
X149733000Y-82167000D01*
X150747000Y-82167000D01*
X150747000Y-83693000D01*
X151072624Y-83693000D01*
X151085738Y-83679886D01*
X151090525Y-83675343D01*
X151129998Y-83639803D01*
X151135015Y-83635518D01*
X151166022Y-83610411D01*
X151171252Y-83606398D01*
X151368716Y-83462932D01*
X151374151Y-83459197D01*
X151407614Y-83437465D01*
X151413237Y-83434018D01*
X151459236Y-83407459D01*
X151465037Y-83404310D01*
X151500600Y-83386190D01*
X151506553Y-83383350D01*
X151729542Y-83284068D01*
X151735638Y-83281543D01*
X151772895Y-83267242D01*
X151779111Y-83265041D01*
X151829624Y-83248628D01*
X151835949Y-83246755D01*
X151874496Y-83236426D01*
X151880911Y-83234885D01*
X152119673Y-83184135D01*
X152126161Y-83182933D01*
X152165594Y-83176688D01*
X152172137Y-83175827D01*
X152224961Y-83170277D01*
X152231535Y-83169760D01*
X152271372Y-83167673D01*
X152273000Y-83167630D01*
X152273000Y-82564731D01*
X153412171Y-82564731D01*
X153432132Y-82754658D01*
X153440176Y-82779413D01*
X153491148Y-82936287D01*
X153491151Y-82936292D01*
X153586633Y-83101672D01*
X153586640Y-83101682D01*
X153714419Y-83243595D01*
X153730827Y-83255516D01*
X153868923Y-83355849D01*
X154043387Y-83433525D01*
X154230188Y-83473231D01*
X154421162Y-83473231D01*
X154607963Y-83433525D01*
X154782427Y-83355849D01*
X154936928Y-83243597D01*
X154940238Y-83239921D01*
X155000684Y-83202681D01*
X155033875Y-83198231D01*
X155606982Y-83198231D01*
X155622823Y-83199980D01*
X155622851Y-83199687D01*
X155630737Y-83200431D01*
X155630744Y-83200433D01*
X155698821Y-83198293D01*
X155702780Y-83198231D01*
X155730686Y-83198231D01*
X155730691Y-83198231D01*
X155734702Y-83197723D01*
X155746534Y-83196792D01*
X155790724Y-83195404D01*
X155810182Y-83189750D01*
X155829529Y-83185744D01*
X155849632Y-83183205D01*
X155890745Y-83166926D01*
X155901965Y-83163084D01*
X155926748Y-83155885D01*
X155944426Y-83150750D01*
X155944430Y-83150748D01*
X155961861Y-83140439D01*
X155979615Y-83131740D01*
X155998452Y-83124283D01*
X156034227Y-83098289D01*
X156044133Y-83091782D01*
X156082197Y-83069273D01*
X156096520Y-83054949D01*
X156111559Y-83042105D01*
X156127942Y-83030203D01*
X156156138Y-82996117D01*
X156164107Y-82987361D01*
X156882140Y-82269328D01*
X159363390Y-82269328D01*
X159383351Y-82459255D01*
X159397373Y-82502409D01*
X159442367Y-82640884D01*
X159442370Y-82640889D01*
X159537852Y-82806269D01*
X159537859Y-82806279D01*
X159665638Y-82948192D01*
X159665641Y-82948194D01*
X159820142Y-83060446D01*
X159994606Y-83138122D01*
X160181407Y-83177828D01*
X160372381Y-83177828D01*
X160559182Y-83138122D01*
X160733646Y-83060446D01*
X160888147Y-82948194D01*
X160898870Y-82936285D01*
X161015928Y-82806279D01*
X161015929Y-82806277D01*
X161015934Y-82806272D01*
X161111421Y-82640884D01*
X161170436Y-82459256D01*
X161190398Y-82269328D01*
X161179643Y-82167000D01*
X163447000Y-82167000D01*
X163447000Y-82544474D01*
X163468839Y-82547933D01*
X163475327Y-82549135D01*
X163714089Y-82599885D01*
X163720504Y-82601426D01*
X163759051Y-82611755D01*
X163765376Y-82613628D01*
X163815889Y-82630041D01*
X163822105Y-82632242D01*
X163859362Y-82646543D01*
X163865458Y-82649068D01*
X164088447Y-82748350D01*
X164094400Y-82751190D01*
X164129963Y-82769310D01*
X164135764Y-82772459D01*
X164181763Y-82799018D01*
X164187386Y-82802465D01*
X164220849Y-82824197D01*
X164226284Y-82827932D01*
X164423748Y-82971398D01*
X164428978Y-82975411D01*
X164459985Y-83000518D01*
X164465002Y-83004803D01*
X164504475Y-83040343D01*
X164509262Y-83044886D01*
X164537488Y-83073112D01*
X164542029Y-83077897D01*
X164705363Y-83259298D01*
X164709649Y-83264316D01*
X164734768Y-83295337D01*
X164738783Y-83300569D01*
X164770001Y-83343538D01*
X164773739Y-83348977D01*
X164795468Y-83382439D01*
X164798912Y-83388060D01*
X164920956Y-83599445D01*
X164924104Y-83605242D01*
X164942225Y-83640806D01*
X164945066Y-83646762D01*
X164965652Y-83693000D01*
X164973000Y-83693000D01*
X164973000Y-82167000D01*
X165987000Y-82167000D01*
X165987000Y-83693000D01*
X167513000Y-83693000D01*
X167513000Y-82167000D01*
X168527000Y-82167000D01*
X168527000Y-83693000D01*
X170053000Y-83693000D01*
X170053000Y-82167000D01*
X168527000Y-82167000D01*
X167513000Y-82167000D01*
X165987000Y-82167000D01*
X164973000Y-82167000D01*
X163447000Y-82167000D01*
X161179643Y-82167000D01*
X161170436Y-82079400D01*
X161111421Y-81897772D01*
X161015934Y-81732384D01*
X161015932Y-81732382D01*
X161015928Y-81732376D01*
X160888149Y-81590463D01*
X160733646Y-81478210D01*
X160559182Y-81400534D01*
X160372381Y-81360828D01*
X160181407Y-81360828D01*
X159994605Y-81400534D01*
X159820141Y-81478210D01*
X159665638Y-81590463D01*
X159537859Y-81732376D01*
X159537852Y-81732386D01*
X159442370Y-81897766D01*
X159442367Y-81897772D01*
X159427893Y-81942314D01*
X159383351Y-82079400D01*
X159363390Y-82269328D01*
X156882140Y-82269328D01*
X157774401Y-81377067D01*
X157786836Y-81367106D01*
X157786649Y-81366879D01*
X157792760Y-81361823D01*
X157792759Y-81361823D01*
X157792762Y-81361822D01*
X157839420Y-81312134D01*
X157842111Y-81309357D01*
X157861878Y-81289592D01*
X157864361Y-81286389D01*
X157872052Y-81277384D01*
X157902330Y-81245143D01*
X157912089Y-81227389D01*
X157922941Y-81210868D01*
X157935357Y-81194863D01*
X157952912Y-81154292D01*
X157958136Y-81143630D01*
X157973933Y-81114897D01*
X157979439Y-81104882D01*
X157984477Y-81085257D01*
X157990882Y-81066552D01*
X157998925Y-81047967D01*
X158005840Y-81004303D01*
X158008248Y-80992674D01*
X158019244Y-80949852D01*
X158019244Y-80929597D01*
X158020795Y-80909885D01*
X158021186Y-80907416D01*
X158023964Y-80889879D01*
X158019803Y-80845858D01*
X158019244Y-80834001D01*
X158019244Y-80792122D01*
X159033244Y-80792122D01*
X159033722Y-80797183D01*
X159042916Y-80789739D01*
X159048146Y-80785726D01*
X159245610Y-80642260D01*
X159251045Y-80638525D01*
X159284508Y-80616793D01*
X159290131Y-80613346D01*
X159336130Y-80586787D01*
X159341931Y-80583638D01*
X159377494Y-80565518D01*
X159383447Y-80562678D01*
X159606436Y-80463396D01*
X159612532Y-80460871D01*
X159649789Y-80446570D01*
X159656005Y-80444369D01*
X159706518Y-80427956D01*
X159712843Y-80426083D01*
X159751390Y-80415754D01*
X159757805Y-80414213D01*
X159893000Y-80385476D01*
X159893000Y-79627000D01*
X160907000Y-79627000D01*
X160907000Y-80447721D01*
X160941256Y-80460871D01*
X160947352Y-80463396D01*
X161170341Y-80562678D01*
X161176294Y-80565518D01*
X161211857Y-80583638D01*
X161217658Y-80586787D01*
X161263657Y-80613346D01*
X161269280Y-80616793D01*
X161302743Y-80638525D01*
X161308178Y-80642260D01*
X161505642Y-80785726D01*
X161510872Y-80789739D01*
X161541879Y-80814846D01*
X161546896Y-80819131D01*
X161586369Y-80854671D01*
X161591156Y-80859214D01*
X161619382Y-80887440D01*
X161623923Y-80892225D01*
X161787257Y-81073626D01*
X161791543Y-81078644D01*
X161816662Y-81109665D01*
X161820677Y-81114897D01*
X161848360Y-81153000D01*
X162433000Y-81153000D01*
X162433000Y-79627000D01*
X163447000Y-79627000D01*
X163447000Y-81153000D01*
X164973000Y-81153000D01*
X164973000Y-79627000D01*
X165987000Y-79627000D01*
X165987000Y-81153000D01*
X167513000Y-81153000D01*
X167513000Y-79627000D01*
X168527000Y-79627000D01*
X168527000Y-81153000D01*
X170053000Y-81153000D01*
X170053000Y-79627000D01*
X168527000Y-79627000D01*
X167513000Y-79627000D01*
X165987000Y-79627000D01*
X164973000Y-79627000D01*
X163447000Y-79627000D01*
X162433000Y-79627000D01*
X160907000Y-79627000D01*
X159893000Y-79627000D01*
X159324065Y-79627000D01*
X159321067Y-79632193D01*
X159199025Y-79806485D01*
X159184907Y-79823309D01*
X159034454Y-79973762D01*
X159033244Y-79974777D01*
X159033244Y-80792122D01*
X158019244Y-80792122D01*
X158019244Y-77644594D01*
X160123793Y-77644594D01*
X160143754Y-77834521D01*
X160171813Y-77920875D01*
X160202770Y-78016150D01*
X160202773Y-78016155D01*
X160298255Y-78181535D01*
X160298262Y-78181545D01*
X160426041Y-78323458D01*
X160461227Y-78349022D01*
X160580545Y-78435712D01*
X160755009Y-78513388D01*
X160941810Y-78553094D01*
X161132784Y-78553094D01*
X161319585Y-78513388D01*
X161494049Y-78435712D01*
X161648550Y-78323460D01*
X161704683Y-78261118D01*
X161776331Y-78181545D01*
X161776332Y-78181543D01*
X161776337Y-78181538D01*
X161871824Y-78016150D01*
X161930839Y-77834522D01*
X161950801Y-77644594D01*
X161930839Y-77454666D01*
X161871824Y-77273038D01*
X161776337Y-77107650D01*
X161776335Y-77107648D01*
X161776331Y-77107642D01*
X161757745Y-77087000D01*
X163447000Y-77087000D01*
X163447000Y-78613000D01*
X164973000Y-78613000D01*
X164973000Y-77092892D01*
X164943734Y-77090332D01*
X164924838Y-77087000D01*
X165987000Y-77087000D01*
X165987000Y-78613000D01*
X167513000Y-78613000D01*
X167513000Y-77087000D01*
X168527000Y-77087000D01*
X168527000Y-78613000D01*
X170053000Y-78613000D01*
X170053000Y-77087000D01*
X168527000Y-77087000D01*
X167513000Y-77087000D01*
X165987000Y-77087000D01*
X164924838Y-77087000D01*
X163447000Y-77087000D01*
X161757745Y-77087000D01*
X161648552Y-76965729D01*
X161494049Y-76853476D01*
X161319585Y-76775800D01*
X161132784Y-76736094D01*
X160941810Y-76736094D01*
X160755008Y-76775800D01*
X160580544Y-76853476D01*
X160426041Y-76965729D01*
X160298262Y-77107642D01*
X160298255Y-77107652D01*
X160203008Y-77272625D01*
X160202770Y-77273038D01*
X160198925Y-77284872D01*
X160143754Y-77454666D01*
X160123793Y-77644594D01*
X158019244Y-77644594D01*
X158019244Y-76073000D01*
X159033244Y-76073000D01*
X159893000Y-76073000D01*
X159893000Y-75722354D01*
X160907000Y-75722354D01*
X160908669Y-75722267D01*
X160915261Y-75722094D01*
X161159333Y-75722094D01*
X161165925Y-75722267D01*
X161205762Y-75724354D01*
X161212336Y-75724871D01*
X161265160Y-75730421D01*
X161271703Y-75731282D01*
X161311136Y-75737527D01*
X161317624Y-75738729D01*
X161556386Y-75789479D01*
X161562801Y-75791020D01*
X161601348Y-75801349D01*
X161607673Y-75803222D01*
X161658186Y-75819635D01*
X161664402Y-75821836D01*
X161701659Y-75836137D01*
X161707755Y-75838662D01*
X161930744Y-75937944D01*
X161936697Y-75940784D01*
X161972260Y-75958904D01*
X161978061Y-75962053D01*
X162024060Y-75988612D01*
X162029683Y-75992059D01*
X162063146Y-76013791D01*
X162068581Y-76017526D01*
X162144935Y-76073000D01*
X162433000Y-76073000D01*
X162433000Y-74547000D01*
X163447000Y-74547000D01*
X163447000Y-76073000D01*
X163860478Y-76073000D01*
X163842870Y-76007285D01*
X163839056Y-75985654D01*
X163820512Y-75773691D01*
X163820512Y-75751729D01*
X163839056Y-75539766D01*
X163842870Y-75518135D01*
X163897940Y-75312613D01*
X163905452Y-75291975D01*
X163995373Y-75099138D01*
X164006355Y-75080117D01*
X164128397Y-74905824D01*
X164142515Y-74889000D01*
X164292968Y-74738547D01*
X164309792Y-74724429D01*
X164484085Y-74602387D01*
X164503106Y-74591405D01*
X164598333Y-74547000D01*
X165987000Y-74547000D01*
X165987000Y-74698825D01*
X166023565Y-74724429D01*
X166040388Y-74738547D01*
X166190841Y-74889000D01*
X166204959Y-74905824D01*
X166327001Y-75080117D01*
X166337983Y-75099138D01*
X166427904Y-75291975D01*
X166435416Y-75312613D01*
X166490486Y-75518135D01*
X166494300Y-75539766D01*
X166512844Y-75751729D01*
X166512844Y-75773691D01*
X166494300Y-75985654D01*
X166490486Y-76007285D01*
X166472878Y-76073000D01*
X167513000Y-76073000D01*
X167513000Y-74547000D01*
X165987000Y-74547000D01*
X164598333Y-74547000D01*
X163447000Y-74547000D01*
X162433000Y-74547000D01*
X161101262Y-74547000D01*
X161096179Y-74550900D01*
X160907000Y-74688346D01*
X160907000Y-75722354D01*
X159893000Y-75722354D01*
X159893000Y-74989798D01*
X159745395Y-74989798D01*
X159738803Y-74989625D01*
X159698966Y-74987538D01*
X159692392Y-74987021D01*
X159639568Y-74981471D01*
X159633025Y-74980610D01*
X159593592Y-74974365D01*
X159587104Y-74973163D01*
X159348342Y-74922413D01*
X159341927Y-74920872D01*
X159303380Y-74910543D01*
X159297055Y-74908670D01*
X159246542Y-74892257D01*
X159240326Y-74890056D01*
X159222930Y-74883378D01*
X159033244Y-75073065D01*
X159033244Y-76073000D01*
X158019244Y-76073000D01*
X158019244Y-74705245D01*
X158039246Y-74637124D01*
X158056139Y-74616160D01*
X159005920Y-73666378D01*
X159068229Y-73632356D01*
X159139044Y-73637420D01*
X159188648Y-73671165D01*
X159243749Y-73732360D01*
X159256178Y-73746164D01*
X159410679Y-73858416D01*
X159585143Y-73936092D01*
X159771944Y-73975798D01*
X159962918Y-73975798D01*
X160149719Y-73936092D01*
X160324183Y-73858416D01*
X160478684Y-73746164D01*
X160496039Y-73726889D01*
X160606465Y-73604249D01*
X160606466Y-73604247D01*
X160606471Y-73604242D01*
X160701958Y-73438854D01*
X160760973Y-73257226D01*
X160765148Y-73217500D01*
X163447000Y-73217500D01*
X163447000Y-73533000D01*
X164973000Y-73533000D01*
X164973000Y-73217500D01*
X165987000Y-73217500D01*
X165987000Y-73533000D01*
X167513000Y-73533000D01*
X167513000Y-73217500D01*
X165987000Y-73217500D01*
X164973000Y-73217500D01*
X163447000Y-73217500D01*
X160765148Y-73217500D01*
X160780935Y-73067298D01*
X160760973Y-72877370D01*
X160701958Y-72695742D01*
X160606471Y-72530354D01*
X160579354Y-72500238D01*
X160501535Y-72413810D01*
X160470818Y-72349802D01*
X160479583Y-72279349D01*
X160525046Y-72224818D01*
X160592774Y-72203523D01*
X160595172Y-72203500D01*
X168629446Y-72203500D01*
X168645287Y-72205249D01*
X168645315Y-72204956D01*
X168653201Y-72205700D01*
X168653208Y-72205702D01*
X168721285Y-72203562D01*
X168725244Y-72203500D01*
X168753150Y-72203500D01*
X168753155Y-72203500D01*
X168757166Y-72202992D01*
X168768993Y-72202061D01*
X168794419Y-72201262D01*
X168863133Y-72219114D01*
X168911288Y-72271282D01*
X168913763Y-72276586D01*
X168976139Y-72418790D01*
X169099275Y-72607265D01*
X169099279Y-72607270D01*
X169251762Y-72772908D01*
X169275296Y-72791225D01*
X169429424Y-72911189D01*
X169462680Y-72929186D01*
X169513071Y-72979200D01*
X169528423Y-73048516D01*
X169503862Y-73115129D01*
X169462680Y-73150813D01*
X169429426Y-73168810D01*
X169429424Y-73168811D01*
X169251762Y-73307091D01*
X169099279Y-73472729D01*
X169099275Y-73472734D01*
X168976141Y-73661206D01*
X168885703Y-73867386D01*
X168885702Y-73867387D01*
X168830437Y-74085624D01*
X168830436Y-74085630D01*
X168830436Y-74085632D01*
X168811844Y-74310000D01*
X168829447Y-74522436D01*
X168830437Y-74534375D01*
X168885702Y-74752612D01*
X168885703Y-74752613D01*
X168885704Y-74752616D01*
X168974672Y-74955444D01*
X168976141Y-74958793D01*
X169099275Y-75147265D01*
X169099279Y-75147270D01*
X169201540Y-75258353D01*
X169234913Y-75294606D01*
X169251762Y-75312908D01*
X169306331Y-75355381D01*
X169429424Y-75451189D01*
X169627426Y-75558342D01*
X169627427Y-75558342D01*
X169627428Y-75558343D01*
X169700741Y-75583511D01*
X169840365Y-75631444D01*
X170062431Y-75668500D01*
X170062435Y-75668500D01*
X170287565Y-75668500D01*
X170287569Y-75668500D01*
X170509635Y-75631444D01*
X170722574Y-75558342D01*
X170920576Y-75451189D01*
X171098240Y-75312906D01*
X171250722Y-75147268D01*
X171339518Y-75011354D01*
X171393520Y-74965268D01*
X171463868Y-74955692D01*
X171528225Y-74985669D01*
X171550480Y-75011353D01*
X171573019Y-75045851D01*
X171639275Y-75147265D01*
X171639279Y-75147270D01*
X171741540Y-75258353D01*
X171774913Y-75294606D01*
X171791762Y-75312908D01*
X171846331Y-75355381D01*
X171969424Y-75451189D01*
X172167426Y-75558342D01*
X172167427Y-75558342D01*
X172167428Y-75558343D01*
X172240741Y-75583511D01*
X172380365Y-75631444D01*
X172602431Y-75668500D01*
X172602435Y-75668500D01*
X172827565Y-75668500D01*
X172827569Y-75668500D01*
X173049635Y-75631444D01*
X173262574Y-75558342D01*
X173460576Y-75451189D01*
X173638240Y-75312906D01*
X173790722Y-75147268D01*
X173913860Y-74958791D01*
X174004296Y-74752616D01*
X174059564Y-74534368D01*
X174078156Y-74310000D01*
X174059564Y-74085632D01*
X174004296Y-73867384D01*
X173913860Y-73661209D01*
X173898318Y-73637420D01*
X173790724Y-73472734D01*
X173790720Y-73472729D01*
X173647365Y-73317006D01*
X173638240Y-73307094D01*
X173638239Y-73307093D01*
X173638237Y-73307091D01*
X173556382Y-73243381D01*
X173460576Y-73168811D01*
X173427319Y-73150813D01*
X173376929Y-73100802D01*
X173361576Y-73031485D01*
X173386136Y-72964872D01*
X173427320Y-72929186D01*
X173460576Y-72911189D01*
X173638240Y-72772906D01*
X173790722Y-72607268D01*
X173913860Y-72418791D01*
X174004296Y-72212616D01*
X174059564Y-71994368D01*
X174078156Y-71770000D01*
X174059564Y-71545632D01*
X174004296Y-71327384D01*
X173913860Y-71121209D01*
X173819800Y-70977239D01*
X173790724Y-70932734D01*
X173790720Y-70932729D01*
X173638237Y-70767091D01*
X173537398Y-70688605D01*
X173460576Y-70628811D01*
X173426792Y-70610528D01*
X173376402Y-70560516D01*
X173361050Y-70491199D01*
X173385610Y-70424586D01*
X173426793Y-70388901D01*
X173460300Y-70370767D01*
X173460301Y-70370767D01*
X173637902Y-70232534D01*
X173790325Y-70066958D01*
X173913419Y-69878548D01*
X174003820Y-69672456D01*
X174003823Y-69672449D01*
X174051544Y-69484000D01*
X173146116Y-69484000D01*
X173174493Y-69439844D01*
X173215000Y-69301889D01*
X173215000Y-69158111D01*
X173174493Y-69020156D01*
X173146116Y-68976000D01*
X174051544Y-68976000D01*
X174051544Y-68975999D01*
X174003823Y-68787550D01*
X174003820Y-68787543D01*
X173913419Y-68581451D01*
X173790325Y-68393041D01*
X173637902Y-68227465D01*
X173460301Y-68089232D01*
X173460300Y-68089231D01*
X173262371Y-67982117D01*
X173262369Y-67982116D01*
X173049512Y-67909043D01*
X173049501Y-67909040D01*
X172969000Y-67895606D01*
X172969000Y-68796325D01*
X172857315Y-68745320D01*
X172750763Y-68730000D01*
X172679237Y-68730000D01*
X172572685Y-68745320D01*
X172461000Y-68796325D01*
X172461000Y-67895607D01*
X172460999Y-67895606D01*
X172380498Y-67909040D01*
X172380487Y-67909043D01*
X172167630Y-67982116D01*
X172167628Y-67982117D01*
X171969699Y-68089231D01*
X171969698Y-68089232D01*
X171792096Y-68227465D01*
X171730951Y-68293888D01*
X171670098Y-68330459D01*
X171599134Y-68328324D01*
X171540588Y-68288163D01*
X171520195Y-68252583D01*
X171475889Y-68133796D01*
X171475887Y-68133792D01*
X171388261Y-68016738D01*
X171271207Y-67929112D01*
X171271202Y-67929110D01*
X171134204Y-67878011D01*
X171134196Y-67878009D01*
X171073649Y-67871500D01*
X171073638Y-67871500D01*
X169276362Y-67871500D01*
X169276350Y-67871500D01*
X169215803Y-67878009D01*
X169215795Y-67878011D01*
X169078797Y-67929110D01*
X169078792Y-67929112D01*
X168961738Y-68016738D01*
X168874112Y-68133792D01*
X168874110Y-68133797D01*
X168823011Y-68270795D01*
X168823009Y-68270803D01*
X168816500Y-68331350D01*
X168816500Y-68995405D01*
X168796498Y-69063526D01*
X168779595Y-69084500D01*
X167414500Y-70449595D01*
X167352188Y-70483621D01*
X167325405Y-70486500D01*
X160103854Y-70486500D01*
X160088012Y-70484750D01*
X160087985Y-70485044D01*
X160080092Y-70484297D01*
X160012002Y-70486438D01*
X160008044Y-70486500D01*
X159980144Y-70486500D01*
X159980138Y-70486500D01*
X159980132Y-70486501D01*
X159976133Y-70487006D01*
X159964313Y-70487936D01*
X159920111Y-70489325D01*
X159900650Y-70494979D01*
X159881304Y-70498985D01*
X159861204Y-70501525D01*
X159861203Y-70501525D01*
X159820095Y-70517800D01*
X159808870Y-70521643D01*
X159766413Y-70533978D01*
X159766404Y-70533982D01*
X159748962Y-70544297D01*
X159731215Y-70552991D01*
X159712383Y-70560447D01*
X159712381Y-70560448D01*
X159676614Y-70586434D01*
X159666700Y-70592947D01*
X159628636Y-70615459D01*
X159628633Y-70615461D01*
X159614312Y-70629783D01*
X159599283Y-70642619D01*
X159582893Y-70654527D01*
X159554700Y-70688605D01*
X159546713Y-70697381D01*
X155821336Y-74422757D01*
X155808901Y-74432721D01*
X155809089Y-74432948D01*
X155802979Y-74438002D01*
X155756370Y-74487635D01*
X155753620Y-74490473D01*
X155733863Y-74510231D01*
X155731374Y-74513439D01*
X155723688Y-74522436D01*
X155693418Y-74554673D01*
X155693411Y-74554683D01*
X155683651Y-74572435D01*
X155672803Y-74588950D01*
X155660386Y-74604958D01*
X155642824Y-74645540D01*
X155637604Y-74656195D01*
X155616305Y-74694939D01*
X155616303Y-74694944D01*
X155611267Y-74714559D01*
X155604864Y-74733262D01*
X155596819Y-74751852D01*
X155589901Y-74795525D01*
X155587495Y-74807142D01*
X155576500Y-74849968D01*
X155576500Y-74870223D01*
X155574949Y-74889933D01*
X155571780Y-74909942D01*
X155575941Y-74953961D01*
X155576500Y-74965819D01*
X155576500Y-75436178D01*
X155556498Y-75504299D01*
X155502842Y-75550792D01*
X155450500Y-75562178D01*
X155274910Y-75562178D01*
X155088108Y-75601884D01*
X154913644Y-75679560D01*
X154759141Y-75791813D01*
X154631362Y-75933726D01*
X154631355Y-75933736D01*
X154535873Y-76099116D01*
X154535870Y-76099123D01*
X154476854Y-76280750D01*
X154456893Y-76470678D01*
X154476854Y-76660605D01*
X154482793Y-76678882D01*
X154535870Y-76842234D01*
X154535873Y-76842239D01*
X154631355Y-77007619D01*
X154631362Y-77007629D01*
X154759141Y-77149542D01*
X154759144Y-77149544D01*
X154913645Y-77261796D01*
X155088109Y-77339472D01*
X155274910Y-77379178D01*
X155450500Y-77379178D01*
X155518621Y-77399180D01*
X155565114Y-77452836D01*
X155576500Y-77505178D01*
X155576500Y-78573542D01*
X155556498Y-78641663D01*
X155502842Y-78688156D01*
X155432568Y-78698260D01*
X155424303Y-78696789D01*
X155276703Y-78665416D01*
X155276702Y-78665416D01*
X155085728Y-78665416D01*
X154898926Y-78705122D01*
X154724462Y-78782798D01*
X154569959Y-78895051D01*
X154442180Y-79036964D01*
X154442173Y-79036974D01*
X154346691Y-79202354D01*
X154346688Y-79202361D01*
X154287672Y-79383988D01*
X154267711Y-79573916D01*
X154287672Y-79763843D01*
X154309330Y-79830496D01*
X154346688Y-79945472D01*
X154346691Y-79945477D01*
X154442173Y-80110857D01*
X154442180Y-80110867D01*
X154569959Y-80252780D01*
X154569962Y-80252782D01*
X154724463Y-80365034D01*
X154898927Y-80442710D01*
X155085728Y-80482416D01*
X155276706Y-80482416D01*
X155407673Y-80454577D01*
X155433082Y-80449176D01*
X155503873Y-80454577D01*
X155560506Y-80497393D01*
X155580277Y-80537270D01*
X155584977Y-80553448D01*
X155588986Y-80572806D01*
X155591524Y-80592897D01*
X155593497Y-80600579D01*
X155591481Y-80601096D01*
X155597899Y-80647949D01*
X155589572Y-80727184D01*
X155609533Y-80917112D01*
X155620172Y-80949853D01*
X155668549Y-81098741D01*
X155668552Y-81098746D01*
X155764034Y-81264126D01*
X155764037Y-81264130D01*
X155841089Y-81349706D01*
X155871806Y-81413714D01*
X155863041Y-81484168D01*
X155836548Y-81523111D01*
X155465335Y-81894326D01*
X155403023Y-81928351D01*
X155376239Y-81931231D01*
X155033875Y-81931231D01*
X154965754Y-81911229D01*
X154940238Y-81889541D01*
X154936927Y-81885864D01*
X154782427Y-81773613D01*
X154607963Y-81695937D01*
X154421162Y-81656231D01*
X154230188Y-81656231D01*
X154043386Y-81695937D01*
X153868922Y-81773613D01*
X153714419Y-81885866D01*
X153586640Y-82027779D01*
X153586633Y-82027789D01*
X153491151Y-82193169D01*
X153491148Y-82193176D01*
X153432132Y-82374803D01*
X153412171Y-82564731D01*
X152273000Y-82564731D01*
X152273000Y-82167000D01*
X150747000Y-82167000D01*
X149733000Y-82167000D01*
X148207000Y-82167000D01*
X147193000Y-82167000D01*
X145667000Y-82167000D01*
X144653000Y-82167000D01*
X143127000Y-82167000D01*
X139573000Y-82167000D01*
X138047000Y-82167000D01*
X137033000Y-82167000D01*
X135507000Y-82167000D01*
X134493000Y-82167000D01*
X132967000Y-82167000D01*
X131953000Y-82167000D01*
X131317000Y-82167000D01*
X130175000Y-82167000D01*
X130175000Y-79627000D01*
X131317000Y-79627000D01*
X131317000Y-81153000D01*
X131953000Y-81153000D01*
X131953000Y-79627000D01*
X132967000Y-79627000D01*
X132967000Y-81153000D01*
X134493000Y-81153000D01*
X134493000Y-80014145D01*
X135507000Y-80014145D01*
X135507000Y-81153000D01*
X137033000Y-81153000D01*
X138047000Y-81153000D01*
X139573000Y-81153000D01*
X139573000Y-79627000D01*
X140587000Y-79627000D01*
X140587000Y-81153000D01*
X142113000Y-81153000D01*
X142113000Y-80051221D01*
X145667000Y-80051221D01*
X145729799Y-80185895D01*
X145737311Y-80206533D01*
X145792381Y-80412055D01*
X145796195Y-80433686D01*
X145814739Y-80645649D01*
X145814739Y-80667611D01*
X145796195Y-80879574D01*
X145792381Y-80901205D01*
X145737311Y-81106727D01*
X145729799Y-81127365D01*
X145717845Y-81153000D01*
X147193000Y-81153000D01*
X150888485Y-81153000D01*
X152273000Y-81153000D01*
X152273000Y-79627000D01*
X151937593Y-79627000D01*
X151820104Y-79830496D01*
X151816660Y-79836117D01*
X151794931Y-79869579D01*
X151791193Y-79875018D01*
X151759975Y-79917987D01*
X151755960Y-79923219D01*
X151730841Y-79954240D01*
X151726555Y-79959258D01*
X151574569Y-80128054D01*
X151505961Y-80339209D01*
X151503760Y-80345425D01*
X151489462Y-80382674D01*
X151486938Y-80388768D01*
X151465336Y-80437289D01*
X151462495Y-80443245D01*
X151444374Y-80478809D01*
X151441226Y-80484606D01*
X151319182Y-80695991D01*
X151315738Y-80701612D01*
X151294009Y-80735074D01*
X151290271Y-80740513D01*
X151259053Y-80783482D01*
X151255038Y-80788714D01*
X151229919Y-80819735D01*
X151225633Y-80824753D01*
X151062299Y-81006154D01*
X151057758Y-81010939D01*
X151029532Y-81039165D01*
X151024745Y-81043708D01*
X150985272Y-81079248D01*
X150980255Y-81083533D01*
X150949248Y-81108640D01*
X150944018Y-81112653D01*
X150888485Y-81153000D01*
X147193000Y-81153000D01*
X147193000Y-79629051D01*
X148801766Y-79629051D01*
X148821727Y-79818978D01*
X148830515Y-79846023D01*
X148880743Y-80000607D01*
X148880746Y-80000612D01*
X148976228Y-80165992D01*
X148976235Y-80166002D01*
X149104014Y-80307915D01*
X149153951Y-80344196D01*
X149258518Y-80420169D01*
X149432982Y-80497845D01*
X149619783Y-80537551D01*
X149810757Y-80537551D01*
X149997558Y-80497845D01*
X150172022Y-80420169D01*
X150326523Y-80307917D01*
X150348384Y-80283638D01*
X150454304Y-80166002D01*
X150454305Y-80166000D01*
X150454310Y-80165995D01*
X150549797Y-80000607D01*
X150608812Y-79818979D01*
X150627722Y-79639057D01*
X150654734Y-79573404D01*
X150678966Y-79550298D01*
X150827445Y-79442422D01*
X150827447Y-79442420D01*
X150955226Y-79300507D01*
X150955227Y-79300505D01*
X150955232Y-79300500D01*
X151050719Y-79135112D01*
X151109734Y-78953484D01*
X151129696Y-78763556D01*
X151109734Y-78573628D01*
X151050719Y-78392000D01*
X150955232Y-78226612D01*
X150955230Y-78226610D01*
X150955226Y-78226604D01*
X150827447Y-78084691D01*
X150726698Y-78011492D01*
X150683344Y-77955269D01*
X150677269Y-77884533D01*
X150691644Y-77846549D01*
X150694527Y-77841556D01*
X150753542Y-77659928D01*
X150773504Y-77470000D01*
X150753542Y-77280072D01*
X150694527Y-77098444D01*
X150687920Y-77087000D01*
X151749157Y-77087000D01*
X151750904Y-77095218D01*
X151752107Y-77101705D01*
X151758351Y-77141127D01*
X151759212Y-77147668D01*
X151784726Y-77390423D01*
X151785243Y-77397000D01*
X151787331Y-77436851D01*
X151787504Y-77443444D01*
X151787504Y-77496556D01*
X151787331Y-77503149D01*
X151785243Y-77543000D01*
X151784726Y-77549578D01*
X151776130Y-77631361D01*
X151791193Y-77652094D01*
X151794931Y-77657533D01*
X151816660Y-77690995D01*
X151820104Y-77696616D01*
X151942148Y-77908001D01*
X151945296Y-77913798D01*
X151963417Y-77949362D01*
X151966258Y-77955318D01*
X151987860Y-78003839D01*
X151990384Y-78009933D01*
X152004682Y-78047182D01*
X152006883Y-78053398D01*
X152082310Y-78285536D01*
X152084183Y-78291858D01*
X152094512Y-78330402D01*
X152096052Y-78336819D01*
X152107096Y-78388774D01*
X152108299Y-78395261D01*
X152114543Y-78434683D01*
X152115404Y-78441224D01*
X152133458Y-78613000D01*
X152273000Y-78613000D01*
X152273000Y-77087000D01*
X153287000Y-77087000D01*
X153287000Y-78613000D01*
X153516089Y-78613000D01*
X153577303Y-78506976D01*
X153580747Y-78501355D01*
X153602476Y-78467893D01*
X153606214Y-78462454D01*
X153637432Y-78419485D01*
X153641447Y-78414253D01*
X153666566Y-78383232D01*
X153670852Y-78378214D01*
X153834186Y-78196813D01*
X153838727Y-78192028D01*
X153866953Y-78163802D01*
X153871740Y-78159259D01*
X153911213Y-78123719D01*
X153916230Y-78119434D01*
X153947237Y-78094327D01*
X153952467Y-78090314D01*
X154140701Y-77953553D01*
X154136419Y-77950267D01*
X154105412Y-77925160D01*
X154100395Y-77920875D01*
X154060922Y-77885335D01*
X154056135Y-77880792D01*
X154027909Y-77852566D01*
X154023368Y-77847781D01*
X153860034Y-77666380D01*
X153855748Y-77661362D01*
X153830629Y-77630341D01*
X153826614Y-77625109D01*
X153795396Y-77582140D01*
X153791658Y-77576701D01*
X153769929Y-77543239D01*
X153766485Y-77537618D01*
X153644441Y-77326233D01*
X153641293Y-77320436D01*
X153623172Y-77284872D01*
X153620331Y-77278916D01*
X153598729Y-77230395D01*
X153596205Y-77224301D01*
X153581907Y-77187052D01*
X153579706Y-77180835D01*
X153549217Y-77087000D01*
X153287000Y-77087000D01*
X152273000Y-77087000D01*
X151749157Y-77087000D01*
X150687920Y-77087000D01*
X150599040Y-76933056D01*
X150599038Y-76933054D01*
X150599034Y-76933048D01*
X150471255Y-76791135D01*
X150316752Y-76678882D01*
X150142288Y-76601206D01*
X149955487Y-76561500D01*
X149764513Y-76561500D01*
X149577711Y-76601206D01*
X149403247Y-76678882D01*
X149248744Y-76791135D01*
X149120965Y-76933048D01*
X149120958Y-76933058D01*
X149025476Y-77098438D01*
X149025473Y-77098444D01*
X149019204Y-77117738D01*
X148966457Y-77280072D01*
X148946496Y-77470000D01*
X148966457Y-77659927D01*
X148980650Y-77703607D01*
X149025473Y-77841556D01*
X149048126Y-77880792D01*
X149120958Y-78006941D01*
X149120965Y-78006951D01*
X149248744Y-78148864D01*
X149349493Y-78222063D01*
X149392847Y-78278286D01*
X149398922Y-78349022D01*
X149384556Y-78386990D01*
X149381668Y-78391991D01*
X149381662Y-78392005D01*
X149322649Y-78573627D01*
X149303740Y-78753545D01*
X149276727Y-78819202D01*
X149252491Y-78842311D01*
X149104014Y-78950186D01*
X148976235Y-79092099D01*
X148976228Y-79092109D01*
X148880746Y-79257489D01*
X148880743Y-79257496D01*
X148821727Y-79439123D01*
X148801766Y-79629051D01*
X147193000Y-79629051D01*
X147193000Y-79627000D01*
X145852801Y-79627000D01*
X145748912Y-79806940D01*
X145745468Y-79812561D01*
X145723739Y-79846023D01*
X145720001Y-79851462D01*
X145688783Y-79894431D01*
X145684768Y-79899663D01*
X145667000Y-79921605D01*
X145667000Y-80051221D01*
X142113000Y-80051221D01*
X142113000Y-79627000D01*
X140587000Y-79627000D01*
X139573000Y-79627000D01*
X138319598Y-79627000D01*
X138313739Y-79636023D01*
X138310001Y-79641462D01*
X138278783Y-79684431D01*
X138274768Y-79689663D01*
X138249649Y-79720684D01*
X138245363Y-79725702D01*
X138082029Y-79907103D01*
X138077488Y-79911888D01*
X138049262Y-79940114D01*
X138047000Y-79942261D01*
X138047000Y-81153000D01*
X137033000Y-81153000D01*
X137033000Y-80432108D01*
X137015327Y-80435865D01*
X137008839Y-80437067D01*
X136969406Y-80443312D01*
X136962863Y-80444173D01*
X136910039Y-80449723D01*
X136903465Y-80450240D01*
X136863628Y-80452327D01*
X136857036Y-80452500D01*
X136612964Y-80452500D01*
X136606372Y-80452327D01*
X136566535Y-80450240D01*
X136559961Y-80449723D01*
X136507137Y-80444173D01*
X136500594Y-80443312D01*
X136461161Y-80437067D01*
X136454673Y-80435865D01*
X136215911Y-80385115D01*
X136209496Y-80383574D01*
X136170949Y-80373245D01*
X136164624Y-80371372D01*
X136114111Y-80354959D01*
X136107895Y-80352758D01*
X136070638Y-80338457D01*
X136064542Y-80335932D01*
X135841553Y-80236650D01*
X135835600Y-80233810D01*
X135800037Y-80215690D01*
X135794236Y-80212541D01*
X135748237Y-80185982D01*
X135742614Y-80182535D01*
X135709151Y-80160803D01*
X135703716Y-80157068D01*
X135507000Y-80014145D01*
X134493000Y-80014145D01*
X134493000Y-79627000D01*
X132967000Y-79627000D01*
X131953000Y-79627000D01*
X131317000Y-79627000D01*
X130175000Y-79627000D01*
X130175000Y-78613000D01*
X132967000Y-78613000D01*
X134493000Y-78613000D01*
X134493000Y-78530000D01*
X135821496Y-78530000D01*
X135841457Y-78719927D01*
X135861886Y-78782798D01*
X135900473Y-78901556D01*
X135900476Y-78901561D01*
X135995958Y-79066941D01*
X135995965Y-79066951D01*
X136123744Y-79208864D01*
X136123747Y-79208866D01*
X136278248Y-79321118D01*
X136452712Y-79398794D01*
X136639513Y-79438500D01*
X136830487Y-79438500D01*
X137017288Y-79398794D01*
X137191752Y-79321118D01*
X137346253Y-79208866D01*
X137352111Y-79202360D01*
X137474034Y-79066951D01*
X137474035Y-79066949D01*
X137474040Y-79066944D01*
X137569527Y-78901556D01*
X137622020Y-78740000D01*
X143231496Y-78740000D01*
X143251457Y-78929927D01*
X143281526Y-79022470D01*
X143310473Y-79111556D01*
X143310476Y-79111561D01*
X143405958Y-79276941D01*
X143405965Y-79276951D01*
X143533744Y-79418864D01*
X143533747Y-79418866D01*
X143688248Y-79531118D01*
X143862712Y-79608794D01*
X144049513Y-79648500D01*
X144240487Y-79648500D01*
X144427288Y-79608794D01*
X144601752Y-79531118D01*
X144756253Y-79418866D01*
X144844266Y-79321118D01*
X144884034Y-79276951D01*
X144884035Y-79276949D01*
X144884040Y-79276944D01*
X144979527Y-79111556D01*
X145038542Y-78929928D01*
X145058504Y-78740000D01*
X145038542Y-78550072D01*
X144979527Y-78368444D01*
X144884040Y-78203056D01*
X144884038Y-78203054D01*
X144884034Y-78203048D01*
X144756255Y-78061135D01*
X144601752Y-77948882D01*
X144427288Y-77871206D01*
X144240487Y-77831500D01*
X144049513Y-77831500D01*
X143862711Y-77871206D01*
X143688247Y-77948882D01*
X143533744Y-78061135D01*
X143405965Y-78203048D01*
X143405958Y-78203058D01*
X143321686Y-78349022D01*
X143310473Y-78368444D01*
X143302822Y-78391991D01*
X143251457Y-78550072D01*
X143231496Y-78740000D01*
X137622020Y-78740000D01*
X137628542Y-78719928D01*
X137648504Y-78530000D01*
X137628542Y-78340072D01*
X137569527Y-78158444D01*
X137474040Y-77993056D01*
X137474038Y-77993054D01*
X137474034Y-77993048D01*
X137346255Y-77851135D01*
X137191752Y-77738882D01*
X137017288Y-77661206D01*
X136830487Y-77621500D01*
X136639513Y-77621500D01*
X136452711Y-77661206D01*
X136278247Y-77738882D01*
X136123744Y-77851135D01*
X135995965Y-77993048D01*
X135995958Y-77993058D01*
X135900476Y-78158438D01*
X135900473Y-78158444D01*
X135896153Y-78171739D01*
X135841457Y-78340072D01*
X135821496Y-78530000D01*
X134493000Y-78530000D01*
X134493000Y-77087000D01*
X138047000Y-77087000D01*
X138047000Y-77117738D01*
X138049262Y-77119886D01*
X138077488Y-77148112D01*
X138082029Y-77152897D01*
X138245363Y-77334298D01*
X138249649Y-77339316D01*
X138274768Y-77370337D01*
X138278783Y-77375569D01*
X138310001Y-77418538D01*
X138313739Y-77423977D01*
X138335468Y-77457439D01*
X138338912Y-77463060D01*
X138460956Y-77674445D01*
X138464104Y-77680242D01*
X138482225Y-77715806D01*
X138485066Y-77721762D01*
X138506668Y-77770283D01*
X138509192Y-77776377D01*
X138523490Y-77813626D01*
X138525691Y-77819842D01*
X138601118Y-78051980D01*
X138602991Y-78058302D01*
X138613320Y-78096846D01*
X138614860Y-78103263D01*
X138625904Y-78155218D01*
X138627107Y-78161705D01*
X138633351Y-78201127D01*
X138634212Y-78207668D01*
X138659726Y-78450423D01*
X138660243Y-78457000D01*
X138662331Y-78496851D01*
X138662504Y-78503444D01*
X138662504Y-78556556D01*
X138662331Y-78563149D01*
X138660243Y-78603000D01*
X138659726Y-78609577D01*
X138659366Y-78613000D01*
X139573000Y-78613000D01*
X139573000Y-77087000D01*
X140587000Y-77087000D01*
X140587000Y-78613000D01*
X142113000Y-78613000D01*
X142113000Y-78115419D01*
X142096158Y-78112752D01*
X142089670Y-78111550D01*
X141850908Y-78060800D01*
X141844493Y-78059259D01*
X141805946Y-78048930D01*
X141799621Y-78047057D01*
X141749108Y-78030644D01*
X141742892Y-78028443D01*
X141705635Y-78014142D01*
X141699539Y-78011617D01*
X141476550Y-77912335D01*
X141470597Y-77909495D01*
X141435034Y-77891375D01*
X141429233Y-77888226D01*
X141383234Y-77861667D01*
X141377611Y-77858220D01*
X141344148Y-77836488D01*
X141338713Y-77832753D01*
X141141249Y-77689287D01*
X141136019Y-77685274D01*
X141105012Y-77660167D01*
X141099995Y-77655882D01*
X141060522Y-77620342D01*
X141055735Y-77615799D01*
X141027509Y-77587573D01*
X141022968Y-77582788D01*
X140859634Y-77401387D01*
X140855348Y-77396369D01*
X140830229Y-77365348D01*
X140826214Y-77360116D01*
X140794996Y-77317147D01*
X140791258Y-77311708D01*
X140769529Y-77278246D01*
X140766085Y-77272625D01*
X140658914Y-77087000D01*
X140587000Y-77087000D01*
X139573000Y-77087000D01*
X138047000Y-77087000D01*
X134493000Y-77087000D01*
X134279439Y-77087000D01*
X134199034Y-77270307D01*
X134196843Y-77275033D01*
X134183006Y-77303337D01*
X134180623Y-77307967D01*
X134160668Y-77344841D01*
X134158093Y-77349372D01*
X134141968Y-77376432D01*
X134139212Y-77380847D01*
X133993149Y-77604415D01*
X133990210Y-77608717D01*
X133971913Y-77634343D01*
X133968805Y-77638511D01*
X133943054Y-77671600D01*
X133939766Y-77675649D01*
X133919393Y-77699703D01*
X133915946Y-77703607D01*
X133735072Y-77900086D01*
X133731468Y-77903841D01*
X133709214Y-77926096D01*
X133705461Y-77929698D01*
X133674619Y-77958094D01*
X133670714Y-77961544D01*
X133646655Y-77981923D01*
X133642607Y-77985209D01*
X133431847Y-78149251D01*
X133427672Y-78152365D01*
X133402033Y-78170671D01*
X133397733Y-78173609D01*
X133362633Y-78196541D01*
X133358214Y-78199299D01*
X133331151Y-78215425D01*
X133326623Y-78217998D01*
X133091750Y-78345105D01*
X133087120Y-78347488D01*
X133058824Y-78361321D01*
X133054100Y-78363511D01*
X133015705Y-78380353D01*
X133010896Y-78382345D01*
X132981542Y-78393800D01*
X132976647Y-78395594D01*
X132967000Y-78398905D01*
X132967000Y-78613000D01*
X130175000Y-78613000D01*
X130175000Y-76195000D01*
X130716844Y-76195000D01*
X130733467Y-76395612D01*
X130735437Y-76419375D01*
X130790702Y-76637612D01*
X130790703Y-76637613D01*
X130790704Y-76637616D01*
X130808805Y-76678882D01*
X130881141Y-76843793D01*
X131004275Y-77032265D01*
X131004279Y-77032270D01*
X131156762Y-77197908D01*
X131190672Y-77224301D01*
X131334424Y-77336189D01*
X131532426Y-77443342D01*
X131532427Y-77443342D01*
X131532428Y-77443343D01*
X131610078Y-77470000D01*
X131745365Y-77516444D01*
X131967431Y-77553500D01*
X131967435Y-77553500D01*
X132192565Y-77553500D01*
X132192569Y-77553500D01*
X132414635Y-77516444D01*
X132627574Y-77443342D01*
X132825576Y-77336189D01*
X133003240Y-77197906D01*
X133155722Y-77032268D01*
X133278860Y-76843791D01*
X133369296Y-76637616D01*
X133424564Y-76419368D01*
X133443156Y-76195000D01*
X133424564Y-75970632D01*
X133424562Y-75970624D01*
X133369297Y-75752387D01*
X133369296Y-75752386D01*
X133369296Y-75752384D01*
X133278860Y-75546209D01*
X133272140Y-75535924D01*
X133155724Y-75357734D01*
X133155714Y-75357722D01*
X133012159Y-75201782D01*
X132980737Y-75138117D01*
X132988723Y-75067571D01*
X133033582Y-75012542D01*
X133060827Y-74998388D01*
X133175965Y-74955444D01*
X133292904Y-74867904D01*
X133380444Y-74750965D01*
X133380444Y-74750964D01*
X133431494Y-74614093D01*
X133437999Y-74553597D01*
X133438000Y-74553585D01*
X133438000Y-74547000D01*
X135507000Y-74547000D01*
X135507000Y-76073000D01*
X137033000Y-76073000D01*
X138047000Y-76073000D01*
X139573000Y-76073000D01*
X139573000Y-75012702D01*
X141450549Y-75012702D01*
X141470510Y-75202629D01*
X141499541Y-75291975D01*
X141529526Y-75384258D01*
X141529529Y-75384263D01*
X141625991Y-75551341D01*
X141642729Y-75620336D01*
X141625991Y-75677341D01*
X141535473Y-75834123D01*
X141535470Y-75834129D01*
X141532610Y-75842932D01*
X141476454Y-76015757D01*
X141456493Y-76205685D01*
X141476454Y-76395612D01*
X141500845Y-76470678D01*
X141535470Y-76577241D01*
X141535473Y-76577246D01*
X141630955Y-76742626D01*
X141630962Y-76742636D01*
X141758741Y-76884549D01*
X141758744Y-76884551D01*
X141913245Y-76996803D01*
X142087709Y-77074479D01*
X142274510Y-77114185D01*
X142465484Y-77114185D01*
X142652285Y-77074479D01*
X142826749Y-76996803D01*
X142981250Y-76884551D01*
X143017949Y-76843793D01*
X143109031Y-76742636D01*
X143109032Y-76742634D01*
X143109037Y-76742629D01*
X143204524Y-76577241D01*
X143263539Y-76395613D01*
X143283501Y-76205685D01*
X143263539Y-76015757D01*
X143204524Y-75834129D01*
X143109037Y-75668741D01*
X143108058Y-75667045D01*
X143091804Y-75600046D01*
X144194648Y-75600046D01*
X144236115Y-75727665D01*
X144237988Y-75733987D01*
X144248317Y-75772531D01*
X144249857Y-75778948D01*
X144260901Y-75830903D01*
X144262104Y-75837390D01*
X144268348Y-75876812D01*
X144269209Y-75883353D01*
X144289141Y-76073000D01*
X144653000Y-76073000D01*
X144653000Y-74547000D01*
X145667000Y-74547000D01*
X145667000Y-76073000D01*
X146197856Y-76073000D01*
X146366029Y-75994580D01*
X146386667Y-75987068D01*
X146592189Y-75931998D01*
X146613820Y-75928184D01*
X146825783Y-75909640D01*
X146847745Y-75909640D01*
X147059708Y-75928184D01*
X147081339Y-75931998D01*
X147193000Y-75961917D01*
X147193000Y-74547000D01*
X148207000Y-74547000D01*
X148207000Y-76073000D01*
X148532624Y-76073000D01*
X148545738Y-76059886D01*
X148550525Y-76055343D01*
X148589998Y-76019803D01*
X148595015Y-76015518D01*
X148626022Y-75990411D01*
X148631252Y-75986398D01*
X148828716Y-75842932D01*
X148834151Y-75839197D01*
X148867614Y-75817465D01*
X148873237Y-75814018D01*
X148919236Y-75787459D01*
X148925037Y-75784310D01*
X148960600Y-75766190D01*
X148966553Y-75763350D01*
X149189542Y-75664068D01*
X149195638Y-75661543D01*
X149196385Y-75661256D01*
X149094902Y-75587524D01*
X149089672Y-75583511D01*
X149058665Y-75558404D01*
X149053648Y-75554119D01*
X149014175Y-75518579D01*
X149009388Y-75514036D01*
X148981162Y-75485810D01*
X148976621Y-75481025D01*
X148813287Y-75299624D01*
X148809001Y-75294606D01*
X148783882Y-75263585D01*
X148779867Y-75258353D01*
X148748649Y-75215384D01*
X148744911Y-75209945D01*
X148723182Y-75176483D01*
X148719738Y-75170862D01*
X148597694Y-74959477D01*
X148594546Y-74953680D01*
X148576425Y-74918116D01*
X148573584Y-74912160D01*
X148551982Y-74863639D01*
X148549458Y-74857545D01*
X148535160Y-74820296D01*
X148532959Y-74814080D01*
X148457532Y-74581942D01*
X148455659Y-74575620D01*
X148447989Y-74547000D01*
X148207000Y-74547000D01*
X147193000Y-74547000D01*
X145667000Y-74547000D01*
X144653000Y-74547000D01*
X144233651Y-74547000D01*
X144242373Y-74579548D01*
X144243913Y-74585965D01*
X144254957Y-74637920D01*
X144256160Y-74644407D01*
X144262404Y-74683829D01*
X144263265Y-74690370D01*
X144288779Y-74933125D01*
X144289296Y-74939702D01*
X144291384Y-74979553D01*
X144291557Y-74986146D01*
X144291557Y-75039258D01*
X144291384Y-75045851D01*
X144289296Y-75085702D01*
X144288779Y-75092279D01*
X144263265Y-75335034D01*
X144262404Y-75341575D01*
X144256160Y-75380997D01*
X144254957Y-75387484D01*
X144243913Y-75439439D01*
X144242373Y-75445856D01*
X144232044Y-75484400D01*
X144230171Y-75490722D01*
X144194648Y-75600046D01*
X143091804Y-75600046D01*
X143091320Y-75598050D01*
X143108056Y-75541048D01*
X143198580Y-75384258D01*
X143257595Y-75202630D01*
X143277557Y-75012702D01*
X143257595Y-74822774D01*
X143198580Y-74641146D01*
X143103093Y-74475758D01*
X143103091Y-74475756D01*
X143103087Y-74475750D01*
X142975308Y-74333837D01*
X142820805Y-74221584D01*
X142646341Y-74143908D01*
X142459540Y-74104202D01*
X142268566Y-74104202D01*
X142081764Y-74143908D01*
X141907300Y-74221584D01*
X141752797Y-74333837D01*
X141625018Y-74475750D01*
X141625011Y-74475760D01*
X141529529Y-74641140D01*
X141529526Y-74641146D01*
X141524636Y-74656195D01*
X141470510Y-74822774D01*
X141450549Y-75012702D01*
X139573000Y-75012702D01*
X139573000Y-74547000D01*
X139511339Y-74547000D01*
X139478015Y-74594591D01*
X139463897Y-74611415D01*
X139313444Y-74761868D01*
X139296620Y-74775986D01*
X139122328Y-74898028D01*
X139103306Y-74909010D01*
X138910468Y-74998931D01*
X138889831Y-75006443D01*
X138684309Y-75061513D01*
X138662678Y-75065327D01*
X138450715Y-75083871D01*
X138428753Y-75083871D01*
X138216790Y-75065327D01*
X138195159Y-75061513D01*
X138047000Y-75021813D01*
X138047000Y-76073000D01*
X137033000Y-76073000D01*
X137033000Y-74547000D01*
X135507000Y-74547000D01*
X133438000Y-74547000D01*
X133438000Y-74103922D01*
X149410146Y-74103922D01*
X149430107Y-74293849D01*
X149460176Y-74386392D01*
X149489123Y-74475478D01*
X149489126Y-74475483D01*
X149584608Y-74640863D01*
X149584615Y-74640873D01*
X149712394Y-74782786D01*
X149761249Y-74818281D01*
X149866898Y-74895040D01*
X150041362Y-74972716D01*
X150228163Y-75012422D01*
X150419137Y-75012422D01*
X150605938Y-74972716D01*
X150756956Y-74905478D01*
X150827321Y-74896045D01*
X150860171Y-74907593D01*
X150860773Y-74906242D01*
X150866803Y-74908926D01*
X150866805Y-74908928D01*
X151041269Y-74986604D01*
X151228070Y-75026310D01*
X151419044Y-75026310D01*
X151605845Y-74986604D01*
X151780309Y-74908928D01*
X151934810Y-74796676D01*
X151935847Y-74795525D01*
X151975167Y-74751855D01*
X152006063Y-74717541D01*
X152066508Y-74680301D01*
X152137491Y-74681652D01*
X152175403Y-74703301D01*
X152176241Y-74702149D01*
X152206907Y-74724429D01*
X152336084Y-74818282D01*
X152510548Y-74895958D01*
X152697349Y-74935664D01*
X152888323Y-74935664D01*
X153075124Y-74895958D01*
X153249588Y-74818282D01*
X153404089Y-74706030D01*
X153406546Y-74703301D01*
X153531870Y-74564115D01*
X153531871Y-74564113D01*
X153531876Y-74564108D01*
X153627363Y-74398720D01*
X153686378Y-74217092D01*
X153706340Y-74027164D01*
X153686378Y-73837236D01*
X153627363Y-73655608D01*
X153531876Y-73490220D01*
X153531874Y-73490218D01*
X153531870Y-73490212D01*
X153404091Y-73348299D01*
X153249588Y-73236046D01*
X153075124Y-73158370D01*
X152888323Y-73118664D01*
X152697349Y-73118664D01*
X152510547Y-73158370D01*
X152336083Y-73236046D01*
X152181582Y-73348298D01*
X152110329Y-73427433D01*
X152049883Y-73464672D01*
X151978899Y-73463320D01*
X151940989Y-73441672D01*
X151940152Y-73442825D01*
X151780309Y-73326692D01*
X151605845Y-73249016D01*
X151419044Y-73209310D01*
X151228070Y-73209310D01*
X151041266Y-73249016D01*
X150890252Y-73316252D01*
X150819885Y-73325686D01*
X150787031Y-73314147D01*
X150786434Y-73315490D01*
X150780403Y-73312804D01*
X150780402Y-73312804D01*
X150605938Y-73235128D01*
X150419137Y-73195422D01*
X150228163Y-73195422D01*
X150041361Y-73235128D01*
X149866897Y-73312804D01*
X149712394Y-73425057D01*
X149584615Y-73566970D01*
X149584608Y-73566980D01*
X149524457Y-73671165D01*
X149489123Y-73732366D01*
X149484640Y-73746163D01*
X149430107Y-73913994D01*
X149410146Y-74103922D01*
X133438000Y-74103922D01*
X133438000Y-73909000D01*
X132511116Y-73909000D01*
X132539493Y-73864844D01*
X132580000Y-73726889D01*
X132580000Y-73583111D01*
X132539493Y-73445156D01*
X132511116Y-73401000D01*
X133438000Y-73401000D01*
X133438000Y-72756414D01*
X133437999Y-72756402D01*
X133431494Y-72695906D01*
X133380444Y-72559035D01*
X133380444Y-72559034D01*
X133292904Y-72442095D01*
X133175965Y-72354555D01*
X133039093Y-72303505D01*
X132978597Y-72297000D01*
X132334000Y-72297000D01*
X132334000Y-73221325D01*
X132222315Y-73170320D01*
X132115763Y-73155000D01*
X132044237Y-73155000D01*
X131937685Y-73170320D01*
X131826000Y-73221325D01*
X131826000Y-72297000D01*
X131181402Y-72297000D01*
X131120906Y-72303505D01*
X130984035Y-72354555D01*
X130984034Y-72354555D01*
X130867095Y-72442095D01*
X130779555Y-72559034D01*
X130779555Y-72559035D01*
X130728505Y-72695906D01*
X130722000Y-72756402D01*
X130722000Y-73401000D01*
X131648884Y-73401000D01*
X131620507Y-73445156D01*
X131580000Y-73583111D01*
X131580000Y-73726889D01*
X131620507Y-73864844D01*
X131648884Y-73909000D01*
X130722000Y-73909000D01*
X130722000Y-74553597D01*
X130728505Y-74614093D01*
X130779555Y-74750964D01*
X130779555Y-74750965D01*
X130867095Y-74867904D01*
X130984034Y-74955444D01*
X131099172Y-74998388D01*
X131156008Y-75040935D01*
X131180819Y-75107455D01*
X131165728Y-75176829D01*
X131147841Y-75201782D01*
X131004280Y-75357729D01*
X131004275Y-75357734D01*
X130881141Y-75546206D01*
X130790703Y-75752386D01*
X130790702Y-75752387D01*
X130735437Y-75970624D01*
X130735436Y-75970630D01*
X130735436Y-75970632D01*
X130716844Y-76195000D01*
X130175000Y-76195000D01*
X130175000Y-72007000D01*
X135507000Y-72007000D01*
X135507000Y-73533000D01*
X137033000Y-73533000D01*
X137033000Y-72007000D01*
X138047000Y-72007000D01*
X138047000Y-72453596D01*
X138195159Y-72413897D01*
X138216790Y-72410083D01*
X138428753Y-72391539D01*
X138450715Y-72391539D01*
X138662678Y-72410083D01*
X138684309Y-72413897D01*
X138889831Y-72468967D01*
X138910468Y-72476479D01*
X139103306Y-72566400D01*
X139122328Y-72577382D01*
X139296620Y-72699424D01*
X139313444Y-72713542D01*
X139463897Y-72863995D01*
X139478015Y-72880819D01*
X139573000Y-73016470D01*
X139573000Y-72007000D01*
X140587000Y-72007000D01*
X140587000Y-73533000D01*
X141115386Y-73533000D01*
X141124821Y-73425166D01*
X141128634Y-73403536D01*
X141183704Y-73198014D01*
X141191216Y-73177376D01*
X141281137Y-72984539D01*
X141292119Y-72965518D01*
X141414161Y-72791225D01*
X141428279Y-72774401D01*
X141578732Y-72623948D01*
X141595556Y-72609830D01*
X141769849Y-72487788D01*
X141788870Y-72476806D01*
X141981707Y-72386885D01*
X142002345Y-72379373D01*
X142113000Y-72349722D01*
X142113000Y-72007000D01*
X143127000Y-72007000D01*
X143127000Y-72483148D01*
X143135036Y-72487788D01*
X143309328Y-72609830D01*
X143326152Y-72623948D01*
X143476605Y-72774401D01*
X143490723Y-72791225D01*
X143612765Y-72965518D01*
X143623747Y-72984539D01*
X143713668Y-73177376D01*
X143721180Y-73198014D01*
X143776250Y-73403536D01*
X143780064Y-73425167D01*
X143789498Y-73533000D01*
X144653000Y-73533000D01*
X144653000Y-72007000D01*
X145667000Y-72007000D01*
X145667000Y-73533000D01*
X147193000Y-73533000D01*
X147193000Y-72007000D01*
X148207000Y-72007000D01*
X148207000Y-73533000D01*
X148487718Y-73533000D01*
X148532959Y-73393764D01*
X148535160Y-73387548D01*
X148549458Y-73350299D01*
X148551982Y-73344205D01*
X148573584Y-73295684D01*
X148576425Y-73289728D01*
X148594546Y-73254164D01*
X148597694Y-73248367D01*
X148719738Y-73036982D01*
X148723182Y-73031361D01*
X148744911Y-72997899D01*
X148748649Y-72992460D01*
X148779867Y-72949491D01*
X148783882Y-72944259D01*
X148809001Y-72913238D01*
X148813287Y-72908220D01*
X148976621Y-72726819D01*
X148981162Y-72722034D01*
X149009388Y-72693808D01*
X149014175Y-72689265D01*
X149053648Y-72653725D01*
X149058665Y-72649440D01*
X149089672Y-72624333D01*
X149094902Y-72620320D01*
X149292366Y-72476854D01*
X149297801Y-72473119D01*
X149331264Y-72451387D01*
X149336887Y-72447940D01*
X149382886Y-72421381D01*
X149388687Y-72418232D01*
X149424250Y-72400112D01*
X149430203Y-72397272D01*
X149653192Y-72297990D01*
X149659288Y-72295465D01*
X149696545Y-72281164D01*
X149702761Y-72278963D01*
X149733000Y-72269137D01*
X149733000Y-72007000D01*
X153287000Y-72007000D01*
X153287000Y-72166750D01*
X153311925Y-72172049D01*
X153318340Y-72173590D01*
X153356887Y-72183919D01*
X153363212Y-72185792D01*
X153413725Y-72202205D01*
X153419941Y-72204406D01*
X153457198Y-72218707D01*
X153463294Y-72221232D01*
X153686283Y-72320514D01*
X153692236Y-72323354D01*
X153727799Y-72341474D01*
X153733600Y-72344623D01*
X153779599Y-72371182D01*
X153785222Y-72374629D01*
X153818685Y-72396361D01*
X153824120Y-72400096D01*
X154021584Y-72543562D01*
X154026814Y-72547575D01*
X154057821Y-72572682D01*
X154062838Y-72576967D01*
X154102311Y-72612507D01*
X154107098Y-72617050D01*
X154135324Y-72645276D01*
X154139865Y-72650061D01*
X154303199Y-72831462D01*
X154307485Y-72836480D01*
X154332604Y-72867501D01*
X154336619Y-72872733D01*
X154367837Y-72915702D01*
X154371575Y-72921141D01*
X154393304Y-72954603D01*
X154396748Y-72960224D01*
X154518792Y-73171609D01*
X154521940Y-73177406D01*
X154540061Y-73212970D01*
X154542902Y-73218926D01*
X154564504Y-73267447D01*
X154567028Y-73273541D01*
X154581326Y-73310790D01*
X154583527Y-73317006D01*
X154653708Y-73533000D01*
X154813000Y-73533000D01*
X154813000Y-72007000D01*
X155827000Y-72007000D01*
X155827000Y-72983082D01*
X156803083Y-72007000D01*
X155827000Y-72007000D01*
X154813000Y-72007000D01*
X153984718Y-72007000D01*
X153950327Y-72014310D01*
X153943839Y-72015512D01*
X153904406Y-72021757D01*
X153897863Y-72022618D01*
X153845039Y-72028168D01*
X153838465Y-72028685D01*
X153798628Y-72030772D01*
X153792036Y-72030945D01*
X153547964Y-72030945D01*
X153541372Y-72030772D01*
X153501535Y-72028685D01*
X153494961Y-72028168D01*
X153442137Y-72022618D01*
X153435594Y-72021757D01*
X153396161Y-72015512D01*
X153389673Y-72014310D01*
X153355282Y-72007000D01*
X153287000Y-72007000D01*
X149733000Y-72007000D01*
X148207000Y-72007000D01*
X147193000Y-72007000D01*
X145667000Y-72007000D01*
X144653000Y-72007000D01*
X143127000Y-72007000D01*
X142113000Y-72007000D01*
X140587000Y-72007000D01*
X139573000Y-72007000D01*
X138047000Y-72007000D01*
X137033000Y-72007000D01*
X135507000Y-72007000D01*
X130175000Y-72007000D01*
X130175000Y-69467000D01*
X131317000Y-69467000D01*
X131317000Y-70993000D01*
X131953000Y-70993000D01*
X131953000Y-69467000D01*
X132967000Y-69467000D01*
X132967000Y-70993000D01*
X133702912Y-70993000D01*
X133679999Y-70961462D01*
X133676261Y-70956023D01*
X133654532Y-70922561D01*
X133651088Y-70916940D01*
X133529044Y-70705555D01*
X133525896Y-70699758D01*
X133507775Y-70664194D01*
X133504934Y-70658238D01*
X133483332Y-70609717D01*
X133480808Y-70603623D01*
X133466510Y-70566374D01*
X133464309Y-70560158D01*
X133388882Y-70328020D01*
X133387009Y-70321698D01*
X133376680Y-70283154D01*
X133375140Y-70276737D01*
X133364096Y-70224782D01*
X133362893Y-70218295D01*
X133356649Y-70178873D01*
X133355788Y-70172332D01*
X133330274Y-69929577D01*
X133329757Y-69923000D01*
X133327669Y-69883149D01*
X133327496Y-69876556D01*
X133327496Y-69850000D01*
X134341496Y-69850000D01*
X134361457Y-70039927D01*
X134387106Y-70118865D01*
X134420473Y-70221556D01*
X134420476Y-70221561D01*
X134515958Y-70386941D01*
X134515965Y-70386951D01*
X134643744Y-70528864D01*
X134687214Y-70560447D01*
X134798248Y-70641118D01*
X134972712Y-70718794D01*
X135159513Y-70758500D01*
X135350487Y-70758500D01*
X135537288Y-70718794D01*
X135711752Y-70641118D01*
X135866253Y-70528866D01*
X135872757Y-70521643D01*
X135994034Y-70386951D01*
X135994035Y-70386949D01*
X135994040Y-70386944D01*
X136089527Y-70221556D01*
X136148542Y-70039928D01*
X136168504Y-69850000D01*
X136148542Y-69660072D01*
X136089527Y-69478444D01*
X136082920Y-69467000D01*
X138047000Y-69467000D01*
X138047000Y-70993000D01*
X139573000Y-70993000D01*
X139573000Y-69467000D01*
X140587000Y-69467000D01*
X140587000Y-70993000D01*
X142113000Y-70993000D01*
X143127000Y-70993000D01*
X144497912Y-70993000D01*
X144474999Y-70961462D01*
X144471261Y-70956023D01*
X144449532Y-70922561D01*
X144446088Y-70916940D01*
X144324044Y-70705555D01*
X144320896Y-70699758D01*
X144302775Y-70664194D01*
X144299934Y-70658238D01*
X144278332Y-70609717D01*
X144275808Y-70603623D01*
X144261510Y-70566374D01*
X144259309Y-70560158D01*
X144183882Y-70328020D01*
X144182009Y-70321698D01*
X144171680Y-70283154D01*
X144170140Y-70276737D01*
X144159096Y-70224782D01*
X144157893Y-70218295D01*
X144151649Y-70178873D01*
X144150788Y-70172332D01*
X144125274Y-69929577D01*
X144124757Y-69923000D01*
X144122669Y-69883149D01*
X144122496Y-69876556D01*
X144122496Y-69850000D01*
X145136496Y-69850000D01*
X145156457Y-70039927D01*
X145182106Y-70118865D01*
X145215473Y-70221556D01*
X145215476Y-70221561D01*
X145310958Y-70386941D01*
X145310965Y-70386951D01*
X145438744Y-70528864D01*
X145482214Y-70560447D01*
X145593248Y-70641118D01*
X145767712Y-70718794D01*
X145954513Y-70758500D01*
X146145487Y-70758500D01*
X146332288Y-70718794D01*
X146506752Y-70641118D01*
X146661253Y-70528866D01*
X146667757Y-70521643D01*
X146789034Y-70386951D01*
X146789035Y-70386949D01*
X146789040Y-70386944D01*
X146884527Y-70221556D01*
X146943542Y-70039928D01*
X146963504Y-69850000D01*
X146943542Y-69660072D01*
X146884527Y-69478444D01*
X146877920Y-69467000D01*
X148207000Y-69467000D01*
X148207000Y-70993000D01*
X149733000Y-70993000D01*
X149733000Y-69467000D01*
X150747000Y-69467000D01*
X150747000Y-70993000D01*
X151960787Y-70993000D01*
X151944044Y-70964000D01*
X151940896Y-70958203D01*
X151922775Y-70922639D01*
X151919934Y-70916683D01*
X151898332Y-70868162D01*
X151895808Y-70862068D01*
X151881510Y-70824819D01*
X151879309Y-70818603D01*
X151803882Y-70586465D01*
X151802009Y-70580143D01*
X151791680Y-70541599D01*
X151790140Y-70535182D01*
X151779096Y-70483227D01*
X151777893Y-70476740D01*
X151771649Y-70437318D01*
X151770788Y-70430777D01*
X151745274Y-70188022D01*
X151744757Y-70181445D01*
X151742669Y-70141594D01*
X151742496Y-70135001D01*
X151742496Y-70108445D01*
X152756496Y-70108445D01*
X152776457Y-70298372D01*
X152786091Y-70328020D01*
X152835473Y-70480001D01*
X152853524Y-70511266D01*
X152930958Y-70645386D01*
X152930965Y-70645396D01*
X153058744Y-70787309D01*
X153110372Y-70824819D01*
X153213248Y-70899563D01*
X153387712Y-70977239D01*
X153574513Y-71016945D01*
X153765487Y-71016945D01*
X153952288Y-70977239D01*
X154126752Y-70899563D01*
X154281253Y-70787311D01*
X154281255Y-70787309D01*
X154409034Y-70645396D01*
X154409035Y-70645394D01*
X154409040Y-70645389D01*
X154504527Y-70480001D01*
X154563542Y-70298373D01*
X154583504Y-70108445D01*
X154563542Y-69918517D01*
X154504527Y-69736889D01*
X154409040Y-69571501D01*
X154409038Y-69571499D01*
X154409034Y-69571493D01*
X154314948Y-69467000D01*
X155827000Y-69467000D01*
X155827000Y-70993000D01*
X157353000Y-70993000D01*
X157353000Y-69467000D01*
X158367000Y-69467000D01*
X158367000Y-70443081D01*
X158800101Y-70009980D01*
X158821929Y-69983599D01*
X158827159Y-69977668D01*
X158859932Y-69942768D01*
X158865529Y-69937171D01*
X158911988Y-69893543D01*
X158917923Y-69888311D01*
X158947252Y-69864045D01*
X158975901Y-69838792D01*
X158982000Y-69833748D01*
X159032361Y-69794688D01*
X159038761Y-69790038D01*
X159078343Y-69763139D01*
X159085018Y-69758903D01*
X159114473Y-69741480D01*
X159142174Y-69721357D01*
X159148716Y-69716911D01*
X159189150Y-69691251D01*
X159195964Y-69687222D01*
X159251816Y-69656518D01*
X159258865Y-69652926D01*
X159293320Y-69636711D01*
X159327278Y-69619410D01*
X159334435Y-69616042D01*
X159392928Y-69590728D01*
X159400289Y-69587814D01*
X159445356Y-69571588D01*
X159452881Y-69569142D01*
X159485757Y-69559589D01*
X159517587Y-69546989D01*
X159525030Y-69544310D01*
X159570567Y-69529515D01*
X159578166Y-69527308D01*
X159639889Y-69511460D01*
X159647608Y-69509734D01*
X159685008Y-69502597D01*
X159722235Y-69494278D01*
X159730004Y-69492797D01*
X159792951Y-69482826D01*
X159800804Y-69481833D01*
X159848485Y-69477325D01*
X159856383Y-69476828D01*
X159893000Y-69475676D01*
X159893000Y-69467000D01*
X158367000Y-69467000D01*
X157353000Y-69467000D01*
X155827000Y-69467000D01*
X154314948Y-69467000D01*
X154281255Y-69429580D01*
X154126752Y-69317327D01*
X153952288Y-69239651D01*
X153765487Y-69199945D01*
X153574513Y-69199945D01*
X153387711Y-69239651D01*
X153213247Y-69317327D01*
X153058744Y-69429580D01*
X152930965Y-69571493D01*
X152930958Y-69571503D01*
X152835476Y-69736883D01*
X152835473Y-69736889D01*
X152828320Y-69758903D01*
X152776457Y-69918517D01*
X152756496Y-70108445D01*
X151742496Y-70108445D01*
X151742496Y-70081889D01*
X151742669Y-70075296D01*
X151744757Y-70035445D01*
X151745274Y-70028868D01*
X151770788Y-69786113D01*
X151771649Y-69779572D01*
X151777893Y-69740150D01*
X151779096Y-69733663D01*
X151790140Y-69681708D01*
X151791680Y-69675291D01*
X151802009Y-69636747D01*
X151803882Y-69630425D01*
X151856983Y-69467000D01*
X150747000Y-69467000D01*
X149733000Y-69467000D01*
X148207000Y-69467000D01*
X146877920Y-69467000D01*
X146789040Y-69313056D01*
X146789038Y-69313054D01*
X146789034Y-69313048D01*
X146661255Y-69171135D01*
X146506752Y-69058882D01*
X146332288Y-68981206D01*
X146145487Y-68941500D01*
X145954513Y-68941500D01*
X145767711Y-68981206D01*
X145593247Y-69058882D01*
X145438744Y-69171135D01*
X145310965Y-69313048D01*
X145310958Y-69313058D01*
X145217071Y-69475676D01*
X145215473Y-69478444D01*
X145210328Y-69494278D01*
X145156457Y-69660072D01*
X145136496Y-69850000D01*
X144122496Y-69850000D01*
X144122496Y-69823444D01*
X144122669Y-69816851D01*
X144124757Y-69777000D01*
X144125274Y-69770423D01*
X144150788Y-69527668D01*
X144151649Y-69521127D01*
X144157893Y-69481705D01*
X144159096Y-69475218D01*
X144160843Y-69467000D01*
X144142701Y-69467000D01*
X144021205Y-69677436D01*
X144017761Y-69683057D01*
X143996032Y-69716519D01*
X143992294Y-69721958D01*
X143961076Y-69764927D01*
X143957061Y-69770159D01*
X143931942Y-69801180D01*
X143927656Y-69806198D01*
X143764322Y-69987599D01*
X143759781Y-69992384D01*
X143731555Y-70020610D01*
X143726768Y-70025153D01*
X143687295Y-70060693D01*
X143682278Y-70064978D01*
X143651271Y-70090085D01*
X143646041Y-70094098D01*
X143448577Y-70237564D01*
X143443142Y-70241299D01*
X143409679Y-70263031D01*
X143404056Y-70266478D01*
X143358057Y-70293037D01*
X143352256Y-70296186D01*
X143316693Y-70314306D01*
X143310740Y-70317146D01*
X143127000Y-70398953D01*
X143127000Y-70993000D01*
X142113000Y-70993000D01*
X142113000Y-70511266D01*
X141898204Y-70465611D01*
X141891789Y-70464070D01*
X141853242Y-70453741D01*
X141846917Y-70451868D01*
X141796404Y-70435455D01*
X141790188Y-70433254D01*
X141752931Y-70418953D01*
X141746835Y-70416428D01*
X141523846Y-70317146D01*
X141517893Y-70314306D01*
X141482330Y-70296186D01*
X141476529Y-70293037D01*
X141430530Y-70266478D01*
X141424907Y-70263031D01*
X141391444Y-70241299D01*
X141386009Y-70237564D01*
X141188545Y-70094098D01*
X141183315Y-70090085D01*
X141152308Y-70064978D01*
X141147291Y-70060693D01*
X141107818Y-70025153D01*
X141103031Y-70020610D01*
X141074805Y-69992384D01*
X141070264Y-69987599D01*
X140906930Y-69806198D01*
X140902644Y-69801180D01*
X140877525Y-69770159D01*
X140873510Y-69764927D01*
X140842292Y-69721958D01*
X140838554Y-69716519D01*
X140816825Y-69683057D01*
X140813381Y-69677436D01*
X140691885Y-69467000D01*
X140587000Y-69467000D01*
X139573000Y-69467000D01*
X138047000Y-69467000D01*
X136082920Y-69467000D01*
X135994040Y-69313056D01*
X135994038Y-69313054D01*
X135994034Y-69313048D01*
X135866255Y-69171135D01*
X135711752Y-69058882D01*
X135537288Y-68981206D01*
X135350487Y-68941500D01*
X135159513Y-68941500D01*
X134972711Y-68981206D01*
X134798247Y-69058882D01*
X134643744Y-69171135D01*
X134515965Y-69313048D01*
X134515958Y-69313058D01*
X134422071Y-69475676D01*
X134420473Y-69478444D01*
X134415328Y-69494278D01*
X134361457Y-69660072D01*
X134341496Y-69850000D01*
X133327496Y-69850000D01*
X133327496Y-69823444D01*
X133327669Y-69816851D01*
X133329757Y-69777000D01*
X133330274Y-69770423D01*
X133355788Y-69527668D01*
X133356649Y-69521127D01*
X133362893Y-69481705D01*
X133364096Y-69475218D01*
X133365843Y-69467000D01*
X132967000Y-69467000D01*
X131953000Y-69467000D01*
X131317000Y-69467000D01*
X130175000Y-69467000D01*
X130175000Y-68610496D01*
X141503789Y-68610496D01*
X141523750Y-68800423D01*
X141525253Y-68805048D01*
X141582766Y-68982052D01*
X141582769Y-68982057D01*
X141678251Y-69147437D01*
X141678258Y-69147447D01*
X141806037Y-69289360D01*
X141844530Y-69317327D01*
X141960541Y-69401614D01*
X142135005Y-69479290D01*
X142321806Y-69518996D01*
X142512780Y-69518996D01*
X142699581Y-69479290D01*
X142874045Y-69401614D01*
X143028546Y-69289362D01*
X143056005Y-69258866D01*
X143156327Y-69147447D01*
X143156328Y-69147445D01*
X143156333Y-69147440D01*
X143251820Y-68982052D01*
X143310835Y-68800424D01*
X143330797Y-68610496D01*
X143327592Y-68580000D01*
X162281496Y-68580000D01*
X162301457Y-68769927D01*
X162312869Y-68805048D01*
X162360473Y-68951556D01*
X162378079Y-68982050D01*
X162455958Y-69116941D01*
X162455965Y-69116951D01*
X162583744Y-69258864D01*
X162583747Y-69258866D01*
X162738248Y-69371118D01*
X162912712Y-69448794D01*
X163099513Y-69488500D01*
X163290487Y-69488500D01*
X163477288Y-69448794D01*
X163651752Y-69371118D01*
X163806253Y-69258866D01*
X163859306Y-69199945D01*
X163934034Y-69116951D01*
X163934035Y-69116949D01*
X163934040Y-69116944D01*
X164029527Y-68951556D01*
X164088542Y-68769928D01*
X164108504Y-68580000D01*
X166091496Y-68580000D01*
X166111457Y-68769927D01*
X166122869Y-68805048D01*
X166170473Y-68951556D01*
X166188079Y-68982050D01*
X166265958Y-69116941D01*
X166265965Y-69116951D01*
X166393744Y-69258864D01*
X166393747Y-69258866D01*
X166548248Y-69371118D01*
X166722712Y-69448794D01*
X166909513Y-69488500D01*
X167100487Y-69488500D01*
X167287288Y-69448794D01*
X167461752Y-69371118D01*
X167616253Y-69258866D01*
X167669306Y-69199945D01*
X167744034Y-69116951D01*
X167744035Y-69116949D01*
X167744040Y-69116944D01*
X167839527Y-68951556D01*
X167898542Y-68769928D01*
X167918504Y-68580000D01*
X167898542Y-68390072D01*
X167839527Y-68208444D01*
X167744040Y-68043056D01*
X167744038Y-68043054D01*
X167744034Y-68043048D01*
X167616255Y-67901135D01*
X167461752Y-67788882D01*
X167287288Y-67711206D01*
X167100487Y-67671500D01*
X166909513Y-67671500D01*
X166722711Y-67711206D01*
X166548247Y-67788882D01*
X166393744Y-67901135D01*
X166265965Y-68043048D01*
X166265958Y-68043058D01*
X166170476Y-68208438D01*
X166170473Y-68208444D01*
X166164293Y-68227465D01*
X166111457Y-68390072D01*
X166091496Y-68580000D01*
X164108504Y-68580000D01*
X164088542Y-68390072D01*
X164029527Y-68208444D01*
X163934040Y-68043056D01*
X163934038Y-68043054D01*
X163934034Y-68043048D01*
X163806255Y-67901135D01*
X163651752Y-67788882D01*
X163477288Y-67711206D01*
X163290487Y-67671500D01*
X163099513Y-67671500D01*
X162912711Y-67711206D01*
X162738247Y-67788882D01*
X162583744Y-67901135D01*
X162455965Y-68043048D01*
X162455958Y-68043058D01*
X162360476Y-68208438D01*
X162360473Y-68208444D01*
X162354293Y-68227465D01*
X162301457Y-68390072D01*
X162281496Y-68580000D01*
X143327592Y-68580000D01*
X143310835Y-68420568D01*
X143251820Y-68238940D01*
X143156333Y-68073552D01*
X143156331Y-68073550D01*
X143156327Y-68073544D01*
X143028548Y-67931631D01*
X142874045Y-67819378D01*
X142699581Y-67741702D01*
X142512780Y-67701996D01*
X142321806Y-67701996D01*
X142135004Y-67741702D01*
X141960540Y-67819378D01*
X141806037Y-67931631D01*
X141678258Y-68073544D01*
X141678251Y-68073554D01*
X141582769Y-68238934D01*
X141582766Y-68238941D01*
X141523750Y-68420568D01*
X141503789Y-68610496D01*
X130175000Y-68610496D01*
X130175000Y-68453000D01*
X132967000Y-68453000D01*
X133824229Y-68453000D01*
X133805773Y-68430207D01*
X133801758Y-68424975D01*
X133770540Y-68382006D01*
X133766802Y-68376567D01*
X133745073Y-68343105D01*
X133741629Y-68337484D01*
X133619585Y-68126099D01*
X133616437Y-68120302D01*
X133598316Y-68084738D01*
X133595475Y-68078782D01*
X133573873Y-68030261D01*
X133571349Y-68024167D01*
X133557051Y-67986918D01*
X133554850Y-67980702D01*
X133479423Y-67748564D01*
X133477550Y-67742242D01*
X133467221Y-67703698D01*
X133465681Y-67697281D01*
X133454637Y-67645326D01*
X133453434Y-67638839D01*
X133447190Y-67599417D01*
X133446329Y-67592876D01*
X133420815Y-67350121D01*
X133420298Y-67343544D01*
X133418210Y-67303693D01*
X133418037Y-67297100D01*
X133418037Y-67270544D01*
X134432037Y-67270544D01*
X134451998Y-67460471D01*
X134470922Y-67518712D01*
X134511014Y-67642100D01*
X134511017Y-67642105D01*
X134606499Y-67807485D01*
X134606506Y-67807495D01*
X134734285Y-67949408D01*
X134779304Y-67982116D01*
X134888789Y-68061662D01*
X135063253Y-68139338D01*
X135250054Y-68179044D01*
X135441028Y-68179044D01*
X135627829Y-68139338D01*
X135802293Y-68061662D01*
X135956794Y-67949410D01*
X135972803Y-67931630D01*
X136084575Y-67807495D01*
X136084576Y-67807493D01*
X136084581Y-67807488D01*
X136180068Y-67642100D01*
X136239083Y-67460472D01*
X136259045Y-67270544D01*
X136239083Y-67080616D01*
X136189170Y-66927000D01*
X138047000Y-66927000D01*
X138047000Y-68453000D01*
X139573000Y-68453000D01*
X139573000Y-66927000D01*
X138047000Y-66927000D01*
X136189170Y-66927000D01*
X136180068Y-66898988D01*
X136084581Y-66733600D01*
X136084579Y-66733598D01*
X136084575Y-66733592D01*
X136031819Y-66675000D01*
X144487281Y-66675000D01*
X144507242Y-66864927D01*
X144534304Y-66948212D01*
X144566258Y-67046556D01*
X144566261Y-67046561D01*
X144661743Y-67211941D01*
X144661750Y-67211951D01*
X144789529Y-67353864D01*
X144850784Y-67398368D01*
X144944033Y-67466118D01*
X145118497Y-67543794D01*
X145305298Y-67583500D01*
X145496272Y-67583500D01*
X145683073Y-67543794D01*
X145857537Y-67466118D01*
X146012038Y-67353866D01*
X146057214Y-67303693D01*
X146139819Y-67211951D01*
X146139820Y-67211949D01*
X146139825Y-67211944D01*
X146235312Y-67046556D01*
X146274158Y-66927000D01*
X148207000Y-66927000D01*
X148207000Y-68453000D01*
X149733000Y-68453000D01*
X150747000Y-68453000D01*
X152273000Y-68453000D01*
X152273000Y-67551215D01*
X153556900Y-67551215D01*
X153576861Y-67741142D01*
X153592373Y-67788882D01*
X153635877Y-67922771D01*
X153639538Y-67929112D01*
X153731362Y-68088156D01*
X153731369Y-68088166D01*
X153859148Y-68230079D01*
X153910776Y-68267589D01*
X154013652Y-68342333D01*
X154188116Y-68420009D01*
X154374917Y-68459715D01*
X154565891Y-68459715D01*
X154597482Y-68453000D01*
X156169669Y-68453000D01*
X157353000Y-68453000D01*
X158367000Y-68453000D01*
X159893000Y-68453000D01*
X159893000Y-67585901D01*
X159781284Y-67667068D01*
X159775849Y-67670803D01*
X159742386Y-67692535D01*
X159736763Y-67695982D01*
X159690764Y-67722541D01*
X159684963Y-67725690D01*
X159649400Y-67743810D01*
X159643447Y-67746650D01*
X159420458Y-67845932D01*
X159414362Y-67848457D01*
X159377105Y-67862758D01*
X159370889Y-67864959D01*
X159320376Y-67881372D01*
X159314051Y-67883245D01*
X159275504Y-67893574D01*
X159269089Y-67895115D01*
X159030327Y-67945865D01*
X159023839Y-67947067D01*
X158984406Y-67953312D01*
X158977863Y-67954173D01*
X158925039Y-67959723D01*
X158918465Y-67960240D01*
X158878628Y-67962327D01*
X158872036Y-67962500D01*
X158627964Y-67962500D01*
X158621372Y-67962327D01*
X158581535Y-67960240D01*
X158574961Y-67959723D01*
X158522137Y-67954173D01*
X158515594Y-67953312D01*
X158476161Y-67947067D01*
X158469673Y-67945865D01*
X158367000Y-67924041D01*
X158367000Y-68453000D01*
X157353000Y-68453000D01*
X157353000Y-67361605D01*
X157239637Y-67235703D01*
X157235351Y-67230684D01*
X157210232Y-67199663D01*
X157206217Y-67194431D01*
X157174999Y-67151462D01*
X157171261Y-67146023D01*
X157149532Y-67112561D01*
X157146088Y-67106940D01*
X157042199Y-66927000D01*
X156289020Y-66927000D01*
X156336522Y-67073195D01*
X156338395Y-67079517D01*
X156348724Y-67118061D01*
X156350264Y-67124478D01*
X156361308Y-67176433D01*
X156362511Y-67182920D01*
X156368755Y-67222342D01*
X156369616Y-67228883D01*
X156395130Y-67471638D01*
X156395647Y-67478215D01*
X156397735Y-67518066D01*
X156397908Y-67524659D01*
X156397908Y-67577771D01*
X156397735Y-67584364D01*
X156395647Y-67624215D01*
X156395130Y-67630792D01*
X156369616Y-67873547D01*
X156368755Y-67880088D01*
X156362511Y-67919510D01*
X156361308Y-67925997D01*
X156350264Y-67977952D01*
X156348724Y-67984369D01*
X156338395Y-68022913D01*
X156336522Y-68029235D01*
X156261095Y-68261373D01*
X156258894Y-68267589D01*
X156244596Y-68304838D01*
X156242072Y-68310932D01*
X156220470Y-68359453D01*
X156217629Y-68365409D01*
X156199508Y-68400973D01*
X156196360Y-68406770D01*
X156169669Y-68453000D01*
X154597482Y-68453000D01*
X154752692Y-68420009D01*
X154927156Y-68342333D01*
X155081657Y-68230081D01*
X155081659Y-68230079D01*
X155209438Y-68088166D01*
X155209439Y-68088164D01*
X155209444Y-68088159D01*
X155304931Y-67922771D01*
X155363946Y-67741143D01*
X155383908Y-67551215D01*
X155363946Y-67361287D01*
X155304931Y-67179659D01*
X155209444Y-67014271D01*
X155209442Y-67014269D01*
X155209438Y-67014263D01*
X155081659Y-66872350D01*
X154927156Y-66760097D01*
X154752692Y-66682421D01*
X154565891Y-66642715D01*
X154374917Y-66642715D01*
X154188115Y-66682421D01*
X154013651Y-66760097D01*
X153859148Y-66872350D01*
X153731369Y-67014263D01*
X153731362Y-67014273D01*
X153635880Y-67179653D01*
X153635877Y-67179659D01*
X153625388Y-67211941D01*
X153576861Y-67361287D01*
X153556900Y-67551215D01*
X152273000Y-67551215D01*
X152273000Y-66927000D01*
X151873722Y-66927000D01*
X151753370Y-67135455D01*
X151749926Y-67141076D01*
X151728197Y-67174538D01*
X151724459Y-67179977D01*
X151693241Y-67222946D01*
X151689226Y-67228178D01*
X151664107Y-67259199D01*
X151659821Y-67264217D01*
X151496487Y-67445618D01*
X151491946Y-67450403D01*
X151463720Y-67478629D01*
X151458933Y-67483172D01*
X151419460Y-67518712D01*
X151414443Y-67522997D01*
X151383436Y-67548104D01*
X151378206Y-67552117D01*
X151180742Y-67695583D01*
X151175307Y-67699318D01*
X151141844Y-67721050D01*
X151136221Y-67724497D01*
X151090222Y-67751056D01*
X151084421Y-67754205D01*
X151048858Y-67772325D01*
X151042905Y-67775165D01*
X150819916Y-67874447D01*
X150813820Y-67876972D01*
X150776563Y-67891273D01*
X150770347Y-67893474D01*
X150747000Y-67901060D01*
X150747000Y-68453000D01*
X149733000Y-68453000D01*
X149733000Y-67945444D01*
X149630370Y-67923630D01*
X149623954Y-67922089D01*
X149585407Y-67911760D01*
X149579082Y-67909887D01*
X149528569Y-67893474D01*
X149522353Y-67891273D01*
X149485096Y-67876972D01*
X149479000Y-67874447D01*
X149256011Y-67775165D01*
X149250058Y-67772325D01*
X149214495Y-67754205D01*
X149208694Y-67751056D01*
X149162695Y-67724497D01*
X149157072Y-67721050D01*
X149123609Y-67699318D01*
X149118174Y-67695583D01*
X148920710Y-67552117D01*
X148915480Y-67548104D01*
X148884473Y-67522997D01*
X148879456Y-67518712D01*
X148839983Y-67483172D01*
X148835196Y-67478629D01*
X148806970Y-67450403D01*
X148802429Y-67445618D01*
X148639095Y-67264217D01*
X148634809Y-67259199D01*
X148609690Y-67228178D01*
X148605675Y-67222946D01*
X148574457Y-67179977D01*
X148570719Y-67174538D01*
X148548990Y-67141076D01*
X148545546Y-67135455D01*
X148425194Y-66927000D01*
X148207000Y-66927000D01*
X146274158Y-66927000D01*
X146294327Y-66864928D01*
X146314289Y-66675000D01*
X146294327Y-66485072D01*
X146235312Y-66303444D01*
X146139825Y-66138056D01*
X146139823Y-66138054D01*
X146139819Y-66138048D01*
X146077211Y-66068515D01*
X149235954Y-66068515D01*
X149255915Y-66258442D01*
X149270538Y-66303445D01*
X149314931Y-66440071D01*
X149314934Y-66440076D01*
X149410416Y-66605456D01*
X149410423Y-66605466D01*
X149538202Y-66747379D01*
X149538205Y-66747381D01*
X149692706Y-66859633D01*
X149867170Y-66937309D01*
X150053971Y-66977015D01*
X150244945Y-66977015D01*
X150431746Y-66937309D01*
X150606210Y-66859633D01*
X150760711Y-66747381D01*
X150773118Y-66733602D01*
X150888492Y-66605466D01*
X150888493Y-66605464D01*
X150888498Y-66605459D01*
X150983985Y-66440071D01*
X151043000Y-66258443D01*
X151062962Y-66068515D01*
X151059965Y-66040000D01*
X157836496Y-66040000D01*
X157856457Y-66229927D01*
X157865723Y-66258443D01*
X157915473Y-66411556D01*
X157915476Y-66411561D01*
X158010958Y-66576941D01*
X158010965Y-66576951D01*
X158138744Y-66718864D01*
X158159029Y-66733602D01*
X158293248Y-66831118D01*
X158467712Y-66908794D01*
X158654513Y-66948500D01*
X158845487Y-66948500D01*
X158946636Y-66927000D01*
X160907000Y-66927000D01*
X160907000Y-68453000D01*
X161275258Y-68453000D01*
X161295788Y-68257668D01*
X161296649Y-68251127D01*
X161302893Y-68211705D01*
X161304096Y-68205218D01*
X161315140Y-68153263D01*
X161316680Y-68146846D01*
X161327009Y-68108302D01*
X161328882Y-68101980D01*
X161404309Y-67869842D01*
X161406510Y-67863626D01*
X161420808Y-67826377D01*
X161423332Y-67820283D01*
X161444934Y-67771762D01*
X161447775Y-67765806D01*
X161465896Y-67730242D01*
X161469044Y-67724445D01*
X161591088Y-67513060D01*
X161594532Y-67507439D01*
X161616261Y-67473977D01*
X161619999Y-67468538D01*
X161651217Y-67425569D01*
X161655232Y-67420337D01*
X161680351Y-67389316D01*
X161684637Y-67384298D01*
X161847971Y-67202897D01*
X161852512Y-67198112D01*
X161880738Y-67169886D01*
X161885525Y-67165343D01*
X161924998Y-67129803D01*
X161930015Y-67125518D01*
X161961022Y-67100411D01*
X161966252Y-67096398D01*
X162163716Y-66952932D01*
X162169151Y-66949197D01*
X162202614Y-66927465D01*
X162203373Y-66927000D01*
X160907000Y-66927000D01*
X158946636Y-66927000D01*
X159032288Y-66908794D01*
X159206752Y-66831118D01*
X159361253Y-66718866D01*
X159429820Y-66642715D01*
X159489034Y-66576951D01*
X159489035Y-66576949D01*
X159489040Y-66576944D01*
X159584527Y-66411556D01*
X159643542Y-66229928D01*
X159662580Y-66048787D01*
X166984941Y-66048787D01*
X167004902Y-66238714D01*
X167011313Y-66258443D01*
X167063918Y-66420343D01*
X167063921Y-66420348D01*
X167159403Y-66585728D01*
X167159410Y-66585738D01*
X167287189Y-66727651D01*
X167287192Y-66727653D01*
X167441693Y-66839905D01*
X167616157Y-66917581D01*
X167802958Y-66957287D01*
X167993932Y-66957287D01*
X168180733Y-66917581D01*
X168355197Y-66839905D01*
X168509698Y-66727653D01*
X168517612Y-66718864D01*
X168637479Y-66585738D01*
X168637480Y-66585736D01*
X168637485Y-66585731D01*
X168732972Y-66420343D01*
X168791987Y-66238715D01*
X168811949Y-66048787D01*
X168791987Y-65858859D01*
X168732972Y-65677231D01*
X168637485Y-65511843D01*
X168637483Y-65511841D01*
X168637479Y-65511835D01*
X168509700Y-65369922D01*
X168381804Y-65277000D01*
X171067000Y-65277000D01*
X171067000Y-65913000D01*
X172247970Y-65913000D01*
X171611970Y-65277000D01*
X171067000Y-65277000D01*
X168381804Y-65277000D01*
X168355197Y-65257669D01*
X168180733Y-65179993D01*
X167993932Y-65140287D01*
X167802958Y-65140287D01*
X167616156Y-65179993D01*
X167441692Y-65257669D01*
X167287189Y-65369922D01*
X167159410Y-65511835D01*
X167159403Y-65511845D01*
X167067108Y-65671705D01*
X167063918Y-65677231D01*
X167050779Y-65717668D01*
X167004902Y-65858859D01*
X166984941Y-66048787D01*
X159662580Y-66048787D01*
X159663504Y-66040000D01*
X159643542Y-65850072D01*
X159584527Y-65668444D01*
X159489040Y-65503056D01*
X159489038Y-65503054D01*
X159489034Y-65503048D01*
X159361255Y-65361135D01*
X159245453Y-65277000D01*
X160907000Y-65277000D01*
X160907000Y-65913000D01*
X162433000Y-65913000D01*
X162433000Y-65277000D01*
X163447000Y-65277000D01*
X163447000Y-65913000D01*
X164973000Y-65913000D01*
X164973000Y-65277000D01*
X163447000Y-65277000D01*
X162433000Y-65277000D01*
X160907000Y-65277000D01*
X159245453Y-65277000D01*
X159206752Y-65248882D01*
X159032288Y-65171206D01*
X158845487Y-65131500D01*
X158654513Y-65131500D01*
X158467711Y-65171206D01*
X158293247Y-65248882D01*
X158138744Y-65361135D01*
X158010965Y-65503048D01*
X158010958Y-65503058D01*
X157915476Y-65668438D01*
X157915473Y-65668444D01*
X157912620Y-65677225D01*
X157856457Y-65850072D01*
X157836496Y-66040000D01*
X151059965Y-66040000D01*
X151043000Y-65878587D01*
X150983985Y-65696959D01*
X150888498Y-65531571D01*
X150888496Y-65531569D01*
X150888492Y-65531563D01*
X150760713Y-65389650D01*
X150606210Y-65277397D01*
X150605318Y-65277000D01*
X155827000Y-65277000D01*
X155827000Y-65435535D01*
X155827790Y-65436904D01*
X155917711Y-65629741D01*
X155925223Y-65650379D01*
X155980293Y-65855901D01*
X155984107Y-65877531D01*
X155987210Y-65913000D01*
X156830258Y-65913000D01*
X156850788Y-65717668D01*
X156851649Y-65711127D01*
X156857893Y-65671705D01*
X156859096Y-65665218D01*
X156870140Y-65613263D01*
X156871680Y-65606846D01*
X156882009Y-65568302D01*
X156883882Y-65561980D01*
X156959309Y-65329842D01*
X156961510Y-65323626D01*
X156975808Y-65286377D01*
X156978332Y-65280283D01*
X156979794Y-65277000D01*
X155827000Y-65277000D01*
X150605318Y-65277000D01*
X150431746Y-65199721D01*
X150244945Y-65160015D01*
X150053971Y-65160015D01*
X149867169Y-65199721D01*
X149692705Y-65277397D01*
X149538202Y-65389650D01*
X149410423Y-65531563D01*
X149410416Y-65531573D01*
X149326320Y-65677232D01*
X149314931Y-65696959D01*
X149308202Y-65717668D01*
X149255915Y-65878587D01*
X149235954Y-66068515D01*
X146077211Y-66068515D01*
X146012040Y-65996135D01*
X145857537Y-65883882D01*
X145683073Y-65806206D01*
X145496272Y-65766500D01*
X145305298Y-65766500D01*
X145118496Y-65806206D01*
X144944032Y-65883882D01*
X144789529Y-65996135D01*
X144661750Y-66138048D01*
X144661743Y-66138058D01*
X144566261Y-66303438D01*
X144566258Y-66303445D01*
X144507242Y-66485072D01*
X144487281Y-66675000D01*
X136031819Y-66675000D01*
X135956796Y-66591679D01*
X135802293Y-66479426D01*
X135627829Y-66401750D01*
X135441028Y-66362044D01*
X135250054Y-66362044D01*
X135063252Y-66401750D01*
X134888788Y-66479426D01*
X134734285Y-66591679D01*
X134606506Y-66733592D01*
X134606499Y-66733602D01*
X134511017Y-66898982D01*
X134511014Y-66898989D01*
X134451998Y-67080616D01*
X134432037Y-67270544D01*
X133418037Y-67270544D01*
X133418037Y-67243988D01*
X133418210Y-67237395D01*
X133420298Y-67197544D01*
X133420815Y-67190967D01*
X133446329Y-66948212D01*
X133447190Y-66941671D01*
X133449514Y-66927000D01*
X133222000Y-66927000D01*
X133222000Y-67095841D01*
X133201998Y-67163962D01*
X133185095Y-67184936D01*
X132967000Y-67403031D01*
X132967000Y-68453000D01*
X130175000Y-68453000D01*
X130175000Y-66801000D01*
X130195002Y-66732879D01*
X130248658Y-66686386D01*
X130301000Y-66675000D01*
X132080000Y-66675000D01*
X132080000Y-65277000D01*
X133222000Y-65277000D01*
X133222000Y-65913000D01*
X133966475Y-65913000D01*
X133968470Y-65890195D01*
X133972284Y-65868565D01*
X134027354Y-65663043D01*
X134034866Y-65642405D01*
X134124787Y-65449568D01*
X134135769Y-65430547D01*
X134243284Y-65277000D01*
X138047000Y-65277000D01*
X138047000Y-65913000D01*
X139573000Y-65913000D01*
X139573000Y-65277000D01*
X138047000Y-65277000D01*
X134243284Y-65277000D01*
X133222000Y-65277000D01*
X132080000Y-65277000D01*
X132080000Y-64261000D01*
X132100002Y-64192879D01*
X132153658Y-64146386D01*
X132206000Y-64135000D01*
X172032810Y-64135000D01*
X172100931Y-64155002D01*
G37*
%TD.AperFunction*%
%TD*%
M02*
