%TF.GenerationSoftware,KiCad,Pcbnew,7.0.10*%
%TF.CreationDate,2024-01-18T02:20:14-05:00*%
%TF.ProjectId,Dattalogger_Board,44617474-616c-46f6-9767-65725f426f61,1*%
%TF.SameCoordinates,Original*%
%TF.FileFunction,Copper,L1,Top*%
%TF.FilePolarity,Positive*%
%FSLAX46Y46*%
G04 Gerber Fmt 4.6, Leading zero omitted, Abs format (unit mm)*
G04 Created by KiCad (PCBNEW 7.0.10) date 2024-01-18 02:20:14*
%MOMM*%
%LPD*%
G01*
G04 APERTURE LIST*
G04 Aperture macros list*
%AMRoundRect*
0 Rectangle with rounded corners*
0 $1 Rounding radius*
0 $2 $3 $4 $5 $6 $7 $8 $9 X,Y pos of 4 corners*
0 Add a 4 corners polygon primitive as box body*
4,1,4,$2,$3,$4,$5,$6,$7,$8,$9,$2,$3,0*
0 Add four circle primitives for the rounded corners*
1,1,$1+$1,$2,$3*
1,1,$1+$1,$4,$5*
1,1,$1+$1,$6,$7*
1,1,$1+$1,$8,$9*
0 Add four rect primitives between the rounded corners*
20,1,$1+$1,$2,$3,$4,$5,0*
20,1,$1+$1,$4,$5,$6,$7,0*
20,1,$1+$1,$6,$7,$8,$9,0*
20,1,$1+$1,$8,$9,$2,$3,0*%
G04 Aperture macros list end*
%TA.AperFunction,SMDPad,CuDef*%
%ADD10RoundRect,0.250000X-0.262500X-0.450000X0.262500X-0.450000X0.262500X0.450000X-0.262500X0.450000X0*%
%TD*%
%TA.AperFunction,SMDPad,CuDef*%
%ADD11RoundRect,0.250000X0.262500X0.450000X-0.262500X0.450000X-0.262500X-0.450000X0.262500X-0.450000X0*%
%TD*%
%TA.AperFunction,SMDPad,CuDef*%
%ADD12RoundRect,0.243750X-0.243750X-0.456250X0.243750X-0.456250X0.243750X0.456250X-0.243750X0.456250X0*%
%TD*%
%TA.AperFunction,SMDPad,CuDef*%
%ADD13RoundRect,0.250000X0.250000X0.475000X-0.250000X0.475000X-0.250000X-0.475000X0.250000X-0.475000X0*%
%TD*%
%TA.AperFunction,SMDPad,CuDef*%
%ADD14R,3.500000X2.400000*%
%TD*%
%TA.AperFunction,SMDPad,CuDef*%
%ADD15R,2.400000X3.500000*%
%TD*%
%TA.AperFunction,SMDPad,CuDef*%
%ADD16RoundRect,0.099000X-0.176000X-0.636000X0.176000X-0.636000X0.176000X0.636000X-0.176000X0.636000X0*%
%TD*%
%TA.AperFunction,SMDPad,CuDef*%
%ADD17RoundRect,0.038500X-0.696500X-0.236500X0.696500X-0.236500X0.696500X0.236500X-0.696500X0.236500X0*%
%TD*%
%TA.AperFunction,SMDPad,CuDef*%
%ADD18RoundRect,0.150000X-0.650000X-0.150000X0.650000X-0.150000X0.650000X0.150000X-0.650000X0.150000X0*%
%TD*%
%TA.AperFunction,SMDPad,CuDef*%
%ADD19RoundRect,0.041300X-0.943700X-0.253700X0.943700X-0.253700X0.943700X0.253700X-0.943700X0.253700X0*%
%TD*%
%TA.AperFunction,ComponentPad*%
%ADD20O,1.700000X1.700000*%
%TD*%
%TA.AperFunction,ComponentPad*%
%ADD21R,1.700000X1.700000*%
%TD*%
%TA.AperFunction,SMDPad,CuDef*%
%ADD22RoundRect,0.250000X-0.250000X-0.475000X0.250000X-0.475000X0.250000X0.475000X-0.250000X0.475000X0*%
%TD*%
%TA.AperFunction,ViaPad*%
%ADD23C,0.800000*%
%TD*%
%TA.AperFunction,Conductor*%
%ADD24C,0.350000*%
%TD*%
%TA.AperFunction,Conductor*%
%ADD25C,0.250000*%
%TD*%
G04 APERTURE END LIST*
D10*
%TO.P,R5,1*%
%TO.N,Net-(D2-K)*%
X161012500Y-69850000D03*
%TO.P,R5,2*%
%TO.N,GND*%
X162837500Y-69850000D03*
%TD*%
D11*
%TO.P,R4,1*%
%TO.N,/Vcc*%
X162837500Y-73025000D03*
%TO.P,R4,2*%
%TO.N,/SDA*%
X161012500Y-73025000D03*
%TD*%
%TO.P,R3,2*%
%TO.N,/SCK*%
X161012500Y-76200000D03*
%TO.P,R3,1*%
%TO.N,/Vcc*%
X162837500Y-76200000D03*
%TD*%
D12*
%TO.P,D2,2,A*%
%TO.N,/Vcc*%
X162862500Y-66040000D03*
%TO.P,D2,1,K*%
%TO.N,Net-(D2-K)*%
X160987500Y-66040000D03*
%TD*%
D13*
%TO.P,C4,1*%
%TO.N,GND*%
X162240000Y-86995000D03*
%TO.P,C4,2*%
%TO.N,Net-(U4-AREF)*%
X160340000Y-86995000D03*
%TD*%
%TO.P,C2,1*%
%TO.N,GND*%
X162240000Y-83820000D03*
%TO.P,C2,2*%
%TO.N,Net-(U4-PB6)*%
X160340000Y-83820000D03*
%TD*%
D14*
%TO.P,Y2,1*%
%TO.N,Net-(U4-PB6)*%
X149800000Y-86360000D03*
%TO.P,Y2,2*%
%TO.N,Net-(U4-PB7)*%
X155000000Y-86360000D03*
%TD*%
D15*
%TO.P,Y1,2*%
%TO.N,Net-(U2-X1)*%
X132080000Y-80585000D03*
%TO.P,Y1,1*%
%TO.N,Net-(U2-X2)*%
X132080000Y-85785000D03*
%TD*%
D16*
%TO.P,U4,32,PD2*%
%TO.N,/D2*%
X149600000Y-72665000D03*
%TO.P,U4,31,PD1*%
%TO.N,/TX*%
X150400000Y-72665000D03*
%TO.P,U4,30,PD0*%
%TO.N,/RX*%
X151200000Y-72665000D03*
%TO.P,U4,29,PC6/~{RESET}*%
%TO.N,/RESET*%
X152000000Y-72665000D03*
%TO.P,U4,28,PC5*%
%TO.N,/SCK*%
X152800000Y-72665000D03*
%TO.P,U4,27,PC4*%
%TO.N,/SDA*%
X153600000Y-72665000D03*
%TO.P,U4,26,PC3*%
%TO.N,unconnected-(U4-PC3-Pad26)*%
X154400000Y-72665000D03*
%TO.P,U4,25,PC2*%
%TO.N,unconnected-(U4-PC2-Pad25)*%
X155200000Y-72665000D03*
D17*
%TO.P,U4,24,PC1*%
%TO.N,unconnected-(U4-PC1-Pad24)*%
X156570000Y-74035000D03*
%TO.P,U4,23,PC0*%
%TO.N,unconnected-(U4-PC0-Pad23)*%
X156570000Y-74835000D03*
%TO.P,U4,22,ADC7*%
%TO.N,unconnected-(U4-ADC7-Pad22)*%
X156570000Y-75635000D03*
%TO.P,U4,21,GND*%
%TO.N,GND*%
X156570000Y-76435000D03*
%TO.P,U4,20,AREF*%
%TO.N,Net-(U4-AREF)*%
X156570000Y-77235000D03*
%TO.P,U4,19,ADC6*%
%TO.N,unconnected-(U4-ADC6-Pad19)*%
X156570000Y-78035000D03*
%TO.P,U4,18,AVCC*%
%TO.N,/Vcc*%
X156570000Y-78835000D03*
%TO.P,U4,17,PB5*%
%TO.N,/SCK*%
X156570000Y-79635000D03*
D16*
%TO.P,U4,16,PB4*%
%TO.N,/MISO*%
X155200000Y-81005000D03*
%TO.P,U4,15,PB3*%
%TO.N,/MOSI*%
X154400000Y-81005000D03*
%TO.P,U4,14,PB2*%
%TO.N,unconnected-(U4-PB2-Pad14)*%
X153600000Y-81005000D03*
%TO.P,U4,13,PB1*%
%TO.N,unconnected-(U4-PB1-Pad13)*%
X152800000Y-81005000D03*
%TO.P,U4,12,PB0*%
%TO.N,/D8*%
X152000000Y-81005000D03*
%TO.P,U4,11,PD7*%
%TO.N,/D7*%
X151200000Y-81005000D03*
%TO.P,U4,10,PD6*%
%TO.N,/D6*%
X150400000Y-81005000D03*
%TO.P,U4,9,PD5*%
%TO.N,/D5*%
X149600000Y-81005000D03*
D17*
%TO.P,U4,8,PB7*%
%TO.N,Net-(U4-PB7)*%
X148230000Y-79635000D03*
%TO.P,U4,7,PB6*%
%TO.N,Net-(U4-PB6)*%
X148230000Y-78835000D03*
%TO.P,U4,6,VCC*%
%TO.N,/Vcc*%
X148230000Y-78035000D03*
%TO.P,U4,5,GND*%
%TO.N,GND*%
X148230000Y-77235000D03*
%TO.P,U4,4,VCC*%
%TO.N,/Vcc*%
X148230000Y-76435000D03*
%TO.P,U4,3,GND*%
%TO.N,GND*%
X148230000Y-75635000D03*
%TO.P,U4,2,PD4*%
%TO.N,/D4*%
X148230000Y-74835000D03*
%TO.P,U4,1,PD3*%
%TO.N,/D3*%
X148230000Y-74035000D03*
%TD*%
D18*
%TO.P,U3,8,VCC*%
%TO.N,/Vcc*%
X143935000Y-66040000D03*
%TO.P,U3,7,WP*%
%TO.N,GND*%
X143935000Y-67310000D03*
%TO.P,U3,6,SCL*%
%TO.N,/SCK*%
X143935000Y-68580000D03*
%TO.P,U3,5,SDA*%
%TO.N,/SDA*%
X143935000Y-69850000D03*
%TO.P,U3,4,GND*%
%TO.N,GND*%
X136735000Y-69850000D03*
%TO.P,U3,3,A2*%
%TO.N,/Vcc*%
X136735000Y-68580000D03*
%TO.P,U3,2,A1*%
%TO.N,GND*%
X136735000Y-67310000D03*
%TO.P,U3,1,A0*%
%TO.N,/Vcc*%
X136735000Y-66040000D03*
%TD*%
D19*
%TO.P,U2,1,X1*%
%TO.N,Net-(U2-X1)*%
X137860000Y-80645000D03*
%TO.P,U2,2,X2*%
%TO.N,Net-(U2-X2)*%
X137860000Y-81915000D03*
%TO.P,U2,3,~{INTA}*%
%TO.N,Net-(U2-~{INTA})*%
X137860000Y-83185000D03*
%TO.P,U2,4,GND*%
%TO.N,GND*%
X137860000Y-84455000D03*
%TO.P,U2,5,SDA*%
%TO.N,/SDA*%
X142810000Y-84455000D03*
%TO.P,U2,6,SCL*%
%TO.N,/SCK*%
X142810000Y-83185000D03*
%TO.P,U2,7,SQW/~INT*%
%TO.N,Net-(U2-SQW{slash}~INT)*%
X142810000Y-81915000D03*
%TO.P,U2,8,VCC*%
%TO.N,/Vcc*%
X142810000Y-80645000D03*
%TD*%
D18*
%TO.P,U1,8,VCC*%
%TO.N,/Vcc*%
X143935000Y-73660000D03*
%TO.P,U1,7,WP*%
%TO.N,GND*%
X143935000Y-74930000D03*
%TO.P,U1,6,SCL*%
%TO.N,/SCK*%
X143935000Y-76200000D03*
%TO.P,U1,5,SDA*%
%TO.N,/SDA*%
X143935000Y-77470000D03*
%TO.P,U1,4,GND*%
%TO.N,GND*%
X136735000Y-77470000D03*
%TO.P,U1,3,A2*%
%TO.N,/Vcc*%
X136735000Y-76200000D03*
%TO.P,U1,2,A1*%
X136735000Y-74930000D03*
%TO.P,U1,1,A0*%
X136735000Y-73660000D03*
%TD*%
D11*
%TO.P,R7,2*%
%TO.N,Net-(D1-K)*%
X164822500Y-69850000D03*
%TO.P,R7,1*%
%TO.N,GND*%
X166647500Y-69850000D03*
%TD*%
D10*
%TO.P,R6,2*%
%TO.N,/RESET*%
X166647500Y-73025000D03*
%TO.P,R6,1*%
%TO.N,/Vcc*%
X164822500Y-73025000D03*
%TD*%
D11*
%TO.P,R2,1*%
%TO.N,/Vcc*%
X142517500Y-86995000D03*
%TO.P,R2,2*%
%TO.N,Net-(U2-SQW{slash}~INT)*%
X140692500Y-86995000D03*
%TD*%
D10*
%TO.P,R1,1*%
%TO.N,/Vcc*%
X136882500Y-86995000D03*
%TO.P,R1,2*%
%TO.N,Net-(U2-~{INTA})*%
X138707500Y-86995000D03*
%TD*%
D20*
%TO.P,J4,9,Pin_9*%
%TO.N,/Vcc*%
X154950000Y-91440000D03*
%TO.P,J4,8,Pin_8*%
%TO.N,GND*%
X152410000Y-91440000D03*
%TO.P,J4,7,Pin_7*%
%TO.N,/D8*%
X149870000Y-91440000D03*
%TO.P,J4,6,Pin_6*%
%TO.N,/D7*%
X147330000Y-91440000D03*
%TO.P,J4,5,Pin_5*%
%TO.N,/D6*%
X144790000Y-91440000D03*
%TO.P,J4,4,Pin_4*%
%TO.N,/D5*%
X142250000Y-91440000D03*
%TO.P,J4,3,Pin_3*%
%TO.N,/D4*%
X139710000Y-91440000D03*
%TO.P,J4,2,Pin_2*%
%TO.N,/D3*%
X137170000Y-91440000D03*
D21*
%TO.P,J4,1,Pin_1*%
%TO.N,/D2*%
X134630000Y-91440000D03*
%TD*%
D20*
%TO.P,J3,6,Pin_6*%
%TO.N,GND*%
X172715000Y-74310000D03*
%TO.P,J3,5,Pin_5*%
%TO.N,/RESET*%
X170175000Y-74310000D03*
%TO.P,J3,4,Pin_4*%
%TO.N,/MOSI*%
X172715000Y-71770000D03*
%TO.P,J3,3,Pin_3*%
%TO.N,/SCK*%
X170175000Y-71770000D03*
%TO.P,J3,2,Pin_2*%
%TO.N,/Vcc*%
X172715000Y-69230000D03*
D21*
%TO.P,J3,1,Pin_1*%
%TO.N,/MISO*%
X170175000Y-69230000D03*
%TD*%
%TO.P,J2,1,Pin_1*%
%TO.N,GND*%
X161300000Y-91440000D03*
D20*
%TO.P,J2,2,Pin_2*%
%TO.N,/Vcc*%
X163840000Y-91440000D03*
%TO.P,J2,3,Pin_3*%
%TO.N,/RX*%
X166380000Y-91440000D03*
%TO.P,J2,4,Pin_4*%
%TO.N,/TX*%
X168920000Y-91440000D03*
%TD*%
D21*
%TO.P,J1,1,Pin_1*%
%TO.N,GND*%
X172720000Y-79385000D03*
D20*
%TO.P,J1,2,Pin_2*%
%TO.N,/Vcc*%
X172720000Y-81925000D03*
%TO.P,J1,3,Pin_3*%
%TO.N,/SDA*%
X172720000Y-84465000D03*
%TO.P,J1,4,Pin_4*%
%TO.N,/SCK*%
X172720000Y-87005000D03*
%TD*%
D12*
%TO.P,D1,1,K*%
%TO.N,Net-(D1-K)*%
X164797500Y-66040000D03*
%TO.P,D1,2,A*%
%TO.N,/SCK*%
X166672500Y-66040000D03*
%TD*%
D22*
%TO.P,C5,2*%
%TO.N,GND*%
X157795000Y-66040000D03*
%TO.P,C5,1*%
%TO.N,/Vcc*%
X155895000Y-66040000D03*
%TD*%
%TO.P,C3,2*%
%TO.N,Net-(U4-PB7)*%
X153350000Y-66040000D03*
%TO.P,C3,1*%
%TO.N,GND*%
X151450000Y-66040000D03*
%TD*%
%TO.P,C1,2*%
%TO.N,GND*%
X148905000Y-66155000D03*
%TO.P,C1,1*%
%TO.N,/Vcc*%
X147005000Y-66155000D03*
%TD*%
D21*
%TO.P,BT1,1,+*%
%TO.N,/Vcc*%
X132080000Y-73655000D03*
D20*
%TO.P,BT1,2,-*%
%TO.N,GND*%
X132080000Y-76195000D03*
%TD*%
D23*
%TO.N,/Vcc*%
X151130000Y-78740000D03*
%TO.N,GND*%
X159385000Y-64135000D03*
%TO.N,/Vcc*%
X158115000Y-78105000D03*
X132715000Y-88900000D03*
X140335000Y-80645000D03*
%TO.N,/SDA*%
X157480000Y-71755000D03*
X155007762Y-73999965D03*
X167005000Y-84455000D03*
%TO.N,GND*%
X149860000Y-77470000D03*
X149860000Y-75565000D03*
%TO.N,Net-(U4-PB7)*%
X153035000Y-68580000D03*
X152130000Y-79375000D03*
%TO.N,Net-(U4-AREF)*%
X155444394Y-77210300D03*
X158750000Y-87630000D03*
%TO.N,/SDA*%
X159925000Y-74930000D03*
%TO.N,/RESET*%
X157884492Y-70715508D03*
X152852348Y-74477652D03*
%TO.N,/Vcc*%
X154940000Y-64135000D03*
X163830000Y-67310000D03*
%TO.N,/MISO*%
X156845000Y-80645000D03*
%TO.N,/SCK*%
X167640000Y-74930000D03*
%TO.N,/Vcc*%
X164465000Y-74930000D03*
%TO.N,/TX*%
X153095798Y-77020000D03*
%TO.N,/RX*%
X153580000Y-79375000D03*
%TO.N,/D8*%
X152400000Y-83185000D03*
%TO.N,/D7*%
X151130000Y-82550000D03*
%TO.N,/D6*%
X148590000Y-82550000D03*
%TO.N,/D5*%
X147955000Y-81280000D03*
%TO.N,/D2*%
X149707224Y-73774393D03*
%TO.N,/SCK*%
X145415000Y-77470000D03*
X141605000Y-76835000D03*
%TO.N,GND*%
X142240000Y-74930000D03*
X139700000Y-83820000D03*
%TD*%
D24*
%TO.N,/Vcc*%
X149963273Y-78740000D02*
X151130000Y-78740000D01*
X149258273Y-78035000D02*
X149963273Y-78740000D01*
X148230000Y-78035000D02*
X149258273Y-78035000D01*
X151130000Y-77573273D02*
X151130000Y-78740000D01*
X149991727Y-76435000D02*
X151130000Y-77573273D01*
X148230000Y-76435000D02*
X149991727Y-76435000D01*
D25*
%TO.N,Net-(U4-PB7)*%
X152130000Y-79375000D02*
X151870000Y-79635000D01*
X151870000Y-79635000D02*
X148230000Y-79635000D01*
%TO.N,/RX*%
X151200000Y-73461700D02*
X151200000Y-72665000D01*
X152127348Y-74389048D02*
X151200000Y-73461700D01*
X152127348Y-74777957D02*
X152127348Y-74389048D01*
X153855000Y-75750000D02*
X153307652Y-75202652D01*
X153855000Y-79100000D02*
X153855000Y-75750000D01*
X152552043Y-75202652D02*
X152127348Y-74777957D01*
X153580000Y-79375000D02*
X153855000Y-79100000D01*
X153307652Y-75202652D02*
X152552043Y-75202652D01*
%TO.N,/SCK*%
X152800000Y-73399999D02*
X152800000Y-72665000D01*
X154305000Y-74904999D02*
X152800000Y-73399999D01*
X154305000Y-79375000D02*
X154305000Y-74904999D01*
X154565000Y-79635000D02*
X154305000Y-79375000D01*
X156570000Y-79635000D02*
X154565000Y-79635000D01*
D24*
%TO.N,GND*%
X153186089Y-69897816D02*
X156654238Y-69897816D01*
X151450000Y-68161727D02*
X153186089Y-69897816D01*
X151450000Y-66040000D02*
X151450000Y-68161727D01*
X157795000Y-65725000D02*
X159385000Y-64135000D01*
X157795000Y-66040000D02*
X157795000Y-65725000D01*
X164545010Y-64135000D02*
X159385000Y-64135000D01*
X165710000Y-68912500D02*
X165710000Y-65299990D01*
X165710000Y-65299990D02*
X164545010Y-64135000D01*
X166647500Y-69850000D02*
X165710000Y-68912500D01*
D25*
%TO.N,/TX*%
X153095798Y-76522821D02*
X153095798Y-77020000D01*
X151130000Y-74129999D02*
X151130000Y-74557023D01*
X151130000Y-74557023D02*
X153095798Y-76522821D01*
X150400000Y-73399999D02*
X151130000Y-74129999D01*
X150400000Y-72665000D02*
X150400000Y-73399999D01*
D24*
%TO.N,/Vcc*%
X157385000Y-78835000D02*
X158115000Y-78105000D01*
X156570000Y-78835000D02*
X157385000Y-78835000D01*
%TO.N,GND*%
X157137511Y-69414543D02*
X157820965Y-69414543D01*
X156654238Y-72248794D02*
X156654238Y-69897816D01*
X157730000Y-76064556D02*
X157730000Y-73324556D01*
X157730000Y-73324556D02*
X156654238Y-72248794D01*
X157359556Y-76435000D02*
X157730000Y-76064556D01*
X156570000Y-76435000D02*
X157359556Y-76435000D01*
X156654238Y-69897816D02*
X157137511Y-69414543D01*
D25*
%TO.N,/RESET*%
X152000000Y-73625304D02*
X152000000Y-72665000D01*
X152852348Y-74477652D02*
X152000000Y-73625304D01*
X158923984Y-71755000D02*
X165377500Y-71755000D01*
X157884492Y-70715508D02*
X158923984Y-71755000D01*
X165377500Y-71755000D02*
X166647500Y-73025000D01*
%TO.N,/Vcc*%
X154940000Y-64135000D02*
X154940000Y-65085000D01*
X154940000Y-65085000D02*
X155895000Y-66040000D01*
%TO.N,Net-(U4-PB7)*%
X153350000Y-68265000D02*
X153350000Y-66040000D01*
X153035000Y-68580000D02*
X153350000Y-68265000D01*
D24*
%TO.N,GND*%
X162240000Y-83820000D02*
X162240000Y-86995000D01*
X162240000Y-86995000D02*
X162240000Y-90500000D01*
%TO.N,/Vcc*%
X140335000Y-73660000D02*
X143935000Y-73660000D01*
%TO.N,GND*%
X162837500Y-69850000D02*
X162837500Y-70617500D01*
X163195000Y-70975000D02*
X165522500Y-70975000D01*
X159381422Y-70975000D02*
X163195000Y-70975000D01*
X162837500Y-70617500D02*
X163195000Y-70975000D01*
X162240000Y-90500000D02*
X161300000Y-91440000D01*
X157795000Y-69388578D02*
X157820965Y-69414543D01*
X157795000Y-66040000D02*
X157795000Y-69388578D01*
D25*
%TO.N,/SDA*%
X158750000Y-73025000D02*
X161012500Y-73025000D01*
X157480000Y-71755000D02*
X158750000Y-73025000D01*
D24*
%TO.N,GND*%
X165522500Y-70975000D02*
X166647500Y-69850000D01*
X157820965Y-69414543D02*
X159381422Y-70975000D01*
%TO.N,/Vcc*%
X139065000Y-74930000D02*
X140335000Y-73660000D01*
X139065000Y-76200000D02*
X139065000Y-74930000D01*
%TO.N,GND*%
X130805000Y-71125000D02*
X132080000Y-69850000D01*
X130805000Y-74920000D02*
X130805000Y-71125000D01*
X132080000Y-69850000D02*
X136735000Y-69850000D01*
X132080000Y-76195000D02*
X130805000Y-74920000D01*
D25*
%TO.N,/MOSI*%
X171490000Y-72995000D02*
X172715000Y-71770000D01*
X155210001Y-82550000D02*
X163636701Y-82550000D01*
X163636701Y-82550000D02*
X171490000Y-74696701D01*
X154400000Y-81005000D02*
X154400000Y-81739999D01*
X154400000Y-81739999D02*
X155210001Y-82550000D01*
X171490000Y-74696701D02*
X171490000Y-72995000D01*
D24*
%TO.N,/Vcc*%
X132715000Y-88900000D02*
X132715000Y-90170000D01*
X153035000Y-93345000D02*
X153045000Y-93345000D01*
X153045000Y-93345000D02*
X154950000Y-91440000D01*
X133350000Y-93345000D02*
X153035000Y-93345000D01*
X142810000Y-80645000D02*
X140335000Y-80645000D01*
X136735000Y-66040000D02*
X143935000Y-66040000D01*
X139065000Y-76900000D02*
X139065000Y-76200000D01*
X142810000Y-80645000D02*
X139065000Y-76900000D01*
D25*
%TO.N,/SDA*%
X154199966Y-73999965D02*
X153600000Y-73399999D01*
X155007762Y-73999965D02*
X154199966Y-73999965D01*
X153600000Y-73399999D02*
X153600000Y-72665000D01*
X153600000Y-71930001D02*
X153600000Y-72665000D01*
X151519999Y-69850000D02*
X153600000Y-71930001D01*
X143935000Y-69850000D02*
X151519999Y-69850000D01*
X167005000Y-84455000D02*
X167015000Y-84465000D01*
X172720000Y-84465000D02*
X167005000Y-84455000D01*
X160020000Y-74835000D02*
X160020000Y-73025000D01*
X159925000Y-74930000D02*
X160020000Y-74835000D01*
X160020000Y-73025000D02*
X161012500Y-73025000D01*
%TO.N,/RESET*%
X168890000Y-73025000D02*
X166647500Y-73025000D01*
X170175000Y-74310000D02*
X168890000Y-73025000D01*
%TO.N,/D6*%
X149589999Y-82550000D02*
X150400000Y-81739999D01*
X150400000Y-81739999D02*
X150400000Y-81005000D01*
X148590000Y-82550000D02*
X149589999Y-82550000D01*
D24*
%TO.N,GND*%
X149860000Y-77470000D02*
X149625000Y-77235000D01*
X149625000Y-77235000D02*
X148230000Y-77235000D01*
D25*
%TO.N,Net-(U4-AREF)*%
X155469094Y-77235000D02*
X156570000Y-77235000D01*
X155444394Y-77210300D02*
X155469094Y-77235000D01*
D24*
%TO.N,GND*%
X149790000Y-75635000D02*
X149860000Y-75565000D01*
X148230000Y-75635000D02*
X149790000Y-75635000D01*
X142240000Y-74930000D02*
X143935000Y-74930000D01*
X148230000Y-75635000D02*
X148294898Y-75570102D01*
D25*
%TO.N,/D4*%
X139710000Y-90160000D02*
X139710000Y-91440000D01*
X140335000Y-89535000D02*
X139710000Y-90160000D01*
X146235000Y-86810000D02*
X143510000Y-89535000D01*
X146950000Y-78476396D02*
X146235000Y-79191396D01*
X147495001Y-74835000D02*
X146950000Y-75380001D01*
X146950000Y-75380001D02*
X146950000Y-78476396D01*
X143510000Y-89535000D02*
X140335000Y-89535000D01*
X148230000Y-74835000D02*
X147495001Y-74835000D01*
X146235000Y-79191396D02*
X146235000Y-86810000D01*
%TO.N,/D3*%
X143593604Y-88815000D02*
X139795000Y-88815000D01*
X139795000Y-88815000D02*
X137170000Y-91440000D01*
X146500000Y-78290000D02*
X145785000Y-79005000D01*
X145785000Y-79005000D02*
X145785000Y-86623604D01*
X147495001Y-74035000D02*
X146500000Y-75030001D01*
X148230000Y-74035000D02*
X147495001Y-74035000D01*
X146500000Y-75030001D02*
X146500000Y-78290000D01*
X145785000Y-86623604D02*
X143593604Y-88815000D01*
%TO.N,/SCK*%
X152800000Y-71930001D02*
X152800000Y-72665000D01*
X146685000Y-71120000D02*
X151989999Y-71120000D01*
X146050000Y-71755000D02*
X146685000Y-71120000D01*
X146050000Y-76835000D02*
X146050000Y-71755000D01*
X145415000Y-77470000D02*
X146050000Y-76835000D01*
X151989999Y-71120000D02*
X152800000Y-71930001D01*
%TO.N,/D2*%
X149600000Y-73667169D02*
X149600000Y-72665000D01*
X149707224Y-73774393D02*
X149600000Y-73667169D01*
%TO.N,Net-(U2-~{INTA})*%
X136875001Y-83185000D02*
X137860000Y-83185000D01*
X136500000Y-83560001D02*
X136875001Y-83185000D01*
X136500000Y-84882282D02*
X136500000Y-83560001D01*
X138707500Y-86995000D02*
X138612718Y-86995000D01*
X138612718Y-86995000D02*
X136500000Y-84882282D01*
D24*
%TO.N,GND*%
X137860000Y-84455000D02*
X139065000Y-84455000D01*
X139065000Y-84455000D02*
X139700000Y-83820000D01*
%TO.N,/Vcc*%
X164822500Y-74572500D02*
X164465000Y-74930000D01*
X164822500Y-73025000D02*
X164822500Y-74572500D01*
D25*
%TO.N,Net-(U4-AREF)*%
X159385000Y-86995000D02*
X158750000Y-87630000D01*
X160340000Y-86995000D02*
X159385000Y-86995000D01*
%TO.N,/SCK*%
X158277500Y-79635000D02*
X156570000Y-79635000D01*
X161012500Y-76900000D02*
X158277500Y-79635000D01*
X161012500Y-76200000D02*
X161012500Y-76900000D01*
%TO.N,/Vcc*%
X163830000Y-67007500D02*
X163830000Y-67310000D01*
X162862500Y-66040000D02*
X163830000Y-67007500D01*
%TO.N,/MISO*%
X155560000Y-80645000D02*
X155200000Y-81005000D01*
X156845000Y-80645000D02*
X155560000Y-80645000D01*
%TO.N,/SCK*%
X165295000Y-77275000D02*
X162087500Y-77275000D01*
X167640000Y-74930000D02*
X165295000Y-77275000D01*
X162087500Y-77275000D02*
X161012500Y-76200000D01*
D24*
%TO.N,/Vcc*%
X164465000Y-74930000D02*
X162837500Y-74930000D01*
X162837500Y-74930000D02*
X162837500Y-76200000D01*
X162837500Y-73025000D02*
X162837500Y-74930000D01*
D25*
%TO.N,/D8*%
X152000000Y-82785000D02*
X152000000Y-81005000D01*
X152400000Y-83185000D02*
X152000000Y-82785000D01*
%TO.N,/D7*%
X151200000Y-82480000D02*
X151130000Y-82550000D01*
X151200000Y-81005000D02*
X151200000Y-82480000D01*
%TO.N,/D5*%
X147955000Y-81280000D02*
X149325000Y-81280000D01*
X149325000Y-81280000D02*
X149600000Y-81005000D01*
%TO.N,/SCK*%
X144652588Y-82422588D02*
X143890176Y-83185000D01*
X144652588Y-79882588D02*
X144652588Y-82422588D01*
X141605000Y-76835000D02*
X144652588Y-79882588D01*
X143300000Y-76835000D02*
X143935000Y-76200000D01*
X143890176Y-83185000D02*
X142810000Y-83185000D01*
X141605000Y-76835000D02*
X143300000Y-76835000D01*
X145110000Y-73288382D02*
X144211618Y-72390000D01*
X141605000Y-72390000D02*
X141605000Y-69850000D01*
X144734999Y-76200000D02*
X145110000Y-75824999D01*
X145110000Y-75824999D02*
X145110000Y-73288382D01*
X144211618Y-72390000D02*
X141605000Y-72390000D01*
X141605000Y-69850000D02*
X142240000Y-69215000D01*
X142875000Y-68580000D02*
X142240000Y-69215000D01*
X143935000Y-68580000D02*
X142875000Y-68580000D01*
X143935000Y-76200000D02*
X144734999Y-76200000D01*
%TO.N,/SDA*%
X142241396Y-69850000D02*
X143935000Y-69850000D01*
X142055000Y-70036396D02*
X142241396Y-69850000D01*
X142055000Y-71755000D02*
X142055000Y-70036396D01*
X144213014Y-71755000D02*
X142055000Y-71755000D01*
X145560000Y-73101986D02*
X144213014Y-71755000D01*
X145560000Y-76055000D02*
X145560000Y-73101986D01*
X144145000Y-77470000D02*
X145560000Y-76055000D01*
X143935000Y-77470000D02*
X144145000Y-77470000D01*
D24*
%TO.N,/Vcc*%
X135890000Y-86995000D02*
X133350000Y-89535000D01*
X136882500Y-86995000D02*
X135890000Y-86995000D01*
D25*
%TO.N,Net-(U2-SQW{slash}~INT)*%
X140692500Y-83047501D02*
X140692500Y-86995000D01*
%TO.N,/SCK*%
X173990000Y-85735000D02*
X172720000Y-87005000D01*
X173990000Y-71120000D02*
X173990000Y-85735000D01*
X173465000Y-70595000D02*
X173990000Y-71120000D01*
X171350000Y-70595000D02*
X173465000Y-70595000D01*
X170175000Y-71770000D02*
X171350000Y-70595000D01*
D24*
%TO.N,/Vcc*%
X164822500Y-73025000D02*
X162837500Y-73025000D01*
D25*
%TO.N,Net-(D2-K)*%
X160987500Y-69825000D02*
X161012500Y-69850000D01*
X160987500Y-66040000D02*
X160987500Y-69825000D01*
%TO.N,Net-(D1-K)*%
X164797500Y-69825000D02*
X164822500Y-69850000D01*
X164797500Y-66040000D02*
X164797500Y-69825000D01*
%TO.N,/SCK*%
X167640000Y-69235000D02*
X170175000Y-71770000D01*
X167640000Y-67007500D02*
X167640000Y-69235000D01*
X166672500Y-66040000D02*
X167640000Y-67007500D01*
%TO.N,Net-(U4-PB6)*%
X152340000Y-88900000D02*
X149800000Y-86360000D01*
X156210000Y-88900000D02*
X152340000Y-88900000D01*
X160340000Y-84770000D02*
X156210000Y-88900000D01*
X160340000Y-83820000D02*
X160340000Y-84770000D01*
X147320000Y-78835000D02*
X148230000Y-78835000D01*
X146685000Y-79470000D02*
X147320000Y-78835000D01*
X149800000Y-85666396D02*
X146685000Y-82551396D01*
X149800000Y-86360000D02*
X149800000Y-85666396D01*
X146685000Y-82551396D02*
X146685000Y-79470000D01*
%TO.N,Net-(U4-PB7)*%
X147135000Y-80195000D02*
X147695000Y-79635000D01*
X147135000Y-82365000D02*
X147135000Y-80195000D01*
X149225000Y-84455000D02*
X147135000Y-82365000D01*
X147695000Y-79635000D02*
X148230000Y-79635000D01*
X153095000Y-84455000D02*
X149225000Y-84455000D01*
X155000000Y-86360000D02*
X153095000Y-84455000D01*
%TO.N,Net-(U2-X2)*%
X135950000Y-81915000D02*
X132080000Y-85785000D01*
X137860000Y-81915000D02*
X135950000Y-81915000D01*
%TO.N,/SDA*%
X143935000Y-78528604D02*
X143935000Y-77470000D01*
X145102588Y-79696192D02*
X143935000Y-78528604D01*
X145102588Y-82608984D02*
X145102588Y-79696192D01*
X143256572Y-84455000D02*
X145102588Y-82608984D01*
X142810000Y-84455000D02*
X143256572Y-84455000D01*
X142810000Y-84455000D02*
X143325000Y-84455000D01*
D24*
%TO.N,/Vcc*%
X132715000Y-92710000D02*
X133350000Y-93345000D01*
X132715000Y-90170000D02*
X132715000Y-92710000D01*
X133350000Y-89535000D02*
X132715000Y-90170000D01*
X141605000Y-88265000D02*
X137160000Y-88265000D01*
X137160000Y-88265000D02*
X136882500Y-87987500D01*
X142517500Y-87352500D02*
X141605000Y-88265000D01*
X142517500Y-86995000D02*
X142517500Y-87352500D01*
X136882500Y-87987500D02*
X136882500Y-86995000D01*
D25*
%TO.N,Net-(U2-SQW{slash}~INT)*%
X141825001Y-81915000D02*
X140692500Y-83047501D01*
X142810000Y-81915000D02*
X141825001Y-81915000D01*
%TO.N,Net-(U2-X1)*%
X137800000Y-80585000D02*
X137860000Y-80645000D01*
X132080000Y-80585000D02*
X137800000Y-80585000D01*
%TO.N,Net-(U2-X2)*%
X132080000Y-85785000D02*
X132080000Y-85725000D01*
D24*
%TO.N,GND*%
X148905000Y-66155000D02*
X151335000Y-66155000D01*
X151335000Y-66155000D02*
X151450000Y-66040000D01*
X148905000Y-66155000D02*
X147750000Y-67310000D01*
X147750000Y-67310000D02*
X143935000Y-67310000D01*
%TO.N,/Vcc*%
X143935000Y-66040000D02*
X146890000Y-66040000D01*
X146890000Y-66040000D02*
X147005000Y-66155000D01*
X134620000Y-68580000D02*
X136735000Y-68580000D01*
X133985000Y-67945000D02*
X134620000Y-68580000D01*
X133985000Y-66675000D02*
X133985000Y-67945000D01*
X134620000Y-66040000D02*
X133985000Y-66675000D01*
X136735000Y-66040000D02*
X134620000Y-66040000D01*
%TO.N,GND*%
X139700000Y-68580000D02*
X139700000Y-67310000D01*
X136735000Y-67310000D02*
X139700000Y-67310000D01*
X138430000Y-69850000D02*
X139700000Y-68580000D01*
X136735000Y-69850000D02*
X138430000Y-69850000D01*
X139700000Y-67310000D02*
X143935000Y-67310000D01*
X133355000Y-77470000D02*
X132080000Y-76195000D01*
X136735000Y-77470000D02*
X133355000Y-77470000D01*
%TO.N,/Vcc*%
X136735000Y-76200000D02*
X139065000Y-76200000D01*
X136735000Y-73660000D02*
X136735000Y-76200000D01*
%TD*%
%TA.AperFunction,Conductor*%
%TO.N,/Vcc*%
G36*
X158552167Y-63520502D02*
G01*
X158598660Y-63574158D01*
X158608764Y-63644432D01*
X158593166Y-63689497D01*
X158571692Y-63726692D01*
X158550474Y-63763443D01*
X158550473Y-63763445D01*
X158491459Y-63945067D01*
X158491458Y-63945069D01*
X158491458Y-63945072D01*
X158490018Y-63958775D01*
X158482397Y-64031278D01*
X158455383Y-64096935D01*
X158446182Y-64107201D01*
X157783788Y-64769595D01*
X157721476Y-64803621D01*
X157694694Y-64806500D01*
X157494455Y-64806500D01*
X157390574Y-64817112D01*
X157222261Y-64872885D01*
X157071347Y-64965970D01*
X157071341Y-64965975D01*
X156945971Y-65091345D01*
X156943511Y-65094457D01*
X156941281Y-65096035D01*
X156940780Y-65096537D01*
X156940694Y-65096451D01*
X156885568Y-65135483D01*
X156814643Y-65138671D01*
X156753254Y-65103008D01*
X156745837Y-65094446D01*
X156743632Y-65091657D01*
X156618345Y-64966370D01*
X156618339Y-64966365D01*
X156467525Y-64873342D01*
X156299321Y-64817606D01*
X156299318Y-64817605D01*
X156195516Y-64807000D01*
X156149000Y-64807000D01*
X156149000Y-67273000D01*
X156195517Y-67273000D01*
X156195516Y-67272999D01*
X156299318Y-67262394D01*
X156299321Y-67262393D01*
X156467525Y-67206657D01*
X156618339Y-67113634D01*
X156618345Y-67113629D01*
X156743624Y-66988350D01*
X156745832Y-66985558D01*
X156747837Y-66984137D01*
X156748825Y-66983150D01*
X156748993Y-66983318D01*
X156803768Y-66944522D01*
X156874693Y-66941323D01*
X156936088Y-66976976D01*
X156943515Y-66985547D01*
X156945974Y-66988657D01*
X157074595Y-67117278D01*
X157108621Y-67179590D01*
X157111500Y-67206373D01*
X157111500Y-68617554D01*
X157091498Y-68685675D01*
X157037842Y-68732168D01*
X157000689Y-68742635D01*
X156972741Y-68746028D01*
X156967892Y-68747867D01*
X156963908Y-68749378D01*
X156941951Y-68755498D01*
X156937373Y-68756337D01*
X156932673Y-68757199D01*
X156879299Y-68781220D01*
X156872271Y-68784131D01*
X156817541Y-68804888D01*
X156817536Y-68804890D01*
X156809766Y-68810253D01*
X156789919Y-68821446D01*
X156781318Y-68825317D01*
X156735235Y-68861420D01*
X156729108Y-68865928D01*
X156680936Y-68899179D01*
X156642123Y-68942989D01*
X156636908Y-68948529D01*
X156408028Y-69177411D01*
X156345716Y-69211436D01*
X156318932Y-69214316D01*
X153936061Y-69214316D01*
X153867940Y-69194314D01*
X153821447Y-69140658D01*
X153811343Y-69070384D01*
X153826942Y-69025316D01*
X153840747Y-69001405D01*
X153869527Y-68951556D01*
X153928542Y-68769928D01*
X153948504Y-68580000D01*
X153943515Y-68532536D01*
X153946782Y-68488035D01*
X153948733Y-68480435D01*
X153955138Y-68461730D01*
X153963181Y-68443145D01*
X153970096Y-68399481D01*
X153972504Y-68387852D01*
X153977970Y-68366566D01*
X153983500Y-68345030D01*
X153983500Y-68324775D01*
X153985051Y-68305063D01*
X153988220Y-68285057D01*
X153984059Y-68241036D01*
X153983500Y-68229179D01*
X153983500Y-67239959D01*
X154003502Y-67171838D01*
X154043354Y-67132718D01*
X154046845Y-67130564D01*
X154073652Y-67114030D01*
X154199030Y-66988652D01*
X154292115Y-66837738D01*
X154347887Y-66669426D01*
X154358500Y-66565545D01*
X154358500Y-66294000D01*
X154887000Y-66294000D01*
X154887000Y-66565516D01*
X154897605Y-66669318D01*
X154897606Y-66669321D01*
X154953342Y-66837525D01*
X155046365Y-66988339D01*
X155046370Y-66988345D01*
X155171654Y-67113629D01*
X155171660Y-67113634D01*
X155322474Y-67206657D01*
X155490678Y-67262393D01*
X155490681Y-67262394D01*
X155594483Y-67272999D01*
X155594483Y-67273000D01*
X155641000Y-67273000D01*
X155641000Y-66294000D01*
X154887000Y-66294000D01*
X154358500Y-66294000D01*
X154358499Y-65786000D01*
X154887000Y-65786000D01*
X155641000Y-65786000D01*
X155641000Y-64807000D01*
X155594483Y-64807000D01*
X155490681Y-64817605D01*
X155490678Y-64817606D01*
X155322474Y-64873342D01*
X155171660Y-64966365D01*
X155171654Y-64966370D01*
X155046370Y-65091654D01*
X155046365Y-65091660D01*
X154953342Y-65242474D01*
X154897606Y-65410678D01*
X154897605Y-65410681D01*
X154887000Y-65514483D01*
X154887000Y-65786000D01*
X154358499Y-65786000D01*
X154358499Y-65514456D01*
X154347887Y-65410574D01*
X154292115Y-65242262D01*
X154199030Y-65091348D01*
X154199027Y-65091345D01*
X154199024Y-65091341D01*
X154073658Y-64965975D01*
X154073652Y-64965970D01*
X154035763Y-64942600D01*
X153922738Y-64872885D01*
X153759581Y-64818821D01*
X153754427Y-64817113D01*
X153754420Y-64817112D01*
X153650553Y-64806500D01*
X153049455Y-64806500D01*
X152945574Y-64817112D01*
X152777261Y-64872885D01*
X152626347Y-64965970D01*
X152626341Y-64965975D01*
X152500972Y-65091344D01*
X152498834Y-65094049D01*
X152496895Y-65095421D01*
X152495780Y-65096537D01*
X152495589Y-65096346D01*
X152440892Y-65135076D01*
X152369967Y-65138264D01*
X152308577Y-65102602D01*
X152301166Y-65094049D01*
X152299027Y-65091344D01*
X152173658Y-64965975D01*
X152173652Y-64965970D01*
X152135763Y-64942600D01*
X152022738Y-64872885D01*
X151859581Y-64818821D01*
X151854427Y-64817113D01*
X151854420Y-64817112D01*
X151750553Y-64806500D01*
X151149455Y-64806500D01*
X151045574Y-64817112D01*
X150877261Y-64872885D01*
X150726347Y-64965970D01*
X150726341Y-64965975D01*
X150600975Y-65091341D01*
X150600970Y-65091347D01*
X150527146Y-65211035D01*
X150507885Y-65242262D01*
X150460543Y-65385133D01*
X150420130Y-65443504D01*
X150354574Y-65470760D01*
X150340939Y-65471500D01*
X149975955Y-65471500D01*
X149907834Y-65451498D01*
X149861341Y-65397842D01*
X149856351Y-65385133D01*
X149847116Y-65357265D01*
X149847115Y-65357264D01*
X149847115Y-65357262D01*
X149754030Y-65206348D01*
X149754027Y-65206345D01*
X149754024Y-65206341D01*
X149628658Y-65080975D01*
X149628652Y-65080970D01*
X149579280Y-65050517D01*
X149477738Y-64987885D01*
X149393582Y-64959999D01*
X149309427Y-64932113D01*
X149309420Y-64932112D01*
X149205553Y-64921500D01*
X148604455Y-64921500D01*
X148500574Y-64932112D01*
X148332261Y-64987885D01*
X148181347Y-65080970D01*
X148181341Y-65080975D01*
X148055971Y-65206345D01*
X148053511Y-65209457D01*
X148051281Y-65211035D01*
X148050780Y-65211537D01*
X148050694Y-65211451D01*
X147995568Y-65250483D01*
X147924643Y-65253671D01*
X147863254Y-65218008D01*
X147855837Y-65209446D01*
X147853632Y-65206657D01*
X147728345Y-65081370D01*
X147728339Y-65081365D01*
X147577525Y-64988342D01*
X147409321Y-64932606D01*
X147409318Y-64932605D01*
X147305516Y-64922000D01*
X147259000Y-64922000D01*
X147259000Y-66283000D01*
X147238998Y-66351121D01*
X147185342Y-66397614D01*
X147133000Y-66409000D01*
X145997000Y-66409000D01*
X145997000Y-66500500D01*
X145976998Y-66568621D01*
X145923342Y-66615114D01*
X145871000Y-66626500D01*
X145310592Y-66626500D01*
X145242471Y-66606498D01*
X145195978Y-66552842D01*
X145185874Y-66482568D01*
X145191931Y-66461146D01*
X145191470Y-66461012D01*
X145239993Y-66294000D01*
X142630007Y-66294000D01*
X142678530Y-66461012D01*
X142676425Y-66461623D01*
X142683740Y-66520933D01*
X142652956Y-66584908D01*
X142592471Y-66622085D01*
X142559408Y-66626500D01*
X138110592Y-66626500D01*
X138042471Y-66606498D01*
X137995978Y-66552842D01*
X137985874Y-66482568D01*
X137991931Y-66461146D01*
X137991470Y-66461012D01*
X138039993Y-66294000D01*
X135430007Y-66294000D01*
X135476318Y-66453401D01*
X135560946Y-66596498D01*
X135561616Y-66597362D01*
X135561930Y-66598162D01*
X135564981Y-66603321D01*
X135564148Y-66603813D01*
X135587563Y-66663448D01*
X135573662Y-66733070D01*
X135561625Y-66751802D01*
X135560551Y-66753186D01*
X135475856Y-66896396D01*
X135475855Y-66896398D01*
X135475855Y-66896399D01*
X135474654Y-66900533D01*
X135429437Y-67056170D01*
X135429437Y-67056171D01*
X135426500Y-67093488D01*
X135426500Y-67526511D01*
X135429437Y-67563828D01*
X135429437Y-67563829D01*
X135475856Y-67723605D01*
X135560544Y-67866803D01*
X135561615Y-67868184D01*
X135562117Y-67869463D01*
X135564582Y-67873631D01*
X135563909Y-67874028D01*
X135587562Y-67934270D01*
X135573662Y-68003892D01*
X135561614Y-68022639D01*
X135560946Y-68023499D01*
X135476318Y-68166598D01*
X135430007Y-68326000D01*
X138039992Y-68326000D01*
X137991470Y-68158988D01*
X137993574Y-68158376D01*
X137986260Y-68099067D01*
X138017044Y-68035092D01*
X138077529Y-67997915D01*
X138110592Y-67993500D01*
X138890500Y-67993500D01*
X138958621Y-68013502D01*
X139005114Y-68067158D01*
X139016500Y-68119500D01*
X139016500Y-68244695D01*
X138996498Y-68312816D01*
X138979599Y-68333785D01*
X138591152Y-68722233D01*
X138207064Y-69106321D01*
X138144752Y-69140346D01*
X138073936Y-69135281D01*
X138017101Y-69092734D01*
X137992290Y-69026214D01*
X137996972Y-68982071D01*
X138039992Y-68834000D01*
X135430007Y-68834000D01*
X135478530Y-69001012D01*
X135476425Y-69001623D01*
X135483740Y-69060933D01*
X135452956Y-69124908D01*
X135392471Y-69162085D01*
X135359408Y-69166500D01*
X132104459Y-69166500D01*
X132096852Y-69166270D01*
X132079459Y-69165218D01*
X132038428Y-69162736D01*
X132038427Y-69162736D01*
X132038425Y-69162736D01*
X131980857Y-69173285D01*
X131973336Y-69174430D01*
X131915230Y-69181485D01*
X131910381Y-69183324D01*
X131906397Y-69184835D01*
X131884440Y-69190955D01*
X131880963Y-69191593D01*
X131875162Y-69192656D01*
X131821788Y-69216677D01*
X131814760Y-69219588D01*
X131760030Y-69240345D01*
X131760025Y-69240347D01*
X131752255Y-69245710D01*
X131732408Y-69256903D01*
X131723807Y-69260774D01*
X131677724Y-69296877D01*
X131671597Y-69301385D01*
X131623425Y-69334636D01*
X131584604Y-69378455D01*
X131579388Y-69383995D01*
X130338995Y-70624388D01*
X130333455Y-70629604D01*
X130289636Y-70668425D01*
X130256385Y-70716597D01*
X130251882Y-70722716D01*
X130242965Y-70734099D01*
X130215774Y-70768807D01*
X130211903Y-70777408D01*
X130200710Y-70797255D01*
X130195347Y-70805025D01*
X130195345Y-70805030D01*
X130174588Y-70859760D01*
X130171677Y-70866788D01*
X130147656Y-70920162D01*
X130145956Y-70929439D01*
X130139834Y-70951401D01*
X130136485Y-70960230D01*
X130129430Y-71018336D01*
X130128285Y-71025857D01*
X130117736Y-71083425D01*
X130117736Y-71083427D01*
X130117736Y-71083428D01*
X130120850Y-71134901D01*
X130121270Y-71141850D01*
X130121500Y-71149458D01*
X130121500Y-74895540D01*
X130121270Y-74903147D01*
X130117736Y-74961572D01*
X130128285Y-75019140D01*
X130129430Y-75026663D01*
X130136485Y-75084769D01*
X130136488Y-75084778D01*
X130139833Y-75093600D01*
X130145954Y-75115554D01*
X130147655Y-75124836D01*
X130147656Y-75124839D01*
X130171675Y-75178206D01*
X130174588Y-75185238D01*
X130195345Y-75239970D01*
X130195346Y-75239973D01*
X130200704Y-75247735D01*
X130211907Y-75267599D01*
X130215774Y-75276193D01*
X130215777Y-75276197D01*
X130251871Y-75322268D01*
X130256382Y-75328398D01*
X130289635Y-75376573D01*
X130333465Y-75415403D01*
X130338989Y-75420604D01*
X130715844Y-75797459D01*
X130749870Y-75859771D01*
X130748894Y-75917483D01*
X130735437Y-75970626D01*
X130735436Y-75970629D01*
X130735436Y-75970632D01*
X130716844Y-76195000D01*
X130734489Y-76407944D01*
X130735437Y-76419375D01*
X130790702Y-76637612D01*
X130790703Y-76637613D01*
X130790704Y-76637616D01*
X130863873Y-76804426D01*
X130881141Y-76843793D01*
X131004275Y-77032265D01*
X131004279Y-77032270D01*
X131156762Y-77197908D01*
X131211331Y-77240381D01*
X131334424Y-77336189D01*
X131532426Y-77443342D01*
X131532427Y-77443342D01*
X131532428Y-77443343D01*
X131610078Y-77470000D01*
X131745365Y-77516444D01*
X131967431Y-77553500D01*
X131967435Y-77553500D01*
X132192564Y-77553500D01*
X132192569Y-77553500D01*
X132367972Y-77524230D01*
X132438452Y-77532747D01*
X132477802Y-77559417D01*
X132854387Y-77936002D01*
X132859604Y-77941543D01*
X132898427Y-77985365D01*
X132898428Y-77985366D01*
X132946592Y-78018611D01*
X132952722Y-78023122D01*
X132998800Y-78059222D01*
X132998802Y-78059223D01*
X133007403Y-78063094D01*
X133027268Y-78074297D01*
X133035030Y-78079655D01*
X133043028Y-78082688D01*
X133099630Y-78125545D01*
X133124075Y-78192201D01*
X133108604Y-78261491D01*
X133058127Y-78311417D01*
X132998349Y-78326500D01*
X130831350Y-78326500D01*
X130770803Y-78333009D01*
X130770795Y-78333011D01*
X130633797Y-78384110D01*
X130633792Y-78384112D01*
X130516738Y-78471738D01*
X130429112Y-78588792D01*
X130429110Y-78588797D01*
X130378011Y-78725795D01*
X130378009Y-78725803D01*
X130371500Y-78786350D01*
X130371500Y-82383649D01*
X130378009Y-82444196D01*
X130378011Y-82444204D01*
X130429110Y-82581202D01*
X130429112Y-82581207D01*
X130516738Y-82698261D01*
X130633792Y-82785887D01*
X130633794Y-82785888D01*
X130633796Y-82785889D01*
X130668996Y-82799018D01*
X130770795Y-82836988D01*
X130770803Y-82836990D01*
X130831350Y-82843499D01*
X130831355Y-82843499D01*
X130831362Y-82843500D01*
X130831368Y-82843500D01*
X133328632Y-82843500D01*
X133328638Y-82843500D01*
X133328645Y-82843499D01*
X133328649Y-82843499D01*
X133389196Y-82836990D01*
X133389199Y-82836989D01*
X133389201Y-82836989D01*
X133526204Y-82785889D01*
X133527594Y-82784849D01*
X133643261Y-82698261D01*
X133730887Y-82581207D01*
X133730887Y-82581206D01*
X133730889Y-82581204D01*
X133781989Y-82444201D01*
X133782366Y-82440700D01*
X133788499Y-82383649D01*
X133788500Y-82383632D01*
X133788500Y-81344500D01*
X133808502Y-81276379D01*
X133862158Y-81229886D01*
X133914500Y-81218500D01*
X135443087Y-81218500D01*
X135511208Y-81238502D01*
X135557701Y-81292158D01*
X135567805Y-81362432D01*
X135538311Y-81427012D01*
X135517151Y-81446434D01*
X135512894Y-81449526D01*
X135484711Y-81483593D01*
X135476723Y-81492370D01*
X133474159Y-83494934D01*
X133411847Y-83528960D01*
X133371598Y-83531117D01*
X133328654Y-83526501D01*
X133328642Y-83526500D01*
X133328638Y-83526500D01*
X130831362Y-83526500D01*
X130831350Y-83526500D01*
X130770803Y-83533009D01*
X130770795Y-83533011D01*
X130633797Y-83584110D01*
X130633792Y-83584112D01*
X130516738Y-83671738D01*
X130429112Y-83788792D01*
X130429110Y-83788797D01*
X130378011Y-83925795D01*
X130378009Y-83925803D01*
X130371500Y-83986350D01*
X130371500Y-87583649D01*
X130378009Y-87644196D01*
X130378011Y-87644204D01*
X130429110Y-87781202D01*
X130429112Y-87781207D01*
X130516738Y-87898261D01*
X130633792Y-87985887D01*
X130633794Y-87985888D01*
X130633796Y-87985889D01*
X130692825Y-88007906D01*
X130770795Y-88036988D01*
X130770803Y-88036990D01*
X130831350Y-88043499D01*
X130831355Y-88043499D01*
X130831362Y-88043500D01*
X130831368Y-88043500D01*
X133328632Y-88043500D01*
X133328638Y-88043500D01*
X133328645Y-88043499D01*
X133328649Y-88043499D01*
X133389196Y-88036990D01*
X133389199Y-88036989D01*
X133389201Y-88036989D01*
X133526204Y-87985889D01*
X133589303Y-87938654D01*
X133643261Y-87898261D01*
X133730887Y-87781207D01*
X133730887Y-87781206D01*
X133730889Y-87781204D01*
X133781989Y-87644201D01*
X133785813Y-87608638D01*
X133788499Y-87583649D01*
X133788500Y-87583632D01*
X133788500Y-87249000D01*
X135862000Y-87249000D01*
X135862000Y-87495516D01*
X135872605Y-87599318D01*
X135872606Y-87599321D01*
X135928342Y-87767525D01*
X136021365Y-87918339D01*
X136021370Y-87918345D01*
X136146654Y-88043629D01*
X136146660Y-88043634D01*
X136297474Y-88136657D01*
X136465678Y-88192393D01*
X136465681Y-88192394D01*
X136569483Y-88202999D01*
X136569483Y-88203000D01*
X136628500Y-88203000D01*
X136628500Y-87249000D01*
X135862000Y-87249000D01*
X133788500Y-87249000D01*
X133788500Y-85024594D01*
X133808502Y-84956473D01*
X133825405Y-84935499D01*
X136175499Y-82585405D01*
X136237811Y-82551379D01*
X136264594Y-82548500D01*
X136291118Y-82548500D01*
X136359239Y-82568502D01*
X136405732Y-82622158D01*
X136415836Y-82692432D01*
X136408332Y-82720726D01*
X136395122Y-82754222D01*
X136367003Y-82797091D01*
X136111336Y-83052758D01*
X136098901Y-83062721D01*
X136099089Y-83062948D01*
X136092982Y-83068000D01*
X136046370Y-83117636D01*
X136043620Y-83120474D01*
X136023863Y-83140232D01*
X136021374Y-83143440D01*
X136013688Y-83152437D01*
X135983418Y-83184674D01*
X135983411Y-83184684D01*
X135973651Y-83202436D01*
X135962803Y-83218951D01*
X135950386Y-83234959D01*
X135932824Y-83275541D01*
X135927604Y-83286196D01*
X135906305Y-83324940D01*
X135906303Y-83324945D01*
X135901267Y-83344560D01*
X135894864Y-83363263D01*
X135886819Y-83381853D01*
X135879901Y-83425526D01*
X135877495Y-83437143D01*
X135866500Y-83479969D01*
X135866500Y-83500224D01*
X135864949Y-83519934D01*
X135863178Y-83531117D01*
X135861780Y-83539944D01*
X135864630Y-83570097D01*
X135865941Y-83583962D01*
X135866500Y-83595820D01*
X135866500Y-84798428D01*
X135864751Y-84814270D01*
X135865044Y-84814298D01*
X135864298Y-84822189D01*
X135866438Y-84890266D01*
X135866500Y-84894225D01*
X135866500Y-84922133D01*
X135866501Y-84922151D01*
X135867007Y-84926159D01*
X135867937Y-84937978D01*
X135869326Y-84982170D01*
X135869327Y-84982175D01*
X135874977Y-85001621D01*
X135878986Y-85020979D01*
X135881525Y-85041075D01*
X135881526Y-85041082D01*
X135897800Y-85082185D01*
X135901644Y-85093411D01*
X135913982Y-85135875D01*
X135924294Y-85153313D01*
X135932988Y-85171061D01*
X135940444Y-85189891D01*
X135940450Y-85189902D01*
X135966432Y-85225663D01*
X135972949Y-85235583D01*
X135995458Y-85273644D01*
X135995459Y-85273645D01*
X135995461Y-85273648D01*
X136009779Y-85287966D01*
X136022617Y-85302996D01*
X136034526Y-85319386D01*
X136034530Y-85319391D01*
X136068598Y-85347574D01*
X136077378Y-85355564D01*
X136361598Y-85639784D01*
X136395624Y-85702096D01*
X136390559Y-85772911D01*
X136348012Y-85829747D01*
X136312139Y-85848483D01*
X136297475Y-85853342D01*
X136146660Y-85946365D01*
X136146654Y-85946370D01*
X136021370Y-86071654D01*
X136021365Y-86071660D01*
X135928342Y-86222474D01*
X135872606Y-86390678D01*
X135872605Y-86390681D01*
X135862000Y-86494483D01*
X135862000Y-86741000D01*
X137010500Y-86741000D01*
X137078621Y-86761002D01*
X137125114Y-86814658D01*
X137136500Y-86867000D01*
X137136500Y-88203000D01*
X137195517Y-88203000D01*
X137195516Y-88202999D01*
X137299318Y-88192394D01*
X137299321Y-88192393D01*
X137467525Y-88136657D01*
X137618339Y-88043634D01*
X137618345Y-88043629D01*
X137705551Y-87956424D01*
X137767863Y-87922398D01*
X137838678Y-87927463D01*
X137883741Y-87956424D01*
X137971341Y-88044024D01*
X137971347Y-88044029D01*
X137971348Y-88044030D01*
X138122262Y-88137115D01*
X138290574Y-88192887D01*
X138394455Y-88203500D01*
X139020544Y-88203499D01*
X139124426Y-88192887D01*
X139124429Y-88192886D01*
X139124431Y-88192886D01*
X139208387Y-88165066D01*
X139279342Y-88162625D01*
X139340352Y-88198933D01*
X139372047Y-88262462D01*
X139364365Y-88333042D01*
X139345101Y-88364990D01*
X139329699Y-88383606D01*
X139321713Y-88392381D01*
X137627793Y-90086300D01*
X137565481Y-90120326D01*
X137509781Y-90119382D01*
X137509776Y-90119414D01*
X137509563Y-90119378D01*
X137507759Y-90119348D01*
X137504643Y-90118558D01*
X137504635Y-90118556D01*
X137282569Y-90081500D01*
X137057431Y-90081500D01*
X136912971Y-90105606D01*
X136835369Y-90118555D01*
X136835360Y-90118557D01*
X136622428Y-90191656D01*
X136622426Y-90191658D01*
X136424426Y-90298810D01*
X136424424Y-90298811D01*
X136246762Y-90437091D01*
X136185754Y-90503363D01*
X136124901Y-90539933D01*
X136053936Y-90537798D01*
X135995391Y-90497636D01*
X135974999Y-90462057D01*
X135938683Y-90364693D01*
X135930889Y-90343796D01*
X135930888Y-90343794D01*
X135930887Y-90343792D01*
X135843261Y-90226738D01*
X135726207Y-90139112D01*
X135726202Y-90139110D01*
X135589204Y-90088011D01*
X135589196Y-90088009D01*
X135528649Y-90081500D01*
X135528638Y-90081500D01*
X133731362Y-90081500D01*
X133731350Y-90081500D01*
X133670803Y-90088009D01*
X133670795Y-90088011D01*
X133533797Y-90139110D01*
X133533792Y-90139112D01*
X133416738Y-90226738D01*
X133329112Y-90343792D01*
X133329110Y-90343797D01*
X133278011Y-90480795D01*
X133278009Y-90480803D01*
X133271500Y-90541350D01*
X133271500Y-92338649D01*
X133278009Y-92399196D01*
X133278011Y-92399204D01*
X133329110Y-92536202D01*
X133329112Y-92536207D01*
X133416738Y-92653261D01*
X133533792Y-92740887D01*
X133533794Y-92740888D01*
X133533796Y-92740889D01*
X133587600Y-92760957D01*
X133670795Y-92791988D01*
X133670803Y-92791990D01*
X133731350Y-92798499D01*
X133731355Y-92798499D01*
X133731362Y-92798500D01*
X133731368Y-92798500D01*
X135528632Y-92798500D01*
X135528638Y-92798500D01*
X135528645Y-92798499D01*
X135528649Y-92798499D01*
X135589196Y-92791990D01*
X135589199Y-92791989D01*
X135589201Y-92791989D01*
X135726204Y-92740889D01*
X135748934Y-92723874D01*
X135843261Y-92653261D01*
X135930886Y-92536208D01*
X135930885Y-92536208D01*
X135930889Y-92536204D01*
X135974999Y-92417939D01*
X136017545Y-92361107D01*
X136084066Y-92336296D01*
X136153440Y-92351388D01*
X136185753Y-92376635D01*
X136216292Y-92409809D01*
X136246762Y-92442908D01*
X136301331Y-92485381D01*
X136424424Y-92581189D01*
X136622426Y-92688342D01*
X136622427Y-92688342D01*
X136622428Y-92688343D01*
X136639970Y-92694365D01*
X136835365Y-92761444D01*
X137057431Y-92798500D01*
X137057435Y-92798500D01*
X137282565Y-92798500D01*
X137282569Y-92798500D01*
X137504635Y-92761444D01*
X137717574Y-92688342D01*
X137915576Y-92581189D01*
X138093240Y-92442906D01*
X138245722Y-92277268D01*
X138245927Y-92276955D01*
X138253137Y-92265918D01*
X138334518Y-92141354D01*
X138388520Y-92095268D01*
X138458868Y-92085692D01*
X138523225Y-92115669D01*
X138545480Y-92141353D01*
X138570934Y-92180312D01*
X138634275Y-92277265D01*
X138634279Y-92277270D01*
X138786762Y-92442908D01*
X138841331Y-92485381D01*
X138964424Y-92581189D01*
X139162426Y-92688342D01*
X139162427Y-92688342D01*
X139162428Y-92688343D01*
X139179970Y-92694365D01*
X139375365Y-92761444D01*
X139597431Y-92798500D01*
X139597435Y-92798500D01*
X139822565Y-92798500D01*
X139822569Y-92798500D01*
X140044635Y-92761444D01*
X140257574Y-92688342D01*
X140455576Y-92581189D01*
X140633240Y-92442906D01*
X140785722Y-92277268D01*
X140785927Y-92276955D01*
X140793137Y-92265918D01*
X140874518Y-92141354D01*
X140928520Y-92095268D01*
X140998868Y-92085692D01*
X141063225Y-92115669D01*
X141085480Y-92141353D01*
X141110934Y-92180312D01*
X141174275Y-92277265D01*
X141174279Y-92277270D01*
X141326762Y-92442908D01*
X141381331Y-92485381D01*
X141504424Y-92581189D01*
X141702426Y-92688342D01*
X141702427Y-92688342D01*
X141702428Y-92688343D01*
X141719970Y-92694365D01*
X141915365Y-92761444D01*
X142137431Y-92798500D01*
X142137435Y-92798500D01*
X142362565Y-92798500D01*
X142362569Y-92798500D01*
X142584635Y-92761444D01*
X142797574Y-92688342D01*
X142995576Y-92581189D01*
X143173240Y-92442906D01*
X143325722Y-92277268D01*
X143325927Y-92276955D01*
X143333137Y-92265918D01*
X143414518Y-92141354D01*
X143468520Y-92095268D01*
X143538868Y-92085692D01*
X143603225Y-92115669D01*
X143625480Y-92141353D01*
X143650934Y-92180312D01*
X143714275Y-92277265D01*
X143714279Y-92277270D01*
X143866762Y-92442908D01*
X143921331Y-92485381D01*
X144044424Y-92581189D01*
X144242426Y-92688342D01*
X144242427Y-92688342D01*
X144242428Y-92688343D01*
X144259970Y-92694365D01*
X144455365Y-92761444D01*
X144677431Y-92798500D01*
X144677435Y-92798500D01*
X144902565Y-92798500D01*
X144902569Y-92798500D01*
X145124635Y-92761444D01*
X145337574Y-92688342D01*
X145535576Y-92581189D01*
X145713240Y-92442906D01*
X145865722Y-92277268D01*
X145865927Y-92276955D01*
X145873137Y-92265918D01*
X145954518Y-92141354D01*
X146008520Y-92095268D01*
X146078868Y-92085692D01*
X146143225Y-92115669D01*
X146165480Y-92141353D01*
X146190934Y-92180312D01*
X146254275Y-92277265D01*
X146254279Y-92277270D01*
X146406762Y-92442908D01*
X146461331Y-92485381D01*
X146584424Y-92581189D01*
X146782426Y-92688342D01*
X146782427Y-92688342D01*
X146782428Y-92688343D01*
X146799970Y-92694365D01*
X146995365Y-92761444D01*
X147217431Y-92798500D01*
X147217435Y-92798500D01*
X147442565Y-92798500D01*
X147442569Y-92798500D01*
X147664635Y-92761444D01*
X147877574Y-92688342D01*
X148075576Y-92581189D01*
X148253240Y-92442906D01*
X148405722Y-92277268D01*
X148405927Y-92276955D01*
X148413137Y-92265918D01*
X148494518Y-92141354D01*
X148548520Y-92095268D01*
X148618868Y-92085692D01*
X148683225Y-92115669D01*
X148705480Y-92141353D01*
X148730934Y-92180312D01*
X148794275Y-92277265D01*
X148794279Y-92277270D01*
X148946762Y-92442908D01*
X149001331Y-92485381D01*
X149124424Y-92581189D01*
X149322426Y-92688342D01*
X149322427Y-92688342D01*
X149322428Y-92688343D01*
X149339970Y-92694365D01*
X149535365Y-92761444D01*
X149757431Y-92798500D01*
X149757435Y-92798500D01*
X149982565Y-92798500D01*
X149982569Y-92798500D01*
X150204635Y-92761444D01*
X150417574Y-92688342D01*
X150615576Y-92581189D01*
X150793240Y-92442906D01*
X150945722Y-92277268D01*
X150945927Y-92276955D01*
X150953137Y-92265918D01*
X151034518Y-92141354D01*
X151088520Y-92095268D01*
X151158868Y-92085692D01*
X151223225Y-92115669D01*
X151245480Y-92141353D01*
X151270934Y-92180312D01*
X151334275Y-92277265D01*
X151334279Y-92277270D01*
X151486762Y-92442908D01*
X151541331Y-92485381D01*
X151664424Y-92581189D01*
X151862426Y-92688342D01*
X151862427Y-92688342D01*
X151862428Y-92688343D01*
X151879970Y-92694365D01*
X152075365Y-92761444D01*
X152297431Y-92798500D01*
X152297435Y-92798500D01*
X152522565Y-92798500D01*
X152522569Y-92798500D01*
X152744635Y-92761444D01*
X152957574Y-92688342D01*
X153155576Y-92581189D01*
X153333240Y-92442906D01*
X153485722Y-92277268D01*
X153485927Y-92276955D01*
X153501122Y-92253695D01*
X153574816Y-92140898D01*
X153628819Y-92094810D01*
X153699167Y-92085235D01*
X153763524Y-92115212D01*
X153785782Y-92140898D01*
X153874674Y-92276958D01*
X154027097Y-92442534D01*
X154204698Y-92580767D01*
X154204699Y-92580768D01*
X154402628Y-92687882D01*
X154402630Y-92687883D01*
X154615483Y-92760955D01*
X154615492Y-92760957D01*
X154696000Y-92774391D01*
X154696000Y-91873674D01*
X154807685Y-91924680D01*
X154914237Y-91940000D01*
X154985763Y-91940000D01*
X155092315Y-91924680D01*
X155204000Y-91873674D01*
X155204000Y-92774390D01*
X155284507Y-92760957D01*
X155284516Y-92760955D01*
X155497369Y-92687883D01*
X155497371Y-92687882D01*
X155695300Y-92580768D01*
X155695301Y-92580767D01*
X155872902Y-92442534D01*
X156025325Y-92276958D01*
X156148419Y-92088548D01*
X156238820Y-91882456D01*
X156238823Y-91882449D01*
X156286544Y-91694000D01*
X155381116Y-91694000D01*
X155382080Y-91692500D01*
X157732500Y-91692500D01*
X157732500Y-92838000D01*
X159029441Y-92838000D01*
X170840607Y-92838000D01*
X171578000Y-92838000D01*
X171578000Y-91692500D01*
X171279708Y-91692500D01*
X171273370Y-91768989D01*
X171272833Y-91774167D01*
X171268939Y-91805412D01*
X171268188Y-91810563D01*
X171261289Y-91851916D01*
X171260326Y-91857038D01*
X171253858Y-91887887D01*
X171252683Y-91892962D01*
X171187122Y-92151856D01*
X171185740Y-92156876D01*
X171176754Y-92187061D01*
X171175166Y-92192020D01*
X171161554Y-92231673D01*
X171159761Y-92236562D01*
X171148307Y-92265918D01*
X171146314Y-92270732D01*
X171039034Y-92515307D01*
X171036843Y-92520033D01*
X171023006Y-92548337D01*
X171020623Y-92552967D01*
X171000668Y-92589841D01*
X170998093Y-92594372D01*
X170981968Y-92621432D01*
X170979212Y-92625847D01*
X170840607Y-92838000D01*
X159029441Y-92838000D01*
X158986873Y-92723874D01*
X158984355Y-92716421D01*
X158970533Y-92670862D01*
X158968484Y-92663261D01*
X158953905Y-92601572D01*
X158952335Y-92593861D01*
X158944294Y-92546906D01*
X158943208Y-92539106D01*
X158931857Y-92433519D01*
X158931541Y-92430156D01*
X158929904Y-92409809D01*
X158929678Y-92406442D01*
X158928226Y-92379330D01*
X158928091Y-92375966D01*
X158927545Y-92355582D01*
X158927500Y-92352208D01*
X158927500Y-91692500D01*
X157732500Y-91692500D01*
X155382080Y-91692500D01*
X155409493Y-91649844D01*
X155450000Y-91511889D01*
X155450000Y-91368111D01*
X155409493Y-91230156D01*
X155381116Y-91186000D01*
X156286544Y-91186000D01*
X156286544Y-91185999D01*
X156238823Y-90997550D01*
X156238820Y-90997543D01*
X156148419Y-90791451D01*
X156074625Y-90678500D01*
X157732500Y-90678500D01*
X158927500Y-90678500D01*
X158927500Y-90527792D01*
X158927545Y-90524418D01*
X158928091Y-90504034D01*
X158928226Y-90500670D01*
X158929678Y-90473558D01*
X158929904Y-90470191D01*
X158931541Y-90449844D01*
X158931857Y-90446481D01*
X158943208Y-90340894D01*
X158944294Y-90333094D01*
X158952335Y-90286139D01*
X158953905Y-90278428D01*
X158968484Y-90216739D01*
X158970533Y-90209138D01*
X158984355Y-90163579D01*
X158986873Y-90156126D01*
X159061704Y-89955501D01*
X159065144Y-89947196D01*
X159087746Y-89897700D01*
X159091772Y-89889656D01*
X159126493Y-89826065D01*
X159131083Y-89818329D01*
X159160518Y-89772525D01*
X159165649Y-89765134D01*
X159258500Y-89641100D01*
X159258500Y-89487365D01*
X159030327Y-89535865D01*
X159023839Y-89537067D01*
X158984406Y-89543312D01*
X158977863Y-89544173D01*
X158925039Y-89549723D01*
X158918465Y-89550240D01*
X158878628Y-89552327D01*
X158872036Y-89552500D01*
X158627964Y-89552500D01*
X158621372Y-89552327D01*
X158581535Y-89550240D01*
X158574961Y-89549723D01*
X158522137Y-89544173D01*
X158515594Y-89543312D01*
X158476161Y-89537067D01*
X158469673Y-89535865D01*
X158230911Y-89485115D01*
X158224496Y-89483574D01*
X158185949Y-89473245D01*
X158179624Y-89471372D01*
X158129111Y-89454959D01*
X158122895Y-89452758D01*
X158085638Y-89438457D01*
X158079542Y-89435932D01*
X158027257Y-89412653D01*
X157732500Y-89707411D01*
X157732500Y-90678500D01*
X156074625Y-90678500D01*
X156025325Y-90603041D01*
X155872902Y-90437465D01*
X155695301Y-90299232D01*
X155695300Y-90299231D01*
X155497371Y-90192117D01*
X155497369Y-90192116D01*
X155284512Y-90119043D01*
X155284501Y-90119040D01*
X155204000Y-90105606D01*
X155204000Y-91006325D01*
X155092315Y-90955320D01*
X154985763Y-90940000D01*
X154914237Y-90940000D01*
X154807685Y-90955320D01*
X154696000Y-91006325D01*
X154696000Y-90105607D01*
X154695999Y-90105606D01*
X154615498Y-90119040D01*
X154615487Y-90119043D01*
X154402630Y-90192116D01*
X154402628Y-90192117D01*
X154204699Y-90299231D01*
X154204698Y-90299232D01*
X154027097Y-90437465D01*
X153874670Y-90603045D01*
X153785780Y-90739101D01*
X153731776Y-90785189D01*
X153661428Y-90794764D01*
X153597071Y-90764786D01*
X153574816Y-90739101D01*
X153512317Y-90643438D01*
X153485724Y-90602734D01*
X153485720Y-90602729D01*
X153341881Y-90446481D01*
X153333240Y-90437094D01*
X153333239Y-90437093D01*
X153333237Y-90437091D01*
X153213367Y-90343792D01*
X153155576Y-90298811D01*
X152957574Y-90191658D01*
X152957572Y-90191657D01*
X152957571Y-90191656D01*
X152744639Y-90118557D01*
X152744630Y-90118555D01*
X152697604Y-90110708D01*
X152522569Y-90081500D01*
X152297431Y-90081500D01*
X152152971Y-90105606D01*
X152075369Y-90118555D01*
X152075360Y-90118557D01*
X151862428Y-90191656D01*
X151862426Y-90191658D01*
X151664426Y-90298810D01*
X151664424Y-90298811D01*
X151486762Y-90437091D01*
X151334279Y-90602729D01*
X151245483Y-90738643D01*
X151191479Y-90784731D01*
X151121131Y-90794306D01*
X151056774Y-90764329D01*
X151034517Y-90738643D01*
X150945720Y-90602729D01*
X150801881Y-90446481D01*
X150793240Y-90437094D01*
X150793239Y-90437093D01*
X150793237Y-90437091D01*
X150673367Y-90343792D01*
X150615576Y-90298811D01*
X150417574Y-90191658D01*
X150417572Y-90191657D01*
X150417571Y-90191656D01*
X150204639Y-90118557D01*
X150204630Y-90118555D01*
X150157604Y-90110708D01*
X149982569Y-90081500D01*
X149757431Y-90081500D01*
X149612971Y-90105606D01*
X149535369Y-90118555D01*
X149535360Y-90118557D01*
X149322428Y-90191656D01*
X149322426Y-90191658D01*
X149124426Y-90298810D01*
X149124424Y-90298811D01*
X148946762Y-90437091D01*
X148794279Y-90602729D01*
X148705483Y-90738643D01*
X148651479Y-90784731D01*
X148581131Y-90794306D01*
X148516774Y-90764329D01*
X148494517Y-90738643D01*
X148405720Y-90602729D01*
X148261881Y-90446481D01*
X148253240Y-90437094D01*
X148253239Y-90437093D01*
X148253237Y-90437091D01*
X148133367Y-90343792D01*
X148075576Y-90298811D01*
X147877574Y-90191658D01*
X147877572Y-90191657D01*
X147877571Y-90191656D01*
X147664639Y-90118557D01*
X147664630Y-90118555D01*
X147617604Y-90110708D01*
X147442569Y-90081500D01*
X147217431Y-90081500D01*
X147072971Y-90105606D01*
X146995369Y-90118555D01*
X146995360Y-90118557D01*
X146782428Y-90191656D01*
X146782426Y-90191658D01*
X146584426Y-90298810D01*
X146584424Y-90298811D01*
X146406762Y-90437091D01*
X146254279Y-90602729D01*
X146165483Y-90738643D01*
X146111479Y-90784731D01*
X146041131Y-90794306D01*
X145976774Y-90764329D01*
X145954517Y-90738643D01*
X145865720Y-90602729D01*
X145721881Y-90446481D01*
X145713240Y-90437094D01*
X145713239Y-90437093D01*
X145713237Y-90437091D01*
X145593367Y-90343792D01*
X145535576Y-90298811D01*
X145337574Y-90191658D01*
X145337572Y-90191657D01*
X145337571Y-90191656D01*
X145124639Y-90118557D01*
X145124630Y-90118555D01*
X145077604Y-90110708D01*
X144902569Y-90081500D01*
X144677431Y-90081500D01*
X144532971Y-90105606D01*
X144455369Y-90118555D01*
X144455360Y-90118557D01*
X144242428Y-90191656D01*
X144242426Y-90191658D01*
X144044426Y-90298810D01*
X144044424Y-90298811D01*
X143866762Y-90437091D01*
X143714279Y-90602729D01*
X143625483Y-90738643D01*
X143571479Y-90784731D01*
X143501131Y-90794306D01*
X143436774Y-90764329D01*
X143414517Y-90738643D01*
X143325720Y-90602729D01*
X143181881Y-90446481D01*
X143173240Y-90437094D01*
X143173239Y-90437093D01*
X143173237Y-90437091D01*
X143117786Y-90393932D01*
X143076315Y-90336306D01*
X143072581Y-90265408D01*
X143107771Y-90203746D01*
X143170712Y-90170898D01*
X143195177Y-90168500D01*
X143426147Y-90168500D01*
X143441988Y-90170249D01*
X143442016Y-90169956D01*
X143449902Y-90170700D01*
X143449909Y-90170702D01*
X143517986Y-90168562D01*
X143521945Y-90168500D01*
X143549851Y-90168500D01*
X143549856Y-90168500D01*
X143553867Y-90167992D01*
X143565699Y-90167061D01*
X143609889Y-90165673D01*
X143629347Y-90160019D01*
X143648694Y-90156013D01*
X143668797Y-90153474D01*
X143709910Y-90137195D01*
X143721130Y-90133353D01*
X143745913Y-90126154D01*
X143763591Y-90121019D01*
X143763595Y-90121017D01*
X143781026Y-90110708D01*
X143798780Y-90102009D01*
X143817617Y-90094552D01*
X143853392Y-90068558D01*
X143863298Y-90062051D01*
X143901362Y-90039542D01*
X143915685Y-90025218D01*
X143930724Y-90012374D01*
X143947107Y-90000472D01*
X143975303Y-89966386D01*
X143983272Y-89957630D01*
X146623660Y-87317243D01*
X146636098Y-87307280D01*
X146635910Y-87307053D01*
X146642016Y-87302001D01*
X146642015Y-87302001D01*
X146642018Y-87302000D01*
X146688661Y-87252328D01*
X146691351Y-87249552D01*
X146711135Y-87229770D01*
X146713614Y-87226573D01*
X146721311Y-87217559D01*
X146751586Y-87185321D01*
X146761346Y-87167565D01*
X146772195Y-87151050D01*
X146784614Y-87135041D01*
X146802179Y-87094446D01*
X146807384Y-87083821D01*
X146828695Y-87045060D01*
X146833733Y-87025434D01*
X146840137Y-87006732D01*
X146848180Y-86988147D01*
X146848179Y-86988147D01*
X146848181Y-86988145D01*
X146855096Y-86944481D01*
X146857504Y-86932852D01*
X146868500Y-86890030D01*
X146868500Y-86869775D01*
X146870051Y-86850063D01*
X146873220Y-86830057D01*
X146869059Y-86786036D01*
X146868500Y-86774179D01*
X146868500Y-83934990D01*
X146888502Y-83866869D01*
X146942158Y-83820376D01*
X147012432Y-83810272D01*
X147077012Y-83839766D01*
X147083595Y-83845895D01*
X147782763Y-84545063D01*
X147816789Y-84607375D01*
X147811724Y-84678190D01*
X147769177Y-84735026D01*
X147686738Y-84796738D01*
X147599112Y-84913792D01*
X147599110Y-84913797D01*
X147548011Y-85050795D01*
X147548009Y-85050803D01*
X147541500Y-85111350D01*
X147541500Y-87608649D01*
X147548009Y-87669196D01*
X147548011Y-87669204D01*
X147599110Y-87806202D01*
X147599112Y-87806207D01*
X147686738Y-87923261D01*
X147803792Y-88010887D01*
X147803794Y-88010888D01*
X147803796Y-88010889D01*
X147862875Y-88032924D01*
X147940795Y-88061988D01*
X147940803Y-88061990D01*
X148001350Y-88068499D01*
X148001355Y-88068499D01*
X148001362Y-88068500D01*
X150560406Y-88068500D01*
X150628527Y-88088502D01*
X150649501Y-88105405D01*
X151832753Y-89288657D01*
X151842720Y-89301097D01*
X151842947Y-89300910D01*
X151847999Y-89307017D01*
X151848000Y-89307018D01*
X151873965Y-89331401D01*
X151897666Y-89353657D01*
X151900510Y-89356414D01*
X151920226Y-89376131D01*
X151923423Y-89378611D01*
X151932444Y-89386316D01*
X151964679Y-89416586D01*
X151964680Y-89416586D01*
X151964682Y-89416588D01*
X151982429Y-89426344D01*
X151998959Y-89437202D01*
X152014959Y-89449613D01*
X152055536Y-89467172D01*
X152066187Y-89472390D01*
X152104940Y-89493695D01*
X152124562Y-89498733D01*
X152143263Y-89505135D01*
X152161855Y-89513181D01*
X152205522Y-89520096D01*
X152217125Y-89522498D01*
X152259970Y-89533500D01*
X152280231Y-89533500D01*
X152299939Y-89535050D01*
X152319943Y-89538219D01*
X152363954Y-89534058D01*
X152375811Y-89533500D01*
X156126147Y-89533500D01*
X156141988Y-89535249D01*
X156142016Y-89534956D01*
X156149902Y-89535700D01*
X156149909Y-89535702D01*
X156217986Y-89533562D01*
X156221945Y-89533500D01*
X156249851Y-89533500D01*
X156249856Y-89533500D01*
X156253867Y-89532992D01*
X156265699Y-89532061D01*
X156309889Y-89530673D01*
X156329347Y-89525019D01*
X156348694Y-89521013D01*
X156368797Y-89518474D01*
X156409910Y-89502195D01*
X156421130Y-89498353D01*
X156445913Y-89491154D01*
X156463591Y-89486019D01*
X156463595Y-89486017D01*
X156481026Y-89475708D01*
X156498780Y-89467009D01*
X156517617Y-89459552D01*
X156553392Y-89433558D01*
X156563298Y-89427051D01*
X156601362Y-89404542D01*
X156615685Y-89390218D01*
X156630724Y-89377374D01*
X156632435Y-89376131D01*
X156647107Y-89365472D01*
X156675303Y-89331386D01*
X156683272Y-89322630D01*
X157835581Y-88170321D01*
X157897891Y-88136297D01*
X157968706Y-88141362D01*
X158018310Y-88175108D01*
X158138744Y-88308864D01*
X158138747Y-88308866D01*
X158293248Y-88421118D01*
X158467712Y-88498794D01*
X158654513Y-88538500D01*
X158845487Y-88538500D01*
X159032288Y-88498794D01*
X159206752Y-88421118D01*
X159361253Y-88308866D01*
X159489040Y-88166944D01*
X159490125Y-88165066D01*
X159499295Y-88149182D01*
X159550676Y-88100187D01*
X159620389Y-88086748D01*
X159674561Y-88104936D01*
X159767262Y-88162115D01*
X159935574Y-88217887D01*
X160039455Y-88228500D01*
X160640544Y-88228499D01*
X160744426Y-88217887D01*
X160912738Y-88162115D01*
X161063652Y-88069030D01*
X161189030Y-87943652D01*
X161189031Y-87943649D01*
X161191162Y-87940956D01*
X161193098Y-87939584D01*
X161194220Y-87938463D01*
X161194411Y-87938654D01*
X161249101Y-87899925D01*
X161320026Y-87896733D01*
X161381418Y-87932392D01*
X161388838Y-87940956D01*
X161390971Y-87943654D01*
X161519595Y-88072278D01*
X161553621Y-88134590D01*
X161556500Y-88161373D01*
X161556500Y-89955500D01*
X161536498Y-90023621D01*
X161482842Y-90070114D01*
X161430500Y-90081500D01*
X160401350Y-90081500D01*
X160340803Y-90088009D01*
X160340795Y-90088011D01*
X160203797Y-90139110D01*
X160203792Y-90139112D01*
X160086738Y-90226738D01*
X159999112Y-90343792D01*
X159999110Y-90343797D01*
X159948011Y-90480795D01*
X159948009Y-90480803D01*
X159941500Y-90541350D01*
X159941500Y-92338649D01*
X159948009Y-92399196D01*
X159948011Y-92399204D01*
X159999110Y-92536202D01*
X159999112Y-92536207D01*
X160086738Y-92653261D01*
X160203792Y-92740887D01*
X160203794Y-92740888D01*
X160203796Y-92740889D01*
X160257600Y-92760957D01*
X160340795Y-92791988D01*
X160340803Y-92791990D01*
X160401350Y-92798499D01*
X160401355Y-92798499D01*
X160401362Y-92798500D01*
X160401368Y-92798500D01*
X162198632Y-92798500D01*
X162198638Y-92798500D01*
X162198645Y-92798499D01*
X162198649Y-92798499D01*
X162259196Y-92791990D01*
X162259199Y-92791989D01*
X162259201Y-92791989D01*
X162396204Y-92740889D01*
X162418934Y-92723874D01*
X162513261Y-92653261D01*
X162600886Y-92536208D01*
X162600885Y-92536208D01*
X162600889Y-92536204D01*
X162645196Y-92417413D01*
X162687741Y-92360581D01*
X162754262Y-92335770D01*
X162823636Y-92350862D01*
X162855952Y-92376112D01*
X162917097Y-92442534D01*
X163094698Y-92580767D01*
X163094699Y-92580768D01*
X163292628Y-92687882D01*
X163292630Y-92687883D01*
X163505483Y-92760955D01*
X163505492Y-92760957D01*
X163586000Y-92774391D01*
X163586000Y-91873674D01*
X163697685Y-91924680D01*
X163804237Y-91940000D01*
X163875763Y-91940000D01*
X163982315Y-91924680D01*
X164094000Y-91873674D01*
X164094000Y-92774390D01*
X164174507Y-92760957D01*
X164174516Y-92760955D01*
X164387369Y-92687883D01*
X164387371Y-92687882D01*
X164585300Y-92580768D01*
X164585301Y-92580767D01*
X164762902Y-92442534D01*
X164915327Y-92276955D01*
X165004217Y-92140899D01*
X165058220Y-92094810D01*
X165128568Y-92085235D01*
X165192925Y-92115212D01*
X165215183Y-92140898D01*
X165304279Y-92277270D01*
X165456762Y-92442908D01*
X165511331Y-92485381D01*
X165634424Y-92581189D01*
X165832426Y-92688342D01*
X165832427Y-92688342D01*
X165832428Y-92688343D01*
X165849970Y-92694365D01*
X166045365Y-92761444D01*
X166267431Y-92798500D01*
X166267435Y-92798500D01*
X166492565Y-92798500D01*
X166492569Y-92798500D01*
X166714635Y-92761444D01*
X166927574Y-92688342D01*
X167125576Y-92581189D01*
X167303240Y-92442906D01*
X167455722Y-92277268D01*
X167455927Y-92276955D01*
X167463137Y-92265918D01*
X167544518Y-92141354D01*
X167598520Y-92095268D01*
X167668868Y-92085692D01*
X167733225Y-92115669D01*
X167755480Y-92141353D01*
X167780934Y-92180312D01*
X167844275Y-92277265D01*
X167844279Y-92277270D01*
X167996762Y-92442908D01*
X168051331Y-92485381D01*
X168174424Y-92581189D01*
X168372426Y-92688342D01*
X168372427Y-92688342D01*
X168372428Y-92688343D01*
X168389970Y-92694365D01*
X168585365Y-92761444D01*
X168807431Y-92798500D01*
X168807435Y-92798500D01*
X169032565Y-92798500D01*
X169032569Y-92798500D01*
X169254635Y-92761444D01*
X169467574Y-92688342D01*
X169665576Y-92581189D01*
X169843240Y-92442906D01*
X169995722Y-92277268D01*
X169995927Y-92276955D01*
X170003137Y-92265918D01*
X170118860Y-92088791D01*
X170209296Y-91882616D01*
X170264564Y-91664368D01*
X170283156Y-91440000D01*
X170264564Y-91215632D01*
X170213769Y-91015048D01*
X170209297Y-90997387D01*
X170209296Y-90997386D01*
X170209296Y-90997384D01*
X170118860Y-90791209D01*
X170101500Y-90764637D01*
X169995724Y-90602734D01*
X169995720Y-90602729D01*
X169851881Y-90446481D01*
X169843240Y-90437094D01*
X169843239Y-90437093D01*
X169843237Y-90437091D01*
X169723367Y-90343792D01*
X169665576Y-90298811D01*
X169467574Y-90191658D01*
X169467572Y-90191657D01*
X169467571Y-90191656D01*
X169254639Y-90118557D01*
X169254630Y-90118555D01*
X169207604Y-90110708D01*
X169032569Y-90081500D01*
X168807431Y-90081500D01*
X168662971Y-90105606D01*
X168585369Y-90118555D01*
X168585360Y-90118557D01*
X168372428Y-90191656D01*
X168372426Y-90191658D01*
X168174426Y-90298810D01*
X168174424Y-90298811D01*
X167996762Y-90437091D01*
X167844279Y-90602729D01*
X167755483Y-90738643D01*
X167701479Y-90784731D01*
X167631131Y-90794306D01*
X167566774Y-90764329D01*
X167544517Y-90738643D01*
X167455720Y-90602729D01*
X167311881Y-90446481D01*
X167303240Y-90437094D01*
X167303239Y-90437093D01*
X167303237Y-90437091D01*
X167183367Y-90343792D01*
X167125576Y-90298811D01*
X166927574Y-90191658D01*
X166927572Y-90191657D01*
X166927571Y-90191656D01*
X166714639Y-90118557D01*
X166714630Y-90118555D01*
X166667604Y-90110708D01*
X166492569Y-90081500D01*
X166267431Y-90081500D01*
X166122971Y-90105606D01*
X166045369Y-90118555D01*
X166045360Y-90118557D01*
X165832428Y-90191656D01*
X165832426Y-90191658D01*
X165634426Y-90298810D01*
X165634424Y-90298811D01*
X165456762Y-90437091D01*
X165304279Y-90602729D01*
X165215183Y-90739101D01*
X165161179Y-90785189D01*
X165090831Y-90794764D01*
X165026474Y-90764786D01*
X165004217Y-90739100D01*
X164915327Y-90603044D01*
X164762902Y-90437465D01*
X164585301Y-90299232D01*
X164585300Y-90299231D01*
X164387371Y-90192117D01*
X164387369Y-90192116D01*
X164174512Y-90119043D01*
X164174501Y-90119040D01*
X164094000Y-90105606D01*
X164094000Y-91006325D01*
X163982315Y-90955320D01*
X163875763Y-90940000D01*
X163804237Y-90940000D01*
X163697685Y-90955320D01*
X163586000Y-91006325D01*
X163586000Y-90105607D01*
X163585999Y-90105606D01*
X163505498Y-90119040D01*
X163505487Y-90119043D01*
X163292630Y-90192116D01*
X163292628Y-90192117D01*
X163109469Y-90291239D01*
X163040039Y-90306069D01*
X162973613Y-90281009D01*
X162931280Y-90224014D01*
X162923500Y-90180425D01*
X162923500Y-89152500D01*
X170432500Y-89152500D01*
X170432500Y-89610789D01*
X170482608Y-89649791D01*
X170486655Y-89653077D01*
X170510714Y-89673456D01*
X170514619Y-89676906D01*
X170545461Y-89705302D01*
X170549214Y-89708904D01*
X170571468Y-89731159D01*
X170575072Y-89734914D01*
X170755946Y-89931393D01*
X170759393Y-89935297D01*
X170779766Y-89959351D01*
X170783054Y-89963400D01*
X170808805Y-89996489D01*
X170811913Y-90000657D01*
X170830210Y-90026283D01*
X170833149Y-90030585D01*
X170979212Y-90254153D01*
X170981968Y-90258568D01*
X170998093Y-90285628D01*
X171000668Y-90290159D01*
X171020623Y-90327033D01*
X171023006Y-90331663D01*
X171036843Y-90359967D01*
X171039034Y-90364693D01*
X171146314Y-90609268D01*
X171148307Y-90614082D01*
X171159761Y-90643438D01*
X171161554Y-90648327D01*
X171171912Y-90678500D01*
X171866469Y-90678500D01*
X171958500Y-90586469D01*
X171958500Y-90298000D01*
X172972500Y-90298000D01*
X174118000Y-90298000D01*
X174118000Y-89152500D01*
X173736564Y-89152500D01*
X173731750Y-89155105D01*
X173727120Y-89157488D01*
X173698824Y-89171321D01*
X173694100Y-89173511D01*
X173655705Y-89190353D01*
X173650896Y-89192345D01*
X173621542Y-89203800D01*
X173616648Y-89205594D01*
X173364058Y-89292308D01*
X173359100Y-89293896D01*
X173328918Y-89302882D01*
X173323897Y-89304265D01*
X173283253Y-89314558D01*
X173278179Y-89315732D01*
X173247334Y-89322200D01*
X173242213Y-89323164D01*
X172978793Y-89367120D01*
X172973643Y-89367870D01*
X172972500Y-89368012D01*
X172972500Y-90298000D01*
X171958500Y-90298000D01*
X171958500Y-89251989D01*
X171823352Y-89205594D01*
X171818458Y-89203800D01*
X171789104Y-89192345D01*
X171784295Y-89190353D01*
X171745900Y-89173511D01*
X171741176Y-89171321D01*
X171712880Y-89157488D01*
X171708250Y-89155105D01*
X171703436Y-89152500D01*
X170432500Y-89152500D01*
X162923500Y-89152500D01*
X162923500Y-88161373D01*
X162943502Y-88093252D01*
X162960405Y-88072278D01*
X163089024Y-87943658D01*
X163089030Y-87943652D01*
X163182115Y-87792738D01*
X163237887Y-87624426D01*
X163248500Y-87520545D01*
X163248499Y-86612500D01*
X165352500Y-86612500D01*
X165352500Y-88138500D01*
X166878500Y-88138500D01*
X166878500Y-86612500D01*
X167892500Y-86612500D01*
X167892500Y-88138500D01*
X169418500Y-88138500D01*
X169418500Y-86612500D01*
X167892500Y-86612500D01*
X166878500Y-86612500D01*
X165352500Y-86612500D01*
X163248499Y-86612500D01*
X163248499Y-86469456D01*
X163240451Y-86390678D01*
X163237887Y-86365574D01*
X163228284Y-86336593D01*
X163182115Y-86197262D01*
X163089030Y-86046348D01*
X163089029Y-86046347D01*
X163089024Y-86046341D01*
X162960405Y-85917722D01*
X162926379Y-85855410D01*
X162923500Y-85828627D01*
X162923500Y-84986373D01*
X162943502Y-84918252D01*
X162960405Y-84897278D01*
X163089024Y-84768658D01*
X163089030Y-84768652D01*
X163182115Y-84617738D01*
X163237887Y-84449426D01*
X163248500Y-84345545D01*
X163248499Y-83309499D01*
X163268501Y-83241379D01*
X163322157Y-83194886D01*
X163374499Y-83183500D01*
X163552848Y-83183500D01*
X163568689Y-83185249D01*
X163568717Y-83184956D01*
X163576603Y-83185700D01*
X163576610Y-83185702D01*
X163644687Y-83183562D01*
X163648646Y-83183500D01*
X163676552Y-83183500D01*
X163676557Y-83183500D01*
X163680568Y-83182992D01*
X163692400Y-83182061D01*
X163736590Y-83180673D01*
X163756048Y-83175019D01*
X163775395Y-83171013D01*
X163795498Y-83168474D01*
X163836611Y-83152195D01*
X163847831Y-83148353D01*
X163875792Y-83140231D01*
X163890292Y-83136019D01*
X163890296Y-83136017D01*
X163907727Y-83125708D01*
X163925481Y-83117009D01*
X163944318Y-83109552D01*
X163980093Y-83083558D01*
X163989999Y-83077051D01*
X164021370Y-83058500D01*
X165458112Y-83058500D01*
X165677124Y-83058500D01*
X165690738Y-83044886D01*
X165695525Y-83040343D01*
X165734998Y-83004803D01*
X165740015Y-83000518D01*
X165771022Y-82975411D01*
X165776252Y-82971398D01*
X165973716Y-82827932D01*
X165979151Y-82824197D01*
X166012614Y-82802465D01*
X166018237Y-82799018D01*
X166064236Y-82772459D01*
X166070037Y-82769310D01*
X166105600Y-82751190D01*
X166111553Y-82748350D01*
X166334542Y-82649068D01*
X166340638Y-82646543D01*
X166377895Y-82632242D01*
X166384111Y-82630041D01*
X166434624Y-82613628D01*
X166440949Y-82611755D01*
X166479496Y-82601426D01*
X166485911Y-82599885D01*
X166724673Y-82549135D01*
X166731161Y-82547933D01*
X166770594Y-82541688D01*
X166777137Y-82540827D01*
X166829961Y-82535277D01*
X166836535Y-82534760D01*
X166876372Y-82532673D01*
X166878500Y-82532617D01*
X166878500Y-81638112D01*
X165458112Y-83058500D01*
X164021370Y-83058500D01*
X164028063Y-83054542D01*
X164042386Y-83040218D01*
X164057425Y-83027374D01*
X164059136Y-83026131D01*
X164073808Y-83015472D01*
X164102004Y-82981386D01*
X164109973Y-82972630D01*
X165550103Y-81532500D01*
X167892500Y-81532500D01*
X167892500Y-82745702D01*
X167898448Y-82748351D01*
X167904400Y-82751190D01*
X167939963Y-82769310D01*
X167945764Y-82772459D01*
X167991763Y-82799018D01*
X167997386Y-82802465D01*
X168007832Y-82809249D01*
X169418500Y-82811717D01*
X169418500Y-81532500D01*
X167892500Y-81532500D01*
X165550103Y-81532500D01*
X166564103Y-80518500D01*
X167998112Y-80518500D01*
X169418500Y-80518500D01*
X169418500Y-79098112D01*
X167998112Y-80518500D01*
X166564103Y-80518500D01*
X171700678Y-75381926D01*
X171762986Y-75347903D01*
X171833801Y-75352968D01*
X171867158Y-75371591D01*
X171969424Y-75451189D01*
X172167426Y-75558342D01*
X172167427Y-75558342D01*
X172167428Y-75558343D01*
X172245611Y-75585183D01*
X172380365Y-75631444D01*
X172602431Y-75668500D01*
X172602435Y-75668500D01*
X172827565Y-75668500D01*
X172827569Y-75668500D01*
X173049635Y-75631444D01*
X173189588Y-75583397D01*
X173260512Y-75580198D01*
X173321908Y-75615850D01*
X173354282Y-75679035D01*
X173356500Y-75702571D01*
X173356500Y-77900500D01*
X173336498Y-77968621D01*
X173282842Y-78015114D01*
X173230500Y-78026500D01*
X171821350Y-78026500D01*
X171760803Y-78033009D01*
X171760795Y-78033011D01*
X171623797Y-78084110D01*
X171623792Y-78084112D01*
X171506738Y-78171738D01*
X171419112Y-78288792D01*
X171419110Y-78288797D01*
X171368011Y-78425795D01*
X171368009Y-78425803D01*
X171361500Y-78486350D01*
X171361500Y-80283649D01*
X171368009Y-80344196D01*
X171368011Y-80344204D01*
X171419110Y-80481202D01*
X171419112Y-80481207D01*
X171506738Y-80598261D01*
X171623792Y-80685887D01*
X171623796Y-80685889D01*
X171739312Y-80728975D01*
X171796148Y-80771522D01*
X171820958Y-80838042D01*
X171805866Y-80907416D01*
X171787981Y-80932367D01*
X171644674Y-81088041D01*
X171521580Y-81276451D01*
X171431179Y-81482543D01*
X171431176Y-81482550D01*
X171383455Y-81670999D01*
X171383456Y-81671000D01*
X172288884Y-81671000D01*
X172260507Y-81715156D01*
X172220000Y-81853111D01*
X172220000Y-81996889D01*
X172260507Y-82134844D01*
X172288884Y-82179000D01*
X171383455Y-82179000D01*
X171431176Y-82367449D01*
X171431179Y-82367456D01*
X171521580Y-82573548D01*
X171644674Y-82761958D01*
X171797097Y-82927534D01*
X171974698Y-83065767D01*
X171974704Y-83065771D01*
X172008207Y-83083902D01*
X172058597Y-83133915D01*
X172073949Y-83203232D01*
X172049388Y-83269845D01*
X172008207Y-83305528D01*
X171974430Y-83323807D01*
X171974424Y-83323811D01*
X171796762Y-83462091D01*
X171644279Y-83627729D01*
X171549904Y-83772182D01*
X171495900Y-83818270D01*
X171444200Y-83829266D01*
X167714094Y-83822738D01*
X167646009Y-83802617D01*
X167620680Y-83781050D01*
X167616253Y-83776134D01*
X167461752Y-83663882D01*
X167287288Y-83586206D01*
X167100487Y-83546500D01*
X166909513Y-83546500D01*
X166722711Y-83586206D01*
X166548247Y-83663882D01*
X166393744Y-83776135D01*
X166265965Y-83918048D01*
X166265958Y-83918058D01*
X166170476Y-84083438D01*
X166170473Y-84083445D01*
X166111457Y-84265072D01*
X166091496Y-84455000D01*
X166111457Y-84644927D01*
X166125711Y-84688794D01*
X166170473Y-84826556D01*
X166170476Y-84826561D01*
X166265958Y-84991941D01*
X166265965Y-84991951D01*
X166393744Y-85133864D01*
X166420394Y-85153226D01*
X166548248Y-85246118D01*
X166722712Y-85323794D01*
X166909513Y-85363500D01*
X167100487Y-85363500D01*
X167287288Y-85323794D01*
X167461752Y-85246118D01*
X167616253Y-85133866D01*
X167618446Y-85131430D01*
X167620066Y-85130432D01*
X167621158Y-85129449D01*
X167621337Y-85129648D01*
X167678890Y-85094189D01*
X167712301Y-85089738D01*
X171441722Y-85096264D01*
X171509807Y-85116385D01*
X171546984Y-85153349D01*
X171644275Y-85302265D01*
X171644279Y-85302270D01*
X171796762Y-85467908D01*
X171804069Y-85473595D01*
X171974424Y-85606189D01*
X172007680Y-85624186D01*
X172058071Y-85674200D01*
X172073423Y-85743516D01*
X172048862Y-85810129D01*
X172007680Y-85845813D01*
X171974426Y-85863810D01*
X171974424Y-85863811D01*
X171796762Y-86002091D01*
X171644279Y-86167729D01*
X171644275Y-86167734D01*
X171521141Y-86356206D01*
X171430703Y-86562386D01*
X171430702Y-86562387D01*
X171375437Y-86780624D01*
X171375436Y-86780630D01*
X171375436Y-86780632D01*
X171356844Y-87005000D01*
X171375405Y-87228998D01*
X171375437Y-87229375D01*
X171430702Y-87447612D01*
X171430703Y-87447613D01*
X171430704Y-87447616D01*
X171516935Y-87644204D01*
X171521141Y-87653793D01*
X171644275Y-87842265D01*
X171644279Y-87842270D01*
X171796762Y-88007908D01*
X171823239Y-88028516D01*
X171974424Y-88146189D01*
X172172426Y-88253342D01*
X172172427Y-88253342D01*
X172172428Y-88253343D01*
X172264424Y-88284925D01*
X172385365Y-88326444D01*
X172607431Y-88363500D01*
X172607435Y-88363500D01*
X172832565Y-88363500D01*
X172832569Y-88363500D01*
X173054635Y-88326444D01*
X173267574Y-88253342D01*
X173465576Y-88146189D01*
X173643240Y-88007906D01*
X173795722Y-87842268D01*
X173918860Y-87653791D01*
X174009296Y-87447616D01*
X174064564Y-87229368D01*
X174083156Y-87005000D01*
X174064564Y-86780632D01*
X174036817Y-86671062D01*
X174039484Y-86600116D01*
X174069864Y-86551038D01*
X174378657Y-86242245D01*
X174391092Y-86232284D01*
X174390905Y-86232057D01*
X174397016Y-86227001D01*
X174397015Y-86227001D01*
X174397018Y-86227000D01*
X174443676Y-86177312D01*
X174446367Y-86174535D01*
X174466134Y-86154770D01*
X174468617Y-86151567D01*
X174476308Y-86142562D01*
X174506586Y-86110321D01*
X174516345Y-86092567D01*
X174527197Y-86076046D01*
X174539613Y-86060041D01*
X174557168Y-86019470D01*
X174562392Y-86008808D01*
X174583694Y-85970061D01*
X174583695Y-85970060D01*
X174588733Y-85950435D01*
X174595138Y-85931730D01*
X174603181Y-85913145D01*
X174610096Y-85869481D01*
X174612504Y-85857852D01*
X174623500Y-85815030D01*
X174623500Y-85794775D01*
X174625051Y-85775063D01*
X174625392Y-85772911D01*
X174628220Y-85755057D01*
X174624059Y-85711036D01*
X174623500Y-85699179D01*
X174623500Y-71203855D01*
X174625249Y-71188014D01*
X174624956Y-71187987D01*
X174625701Y-71180094D01*
X174625702Y-71180091D01*
X174623562Y-71112013D01*
X174623500Y-71108054D01*
X174623500Y-71080149D01*
X174623500Y-71080144D01*
X174622992Y-71076130D01*
X174622061Y-71064297D01*
X174620673Y-71020110D01*
X174615022Y-71000663D01*
X174611012Y-70981300D01*
X174608474Y-70961203D01*
X174592195Y-70920090D01*
X174588353Y-70908869D01*
X174576018Y-70866407D01*
X174565706Y-70848970D01*
X174557010Y-70831221D01*
X174549552Y-70812383D01*
X174523552Y-70776598D01*
X174517059Y-70766714D01*
X174494542Y-70728638D01*
X174480214Y-70714310D01*
X174467384Y-70699289D01*
X174455472Y-70682893D01*
X174455469Y-70682891D01*
X174455469Y-70682890D01*
X174421400Y-70654705D01*
X174412622Y-70646717D01*
X173972242Y-70206337D01*
X173962280Y-70193901D01*
X173962053Y-70194090D01*
X173957000Y-70187982D01*
X173907348Y-70141356D01*
X173904504Y-70138599D01*
X173881970Y-70116064D01*
X173882703Y-70115330D01*
X173847265Y-70059140D01*
X173847869Y-69988146D01*
X173862977Y-69955755D01*
X173913419Y-69878549D01*
X174003820Y-69672456D01*
X174003823Y-69672449D01*
X174051544Y-69484000D01*
X173146116Y-69484000D01*
X173174493Y-69439844D01*
X173215000Y-69301889D01*
X173215000Y-69158111D01*
X173174493Y-69020156D01*
X173146116Y-68976000D01*
X174051544Y-68976000D01*
X174051544Y-68975999D01*
X174003823Y-68787550D01*
X174003820Y-68787543D01*
X173913419Y-68581451D01*
X173790325Y-68393041D01*
X173637902Y-68227465D01*
X173460301Y-68089232D01*
X173460300Y-68089231D01*
X173262371Y-67982117D01*
X173262369Y-67982116D01*
X173049512Y-67909043D01*
X173049501Y-67909040D01*
X172969000Y-67895606D01*
X172969000Y-68796325D01*
X172857315Y-68745320D01*
X172750763Y-68730000D01*
X172679237Y-68730000D01*
X172572685Y-68745320D01*
X172461000Y-68796325D01*
X172461000Y-67895607D01*
X172460999Y-67895606D01*
X172380498Y-67909040D01*
X172380487Y-67909043D01*
X172167630Y-67982116D01*
X172167628Y-67982117D01*
X171969699Y-68089231D01*
X171969698Y-68089232D01*
X171792096Y-68227465D01*
X171730951Y-68293888D01*
X171670098Y-68330459D01*
X171599134Y-68328324D01*
X171540588Y-68288163D01*
X171520195Y-68252583D01*
X171475889Y-68133796D01*
X171475887Y-68133792D01*
X171388261Y-68016738D01*
X171271207Y-67929112D01*
X171271202Y-67929110D01*
X171134204Y-67878011D01*
X171134196Y-67878009D01*
X171073649Y-67871500D01*
X171073638Y-67871500D01*
X169276362Y-67871500D01*
X169276350Y-67871500D01*
X169215803Y-67878009D01*
X169215795Y-67878011D01*
X169078797Y-67929110D01*
X169078792Y-67929112D01*
X168961738Y-68016738D01*
X168874112Y-68133792D01*
X168874110Y-68133797D01*
X168823011Y-68270795D01*
X168823009Y-68270803D01*
X168816500Y-68331350D01*
X168816500Y-69211405D01*
X168796498Y-69279526D01*
X168742842Y-69326019D01*
X168672568Y-69336123D01*
X168607988Y-69306629D01*
X168601405Y-69300500D01*
X168310405Y-69009500D01*
X168276379Y-68947188D01*
X168273500Y-68920405D01*
X168273500Y-67091354D01*
X168275249Y-67075512D01*
X168274956Y-67075485D01*
X168275700Y-67067599D01*
X168275702Y-67067592D01*
X168273562Y-66999500D01*
X168273500Y-66995542D01*
X168273500Y-66967650D01*
X168273500Y-66967644D01*
X168272993Y-66963635D01*
X168272062Y-66951806D01*
X168271846Y-66944925D01*
X168270674Y-66907611D01*
X168265020Y-66888152D01*
X168261012Y-66868797D01*
X168258474Y-66848703D01*
X168242195Y-66807587D01*
X168238356Y-66796372D01*
X168226019Y-66753907D01*
X168215703Y-66736464D01*
X168207005Y-66718709D01*
X168199552Y-66699883D01*
X168173563Y-66664112D01*
X168167052Y-66654200D01*
X168144542Y-66616138D01*
X168130214Y-66601810D01*
X168117384Y-66586789D01*
X168105472Y-66570393D01*
X168105469Y-66570391D01*
X168105469Y-66570390D01*
X168071394Y-66542200D01*
X168062616Y-66534212D01*
X167820904Y-66292500D01*
X170432500Y-66292500D01*
X170432500Y-66857500D01*
X171087208Y-66857500D01*
X171090582Y-66857545D01*
X171110966Y-66858091D01*
X171114330Y-66858226D01*
X171141442Y-66859678D01*
X171144809Y-66859904D01*
X171165156Y-66861541D01*
X171168519Y-66861857D01*
X171274106Y-66873208D01*
X171281906Y-66874294D01*
X171328861Y-66882335D01*
X171336572Y-66883905D01*
X171398261Y-66898484D01*
X171405862Y-66900533D01*
X171451421Y-66914355D01*
X171458874Y-66916873D01*
X171659499Y-66991704D01*
X171667804Y-66995144D01*
X171717300Y-67017746D01*
X171725344Y-67021772D01*
X171773167Y-67047883D01*
X171779497Y-67045107D01*
X171784310Y-67043114D01*
X171813664Y-67031660D01*
X171818554Y-67029867D01*
X171958500Y-66981823D01*
X171958500Y-66893531D01*
X171614905Y-66549936D01*
X171580879Y-66487624D01*
X171578000Y-66460841D01*
X171578000Y-66292500D01*
X170432500Y-66292500D01*
X167820904Y-66292500D01*
X167705404Y-66177000D01*
X167671378Y-66114688D01*
X167668499Y-66087905D01*
X167668499Y-65533625D01*
X167663378Y-65483496D01*
X167657974Y-65430596D01*
X167602661Y-65263671D01*
X167510344Y-65114002D01*
X167510343Y-65114001D01*
X167510338Y-65113995D01*
X167386004Y-64989661D01*
X167385998Y-64989656D01*
X167236329Y-64897339D01*
X167069404Y-64842026D01*
X167069401Y-64842025D01*
X167069399Y-64842025D01*
X166966383Y-64831500D01*
X166378624Y-64831500D01*
X166284135Y-64841153D01*
X166214334Y-64828177D01*
X166187776Y-64810116D01*
X166181542Y-64804593D01*
X166176002Y-64799377D01*
X166018625Y-64642000D01*
X168410585Y-64642000D01*
X168481185Y-64756461D01*
X168484848Y-64762807D01*
X168505892Y-64801834D01*
X168509183Y-64808386D01*
X168534126Y-64861877D01*
X168537028Y-64868604D01*
X168553402Y-64909818D01*
X168555910Y-64916708D01*
X168629204Y-65137898D01*
X168631185Y-65144472D01*
X168642086Y-65184566D01*
X168643707Y-65191241D01*
X168655293Y-65245346D01*
X168656549Y-65252106D01*
X168660710Y-65278500D01*
X169418500Y-65278500D01*
X169418500Y-64642000D01*
X170432500Y-64642000D01*
X170432500Y-65278500D01*
X171578000Y-65278500D01*
X171578000Y-64642000D01*
X170432500Y-64642000D01*
X169418500Y-64642000D01*
X168410585Y-64642000D01*
X166018625Y-64642000D01*
X165092220Y-63715595D01*
X165058194Y-63653283D01*
X165063259Y-63582468D01*
X165105806Y-63525632D01*
X165172326Y-63500821D01*
X165181315Y-63500500D01*
X172594000Y-63500500D01*
X172662121Y-63520502D01*
X172708614Y-63574158D01*
X172720000Y-63626500D01*
X172720000Y-66040000D01*
X175133500Y-66040000D01*
X175201621Y-66060002D01*
X175248114Y-66113658D01*
X175259500Y-66166000D01*
X175259500Y-91314000D01*
X175239498Y-91382121D01*
X175185842Y-91428614D01*
X175133500Y-91440000D01*
X172720000Y-91440000D01*
X172720000Y-93853500D01*
X172699998Y-93921621D01*
X172646342Y-93968114D01*
X172594000Y-93979500D01*
X132206000Y-93979500D01*
X132137879Y-93959498D01*
X132091386Y-93905842D01*
X132080000Y-93853500D01*
X132080000Y-91440000D01*
X129666500Y-91440000D01*
X129598379Y-91419998D01*
X129551886Y-91366342D01*
X129540500Y-91314000D01*
X129540500Y-89152500D01*
X130682000Y-89152500D01*
X130682000Y-90298000D01*
X131318500Y-90298000D01*
X131318500Y-89152500D01*
X130682000Y-89152500D01*
X129540500Y-89152500D01*
X129540500Y-67818500D01*
X132332500Y-67818500D01*
X133858500Y-67818500D01*
X133858500Y-66292500D01*
X133222000Y-66292500D01*
X133222000Y-66460841D01*
X133201998Y-66528962D01*
X133185095Y-66549936D01*
X132589936Y-67145095D01*
X132527624Y-67179121D01*
X132500841Y-67182000D01*
X132332500Y-67182000D01*
X132332500Y-67818500D01*
X129540500Y-67818500D01*
X129540500Y-66166000D01*
X129560502Y-66097879D01*
X129614158Y-66051386D01*
X129666500Y-66040000D01*
X132080000Y-66040000D01*
X132080000Y-65901000D01*
X145997000Y-65901000D01*
X146751000Y-65901000D01*
X146751000Y-64922000D01*
X146704483Y-64922000D01*
X146600681Y-64932605D01*
X146600678Y-64932606D01*
X146432474Y-64988342D01*
X146281660Y-65081365D01*
X146281654Y-65081370D01*
X146156370Y-65206654D01*
X146156365Y-65206660D01*
X146063342Y-65357474D01*
X146007606Y-65525678D01*
X146007605Y-65525681D01*
X145997000Y-65629483D01*
X145997000Y-65901000D01*
X132080000Y-65901000D01*
X132080000Y-65786000D01*
X135430007Y-65786000D01*
X136481000Y-65786000D01*
X136481000Y-65232000D01*
X136989000Y-65232000D01*
X136989000Y-65786000D01*
X138039992Y-65786000D01*
X142630007Y-65786000D01*
X143681000Y-65786000D01*
X143681000Y-65232000D01*
X144189000Y-65232000D01*
X144189000Y-65786000D01*
X145239992Y-65786000D01*
X145193681Y-65626598D01*
X145109051Y-65483498D01*
X145109050Y-65483496D01*
X144991503Y-65365949D01*
X144991501Y-65365948D01*
X144848401Y-65281318D01*
X144688748Y-65234934D01*
X144688750Y-65234934D01*
X144651456Y-65232000D01*
X144189000Y-65232000D01*
X143681000Y-65232000D01*
X143218544Y-65232000D01*
X143181249Y-65234934D01*
X143021599Y-65281318D01*
X142878498Y-65365948D01*
X142878496Y-65365949D01*
X142760949Y-65483496D01*
X142760948Y-65483498D01*
X142676318Y-65626598D01*
X142630007Y-65786000D01*
X138039992Y-65786000D01*
X137993681Y-65626598D01*
X137909051Y-65483498D01*
X137909050Y-65483496D01*
X137791503Y-65365949D01*
X137791501Y-65365948D01*
X137648401Y-65281318D01*
X137488748Y-65234934D01*
X137488750Y-65234934D01*
X137451456Y-65232000D01*
X136989000Y-65232000D01*
X136481000Y-65232000D01*
X136018544Y-65232000D01*
X135981249Y-65234934D01*
X135821599Y-65281318D01*
X135678498Y-65365948D01*
X135678496Y-65365949D01*
X135560949Y-65483496D01*
X135560948Y-65483498D01*
X135476318Y-65626598D01*
X135430007Y-65786000D01*
X132080000Y-65786000D01*
X132080000Y-64642000D01*
X139952500Y-64642000D01*
X139952500Y-65278500D01*
X141478500Y-65278500D01*
X141478500Y-64642000D01*
X139952500Y-64642000D01*
X132080000Y-64642000D01*
X132080000Y-63626500D01*
X132100002Y-63558379D01*
X132153658Y-63511886D01*
X132206000Y-63500500D01*
X158484046Y-63500500D01*
X158552167Y-63520502D01*
G37*
%TD.AperFunction*%
%TA.AperFunction,Conductor*%
G36*
X139780735Y-87849591D02*
G01*
X139807241Y-87880181D01*
X139830968Y-87918649D01*
X139830975Y-87918658D01*
X139878521Y-87966204D01*
X139912547Y-88028516D01*
X139907482Y-88099331D01*
X139864935Y-88156167D01*
X139798415Y-88180978D01*
X139793392Y-88181237D01*
X139790959Y-88181313D01*
X139786993Y-88181438D01*
X139783044Y-88181500D01*
X139755144Y-88181500D01*
X139755138Y-88181500D01*
X139755132Y-88181501D01*
X139751133Y-88182006D01*
X139739313Y-88182936D01*
X139695111Y-88184325D01*
X139675650Y-88189979D01*
X139656304Y-88193985D01*
X139636204Y-88196525D01*
X139630696Y-88198706D01*
X139559995Y-88205179D01*
X139497018Y-88172402D01*
X139461759Y-88110779D01*
X139465413Y-88039877D01*
X139495225Y-87992456D01*
X139569030Y-87918652D01*
X139592759Y-87880180D01*
X139645544Y-87832702D01*
X139715619Y-87821299D01*
X139780735Y-87849591D01*
G37*
%TD.AperFunction*%
%TA.AperFunction,Conductor*%
G36*
X145069532Y-83642110D02*
G01*
X145126368Y-83684657D01*
X145151179Y-83751177D01*
X145151500Y-83760166D01*
X145151500Y-86309009D01*
X145131498Y-86377130D01*
X145114595Y-86398104D01*
X143712030Y-87800668D01*
X143649718Y-87834694D01*
X143578902Y-87829629D01*
X143522067Y-87787082D01*
X143497256Y-87720562D01*
X143503331Y-87671939D01*
X143527392Y-87599327D01*
X143527394Y-87599318D01*
X143537999Y-87495516D01*
X143538000Y-87495516D01*
X143538000Y-87249000D01*
X142389500Y-87249000D01*
X142321379Y-87228998D01*
X142274886Y-87175342D01*
X142263500Y-87123000D01*
X142263500Y-85787000D01*
X142771500Y-85787000D01*
X142771500Y-86741000D01*
X143538000Y-86741000D01*
X143538000Y-86494483D01*
X143527394Y-86390681D01*
X143527393Y-86390678D01*
X143471657Y-86222474D01*
X143378634Y-86071660D01*
X143378629Y-86071654D01*
X143253345Y-85946370D01*
X143253339Y-85946365D01*
X143102525Y-85853342D01*
X142934321Y-85797606D01*
X142934318Y-85797605D01*
X142830516Y-85787000D01*
X142771500Y-85787000D01*
X142263500Y-85787000D01*
X142204483Y-85787000D01*
X142100681Y-85797605D01*
X142100678Y-85797606D01*
X141932474Y-85853342D01*
X141781660Y-85946365D01*
X141781654Y-85946370D01*
X141694449Y-86033576D01*
X141632137Y-86067602D01*
X141561322Y-86062537D01*
X141516259Y-86033576D01*
X141428658Y-85945975D01*
X141428649Y-85945968D01*
X141385852Y-85919570D01*
X141338374Y-85866784D01*
X141326000Y-85812330D01*
X141326000Y-85242663D01*
X141346002Y-85174542D01*
X141399658Y-85128049D01*
X141469932Y-85117945D01*
X141528132Y-85142264D01*
X141590777Y-85189770D01*
X141594304Y-85192445D01*
X141730409Y-85246118D01*
X141734903Y-85247890D01*
X141823256Y-85258500D01*
X141823259Y-85258500D01*
X143796741Y-85258500D01*
X143796744Y-85258500D01*
X143885097Y-85247890D01*
X144025696Y-85192445D01*
X144146122Y-85101122D01*
X144237445Y-84980696D01*
X144292890Y-84840097D01*
X144303500Y-84751744D01*
X144303500Y-84356166D01*
X144323502Y-84288045D01*
X144340405Y-84267071D01*
X144936405Y-83671071D01*
X144998717Y-83637045D01*
X145069532Y-83642110D01*
G37*
%TD.AperFunction*%
%TA.AperFunction,Conductor*%
G36*
X142329526Y-68013502D02*
G01*
X142376019Y-68067158D01*
X142386123Y-68137432D01*
X142356629Y-68202012D01*
X142350513Y-68208581D01*
X142053549Y-68505546D01*
X141767037Y-68792058D01*
X141766980Y-68792113D01*
X141216336Y-69342757D01*
X141203901Y-69352720D01*
X141204089Y-69352947D01*
X141197982Y-69357999D01*
X141151370Y-69407635D01*
X141148620Y-69410473D01*
X141128863Y-69430231D01*
X141126374Y-69433439D01*
X141118688Y-69442436D01*
X141088418Y-69474673D01*
X141088411Y-69474683D01*
X141078651Y-69492435D01*
X141067803Y-69508950D01*
X141055386Y-69524958D01*
X141037824Y-69565540D01*
X141032604Y-69576195D01*
X141011305Y-69614939D01*
X141011303Y-69614944D01*
X141006267Y-69634559D01*
X140999864Y-69653262D01*
X140991819Y-69671852D01*
X140984901Y-69715525D01*
X140982495Y-69727142D01*
X140971500Y-69769968D01*
X140971500Y-69790223D01*
X140969949Y-69809933D01*
X140966780Y-69829942D01*
X140970941Y-69873961D01*
X140971500Y-69885819D01*
X140971500Y-72318206D01*
X140969268Y-72341818D01*
X140967725Y-72349903D01*
X140967725Y-72349906D01*
X140970053Y-72386917D01*
X140971251Y-72405950D01*
X140971500Y-72413862D01*
X140971500Y-72429854D01*
X140973504Y-72445728D01*
X140974247Y-72453595D01*
X140977775Y-72509651D01*
X140980321Y-72517487D01*
X140985493Y-72540626D01*
X140986524Y-72548789D01*
X140986527Y-72548800D01*
X141007195Y-72601002D01*
X141009876Y-72608447D01*
X141027237Y-72661877D01*
X141027237Y-72661878D01*
X141031652Y-72668834D01*
X141042417Y-72689962D01*
X141045447Y-72697616D01*
X141078453Y-72743045D01*
X141082901Y-72749590D01*
X141113000Y-72797018D01*
X141119007Y-72802659D01*
X141134688Y-72820446D01*
X141139526Y-72827105D01*
X141139527Y-72827106D01*
X141182796Y-72862901D01*
X141188734Y-72868136D01*
X141229679Y-72906587D01*
X141236896Y-72910554D01*
X141256511Y-72923884D01*
X141262856Y-72929133D01*
X141313697Y-72953057D01*
X141320695Y-72956622D01*
X141369940Y-72983695D01*
X141377913Y-72985742D01*
X141400226Y-72993774D01*
X141407682Y-72997283D01*
X141462872Y-73007810D01*
X141470564Y-73009530D01*
X141490745Y-73014712D01*
X141524965Y-73023499D01*
X141524967Y-73023499D01*
X141524970Y-73023500D01*
X141533206Y-73023500D01*
X141556816Y-73025731D01*
X141564906Y-73027275D01*
X141620952Y-73023748D01*
X141628862Y-73023500D01*
X142587357Y-73023500D01*
X142655478Y-73043502D01*
X142701971Y-73097158D01*
X142712075Y-73167432D01*
X142695811Y-73213639D01*
X142676318Y-73246598D01*
X142630007Y-73406000D01*
X144063000Y-73406000D01*
X144131121Y-73426002D01*
X144177614Y-73479658D01*
X144189000Y-73532000D01*
X144189000Y-73788000D01*
X144168998Y-73856121D01*
X144115342Y-73902614D01*
X144063000Y-73914000D01*
X142630007Y-73914000D01*
X142623858Y-73922188D01*
X142623739Y-73964123D01*
X142585185Y-74023739D01*
X142520520Y-74053047D01*
X142476748Y-74051526D01*
X142335487Y-74021500D01*
X142144513Y-74021500D01*
X141957711Y-74061206D01*
X141783247Y-74138882D01*
X141628744Y-74251135D01*
X141500965Y-74393048D01*
X141500958Y-74393058D01*
X141405476Y-74558438D01*
X141405473Y-74558444D01*
X141392985Y-74596879D01*
X141346457Y-74740072D01*
X141326496Y-74930000D01*
X141346457Y-75119927D01*
X141369906Y-75192094D01*
X141405473Y-75301556D01*
X141405476Y-75301561D01*
X141500958Y-75466941D01*
X141500965Y-75466951D01*
X141628744Y-75608864D01*
X141752205Y-75698564D01*
X141795559Y-75754786D01*
X141801634Y-75825523D01*
X141768502Y-75888314D01*
X141706682Y-75923226D01*
X141678144Y-75926500D01*
X141509513Y-75926500D01*
X141322711Y-75966206D01*
X141148247Y-76043882D01*
X140993744Y-76156135D01*
X140865965Y-76298048D01*
X140865958Y-76298058D01*
X140771274Y-76462056D01*
X140770473Y-76463444D01*
X140767528Y-76472509D01*
X140711457Y-76645072D01*
X140691496Y-76835000D01*
X140711457Y-77024927D01*
X140735343Y-77098438D01*
X140770473Y-77206556D01*
X140770476Y-77206561D01*
X140865958Y-77371941D01*
X140865965Y-77371951D01*
X140993744Y-77513864D01*
X141048298Y-77553500D01*
X141148248Y-77626118D01*
X141322712Y-77703794D01*
X141509513Y-77743500D01*
X141565406Y-77743500D01*
X141633527Y-77763502D01*
X141654501Y-77780405D01*
X143501001Y-79626905D01*
X143535027Y-79689217D01*
X143529962Y-79760032D01*
X143487415Y-79816868D01*
X143420895Y-79841679D01*
X143411906Y-79842000D01*
X143064000Y-79842000D01*
X143064000Y-80773000D01*
X143043998Y-80841121D01*
X142990342Y-80887614D01*
X142938000Y-80899000D01*
X141317001Y-80899000D01*
X141317001Y-80941705D01*
X141327600Y-81029976D01*
X141382995Y-81170446D01*
X141382997Y-81170449D01*
X141408024Y-81203453D01*
X141433246Y-81269818D01*
X141418584Y-81339285D01*
X141408023Y-81355718D01*
X141382556Y-81389300D01*
X141382555Y-81389302D01*
X141345124Y-81484220D01*
X141317004Y-81527090D01*
X140303836Y-82540258D01*
X140291401Y-82550222D01*
X140291589Y-82550449D01*
X140285479Y-82555503D01*
X140238870Y-82605136D01*
X140236120Y-82607974D01*
X140216363Y-82627732D01*
X140213874Y-82630940D01*
X140206188Y-82639937D01*
X140175918Y-82672174D01*
X140175911Y-82672184D01*
X140166151Y-82689936D01*
X140155303Y-82706451D01*
X140142886Y-82722459D01*
X140125324Y-82763041D01*
X140120104Y-82773696D01*
X140098805Y-82812440D01*
X140098803Y-82812445D01*
X140093767Y-82832060D01*
X140087363Y-82850767D01*
X140079667Y-82868551D01*
X140034255Y-82923125D01*
X139966548Y-82944484D01*
X139937834Y-82941756D01*
X139795489Y-82911500D01*
X139795487Y-82911500D01*
X139604513Y-82911500D01*
X139604511Y-82911500D01*
X139497328Y-82934282D01*
X139426538Y-82928880D01*
X139369905Y-82886063D01*
X139346031Y-82826058D01*
X139344396Y-82812441D01*
X139342890Y-82799903D01*
X139336953Y-82784849D01*
X139287445Y-82659304D01*
X139287442Y-82659299D01*
X139262292Y-82626135D01*
X139237067Y-82559771D01*
X139251727Y-82490304D01*
X139262292Y-82473865D01*
X139287442Y-82440700D01*
X139287442Y-82440699D01*
X139287445Y-82440696D01*
X139342890Y-82300097D01*
X139353500Y-82211744D01*
X139353500Y-81618256D01*
X139342890Y-81529903D01*
X139336537Y-81513794D01*
X139287445Y-81389304D01*
X139287442Y-81389299D01*
X139262292Y-81356135D01*
X139237067Y-81289771D01*
X139251727Y-81220304D01*
X139262292Y-81203865D01*
X139287442Y-81170700D01*
X139287442Y-81170699D01*
X139287445Y-81170696D01*
X139342890Y-81030097D01*
X139353500Y-80941744D01*
X139353500Y-80391000D01*
X141317000Y-80391000D01*
X142556000Y-80391000D01*
X142556000Y-79842000D01*
X141823304Y-79842000D01*
X141823294Y-79842001D01*
X141735023Y-79852600D01*
X141594552Y-79907995D01*
X141474234Y-79999234D01*
X141382995Y-80119552D01*
X141327600Y-80260022D01*
X141317000Y-80348296D01*
X141317000Y-80391000D01*
X139353500Y-80391000D01*
X139353500Y-80348256D01*
X139342890Y-80259903D01*
X139340354Y-80253473D01*
X139287445Y-80119304D01*
X139273164Y-80100472D01*
X139196122Y-79998878D01*
X139099883Y-79925897D01*
X139075695Y-79907554D01*
X138935099Y-79852110D01*
X138935093Y-79852109D01*
X138846747Y-79841500D01*
X138846744Y-79841500D01*
X136873256Y-79841500D01*
X136873252Y-79841500D01*
X136784906Y-79852109D01*
X136784900Y-79852110D01*
X136644304Y-79907554D01*
X136644300Y-79907557D01*
X136620116Y-79925897D01*
X136553752Y-79951121D01*
X136543982Y-79951500D01*
X133914500Y-79951500D01*
X133846379Y-79931498D01*
X133799886Y-79877842D01*
X133788500Y-79825500D01*
X133788500Y-78786367D01*
X133788499Y-78786350D01*
X133781990Y-78725803D01*
X133781988Y-78725795D01*
X133746135Y-78629673D01*
X133730889Y-78588796D01*
X133730888Y-78588794D01*
X133730887Y-78588792D01*
X133643261Y-78471738D01*
X133521205Y-78380368D01*
X133478658Y-78323532D01*
X133473594Y-78252716D01*
X133507619Y-78190404D01*
X133569931Y-78156379D01*
X133596714Y-78153500D01*
X135659022Y-78153500D01*
X135723160Y-78171046D01*
X135821399Y-78229145D01*
X135981169Y-78275562D01*
X136018488Y-78278499D01*
X136018489Y-78278500D01*
X136018498Y-78278500D01*
X137451511Y-78278500D01*
X137451511Y-78278499D01*
X137488831Y-78275562D01*
X137648601Y-78229145D01*
X137648603Y-78229143D01*
X137648605Y-78229143D01*
X137745669Y-78171739D01*
X137791807Y-78144453D01*
X137909453Y-78026807D01*
X137971390Y-77922077D01*
X137994143Y-77883605D01*
X137994143Y-77883603D01*
X137994145Y-77883601D01*
X138040562Y-77723831D01*
X138043499Y-77686511D01*
X138043500Y-77686511D01*
X138043500Y-77253489D01*
X138043499Y-77253488D01*
X138040562Y-77216171D01*
X138040562Y-77216170D01*
X138038749Y-77209928D01*
X137994145Y-77056399D01*
X137994143Y-77056397D01*
X137994143Y-77056394D01*
X137909455Y-76913196D01*
X137908385Y-76911816D01*
X137907882Y-76910536D01*
X137905418Y-76906369D01*
X137906090Y-76905971D01*
X137882437Y-76845732D01*
X137896336Y-76776109D01*
X137908390Y-76757353D01*
X137909056Y-76756493D01*
X137993681Y-76613401D01*
X138039993Y-76454000D01*
X135430007Y-76454000D01*
X135478530Y-76621012D01*
X135476425Y-76621623D01*
X135483740Y-76680933D01*
X135452956Y-76744908D01*
X135392471Y-76782085D01*
X135359408Y-76786500D01*
X133690305Y-76786500D01*
X133622184Y-76766498D01*
X133601210Y-76749595D01*
X133444154Y-76592539D01*
X133410128Y-76530227D01*
X133411104Y-76472515D01*
X133424564Y-76419368D01*
X133443156Y-76195000D01*
X133424564Y-75970632D01*
X133417146Y-75941340D01*
X133369297Y-75752387D01*
X133369296Y-75752386D01*
X133369296Y-75752384D01*
X133278860Y-75546209D01*
X133244307Y-75493321D01*
X133155724Y-75357734D01*
X133155714Y-75357722D01*
X133012159Y-75201782D01*
X133003383Y-75184000D01*
X135430007Y-75184000D01*
X135476318Y-75343401D01*
X135560947Y-75486500D01*
X135561939Y-75487779D01*
X135562403Y-75488963D01*
X135564981Y-75493321D01*
X135564277Y-75493736D01*
X135587882Y-75553866D01*
X135573978Y-75623487D01*
X135561939Y-75642221D01*
X135560947Y-75643499D01*
X135476318Y-75786598D01*
X135430007Y-75946000D01*
X136481000Y-75946000D01*
X136481000Y-75184000D01*
X136989000Y-75184000D01*
X136989000Y-75946000D01*
X138039992Y-75946000D01*
X137993681Y-75786598D01*
X137909052Y-75643499D01*
X137908067Y-75642229D01*
X137907604Y-75641050D01*
X137905019Y-75636679D01*
X137905723Y-75636262D01*
X137882118Y-75576145D01*
X137896016Y-75506522D01*
X137908067Y-75487771D01*
X137909052Y-75486500D01*
X137993681Y-75343401D01*
X138039993Y-75184000D01*
X136989000Y-75184000D01*
X136481000Y-75184000D01*
X135430007Y-75184000D01*
X133003383Y-75184000D01*
X132980737Y-75138117D01*
X132988723Y-75067571D01*
X133033582Y-75012542D01*
X133060827Y-74998388D01*
X133175965Y-74955444D01*
X133292904Y-74867904D01*
X133380444Y-74750965D01*
X133380444Y-74750964D01*
X133431494Y-74614093D01*
X133437999Y-74553597D01*
X133438000Y-74553585D01*
X133438000Y-73914000D01*
X135430007Y-73914000D01*
X135476318Y-74073401D01*
X135560947Y-74216500D01*
X135561939Y-74217779D01*
X135562403Y-74218963D01*
X135564981Y-74223321D01*
X135564277Y-74223736D01*
X135587882Y-74283866D01*
X135573978Y-74353487D01*
X135561939Y-74372221D01*
X135560947Y-74373499D01*
X135476318Y-74516598D01*
X135430007Y-74676000D01*
X136481000Y-74676000D01*
X136481000Y-73914000D01*
X136989000Y-73914000D01*
X136989000Y-74676000D01*
X138039992Y-74676000D01*
X137993681Y-74516598D01*
X137909052Y-74373499D01*
X137908067Y-74372229D01*
X137907604Y-74371050D01*
X137905019Y-74366679D01*
X137905723Y-74366262D01*
X137882118Y-74306145D01*
X137896016Y-74236522D01*
X137908067Y-74217771D01*
X137909052Y-74216500D01*
X137993681Y-74073401D01*
X138039993Y-73914000D01*
X136989000Y-73914000D01*
X136481000Y-73914000D01*
X135430007Y-73914000D01*
X133438000Y-73914000D01*
X133438000Y-73912500D01*
X139952500Y-73912500D01*
X139952500Y-75438500D01*
X140277124Y-75438500D01*
X140290738Y-75424886D01*
X140295525Y-75420343D01*
X140334998Y-75384803D01*
X140340015Y-75380518D01*
X140361644Y-75363004D01*
X140360140Y-75356737D01*
X140349096Y-75304782D01*
X140347893Y-75298295D01*
X140341649Y-75258873D01*
X140340788Y-75252332D01*
X140315274Y-75009577D01*
X140314757Y-75003000D01*
X140312669Y-74963149D01*
X140312496Y-74956556D01*
X140312496Y-74903444D01*
X140312669Y-74896851D01*
X140314757Y-74857000D01*
X140315274Y-74850423D01*
X140340788Y-74607668D01*
X140341649Y-74601127D01*
X140347893Y-74561705D01*
X140349096Y-74555218D01*
X140360140Y-74503263D01*
X140361680Y-74496846D01*
X140372009Y-74458302D01*
X140373882Y-74451980D01*
X140449309Y-74219842D01*
X140451510Y-74213626D01*
X140465808Y-74176377D01*
X140468332Y-74170283D01*
X140489934Y-74121762D01*
X140492775Y-74115806D01*
X140510896Y-74080242D01*
X140514044Y-74074445D01*
X140607544Y-73912500D01*
X139952500Y-73912500D01*
X133438000Y-73912500D01*
X133438000Y-73909000D01*
X132511116Y-73909000D01*
X132539493Y-73864844D01*
X132580000Y-73726889D01*
X132580000Y-73583111D01*
X132539493Y-73445156D01*
X132514329Y-73406000D01*
X135430007Y-73406000D01*
X136481000Y-73406000D01*
X136481000Y-72852000D01*
X136989000Y-72852000D01*
X136989000Y-73406000D01*
X138039992Y-73406000D01*
X137993681Y-73246598D01*
X137909051Y-73103498D01*
X137909050Y-73103496D01*
X137791503Y-72985949D01*
X137791501Y-72985948D01*
X137648401Y-72901318D01*
X137488748Y-72854934D01*
X137488750Y-72854934D01*
X137451456Y-72852000D01*
X136989000Y-72852000D01*
X136481000Y-72852000D01*
X136018544Y-72852000D01*
X135981249Y-72854934D01*
X135821599Y-72901318D01*
X135678498Y-72985948D01*
X135678496Y-72985949D01*
X135560949Y-73103496D01*
X135560948Y-73103498D01*
X135476318Y-73246598D01*
X135430007Y-73406000D01*
X132514329Y-73406000D01*
X132511116Y-73401000D01*
X133438000Y-73401000D01*
X133438000Y-72756414D01*
X133437999Y-72756402D01*
X133431494Y-72695906D01*
X133380444Y-72559035D01*
X133380444Y-72559034D01*
X133292904Y-72442095D01*
X133175965Y-72354555D01*
X133039093Y-72303505D01*
X132978597Y-72297000D01*
X132334000Y-72297000D01*
X132334000Y-73221325D01*
X132222315Y-73170320D01*
X132115763Y-73155000D01*
X132044237Y-73155000D01*
X131937685Y-73170320D01*
X131826000Y-73221325D01*
X131826000Y-72297000D01*
X131614500Y-72297000D01*
X131546379Y-72276998D01*
X131499886Y-72223342D01*
X131488500Y-72171000D01*
X131488500Y-71547500D01*
X134872500Y-71547500D01*
X134872500Y-72357935D01*
X134984039Y-72246396D01*
X134989811Y-72240975D01*
X135025748Y-72209294D01*
X135031848Y-72204248D01*
X135082220Y-72165178D01*
X135088623Y-72160526D01*
X135128225Y-72133614D01*
X135134906Y-72129374D01*
X135332871Y-72012298D01*
X135339806Y-72008486D01*
X135382486Y-71986739D01*
X135389653Y-71983366D01*
X135448158Y-71958051D01*
X135455514Y-71955139D01*
X135500567Y-71938919D01*
X135508094Y-71936473D01*
X135723209Y-71873975D01*
X135729429Y-71872339D01*
X135767294Y-71863405D01*
X135773590Y-71862088D01*
X135824542Y-71852782D01*
X135830899Y-71851788D01*
X135869501Y-71846758D01*
X135875899Y-71846090D01*
X135956405Y-71839756D01*
X135961347Y-71839465D01*
X135996182Y-71838098D01*
X136001123Y-71838001D01*
X136398500Y-71838000D01*
X137412500Y-71838000D01*
X137468872Y-71838000D01*
X137473811Y-71838097D01*
X137508657Y-71839464D01*
X137513602Y-71839755D01*
X137594124Y-71846091D01*
X137600527Y-71846760D01*
X137639130Y-71851792D01*
X137645486Y-71852786D01*
X137696432Y-71862093D01*
X137702725Y-71863409D01*
X137740580Y-71872341D01*
X137746797Y-71873977D01*
X137961906Y-71936473D01*
X137969434Y-71938919D01*
X138014487Y-71955139D01*
X138021843Y-71958052D01*
X138080347Y-71983367D01*
X138087514Y-71986739D01*
X138130194Y-72008486D01*
X138137129Y-72012298D01*
X138335094Y-72129374D01*
X138341775Y-72133614D01*
X138381377Y-72160526D01*
X138387780Y-72165178D01*
X138438152Y-72204248D01*
X138444252Y-72209294D01*
X138480189Y-72240975D01*
X138485961Y-72246396D01*
X138648604Y-72409039D01*
X138654025Y-72414811D01*
X138685706Y-72450748D01*
X138690752Y-72456848D01*
X138729822Y-72507220D01*
X138734474Y-72513623D01*
X138761386Y-72553225D01*
X138765626Y-72559906D01*
X138882702Y-72757871D01*
X138886514Y-72764806D01*
X138908261Y-72807486D01*
X138911633Y-72814653D01*
X138936948Y-72873157D01*
X138938500Y-72877076D01*
X138938500Y-71474808D01*
X138907241Y-71484550D01*
X138899898Y-71486597D01*
X138887126Y-71489743D01*
X138874570Y-71493658D01*
X138867229Y-71495705D01*
X138807697Y-71510380D01*
X138800252Y-71511978D01*
X138754938Y-71520282D01*
X138747409Y-71521428D01*
X138685525Y-71528939D01*
X138624215Y-71540177D01*
X138616687Y-71541323D01*
X138570956Y-71546876D01*
X138563372Y-71547565D01*
X138502187Y-71551264D01*
X138494583Y-71551494D01*
X138448543Y-71551494D01*
X138440935Y-71551264D01*
X138378708Y-71547500D01*
X138033394Y-71547500D01*
X138022028Y-71552418D01*
X138014670Y-71555331D01*
X137969623Y-71571548D01*
X137962097Y-71573993D01*
X137746859Y-71636525D01*
X137740636Y-71638162D01*
X137702761Y-71647097D01*
X137696466Y-71648413D01*
X137645528Y-71657715D01*
X137639178Y-71658708D01*
X137600609Y-71663735D01*
X137594212Y-71664403D01*
X137513661Y-71670744D01*
X137508710Y-71671036D01*
X137473851Y-71672403D01*
X137468914Y-71672500D01*
X137412500Y-71672500D01*
X137412500Y-71838000D01*
X136398500Y-71838000D01*
X136398500Y-71672500D01*
X136001086Y-71672500D01*
X135996149Y-71672403D01*
X135961290Y-71671036D01*
X135956339Y-71670744D01*
X135875788Y-71664403D01*
X135869391Y-71663735D01*
X135830822Y-71658708D01*
X135824472Y-71657715D01*
X135773534Y-71648413D01*
X135767239Y-71647097D01*
X135729364Y-71638162D01*
X135723141Y-71636525D01*
X135507903Y-71573993D01*
X135500377Y-71571548D01*
X135455330Y-71555331D01*
X135447972Y-71552418D01*
X135436606Y-71547500D01*
X134872500Y-71547500D01*
X131488500Y-71547500D01*
X131488500Y-71460305D01*
X131508502Y-71392184D01*
X131525405Y-71371210D01*
X132326210Y-70570405D01*
X132388522Y-70536379D01*
X132415305Y-70533500D01*
X135659022Y-70533500D01*
X135723160Y-70551046D01*
X135821399Y-70609145D01*
X135981169Y-70655562D01*
X136018488Y-70658499D01*
X136018489Y-70658500D01*
X136018498Y-70658500D01*
X137451511Y-70658500D01*
X137451511Y-70658499D01*
X137488831Y-70655562D01*
X137648601Y-70609145D01*
X137746839Y-70551046D01*
X137810978Y-70533500D01*
X138405541Y-70533500D01*
X138413148Y-70533730D01*
X138417299Y-70533981D01*
X138471572Y-70537264D01*
X138529165Y-70526709D01*
X138536639Y-70525571D01*
X138594774Y-70518513D01*
X138603590Y-70515169D01*
X138625570Y-70509042D01*
X138625634Y-70509030D01*
X138634837Y-70507344D01*
X138688222Y-70483316D01*
X138695240Y-70480409D01*
X138749971Y-70459654D01*
X138757729Y-70454298D01*
X138777592Y-70443095D01*
X138786197Y-70439223D01*
X138832288Y-70403112D01*
X138838402Y-70398614D01*
X138886573Y-70365365D01*
X138899702Y-70350545D01*
X138925404Y-70321532D01*
X138930589Y-70316024D01*
X140166024Y-69080589D01*
X140171532Y-69075404D01*
X140215365Y-69036573D01*
X140248617Y-68988397D01*
X140253112Y-68982288D01*
X140289223Y-68936197D01*
X140293095Y-68927592D01*
X140304298Y-68907729D01*
X140309654Y-68899971D01*
X140330409Y-68845240D01*
X140333320Y-68838213D01*
X140357344Y-68784837D01*
X140359042Y-68775570D01*
X140365170Y-68753587D01*
X140366200Y-68750871D01*
X140368513Y-68744774D01*
X140375571Y-68686639D01*
X140376709Y-68679165D01*
X140387264Y-68621572D01*
X140383730Y-68563147D01*
X140383500Y-68555540D01*
X140383500Y-68119500D01*
X140403502Y-68051379D01*
X140457158Y-68004886D01*
X140509500Y-67993500D01*
X142261405Y-67993500D01*
X142329526Y-68013502D01*
G37*
%TD.AperFunction*%
%TA.AperFunction,Conductor*%
G36*
X150953081Y-75278764D02*
G01*
X150970069Y-75292996D01*
X152222428Y-76545355D01*
X152256454Y-76607667D01*
X152253166Y-76673386D01*
X152202255Y-76830071D01*
X152182294Y-77020000D01*
X152202255Y-77209927D01*
X152216410Y-77253489D01*
X152261271Y-77391556D01*
X152261274Y-77391561D01*
X152356756Y-77556941D01*
X152356763Y-77556951D01*
X152484542Y-77698864D01*
X152541815Y-77740475D01*
X152639046Y-77811118D01*
X152813510Y-77888794D01*
X153000311Y-77928500D01*
X153095500Y-77928500D01*
X153163621Y-77948502D01*
X153210114Y-78002158D01*
X153221500Y-78054500D01*
X153221500Y-78458311D01*
X153201498Y-78526432D01*
X153147842Y-78572925D01*
X153146751Y-78573417D01*
X153123251Y-78583880D01*
X153123248Y-78583882D01*
X152968746Y-78696134D01*
X152948636Y-78718469D01*
X152888190Y-78755708D01*
X152817206Y-78754356D01*
X152761364Y-78718469D01*
X152741253Y-78696134D01*
X152586752Y-78583882D01*
X152412288Y-78506206D01*
X152225487Y-78466500D01*
X152034513Y-78466500D01*
X151847711Y-78506206D01*
X151673247Y-78583882D01*
X151518744Y-78696135D01*
X151390965Y-78838048D01*
X151390961Y-78838054D01*
X151390960Y-78838056D01*
X151332968Y-78938501D01*
X151281585Y-78987494D01*
X151223849Y-79001500D01*
X149599500Y-79001500D01*
X149531379Y-78981498D01*
X149484886Y-78927842D01*
X149473500Y-78875500D01*
X149473499Y-78555678D01*
X149473499Y-78555674D01*
X149465045Y-78485272D01*
X149476782Y-78415255D01*
X149524512Y-78362697D01*
X149593080Y-78344286D01*
X149616339Y-78347004D01*
X149764513Y-78378500D01*
X149955487Y-78378500D01*
X150142288Y-78338794D01*
X150316752Y-78261118D01*
X150471253Y-78148866D01*
X150475225Y-78144455D01*
X150599034Y-78006951D01*
X150599035Y-78006949D01*
X150599040Y-78006944D01*
X150694527Y-77841556D01*
X150753542Y-77659928D01*
X150773504Y-77470000D01*
X150753542Y-77280072D01*
X150694527Y-77098444D01*
X150599040Y-76933056D01*
X150599038Y-76933054D01*
X150599034Y-76933048D01*
X150471255Y-76791135D01*
X150316752Y-76678882D01*
X150277711Y-76661500D01*
X150212813Y-76632605D01*
X150158720Y-76586627D01*
X150138070Y-76518700D01*
X150157422Y-76450392D01*
X150210633Y-76403390D01*
X150212771Y-76402412D01*
X150316752Y-76356118D01*
X150471253Y-76243866D01*
X150506672Y-76204529D01*
X150599034Y-76101951D01*
X150599035Y-76101949D01*
X150599040Y-76101944D01*
X150694527Y-75936556D01*
X150753542Y-75754928D01*
X150773504Y-75565000D01*
X150755664Y-75395261D01*
X150768436Y-75325423D01*
X150816938Y-75273576D01*
X150885771Y-75256182D01*
X150953081Y-75278764D01*
G37*
%TD.AperFunction*%
%TA.AperFunction,Conductor*%
G36*
X158568244Y-73637609D02*
G01*
X158571854Y-73638180D01*
X158571855Y-73638181D01*
X158615530Y-73645098D01*
X158627141Y-73647502D01*
X158669970Y-73658500D01*
X158690224Y-73658500D01*
X158709934Y-73660051D01*
X158712141Y-73660400D01*
X158729943Y-73663220D01*
X158773961Y-73659058D01*
X158785819Y-73658500D01*
X159260500Y-73658500D01*
X159328621Y-73678502D01*
X159375114Y-73732158D01*
X159386500Y-73784500D01*
X159386500Y-74134075D01*
X159366498Y-74202196D01*
X159334563Y-74236010D01*
X159313742Y-74251137D01*
X159185965Y-74393048D01*
X159185958Y-74393058D01*
X159090476Y-74558438D01*
X159090473Y-74558444D01*
X159077985Y-74596879D01*
X159031457Y-74740072D01*
X159011496Y-74930000D01*
X159031457Y-75119927D01*
X159054906Y-75192094D01*
X159090473Y-75301556D01*
X159090476Y-75301561D01*
X159185958Y-75466941D01*
X159185965Y-75466951D01*
X159313744Y-75608864D01*
X159333871Y-75623487D01*
X159468248Y-75721118D01*
X159642712Y-75798794D01*
X159829513Y-75838500D01*
X159865500Y-75838500D01*
X159933621Y-75858502D01*
X159980114Y-75912158D01*
X159991500Y-75964500D01*
X159991500Y-76700544D01*
X159997216Y-76756493D01*
X160002113Y-76804426D01*
X160015157Y-76843793D01*
X160029948Y-76888429D01*
X160032388Y-76959383D01*
X159999438Y-77017156D01*
X158052000Y-78964595D01*
X157989688Y-78998620D01*
X157962905Y-79001500D01*
X157690624Y-79001500D01*
X157622503Y-78981498D01*
X157614490Y-78975897D01*
X157561082Y-78935396D01*
X157518889Y-78878297D01*
X157514264Y-78807451D01*
X157548676Y-78745352D01*
X157561069Y-78734612D01*
X157656924Y-78661924D01*
X157680475Y-78630866D01*
X157737573Y-78588674D01*
X157780873Y-78581000D01*
X157813000Y-78581000D01*
X157813000Y-78555717D01*
X157812999Y-78555712D01*
X157802453Y-78467897D01*
X157802204Y-78466909D01*
X157802204Y-78465816D01*
X157801490Y-78459871D01*
X157802204Y-78459785D01*
X157802206Y-78410277D01*
X157801981Y-78410250D01*
X157802206Y-78408369D01*
X157802207Y-78405142D01*
X157802941Y-78402235D01*
X157802944Y-78402228D01*
X157813500Y-78314327D01*
X157813499Y-77755674D01*
X157804655Y-77682018D01*
X157802944Y-77667771D01*
X157802463Y-77665868D01*
X157802463Y-77663766D01*
X157801981Y-77659751D01*
X157802463Y-77659693D01*
X157802466Y-77610307D01*
X157801981Y-77610249D01*
X157802466Y-77606203D01*
X157802467Y-77604114D01*
X157802941Y-77602233D01*
X157802944Y-77602228D01*
X157813500Y-77514327D01*
X157813499Y-77001116D01*
X157833501Y-76932996D01*
X157845180Y-76917571D01*
X157854959Y-76906533D01*
X157860145Y-76901024D01*
X158196024Y-76565145D01*
X158201532Y-76559960D01*
X158245365Y-76521129D01*
X158278617Y-76472953D01*
X158283112Y-76466844D01*
X158319223Y-76420753D01*
X158323095Y-76412148D01*
X158334298Y-76392285D01*
X158339654Y-76384527D01*
X158360409Y-76329796D01*
X158363320Y-76322769D01*
X158364952Y-76319143D01*
X158387344Y-76269393D01*
X158389042Y-76260126D01*
X158395170Y-76238143D01*
X158398513Y-76229330D01*
X158405571Y-76171195D01*
X158406709Y-76163721D01*
X158417264Y-76106128D01*
X158413730Y-76047703D01*
X158413500Y-76040096D01*
X158413500Y-73759991D01*
X158433502Y-73691870D01*
X158487158Y-73645377D01*
X158557432Y-73635273D01*
X158568244Y-73637609D01*
G37*
%TD.AperFunction*%
%TA.AperFunction,Conductor*%
G36*
X165018621Y-72791002D02*
G01*
X165065114Y-72844658D01*
X165076500Y-72897000D01*
X165076500Y-74233000D01*
X165135517Y-74233000D01*
X165135516Y-74232999D01*
X165239318Y-74222394D01*
X165239321Y-74222393D01*
X165407525Y-74166657D01*
X165558339Y-74073634D01*
X165558345Y-74073629D01*
X165645551Y-73986424D01*
X165707863Y-73952398D01*
X165778678Y-73957463D01*
X165823741Y-73986424D01*
X165911341Y-74074024D01*
X165911347Y-74074029D01*
X165911348Y-74074030D01*
X166062262Y-74167115D01*
X166230574Y-74222887D01*
X166334455Y-74233500D01*
X166774842Y-74233499D01*
X166842962Y-74253501D01*
X166889455Y-74307156D01*
X166899559Y-74377430D01*
X166883960Y-74422499D01*
X166805476Y-74558438D01*
X166805473Y-74558444D01*
X166792985Y-74596879D01*
X166746457Y-74740072D01*
X166729092Y-74905292D01*
X166702079Y-74970949D01*
X166692877Y-74981216D01*
X165069498Y-76604596D01*
X165007188Y-76638620D01*
X164980405Y-76641500D01*
X163984000Y-76641500D01*
X163915879Y-76621498D01*
X163869386Y-76567842D01*
X163858000Y-76515500D01*
X163858000Y-76454000D01*
X162709500Y-76454000D01*
X162641379Y-76433998D01*
X162594886Y-76380342D01*
X162583500Y-76328000D01*
X162583500Y-74992000D01*
X163091500Y-74992000D01*
X163091500Y-75946000D01*
X163858000Y-75946000D01*
X163858000Y-75699483D01*
X163847394Y-75595681D01*
X163847393Y-75595678D01*
X163791657Y-75427474D01*
X163698634Y-75276660D01*
X163698629Y-75276654D01*
X163573345Y-75151370D01*
X163573339Y-75151365D01*
X163422525Y-75058342D01*
X163254321Y-75002606D01*
X163254318Y-75002605D01*
X163150516Y-74992000D01*
X163091500Y-74992000D01*
X162583500Y-74992000D01*
X162524483Y-74992000D01*
X162420681Y-75002605D01*
X162420678Y-75002606D01*
X162252474Y-75058342D01*
X162101660Y-75151365D01*
X162101654Y-75151370D01*
X162014449Y-75238576D01*
X161952137Y-75272602D01*
X161881322Y-75267537D01*
X161836259Y-75238576D01*
X161748658Y-75150975D01*
X161748652Y-75150970D01*
X161698325Y-75119928D01*
X161597738Y-75057885D01*
X161507718Y-75028056D01*
X161429427Y-75002113D01*
X161429420Y-75002112D01*
X161325553Y-74991500D01*
X161325545Y-74991500D01*
X160958419Y-74991500D01*
X160890298Y-74971498D01*
X160843805Y-74917842D01*
X160833109Y-74878670D01*
X160831977Y-74867904D01*
X160818542Y-74740072D01*
X160759527Y-74558444D01*
X160723963Y-74496846D01*
X160681040Y-74422499D01*
X160664302Y-74353503D01*
X160687523Y-74286411D01*
X160743330Y-74242524D01*
X160790154Y-74233499D01*
X161325544Y-74233499D01*
X161429426Y-74222887D01*
X161597738Y-74167115D01*
X161748652Y-74074030D01*
X161771940Y-74050742D01*
X161836259Y-73986424D01*
X161898571Y-73952398D01*
X161969386Y-73957463D01*
X162014449Y-73986424D01*
X162101654Y-74073629D01*
X162101660Y-74073634D01*
X162252474Y-74166657D01*
X162420678Y-74222393D01*
X162420681Y-74222394D01*
X162524483Y-74232999D01*
X162524483Y-74233000D01*
X162583500Y-74233000D01*
X162583500Y-73279000D01*
X163091500Y-73279000D01*
X163091500Y-74233000D01*
X163150517Y-74233000D01*
X163150516Y-74232999D01*
X163254318Y-74222394D01*
X163254321Y-74222393D01*
X163422525Y-74166657D01*
X163573339Y-74073634D01*
X163573345Y-74073629D01*
X163698629Y-73948345D01*
X163698634Y-73948339D01*
X163722759Y-73909227D01*
X163775545Y-73861749D01*
X163845620Y-73850346D01*
X163910735Y-73878638D01*
X163937241Y-73909227D01*
X163961365Y-73948339D01*
X163961370Y-73948345D01*
X164086654Y-74073629D01*
X164086660Y-74073634D01*
X164237474Y-74166657D01*
X164405678Y-74222393D01*
X164405681Y-74222394D01*
X164509483Y-74232999D01*
X164509483Y-74233000D01*
X164568500Y-74233000D01*
X164568500Y-73279000D01*
X163091500Y-73279000D01*
X162583500Y-73279000D01*
X162583500Y-72897000D01*
X162603502Y-72828879D01*
X162657158Y-72782386D01*
X162709500Y-72771000D01*
X164950500Y-72771000D01*
X165018621Y-72791002D01*
G37*
%TD.AperFunction*%
%TA.AperFunction,Conductor*%
G36*
X163058621Y-65806002D02*
G01*
X163105114Y-65859658D01*
X163116500Y-65912000D01*
X163116500Y-67247999D01*
X163156347Y-67247999D01*
X163259302Y-67237482D01*
X163426112Y-67182206D01*
X163575686Y-67089948D01*
X163575692Y-67089943D01*
X163699943Y-66965692D01*
X163699945Y-66965689D01*
X163722464Y-66929181D01*
X163775250Y-66881703D01*
X163845324Y-66870299D01*
X163910440Y-66898590D01*
X163936944Y-66929177D01*
X163958773Y-66964566D01*
X163959656Y-66965998D01*
X163959661Y-66966004D01*
X164083995Y-67090338D01*
X164083999Y-67090341D01*
X164084002Y-67090344D01*
X164097236Y-67098507D01*
X164104146Y-67102769D01*
X164151625Y-67155555D01*
X164164000Y-67210010D01*
X164164000Y-68682750D01*
X164143998Y-68750871D01*
X164104150Y-68789989D01*
X164086349Y-68800969D01*
X164086341Y-68800975D01*
X163960975Y-68926341D01*
X163960970Y-68926347D01*
X163937241Y-68964819D01*
X163884455Y-69012297D01*
X163814380Y-69023700D01*
X163749264Y-68995407D01*
X163722759Y-68964819D01*
X163699030Y-68926348D01*
X163699029Y-68926347D01*
X163699024Y-68926341D01*
X163573658Y-68800975D01*
X163573652Y-68800970D01*
X163564346Y-68795230D01*
X163422738Y-68707885D01*
X163336008Y-68679146D01*
X163254427Y-68652113D01*
X163254420Y-68652112D01*
X163150553Y-68641500D01*
X162524455Y-68641500D01*
X162420574Y-68652112D01*
X162252261Y-68707885D01*
X162101347Y-68800970D01*
X162101341Y-68800975D01*
X162014095Y-68888222D01*
X161951783Y-68922248D01*
X161880968Y-68917183D01*
X161835905Y-68888222D01*
X161748658Y-68800975D01*
X161748654Y-68800972D01*
X161748652Y-68800970D01*
X161741423Y-68796511D01*
X161680853Y-68759150D01*
X161633375Y-68706364D01*
X161621000Y-68651910D01*
X161621000Y-67210010D01*
X161641002Y-67141889D01*
X161680854Y-67102769D01*
X161683380Y-67101210D01*
X161700998Y-67090344D01*
X161825344Y-66965998D01*
X161825350Y-66965987D01*
X161826475Y-66964566D01*
X161827510Y-66963832D01*
X161830534Y-66960809D01*
X161831050Y-66961325D01*
X161884412Y-66923531D01*
X161955336Y-66920333D01*
X162016731Y-66955987D01*
X162024153Y-66964551D01*
X162025052Y-66965688D01*
X162149307Y-67089943D01*
X162149313Y-67089948D01*
X162298887Y-67182206D01*
X162465691Y-67237480D01*
X162465703Y-67237482D01*
X162568644Y-67247999D01*
X162608499Y-67247999D01*
X162608500Y-67247998D01*
X162608500Y-65912000D01*
X162628502Y-65843879D01*
X162682158Y-65797386D01*
X162734500Y-65786000D01*
X162990500Y-65786000D01*
X163058621Y-65806002D01*
G37*
%TD.AperFunction*%
%TD*%
M02*
