%TF.GenerationSoftware,KiCad,Pcbnew,7.0.10*%
%TF.CreationDate,2024-01-18T02:20:14-05:00*%
%TF.ProjectId,Dattalogger_Board,44617474-616c-46f6-9767-65725f426f61,1*%
%TF.SameCoordinates,Original*%
%TF.FileFunction,Legend,Bot*%
%TF.FilePolarity,Positive*%
%FSLAX46Y46*%
G04 Gerber Fmt 4.6, Leading zero omitted, Abs format (unit mm)*
G04 Created by KiCad (PCBNEW 7.0.10) date 2024-01-18 02:20:14*
%MOMM*%
%LPD*%
G01*
G04 APERTURE LIST*
%ADD10C,0.150000*%
%ADD11C,0.100000*%
G04 APERTURE END LIST*
D10*
X151332982Y-71441177D02*
X151332982Y-70041177D01*
X151332982Y-70041177D02*
X150866316Y-71041177D01*
X150866316Y-71041177D02*
X150399649Y-70041177D01*
X150399649Y-70041177D02*
X150399649Y-71441177D01*
X148932982Y-71307844D02*
X148999649Y-71374511D01*
X148999649Y-71374511D02*
X149199649Y-71441177D01*
X149199649Y-71441177D02*
X149332982Y-71441177D01*
X149332982Y-71441177D02*
X149532982Y-71374511D01*
X149532982Y-71374511D02*
X149666316Y-71241177D01*
X149666316Y-71241177D02*
X149732982Y-71107844D01*
X149732982Y-71107844D02*
X149799649Y-70841177D01*
X149799649Y-70841177D02*
X149799649Y-70641177D01*
X149799649Y-70641177D02*
X149732982Y-70374511D01*
X149732982Y-70374511D02*
X149666316Y-70241177D01*
X149666316Y-70241177D02*
X149532982Y-70107844D01*
X149532982Y-70107844D02*
X149332982Y-70041177D01*
X149332982Y-70041177D02*
X149199649Y-70041177D01*
X149199649Y-70041177D02*
X148999649Y-70107844D01*
X148999649Y-70107844D02*
X148932982Y-70174511D01*
X148332982Y-70041177D02*
X148332982Y-71174511D01*
X148332982Y-71174511D02*
X148266316Y-71307844D01*
X148266316Y-71307844D02*
X148199649Y-71374511D01*
X148199649Y-71374511D02*
X148066316Y-71441177D01*
X148066316Y-71441177D02*
X147799649Y-71441177D01*
X147799649Y-71441177D02*
X147666316Y-71374511D01*
X147666316Y-71374511D02*
X147599649Y-71307844D01*
X147599649Y-71307844D02*
X147532982Y-71174511D01*
X147532982Y-71174511D02*
X147532982Y-70041177D01*
X145799648Y-71441177D02*
X145799648Y-70041177D01*
X145799648Y-70041177D02*
X145466315Y-70041177D01*
X145466315Y-70041177D02*
X145266315Y-70107844D01*
X145266315Y-70107844D02*
X145132982Y-70241177D01*
X145132982Y-70241177D02*
X145066315Y-70374511D01*
X145066315Y-70374511D02*
X144999648Y-70641177D01*
X144999648Y-70641177D02*
X144999648Y-70841177D01*
X144999648Y-70841177D02*
X145066315Y-71107844D01*
X145066315Y-71107844D02*
X145132982Y-71241177D01*
X145132982Y-71241177D02*
X145266315Y-71374511D01*
X145266315Y-71374511D02*
X145466315Y-71441177D01*
X145466315Y-71441177D02*
X145799648Y-71441177D01*
X143799648Y-71441177D02*
X143799648Y-70707844D01*
X143799648Y-70707844D02*
X143866315Y-70574511D01*
X143866315Y-70574511D02*
X143999648Y-70507844D01*
X143999648Y-70507844D02*
X144266315Y-70507844D01*
X144266315Y-70507844D02*
X144399648Y-70574511D01*
X143799648Y-71374511D02*
X143932982Y-71441177D01*
X143932982Y-71441177D02*
X144266315Y-71441177D01*
X144266315Y-71441177D02*
X144399648Y-71374511D01*
X144399648Y-71374511D02*
X144466315Y-71241177D01*
X144466315Y-71241177D02*
X144466315Y-71107844D01*
X144466315Y-71107844D02*
X144399648Y-70974511D01*
X144399648Y-70974511D02*
X144266315Y-70907844D01*
X144266315Y-70907844D02*
X143932982Y-70907844D01*
X143932982Y-70907844D02*
X143799648Y-70841177D01*
X143332981Y-70507844D02*
X142799648Y-70507844D01*
X143132981Y-70041177D02*
X143132981Y-71241177D01*
X143132981Y-71241177D02*
X143066315Y-71374511D01*
X143066315Y-71374511D02*
X142932981Y-71441177D01*
X142932981Y-71441177D02*
X142799648Y-71441177D01*
X141732981Y-71441177D02*
X141732981Y-70707844D01*
X141732981Y-70707844D02*
X141799648Y-70574511D01*
X141799648Y-70574511D02*
X141932981Y-70507844D01*
X141932981Y-70507844D02*
X142199648Y-70507844D01*
X142199648Y-70507844D02*
X142332981Y-70574511D01*
X141732981Y-71374511D02*
X141866315Y-71441177D01*
X141866315Y-71441177D02*
X142199648Y-71441177D01*
X142199648Y-71441177D02*
X142332981Y-71374511D01*
X142332981Y-71374511D02*
X142399648Y-71241177D01*
X142399648Y-71241177D02*
X142399648Y-71107844D01*
X142399648Y-71107844D02*
X142332981Y-70974511D01*
X142332981Y-70974511D02*
X142199648Y-70907844D01*
X142199648Y-70907844D02*
X141866315Y-70907844D01*
X141866315Y-70907844D02*
X141732981Y-70841177D01*
X139332981Y-71441177D02*
X139999647Y-71441177D01*
X139999647Y-71441177D02*
X139999647Y-70041177D01*
X138666314Y-71441177D02*
X138799648Y-71374511D01*
X138799648Y-71374511D02*
X138866314Y-71307844D01*
X138866314Y-71307844D02*
X138932981Y-71174511D01*
X138932981Y-71174511D02*
X138932981Y-70774511D01*
X138932981Y-70774511D02*
X138866314Y-70641177D01*
X138866314Y-70641177D02*
X138799648Y-70574511D01*
X138799648Y-70574511D02*
X138666314Y-70507844D01*
X138666314Y-70507844D02*
X138466314Y-70507844D01*
X138466314Y-70507844D02*
X138332981Y-70574511D01*
X138332981Y-70574511D02*
X138266314Y-70641177D01*
X138266314Y-70641177D02*
X138199648Y-70774511D01*
X138199648Y-70774511D02*
X138199648Y-71174511D01*
X138199648Y-71174511D02*
X138266314Y-71307844D01*
X138266314Y-71307844D02*
X138332981Y-71374511D01*
X138332981Y-71374511D02*
X138466314Y-71441177D01*
X138466314Y-71441177D02*
X138666314Y-71441177D01*
X136999647Y-70507844D02*
X136999647Y-71641177D01*
X136999647Y-71641177D02*
X137066314Y-71774511D01*
X137066314Y-71774511D02*
X137132981Y-71841177D01*
X137132981Y-71841177D02*
X137266314Y-71907844D01*
X137266314Y-71907844D02*
X137466314Y-71907844D01*
X137466314Y-71907844D02*
X137599647Y-71841177D01*
X136999647Y-71374511D02*
X137132981Y-71441177D01*
X137132981Y-71441177D02*
X137399647Y-71441177D01*
X137399647Y-71441177D02*
X137532981Y-71374511D01*
X137532981Y-71374511D02*
X137599647Y-71307844D01*
X137599647Y-71307844D02*
X137666314Y-71174511D01*
X137666314Y-71174511D02*
X137666314Y-70774511D01*
X137666314Y-70774511D02*
X137599647Y-70641177D01*
X137599647Y-70641177D02*
X137532981Y-70574511D01*
X137532981Y-70574511D02*
X137399647Y-70507844D01*
X137399647Y-70507844D02*
X137132981Y-70507844D01*
X137132981Y-70507844D02*
X136999647Y-70574511D01*
X135732980Y-70507844D02*
X135732980Y-71641177D01*
X135732980Y-71641177D02*
X135799647Y-71774511D01*
X135799647Y-71774511D02*
X135866314Y-71841177D01*
X135866314Y-71841177D02*
X135999647Y-71907844D01*
X135999647Y-71907844D02*
X136199647Y-71907844D01*
X136199647Y-71907844D02*
X136332980Y-71841177D01*
X135732980Y-71374511D02*
X135866314Y-71441177D01*
X135866314Y-71441177D02*
X136132980Y-71441177D01*
X136132980Y-71441177D02*
X136266314Y-71374511D01*
X136266314Y-71374511D02*
X136332980Y-71307844D01*
X136332980Y-71307844D02*
X136399647Y-71174511D01*
X136399647Y-71174511D02*
X136399647Y-70774511D01*
X136399647Y-70774511D02*
X136332980Y-70641177D01*
X136332980Y-70641177D02*
X136266314Y-70574511D01*
X136266314Y-70574511D02*
X136132980Y-70507844D01*
X136132980Y-70507844D02*
X135866314Y-70507844D01*
X135866314Y-70507844D02*
X135732980Y-70574511D01*
X134532980Y-71374511D02*
X134666313Y-71441177D01*
X134666313Y-71441177D02*
X134932980Y-71441177D01*
X134932980Y-71441177D02*
X135066313Y-71374511D01*
X135066313Y-71374511D02*
X135132980Y-71241177D01*
X135132980Y-71241177D02*
X135132980Y-70707844D01*
X135132980Y-70707844D02*
X135066313Y-70574511D01*
X135066313Y-70574511D02*
X134932980Y-70507844D01*
X134932980Y-70507844D02*
X134666313Y-70507844D01*
X134666313Y-70507844D02*
X134532980Y-70574511D01*
X134532980Y-70574511D02*
X134466313Y-70707844D01*
X134466313Y-70707844D02*
X134466313Y-70841177D01*
X134466313Y-70841177D02*
X135132980Y-70974511D01*
X133866313Y-71441177D02*
X133866313Y-70507844D01*
X133866313Y-70774511D02*
X133799647Y-70641177D01*
X133799647Y-70641177D02*
X133732980Y-70574511D01*
X133732980Y-70574511D02*
X133599647Y-70507844D01*
X133599647Y-70507844D02*
X133466313Y-70507844D01*
X150866316Y-72961844D02*
X151332982Y-72961844D01*
X151332982Y-73695177D02*
X151332982Y-72295177D01*
X151332982Y-72295177D02*
X150666316Y-72295177D01*
X149932982Y-73695177D02*
X150066316Y-73628511D01*
X150066316Y-73628511D02*
X150132982Y-73561844D01*
X150132982Y-73561844D02*
X150199649Y-73428511D01*
X150199649Y-73428511D02*
X150199649Y-73028511D01*
X150199649Y-73028511D02*
X150132982Y-72895177D01*
X150132982Y-72895177D02*
X150066316Y-72828511D01*
X150066316Y-72828511D02*
X149932982Y-72761844D01*
X149932982Y-72761844D02*
X149732982Y-72761844D01*
X149732982Y-72761844D02*
X149599649Y-72828511D01*
X149599649Y-72828511D02*
X149532982Y-72895177D01*
X149532982Y-72895177D02*
X149466316Y-73028511D01*
X149466316Y-73028511D02*
X149466316Y-73428511D01*
X149466316Y-73428511D02*
X149532982Y-73561844D01*
X149532982Y-73561844D02*
X149599649Y-73628511D01*
X149599649Y-73628511D02*
X149732982Y-73695177D01*
X149732982Y-73695177D02*
X149932982Y-73695177D01*
X148866315Y-73695177D02*
X148866315Y-72761844D01*
X148866315Y-73028511D02*
X148799649Y-72895177D01*
X148799649Y-72895177D02*
X148732982Y-72828511D01*
X148732982Y-72828511D02*
X148599649Y-72761844D01*
X148599649Y-72761844D02*
X148466315Y-72761844D01*
X146999648Y-73295177D02*
X146332981Y-73295177D01*
X147132981Y-73695177D02*
X146666315Y-72295177D01*
X146666315Y-72295177D02*
X146199648Y-73695177D01*
X145932981Y-72761844D02*
X145399648Y-72761844D01*
X145732981Y-72295177D02*
X145732981Y-73495177D01*
X145732981Y-73495177D02*
X145666315Y-73628511D01*
X145666315Y-73628511D02*
X145532981Y-73695177D01*
X145532981Y-73695177D02*
X145399648Y-73695177D01*
X144932981Y-73695177D02*
X144932981Y-72295177D01*
X144932981Y-72295177D02*
X144466315Y-73295177D01*
X144466315Y-73295177D02*
X143999648Y-72295177D01*
X143999648Y-72295177D02*
X143999648Y-73695177D01*
X142799648Y-73628511D02*
X142932981Y-73695177D01*
X142932981Y-73695177D02*
X143199648Y-73695177D01*
X143199648Y-73695177D02*
X143332981Y-73628511D01*
X143332981Y-73628511D02*
X143399648Y-73495177D01*
X143399648Y-73495177D02*
X143399648Y-72961844D01*
X143399648Y-72961844D02*
X143332981Y-72828511D01*
X143332981Y-72828511D02*
X143199648Y-72761844D01*
X143199648Y-72761844D02*
X142932981Y-72761844D01*
X142932981Y-72761844D02*
X142799648Y-72828511D01*
X142799648Y-72828511D02*
X142732981Y-72961844D01*
X142732981Y-72961844D02*
X142732981Y-73095177D01*
X142732981Y-73095177D02*
X143399648Y-73228511D01*
X141532981Y-72761844D02*
X141532981Y-73895177D01*
X141532981Y-73895177D02*
X141599648Y-74028511D01*
X141599648Y-74028511D02*
X141666315Y-74095177D01*
X141666315Y-74095177D02*
X141799648Y-74161844D01*
X141799648Y-74161844D02*
X141999648Y-74161844D01*
X141999648Y-74161844D02*
X142132981Y-74095177D01*
X141532981Y-73628511D02*
X141666315Y-73695177D01*
X141666315Y-73695177D02*
X141932981Y-73695177D01*
X141932981Y-73695177D02*
X142066315Y-73628511D01*
X142066315Y-73628511D02*
X142132981Y-73561844D01*
X142132981Y-73561844D02*
X142199648Y-73428511D01*
X142199648Y-73428511D02*
X142199648Y-73028511D01*
X142199648Y-73028511D02*
X142132981Y-72895177D01*
X142132981Y-72895177D02*
X142066315Y-72828511D01*
X142066315Y-72828511D02*
X141932981Y-72761844D01*
X141932981Y-72761844D02*
X141666315Y-72761844D01*
X141666315Y-72761844D02*
X141532981Y-72828511D01*
X140266314Y-73695177D02*
X140266314Y-72961844D01*
X140266314Y-72961844D02*
X140332981Y-72828511D01*
X140332981Y-72828511D02*
X140466314Y-72761844D01*
X140466314Y-72761844D02*
X140732981Y-72761844D01*
X140732981Y-72761844D02*
X140866314Y-72828511D01*
X140266314Y-73628511D02*
X140399648Y-73695177D01*
X140399648Y-73695177D02*
X140732981Y-73695177D01*
X140732981Y-73695177D02*
X140866314Y-73628511D01*
X140866314Y-73628511D02*
X140932981Y-73495177D01*
X140932981Y-73495177D02*
X140932981Y-73361844D01*
X140932981Y-73361844D02*
X140866314Y-73228511D01*
X140866314Y-73228511D02*
X140732981Y-73161844D01*
X140732981Y-73161844D02*
X140399648Y-73161844D01*
X140399648Y-73161844D02*
X140266314Y-73095177D01*
X138666314Y-72295177D02*
X137799647Y-72295177D01*
X137799647Y-72295177D02*
X138266314Y-72828511D01*
X138266314Y-72828511D02*
X138066314Y-72828511D01*
X138066314Y-72828511D02*
X137932980Y-72895177D01*
X137932980Y-72895177D02*
X137866314Y-72961844D01*
X137866314Y-72961844D02*
X137799647Y-73095177D01*
X137799647Y-73095177D02*
X137799647Y-73428511D01*
X137799647Y-73428511D02*
X137866314Y-73561844D01*
X137866314Y-73561844D02*
X137932980Y-73628511D01*
X137932980Y-73628511D02*
X138066314Y-73695177D01*
X138066314Y-73695177D02*
X138466314Y-73695177D01*
X138466314Y-73695177D02*
X138599647Y-73628511D01*
X138599647Y-73628511D02*
X138666314Y-73561844D01*
X137266314Y-72428511D02*
X137199647Y-72361844D01*
X137199647Y-72361844D02*
X137066314Y-72295177D01*
X137066314Y-72295177D02*
X136732981Y-72295177D01*
X136732981Y-72295177D02*
X136599647Y-72361844D01*
X136599647Y-72361844D02*
X136532981Y-72428511D01*
X136532981Y-72428511D02*
X136466314Y-72561844D01*
X136466314Y-72561844D02*
X136466314Y-72695177D01*
X136466314Y-72695177D02*
X136532981Y-72895177D01*
X136532981Y-72895177D02*
X137332981Y-73695177D01*
X137332981Y-73695177D02*
X136466314Y-73695177D01*
X135666314Y-72895177D02*
X135799648Y-72828511D01*
X135799648Y-72828511D02*
X135866314Y-72761844D01*
X135866314Y-72761844D02*
X135932981Y-72628511D01*
X135932981Y-72628511D02*
X135932981Y-72561844D01*
X135932981Y-72561844D02*
X135866314Y-72428511D01*
X135866314Y-72428511D02*
X135799648Y-72361844D01*
X135799648Y-72361844D02*
X135666314Y-72295177D01*
X135666314Y-72295177D02*
X135399648Y-72295177D01*
X135399648Y-72295177D02*
X135266314Y-72361844D01*
X135266314Y-72361844D02*
X135199648Y-72428511D01*
X135199648Y-72428511D02*
X135132981Y-72561844D01*
X135132981Y-72561844D02*
X135132981Y-72628511D01*
X135132981Y-72628511D02*
X135199648Y-72761844D01*
X135199648Y-72761844D02*
X135266314Y-72828511D01*
X135266314Y-72828511D02*
X135399648Y-72895177D01*
X135399648Y-72895177D02*
X135666314Y-72895177D01*
X135666314Y-72895177D02*
X135799648Y-72961844D01*
X135799648Y-72961844D02*
X135866314Y-73028511D01*
X135866314Y-73028511D02*
X135932981Y-73161844D01*
X135932981Y-73161844D02*
X135932981Y-73428511D01*
X135932981Y-73428511D02*
X135866314Y-73561844D01*
X135866314Y-73561844D02*
X135799648Y-73628511D01*
X135799648Y-73628511D02*
X135666314Y-73695177D01*
X135666314Y-73695177D02*
X135399648Y-73695177D01*
X135399648Y-73695177D02*
X135266314Y-73628511D01*
X135266314Y-73628511D02*
X135199648Y-73561844D01*
X135199648Y-73561844D02*
X135132981Y-73428511D01*
X135132981Y-73428511D02*
X135132981Y-73161844D01*
X135132981Y-73161844D02*
X135199648Y-73028511D01*
X135199648Y-73028511D02*
X135266314Y-72961844D01*
X135266314Y-72961844D02*
X135399648Y-72895177D01*
X134532981Y-73695177D02*
X134532981Y-72295177D01*
X134532981Y-72295177D02*
X133999648Y-72295177D01*
X133999648Y-72295177D02*
X133866315Y-72361844D01*
X133866315Y-72361844D02*
X133799648Y-72428511D01*
X133799648Y-72428511D02*
X133732981Y-72561844D01*
X133732981Y-72561844D02*
X133732981Y-72761844D01*
X133732981Y-72761844D02*
X133799648Y-72895177D01*
X133799648Y-72895177D02*
X133866315Y-72961844D01*
X133866315Y-72961844D02*
X133999648Y-73028511D01*
X133999648Y-73028511D02*
X134532981Y-73028511D01*
X151332982Y-77669844D02*
X150266316Y-77669844D01*
X148599649Y-76936511D02*
X148532982Y-76869844D01*
X148532982Y-76869844D02*
X148399649Y-76803177D01*
X148399649Y-76803177D02*
X148066316Y-76803177D01*
X148066316Y-76803177D02*
X147932982Y-76869844D01*
X147932982Y-76869844D02*
X147866316Y-76936511D01*
X147866316Y-76936511D02*
X147799649Y-77069844D01*
X147799649Y-77069844D02*
X147799649Y-77203177D01*
X147799649Y-77203177D02*
X147866316Y-77403177D01*
X147866316Y-77403177D02*
X148666316Y-78203177D01*
X148666316Y-78203177D02*
X147799649Y-78203177D01*
X147199649Y-78203177D02*
X147199649Y-76803177D01*
X147199649Y-76803177D02*
X146732983Y-77803177D01*
X146732983Y-77803177D02*
X146266316Y-76803177D01*
X146266316Y-76803177D02*
X146266316Y-78203177D01*
X145599649Y-78203177D02*
X145599649Y-76803177D01*
X145599649Y-77336511D02*
X145466316Y-77269844D01*
X145466316Y-77269844D02*
X145199649Y-77269844D01*
X145199649Y-77269844D02*
X145066316Y-77336511D01*
X145066316Y-77336511D02*
X144999649Y-77403177D01*
X144999649Y-77403177D02*
X144932983Y-77536511D01*
X144932983Y-77536511D02*
X144932983Y-77936511D01*
X144932983Y-77936511D02*
X144999649Y-78069844D01*
X144999649Y-78069844D02*
X145066316Y-78136511D01*
X145066316Y-78136511D02*
X145199649Y-78203177D01*
X145199649Y-78203177D02*
X145466316Y-78203177D01*
X145466316Y-78203177D02*
X145599649Y-78136511D01*
X144332982Y-78203177D02*
X144332982Y-77269844D01*
X144332982Y-76803177D02*
X144399649Y-76869844D01*
X144399649Y-76869844D02*
X144332982Y-76936511D01*
X144332982Y-76936511D02*
X144266316Y-76869844D01*
X144266316Y-76869844D02*
X144332982Y-76803177D01*
X144332982Y-76803177D02*
X144332982Y-76936511D01*
X143866315Y-77269844D02*
X143332982Y-77269844D01*
X143666315Y-76803177D02*
X143666315Y-78003177D01*
X143666315Y-78003177D02*
X143599649Y-78136511D01*
X143599649Y-78136511D02*
X143466315Y-78203177D01*
X143466315Y-78203177D02*
X143332982Y-78203177D01*
X141799648Y-77469844D02*
X141332982Y-77469844D01*
X141132982Y-78203177D02*
X141799648Y-78203177D01*
X141799648Y-78203177D02*
X141799648Y-76803177D01*
X141799648Y-76803177D02*
X141132982Y-76803177D01*
X140532981Y-77469844D02*
X140066315Y-77469844D01*
X139866315Y-78203177D02*
X140532981Y-78203177D01*
X140532981Y-78203177D02*
X140532981Y-76803177D01*
X140532981Y-76803177D02*
X139866315Y-76803177D01*
X139266314Y-78203177D02*
X139266314Y-76803177D01*
X139266314Y-76803177D02*
X138732981Y-76803177D01*
X138732981Y-76803177D02*
X138599648Y-76869844D01*
X138599648Y-76869844D02*
X138532981Y-76936511D01*
X138532981Y-76936511D02*
X138466314Y-77069844D01*
X138466314Y-77069844D02*
X138466314Y-77269844D01*
X138466314Y-77269844D02*
X138532981Y-77403177D01*
X138532981Y-77403177D02*
X138599648Y-77469844D01*
X138599648Y-77469844D02*
X138732981Y-77536511D01*
X138732981Y-77536511D02*
X139266314Y-77536511D01*
X137066314Y-78203177D02*
X137532981Y-77536511D01*
X137866314Y-78203177D02*
X137866314Y-76803177D01*
X137866314Y-76803177D02*
X137332981Y-76803177D01*
X137332981Y-76803177D02*
X137199648Y-76869844D01*
X137199648Y-76869844D02*
X137132981Y-76936511D01*
X137132981Y-76936511D02*
X137066314Y-77069844D01*
X137066314Y-77069844D02*
X137066314Y-77269844D01*
X137066314Y-77269844D02*
X137132981Y-77403177D01*
X137132981Y-77403177D02*
X137199648Y-77469844D01*
X137199648Y-77469844D02*
X137332981Y-77536511D01*
X137332981Y-77536511D02*
X137866314Y-77536511D01*
X136199648Y-76803177D02*
X135932981Y-76803177D01*
X135932981Y-76803177D02*
X135799648Y-76869844D01*
X135799648Y-76869844D02*
X135666314Y-77003177D01*
X135666314Y-77003177D02*
X135599648Y-77269844D01*
X135599648Y-77269844D02*
X135599648Y-77736511D01*
X135599648Y-77736511D02*
X135666314Y-78003177D01*
X135666314Y-78003177D02*
X135799648Y-78136511D01*
X135799648Y-78136511D02*
X135932981Y-78203177D01*
X135932981Y-78203177D02*
X136199648Y-78203177D01*
X136199648Y-78203177D02*
X136332981Y-78136511D01*
X136332981Y-78136511D02*
X136466314Y-78003177D01*
X136466314Y-78003177D02*
X136532981Y-77736511D01*
X136532981Y-77736511D02*
X136532981Y-77269844D01*
X136532981Y-77269844D02*
X136466314Y-77003177D01*
X136466314Y-77003177D02*
X136332981Y-76869844D01*
X136332981Y-76869844D02*
X136199648Y-76803177D01*
X134999647Y-78203177D02*
X134999647Y-76803177D01*
X134999647Y-76803177D02*
X134532981Y-77803177D01*
X134532981Y-77803177D02*
X134066314Y-76803177D01*
X134066314Y-76803177D02*
X134066314Y-78203177D01*
X151332982Y-79923844D02*
X150266316Y-79923844D01*
X147732982Y-80457177D02*
X148199649Y-79790511D01*
X148532982Y-80457177D02*
X148532982Y-79057177D01*
X148532982Y-79057177D02*
X147999649Y-79057177D01*
X147999649Y-79057177D02*
X147866316Y-79123844D01*
X147866316Y-79123844D02*
X147799649Y-79190511D01*
X147799649Y-79190511D02*
X147732982Y-79323844D01*
X147732982Y-79323844D02*
X147732982Y-79523844D01*
X147732982Y-79523844D02*
X147799649Y-79657177D01*
X147799649Y-79657177D02*
X147866316Y-79723844D01*
X147866316Y-79723844D02*
X147999649Y-79790511D01*
X147999649Y-79790511D02*
X148532982Y-79790511D01*
X147332982Y-79057177D02*
X146532982Y-79057177D01*
X146932982Y-80457177D02*
X146932982Y-79057177D01*
X145266315Y-80323844D02*
X145332982Y-80390511D01*
X145332982Y-80390511D02*
X145532982Y-80457177D01*
X145532982Y-80457177D02*
X145666315Y-80457177D01*
X145666315Y-80457177D02*
X145866315Y-80390511D01*
X145866315Y-80390511D02*
X145999649Y-80257177D01*
X145999649Y-80257177D02*
X146066315Y-80123844D01*
X146066315Y-80123844D02*
X146132982Y-79857177D01*
X146132982Y-79857177D02*
X146132982Y-79657177D01*
X146132982Y-79657177D02*
X146066315Y-79390511D01*
X146066315Y-79390511D02*
X145999649Y-79257177D01*
X145999649Y-79257177D02*
X145866315Y-79123844D01*
X145866315Y-79123844D02*
X145666315Y-79057177D01*
X145666315Y-79057177D02*
X145532982Y-79057177D01*
X145532982Y-79057177D02*
X145332982Y-79123844D01*
X145332982Y-79123844D02*
X145266315Y-79190511D01*
X151332982Y-82177844D02*
X150266316Y-82177844D01*
X148532982Y-82711177D02*
X148532982Y-81311177D01*
X147932982Y-81444511D02*
X147866315Y-81377844D01*
X147866315Y-81377844D02*
X147732982Y-81311177D01*
X147732982Y-81311177D02*
X147399649Y-81311177D01*
X147399649Y-81311177D02*
X147266315Y-81377844D01*
X147266315Y-81377844D02*
X147199649Y-81444511D01*
X147199649Y-81444511D02*
X147132982Y-81577844D01*
X147132982Y-81577844D02*
X147132982Y-81711177D01*
X147132982Y-81711177D02*
X147199649Y-81911177D01*
X147199649Y-81911177D02*
X147999649Y-82711177D01*
X147999649Y-82711177D02*
X147132982Y-82711177D01*
X145732982Y-82577844D02*
X145799649Y-82644511D01*
X145799649Y-82644511D02*
X145999649Y-82711177D01*
X145999649Y-82711177D02*
X146132982Y-82711177D01*
X146132982Y-82711177D02*
X146332982Y-82644511D01*
X146332982Y-82644511D02*
X146466316Y-82511177D01*
X146466316Y-82511177D02*
X146532982Y-82377844D01*
X146532982Y-82377844D02*
X146599649Y-82111177D01*
X146599649Y-82111177D02*
X146599649Y-81911177D01*
X146599649Y-81911177D02*
X146532982Y-81644511D01*
X146532982Y-81644511D02*
X146466316Y-81511177D01*
X146466316Y-81511177D02*
X146332982Y-81377844D01*
X146332982Y-81377844D02*
X146132982Y-81311177D01*
X146132982Y-81311177D02*
X145999649Y-81311177D01*
X145999649Y-81311177D02*
X145799649Y-81377844D01*
X145799649Y-81377844D02*
X145732982Y-81444511D01*
X145066316Y-82644511D02*
X145066316Y-82711177D01*
X145066316Y-82711177D02*
X145132982Y-82844511D01*
X145132982Y-82844511D02*
X145199649Y-82911177D01*
X143466315Y-82644511D02*
X143266315Y-82711177D01*
X143266315Y-82711177D02*
X142932982Y-82711177D01*
X142932982Y-82711177D02*
X142799648Y-82644511D01*
X142799648Y-82644511D02*
X142732982Y-82577844D01*
X142732982Y-82577844D02*
X142666315Y-82444511D01*
X142666315Y-82444511D02*
X142666315Y-82311177D01*
X142666315Y-82311177D02*
X142732982Y-82177844D01*
X142732982Y-82177844D02*
X142799648Y-82111177D01*
X142799648Y-82111177D02*
X142932982Y-82044511D01*
X142932982Y-82044511D02*
X143199648Y-81977844D01*
X143199648Y-81977844D02*
X143332982Y-81911177D01*
X143332982Y-81911177D02*
X143399648Y-81844511D01*
X143399648Y-81844511D02*
X143466315Y-81711177D01*
X143466315Y-81711177D02*
X143466315Y-81577844D01*
X143466315Y-81577844D02*
X143399648Y-81444511D01*
X143399648Y-81444511D02*
X143332982Y-81377844D01*
X143332982Y-81377844D02*
X143199648Y-81311177D01*
X143199648Y-81311177D02*
X142866315Y-81311177D01*
X142866315Y-81311177D02*
X142666315Y-81377844D01*
X142066315Y-82711177D02*
X142066315Y-81311177D01*
X142066315Y-81311177D02*
X141532982Y-81311177D01*
X141532982Y-81311177D02*
X141399649Y-81377844D01*
X141399649Y-81377844D02*
X141332982Y-81444511D01*
X141332982Y-81444511D02*
X141266315Y-81577844D01*
X141266315Y-81577844D02*
X141266315Y-81777844D01*
X141266315Y-81777844D02*
X141332982Y-81911177D01*
X141332982Y-81911177D02*
X141399649Y-81977844D01*
X141399649Y-81977844D02*
X141532982Y-82044511D01*
X141532982Y-82044511D02*
X142066315Y-82044511D01*
X140666315Y-82711177D02*
X140666315Y-81311177D01*
X139932982Y-82644511D02*
X139932982Y-82711177D01*
X139932982Y-82711177D02*
X139999648Y-82844511D01*
X139999648Y-82844511D02*
X140066315Y-82911177D01*
X137532981Y-81377844D02*
X137666314Y-81311177D01*
X137666314Y-81311177D02*
X137866314Y-81311177D01*
X137866314Y-81311177D02*
X138066314Y-81377844D01*
X138066314Y-81377844D02*
X138199648Y-81511177D01*
X138199648Y-81511177D02*
X138266314Y-81644511D01*
X138266314Y-81644511D02*
X138332981Y-81911177D01*
X138332981Y-81911177D02*
X138332981Y-82111177D01*
X138332981Y-82111177D02*
X138266314Y-82377844D01*
X138266314Y-82377844D02*
X138199648Y-82511177D01*
X138199648Y-82511177D02*
X138066314Y-82644511D01*
X138066314Y-82644511D02*
X137866314Y-82711177D01*
X137866314Y-82711177D02*
X137732981Y-82711177D01*
X137732981Y-82711177D02*
X137532981Y-82644511D01*
X137532981Y-82644511D02*
X137466314Y-82577844D01*
X137466314Y-82577844D02*
X137466314Y-82111177D01*
X137466314Y-82111177D02*
X137732981Y-82111177D01*
X136866314Y-82711177D02*
X136866314Y-81311177D01*
X136866314Y-81311177D02*
X136332981Y-81311177D01*
X136332981Y-81311177D02*
X136199648Y-81377844D01*
X136199648Y-81377844D02*
X136132981Y-81444511D01*
X136132981Y-81444511D02*
X136066314Y-81577844D01*
X136066314Y-81577844D02*
X136066314Y-81777844D01*
X136066314Y-81777844D02*
X136132981Y-81911177D01*
X136132981Y-81911177D02*
X136199648Y-81977844D01*
X136199648Y-81977844D02*
X136332981Y-82044511D01*
X136332981Y-82044511D02*
X136866314Y-82044511D01*
X135466314Y-82711177D02*
X135466314Y-81311177D01*
X134532981Y-81311177D02*
X134266314Y-81311177D01*
X134266314Y-81311177D02*
X134132981Y-81377844D01*
X134132981Y-81377844D02*
X133999647Y-81511177D01*
X133999647Y-81511177D02*
X133932981Y-81777844D01*
X133932981Y-81777844D02*
X133932981Y-82244511D01*
X133932981Y-82244511D02*
X133999647Y-82511177D01*
X133999647Y-82511177D02*
X134132981Y-82644511D01*
X134132981Y-82644511D02*
X134266314Y-82711177D01*
X134266314Y-82711177D02*
X134532981Y-82711177D01*
X134532981Y-82711177D02*
X134666314Y-82644511D01*
X134666314Y-82644511D02*
X134799647Y-82511177D01*
X134799647Y-82511177D02*
X134866314Y-82244511D01*
X134866314Y-82244511D02*
X134866314Y-81777844D01*
X134866314Y-81777844D02*
X134799647Y-81511177D01*
X134799647Y-81511177D02*
X134666314Y-81377844D01*
X134666314Y-81377844D02*
X134532981Y-81311177D01*
X133399647Y-82644511D02*
X133266314Y-82711177D01*
X133266314Y-82711177D02*
X132999647Y-82711177D01*
X132999647Y-82711177D02*
X132866314Y-82644511D01*
X132866314Y-82644511D02*
X132799647Y-82511177D01*
X132799647Y-82511177D02*
X132799647Y-82444511D01*
X132799647Y-82444511D02*
X132866314Y-82311177D01*
X132866314Y-82311177D02*
X132999647Y-82244511D01*
X132999647Y-82244511D02*
X133199647Y-82244511D01*
X133199647Y-82244511D02*
X133332980Y-82177844D01*
X133332980Y-82177844D02*
X133399647Y-82044511D01*
X133399647Y-82044511D02*
X133399647Y-81977844D01*
X133399647Y-81977844D02*
X133332980Y-81844511D01*
X133332980Y-81844511D02*
X133199647Y-81777844D01*
X133199647Y-81777844D02*
X132999647Y-81777844D01*
X132999647Y-81777844D02*
X132866314Y-81844511D01*
D11*
G36*
X164551448Y-81892466D02*
G01*
X164572978Y-81898145D01*
X164592138Y-81903823D01*
X164611495Y-81910448D01*
X164629669Y-81918020D01*
X164638887Y-81922752D01*
X164656088Y-81934086D01*
X164670750Y-81947268D01*
X164681874Y-81960854D01*
X164691639Y-81979015D01*
X164698170Y-81997910D01*
X164702871Y-82017755D01*
X164704833Y-82028753D01*
X164707688Y-82050799D01*
X164709577Y-82073491D01*
X164710758Y-82095077D01*
X164711581Y-82119096D01*
X164711981Y-82140062D01*
X164712153Y-82162586D01*
X164712160Y-82168460D01*
X164712160Y-83356946D01*
X164712069Y-83379142D01*
X164711794Y-83399811D01*
X164711193Y-83423500D01*
X164710305Y-83444805D01*
X164708863Y-83467222D01*
X164706659Y-83489034D01*
X164706298Y-83491768D01*
X164702635Y-83511918D01*
X164697345Y-83531959D01*
X164690018Y-83550965D01*
X164685782Y-83559179D01*
X164674148Y-83575047D01*
X164659398Y-83589068D01*
X164643284Y-83600212D01*
X164624565Y-83609318D01*
X164606159Y-83616454D01*
X164584387Y-83623637D01*
X164563046Y-83629831D01*
X164551448Y-83632940D01*
X164551448Y-83700352D01*
X165124442Y-83700352D01*
X165124442Y-83632940D01*
X165101187Y-83626844D01*
X165080268Y-83620461D01*
X165061688Y-83613792D01*
X165042477Y-83605412D01*
X165024318Y-83595113D01*
X165015998Y-83588977D01*
X165002076Y-83575085D01*
X164990597Y-83558324D01*
X164981560Y-83538693D01*
X164975656Y-83519162D01*
X164974965Y-83516192D01*
X164971147Y-83495859D01*
X164968569Y-83475556D01*
X164966539Y-83452201D01*
X164965310Y-83431318D01*
X164964432Y-83408481D01*
X164963906Y-83383691D01*
X164963741Y-83363815D01*
X164963730Y-83356946D01*
X164963730Y-82830358D01*
X164963707Y-82804448D01*
X164963639Y-82778495D01*
X164963524Y-82752500D01*
X164963364Y-82726464D01*
X164963158Y-82700385D01*
X164962906Y-82674264D01*
X164962608Y-82648102D01*
X164962265Y-82621897D01*
X164961876Y-82595651D01*
X164961440Y-82569362D01*
X164960960Y-82543032D01*
X164960433Y-82516659D01*
X164959861Y-82490245D01*
X164959242Y-82463788D01*
X164958578Y-82437290D01*
X164957868Y-82410749D01*
X164957067Y-82384713D01*
X164956250Y-82359725D01*
X164955418Y-82335788D01*
X164954571Y-82312899D01*
X164953709Y-82291061D01*
X164952831Y-82270271D01*
X164951938Y-82250532D01*
X164950570Y-82222890D01*
X164949167Y-82197609D01*
X164947730Y-82174690D01*
X164946259Y-82154132D01*
X164944244Y-82130395D01*
X164943214Y-82120100D01*
X164966661Y-82120100D01*
X165510834Y-83481510D01*
X165668615Y-83481510D01*
X166174198Y-82098118D01*
X166197645Y-82098118D01*
X166195943Y-82121245D01*
X166194677Y-82141375D01*
X166193419Y-82163892D01*
X166192169Y-82188796D01*
X166190928Y-82216088D01*
X166189696Y-82245766D01*
X166188880Y-82266878D01*
X166188067Y-82289050D01*
X166187258Y-82312284D01*
X166186452Y-82336579D01*
X166185651Y-82361934D01*
X166184853Y-82388350D01*
X166184456Y-82401957D01*
X166183687Y-82429482D01*
X166182968Y-82457102D01*
X166182298Y-82484818D01*
X166181678Y-82512629D01*
X166181107Y-82540536D01*
X166180586Y-82568538D01*
X166180115Y-82596635D01*
X166179693Y-82624828D01*
X166179321Y-82653116D01*
X166178999Y-82681500D01*
X166178726Y-82709979D01*
X166178503Y-82738554D01*
X166178329Y-82767224D01*
X166178205Y-82795989D01*
X166178130Y-82824850D01*
X166178106Y-82853806D01*
X166178106Y-83356946D01*
X166178014Y-83379142D01*
X166177739Y-83399811D01*
X166177138Y-83423500D01*
X166176251Y-83444805D01*
X166174808Y-83467222D01*
X166172605Y-83489034D01*
X166172244Y-83491768D01*
X166168580Y-83511918D01*
X166163291Y-83531959D01*
X166155964Y-83550965D01*
X166151727Y-83559179D01*
X166140094Y-83575047D01*
X166125344Y-83589068D01*
X166109229Y-83600212D01*
X166090510Y-83609318D01*
X166072104Y-83616454D01*
X166050332Y-83623637D01*
X166028992Y-83629831D01*
X166017394Y-83632940D01*
X166017394Y-83700352D01*
X166519069Y-83700352D01*
X166519069Y-83632940D01*
X166498697Y-83627369D01*
X166475702Y-83620189D01*
X166455449Y-83612771D01*
X166434767Y-83603555D01*
X166415629Y-83592368D01*
X166405252Y-83584092D01*
X166391879Y-83569254D01*
X166381071Y-83551608D01*
X166372828Y-83531152D01*
X166367719Y-83510950D01*
X166367150Y-83507888D01*
X166364161Y-83487549D01*
X166362144Y-83467793D01*
X166360555Y-83445484D01*
X166359593Y-83425800D01*
X166358906Y-83404482D01*
X166358494Y-83381531D01*
X166358357Y-83356946D01*
X166358357Y-82167972D01*
X166358464Y-82145089D01*
X166358784Y-82123825D01*
X166359319Y-82104179D01*
X166360287Y-82081896D01*
X166361589Y-82062142D01*
X166363593Y-82041775D01*
X166365196Y-82030219D01*
X166369195Y-82009703D01*
X166375081Y-81989541D01*
X166383344Y-81970765D01*
X166388155Y-81962808D01*
X166400171Y-81947228D01*
X166414727Y-81934073D01*
X166430164Y-81924218D01*
X166449971Y-81914772D01*
X166471037Y-81906804D01*
X166489882Y-81900587D01*
X166511337Y-81894164D01*
X166519069Y-81891977D01*
X166519069Y-81824566D01*
X166028629Y-81824566D01*
X165546494Y-83161063D01*
X165015998Y-81824566D01*
X164551448Y-81824566D01*
X164551448Y-81892466D01*
G37*
G36*
X163664557Y-82356329D02*
G01*
X163687134Y-82357199D01*
X163709620Y-82358649D01*
X163732014Y-82360679D01*
X163754316Y-82363290D01*
X163776527Y-82366480D01*
X163798646Y-82370251D01*
X163820674Y-82374601D01*
X163842656Y-82379463D01*
X163864637Y-82384768D01*
X163886619Y-82390515D01*
X163908601Y-82396705D01*
X163930583Y-82403338D01*
X163952565Y-82410413D01*
X163974547Y-82417932D01*
X163996529Y-82425892D01*
X164002067Y-82427944D01*
X164025079Y-82436874D01*
X164043240Y-82444333D01*
X164062174Y-82452444D01*
X164081880Y-82461208D01*
X164102359Y-82470625D01*
X164123611Y-82480694D01*
X164145636Y-82491416D01*
X164168434Y-82502791D01*
X164192004Y-82514818D01*
X164216347Y-82527497D01*
X164216347Y-82699933D01*
X164036096Y-82699933D01*
X164031879Y-82686469D01*
X164025081Y-82667075D01*
X164017717Y-82648642D01*
X164007016Y-82625561D01*
X163995307Y-82604190D01*
X163982591Y-82584528D01*
X163968868Y-82566576D01*
X163954137Y-82550334D01*
X163938399Y-82535802D01*
X163934267Y-82532436D01*
X163916918Y-82520040D01*
X163898256Y-82509355D01*
X163878282Y-82500379D01*
X163856994Y-82493113D01*
X163834394Y-82487556D01*
X163810481Y-82483709D01*
X163785256Y-82481572D01*
X163765475Y-82481091D01*
X163759346Y-82481128D01*
X163735605Y-82482021D01*
X163713100Y-82484105D01*
X163691832Y-82487380D01*
X163671801Y-82491845D01*
X163648500Y-82499100D01*
X163627131Y-82508216D01*
X163607694Y-82519193D01*
X163593413Y-82529398D01*
X163576958Y-82544064D01*
X163562053Y-82560854D01*
X163548698Y-82579766D01*
X163536894Y-82600801D01*
X163528567Y-82619157D01*
X163521232Y-82638872D01*
X163516256Y-82654692D01*
X163510383Y-82677414D01*
X163505380Y-82701998D01*
X163502198Y-82721659D01*
X163499506Y-82742367D01*
X163497304Y-82764123D01*
X163495591Y-82786926D01*
X163494367Y-82810777D01*
X163493633Y-82835676D01*
X163493388Y-82861622D01*
X163493388Y-82950037D01*
X163518016Y-82951289D01*
X163542256Y-82952724D01*
X163566109Y-82954342D01*
X163589574Y-82956144D01*
X163612652Y-82958128D01*
X163635343Y-82960296D01*
X163657646Y-82962647D01*
X163679562Y-82965181D01*
X163701091Y-82967898D01*
X163722232Y-82970798D01*
X163742986Y-82973882D01*
X163763353Y-82977148D01*
X163783332Y-82980598D01*
X163802924Y-82984231D01*
X163840946Y-82992047D01*
X163877418Y-83000596D01*
X163912341Y-83009877D01*
X163945715Y-83019891D01*
X163977539Y-83030638D01*
X164007813Y-83042117D01*
X164036539Y-83054329D01*
X164063714Y-83067274D01*
X164089341Y-83080952D01*
X164113357Y-83095301D01*
X164135823Y-83110383D01*
X164156740Y-83126198D01*
X164176108Y-83142745D01*
X164193926Y-83160025D01*
X164210195Y-83178038D01*
X164224915Y-83196784D01*
X164238085Y-83216262D01*
X164249705Y-83236473D01*
X164259777Y-83257417D01*
X164268298Y-83279094D01*
X164275271Y-83301503D01*
X164280694Y-83324645D01*
X164284567Y-83348520D01*
X164286891Y-83373127D01*
X164287666Y-83398467D01*
X164287002Y-83422892D01*
X164285010Y-83446583D01*
X164281690Y-83469542D01*
X164277041Y-83491768D01*
X164271065Y-83513261D01*
X164263761Y-83534022D01*
X164255128Y-83554050D01*
X164245168Y-83573345D01*
X164233963Y-83591625D01*
X164221598Y-83608852D01*
X164208073Y-83625025D01*
X164193388Y-83640146D01*
X164177543Y-83654212D01*
X164160538Y-83667226D01*
X164142372Y-83679186D01*
X164123046Y-83690093D01*
X164102644Y-83699825D01*
X164081495Y-83708259D01*
X164059597Y-83715395D01*
X164036951Y-83721234D01*
X164013557Y-83725776D01*
X163989415Y-83729020D01*
X163964525Y-83730966D01*
X163938887Y-83731615D01*
X163924162Y-83731416D01*
X163902268Y-83730374D01*
X163880605Y-83728439D01*
X163859174Y-83725612D01*
X163837975Y-83721891D01*
X163817008Y-83717277D01*
X163796272Y-83711770D01*
X163775769Y-83705370D01*
X163755497Y-83698077D01*
X163735457Y-83689891D01*
X163715649Y-83680812D01*
X163695745Y-83670568D01*
X163675601Y-83659071D01*
X163655216Y-83646319D01*
X163634591Y-83632315D01*
X163613726Y-83617056D01*
X163592620Y-83600544D01*
X163571273Y-83582778D01*
X163549686Y-83563759D01*
X163535161Y-83550383D01*
X163520530Y-83536449D01*
X163505791Y-83521959D01*
X163490946Y-83506911D01*
X163470429Y-83512285D01*
X163477268Y-83700352D01*
X163100646Y-83700352D01*
X163100646Y-83632452D01*
X163108086Y-83630382D01*
X163128825Y-83624239D01*
X163150026Y-83617204D01*
X163170306Y-83609334D01*
X163188085Y-83600700D01*
X163199041Y-83593795D01*
X163215104Y-83580652D01*
X163228629Y-83564552D01*
X163229477Y-83563195D01*
X163238613Y-83544671D01*
X163244758Y-83526085D01*
X163249145Y-83506911D01*
X163251880Y-83490816D01*
X163254641Y-83469298D01*
X163256381Y-83449392D01*
X163257450Y-83428753D01*
X163257679Y-83417312D01*
X163257965Y-83396630D01*
X163258151Y-83376167D01*
X163258289Y-83352771D01*
X163258366Y-83331942D01*
X163258411Y-83309235D01*
X163258427Y-83284650D01*
X163258427Y-83067274D01*
X163493388Y-83067274D01*
X163493388Y-83268042D01*
X163494060Y-83285894D01*
X163496789Y-83308274D01*
X163501616Y-83330726D01*
X163508543Y-83353249D01*
X163517568Y-83375844D01*
X163526300Y-83393972D01*
X163536375Y-83412145D01*
X163547526Y-83429914D01*
X163559731Y-83446827D01*
X163572989Y-83462886D01*
X163587300Y-83478091D01*
X163602664Y-83492440D01*
X163619082Y-83505934D01*
X163636553Y-83518574D01*
X163655077Y-83530358D01*
X163674395Y-83540891D01*
X163694248Y-83550020D01*
X163714634Y-83557744D01*
X163735555Y-83564064D01*
X163757010Y-83568979D01*
X163779000Y-83572490D01*
X163801524Y-83574597D01*
X163824582Y-83575299D01*
X163836792Y-83575145D01*
X163856455Y-83574200D01*
X163878918Y-83571933D01*
X163900144Y-83568430D01*
X163920134Y-83563690D01*
X163938887Y-83557714D01*
X163956272Y-83549923D01*
X163975123Y-83538272D01*
X163992430Y-83523863D01*
X164006037Y-83509317D01*
X164018510Y-83492745D01*
X164020434Y-83489750D01*
X164030692Y-83470379D01*
X164038752Y-83448603D01*
X164043790Y-83428620D01*
X164047301Y-83406967D01*
X164049285Y-83383645D01*
X164049774Y-83363785D01*
X164049232Y-83345335D01*
X164046387Y-83318769D01*
X164041103Y-83293535D01*
X164033381Y-83269631D01*
X164023220Y-83247058D01*
X164010620Y-83225816D01*
X163995582Y-83205905D01*
X163978105Y-83187325D01*
X163958190Y-83170075D01*
X163935836Y-83154157D01*
X163911044Y-83139570D01*
X163893155Y-83130586D01*
X163874171Y-83122198D01*
X163854091Y-83114405D01*
X163832916Y-83107208D01*
X163810646Y-83100606D01*
X163787281Y-83094599D01*
X163762821Y-83089187D01*
X163737265Y-83084371D01*
X163710614Y-83080150D01*
X163682867Y-83076525D01*
X163654026Y-83073495D01*
X163624089Y-83071060D01*
X163593057Y-83069220D01*
X163560929Y-83067976D01*
X163527706Y-83067327D01*
X163493388Y-83067274D01*
X163258427Y-83067274D01*
X163258427Y-82803492D01*
X163258467Y-82792284D01*
X163258792Y-82770402D01*
X163259440Y-82749229D01*
X163260414Y-82728766D01*
X163262482Y-82699402D01*
X163265279Y-82671636D01*
X163268807Y-82645467D01*
X163273065Y-82620894D01*
X163278052Y-82597919D01*
X163283769Y-82576542D01*
X163290216Y-82556761D01*
X163299948Y-82532871D01*
X163310855Y-82511125D01*
X163323059Y-82490830D01*
X163336562Y-82471986D01*
X163351361Y-82454591D01*
X163367458Y-82438646D01*
X163384853Y-82424152D01*
X163403545Y-82411108D01*
X163423535Y-82399514D01*
X163439482Y-82391745D01*
X163462200Y-82382574D01*
X163486582Y-82374762D01*
X163505961Y-82369795D01*
X163526276Y-82365592D01*
X163547526Y-82362153D01*
X163569713Y-82359478D01*
X163592835Y-82357567D01*
X163616894Y-82356421D01*
X163641888Y-82356039D01*
X163664557Y-82356329D01*
G37*
G36*
X162519348Y-81855830D02*
G01*
X162519348Y-82121566D01*
X162770918Y-82121566D01*
X162770918Y-81855830D01*
X162519348Y-81855830D01*
G37*
G36*
X162526187Y-83668600D02*
G01*
X162526343Y-83691996D01*
X162526813Y-83714800D01*
X162527595Y-83737013D01*
X162528690Y-83758634D01*
X162530098Y-83779664D01*
X162531819Y-83800102D01*
X162533854Y-83819948D01*
X162537491Y-83848609D01*
X162541833Y-83875939D01*
X162546880Y-83901938D01*
X162552630Y-83926606D01*
X162559084Y-83949943D01*
X162566242Y-83971950D01*
X162574177Y-83992985D01*
X162583141Y-84013412D01*
X162593136Y-84033228D01*
X162604161Y-84052435D01*
X162616217Y-84071032D01*
X162629303Y-84089020D01*
X162643419Y-84106398D01*
X162658566Y-84123166D01*
X162674744Y-84139325D01*
X162691951Y-84154874D01*
X162703995Y-84164901D01*
X162723088Y-84179486D01*
X162743546Y-84193564D01*
X162765369Y-84207135D01*
X162788557Y-84220200D01*
X162813110Y-84232757D01*
X162839029Y-84244809D01*
X162857067Y-84252562D01*
X162875712Y-84260089D01*
X162894963Y-84267392D01*
X162914821Y-84274469D01*
X162935286Y-84281321D01*
X162956357Y-84287948D01*
X162978036Y-84294350D01*
X163024931Y-84169298D01*
X163004315Y-84161528D01*
X162984966Y-84153849D01*
X162966885Y-84146263D01*
X162946064Y-84136908D01*
X162927224Y-84127696D01*
X162907228Y-84116831D01*
X162895482Y-84109703D01*
X162879196Y-84098700D01*
X162861628Y-84084909D01*
X162845603Y-84070089D01*
X162831120Y-84054241D01*
X162821720Y-84042291D01*
X162809766Y-84024123D01*
X162800561Y-84006503D01*
X162792318Y-83986994D01*
X162785036Y-83965596D01*
X162779703Y-83946321D01*
X162777757Y-83938244D01*
X162773394Y-83916894D01*
X162769771Y-83893756D01*
X162767405Y-83873957D01*
X162765512Y-83853013D01*
X162764093Y-83830924D01*
X162763146Y-83807691D01*
X162762673Y-83783312D01*
X162762614Y-83770693D01*
X162762614Y-82759040D01*
X162762682Y-82733470D01*
X162762888Y-82709764D01*
X162763232Y-82687919D01*
X162763713Y-82667937D01*
X162764507Y-82645578D01*
X162765744Y-82622589D01*
X162767010Y-82606632D01*
X162769575Y-82584681D01*
X162773360Y-82565233D01*
X162779079Y-82546347D01*
X162784596Y-82533848D01*
X162795788Y-82516647D01*
X162810560Y-82501985D01*
X162827094Y-82490861D01*
X162847015Y-82481673D01*
X162867638Y-82474741D01*
X162888887Y-82468948D01*
X162909114Y-82464225D01*
X162931630Y-82459598D01*
X162931630Y-82387302D01*
X162610206Y-82387302D01*
X162526187Y-82387302D01*
X162526187Y-83668600D01*
G37*
G36*
X161570243Y-82356377D02*
G01*
X161591927Y-82357390D01*
X161613291Y-82359079D01*
X161634334Y-82361443D01*
X161655056Y-82364482D01*
X161675458Y-82368198D01*
X161695540Y-82372588D01*
X161715300Y-82377654D01*
X161734741Y-82383396D01*
X161753860Y-82389813D01*
X161772659Y-82396906D01*
X161791138Y-82404674D01*
X161809296Y-82413117D01*
X161827133Y-82422236D01*
X161844650Y-82432031D01*
X161861846Y-82442501D01*
X161878577Y-82453532D01*
X161894819Y-82465131D01*
X161910573Y-82477300D01*
X161925838Y-82490037D01*
X161940614Y-82503342D01*
X161954903Y-82517216D01*
X161968702Y-82531659D01*
X161982014Y-82546670D01*
X161994836Y-82562250D01*
X162007171Y-82578399D01*
X162019016Y-82595116D01*
X162030374Y-82612402D01*
X162041242Y-82630257D01*
X162051623Y-82648680D01*
X162061515Y-82667672D01*
X162070918Y-82687232D01*
X162079791Y-82707209D01*
X162088091Y-82727570D01*
X162095819Y-82748318D01*
X162102975Y-82769450D01*
X162109558Y-82790969D01*
X162115569Y-82812872D01*
X162121007Y-82835161D01*
X162125873Y-82857836D01*
X162130166Y-82880896D01*
X162133887Y-82904341D01*
X162137035Y-82928172D01*
X162139611Y-82952388D01*
X162141615Y-82976990D01*
X162143046Y-83001977D01*
X162143905Y-83027350D01*
X162144191Y-83053108D01*
X162144050Y-83073892D01*
X162143628Y-83094358D01*
X162142924Y-83114505D01*
X162141939Y-83134334D01*
X162139125Y-83173035D01*
X162135184Y-83210461D01*
X162130118Y-83246613D01*
X162123926Y-83281490D01*
X162116609Y-83315093D01*
X162108165Y-83347421D01*
X162098596Y-83378474D01*
X162087900Y-83408252D01*
X162076080Y-83436756D01*
X162063133Y-83463985D01*
X162049060Y-83489940D01*
X162033862Y-83514620D01*
X162017538Y-83538025D01*
X162000088Y-83560156D01*
X161981531Y-83580919D01*
X161961886Y-83600342D01*
X161941154Y-83618425D01*
X161919335Y-83635169D01*
X161896427Y-83650574D01*
X161872432Y-83664639D01*
X161847350Y-83677364D01*
X161821180Y-83688750D01*
X161793922Y-83698796D01*
X161765576Y-83707503D01*
X161736143Y-83714871D01*
X161705622Y-83720898D01*
X161674014Y-83725587D01*
X161641318Y-83728936D01*
X161607534Y-83730945D01*
X161572663Y-83731615D01*
X161546559Y-83731149D01*
X161521005Y-83729752D01*
X161496001Y-83727424D01*
X161471546Y-83724165D01*
X161447641Y-83719975D01*
X161424285Y-83714853D01*
X161401479Y-83708801D01*
X161379222Y-83701817D01*
X161357469Y-83694009D01*
X161336174Y-83685483D01*
X161315337Y-83676240D01*
X161294958Y-83666280D01*
X161275037Y-83655602D01*
X161255574Y-83644206D01*
X161236569Y-83632093D01*
X161218022Y-83619263D01*
X161204067Y-83609019D01*
X161185073Y-83594265D01*
X161165637Y-83578260D01*
X161150769Y-83565434D01*
X161135652Y-83551904D01*
X161120287Y-83537670D01*
X161104672Y-83522733D01*
X161088808Y-83507091D01*
X161072695Y-83490744D01*
X161056333Y-83473694D01*
X161140353Y-83379905D01*
X161145911Y-83386079D01*
X161162602Y-83403948D01*
X161179319Y-83420838D01*
X161196061Y-83436749D01*
X161212829Y-83451681D01*
X161229623Y-83465634D01*
X161246443Y-83478609D01*
X161263289Y-83490604D01*
X161280160Y-83501621D01*
X161297057Y-83511659D01*
X161319627Y-83523520D01*
X161325267Y-83526224D01*
X161348263Y-83536185D01*
X161371963Y-83544772D01*
X161396364Y-83551984D01*
X161421468Y-83557823D01*
X161440756Y-83561301D01*
X161460440Y-83564006D01*
X161480518Y-83565938D01*
X161500992Y-83567097D01*
X161521860Y-83567483D01*
X161538335Y-83567235D01*
X161562318Y-83565933D01*
X161585424Y-83563514D01*
X161607655Y-83559980D01*
X161629010Y-83555328D01*
X161649489Y-83549561D01*
X161669093Y-83542677D01*
X161687820Y-83534678D01*
X161705672Y-83525561D01*
X161722648Y-83515329D01*
X161738748Y-83503980D01*
X161758783Y-83487341D01*
X161777369Y-83469176D01*
X161790356Y-83454550D01*
X161802528Y-83439065D01*
X161813883Y-83422722D01*
X161824424Y-83405520D01*
X161834148Y-83387459D01*
X161843057Y-83368540D01*
X161851150Y-83348762D01*
X161858427Y-83328125D01*
X161862804Y-83313854D01*
X161868840Y-83291825D01*
X161874241Y-83269049D01*
X161879007Y-83245526D01*
X161883137Y-83221256D01*
X161886632Y-83196239D01*
X161889491Y-83170474D01*
X161891715Y-83143963D01*
X161893304Y-83116705D01*
X161894257Y-83088699D01*
X161894575Y-83059947D01*
X161894575Y-83036011D01*
X161028978Y-83036011D01*
X161029250Y-83024053D01*
X161029960Y-83000564D01*
X161030891Y-82977643D01*
X161032043Y-82955291D01*
X161033417Y-82933508D01*
X161034525Y-82918774D01*
X161286898Y-82918774D01*
X161887736Y-82918774D01*
X161886722Y-82904957D01*
X161884287Y-82877953D01*
X161881310Y-82851789D01*
X161877792Y-82826464D01*
X161873731Y-82801979D01*
X161869129Y-82778333D01*
X161863984Y-82755527D01*
X161858298Y-82733560D01*
X161852070Y-82712433D01*
X161845300Y-82692146D01*
X161837988Y-82672698D01*
X161830134Y-82654090D01*
X161817337Y-82627751D01*
X161803320Y-82603302D01*
X161788085Y-82580742D01*
X161777298Y-82566782D01*
X161760281Y-82547531D01*
X161742259Y-82530306D01*
X161723232Y-82515108D01*
X161703201Y-82501936D01*
X161682165Y-82490790D01*
X161660124Y-82481671D01*
X161637079Y-82474579D01*
X161613029Y-82469513D01*
X161587975Y-82466473D01*
X161561916Y-82465460D01*
X161550393Y-82465664D01*
X161528182Y-82467297D01*
X161507085Y-82470564D01*
X161487103Y-82475464D01*
X161468235Y-82481998D01*
X161450482Y-82490164D01*
X161429857Y-82502670D01*
X161410974Y-82517728D01*
X161396899Y-82531390D01*
X161383741Y-82546487D01*
X161371498Y-82563019D01*
X161360171Y-82580987D01*
X161349760Y-82600389D01*
X161340265Y-82621226D01*
X161331686Y-82643497D01*
X161324023Y-82667204D01*
X161320501Y-82679636D01*
X161315518Y-82699106D01*
X161310895Y-82719564D01*
X161306633Y-82741009D01*
X161302732Y-82763442D01*
X161299192Y-82786862D01*
X161296012Y-82811269D01*
X161293192Y-82836664D01*
X161290734Y-82863047D01*
X161288636Y-82890417D01*
X161286898Y-82918774D01*
X161034525Y-82918774D01*
X161035013Y-82912293D01*
X161036829Y-82891647D01*
X161038867Y-82871569D01*
X161041126Y-82852060D01*
X161044930Y-82823863D01*
X161049232Y-82796945D01*
X161054032Y-82771307D01*
X161059330Y-82746948D01*
X161065126Y-82723869D01*
X161069259Y-82709069D01*
X161075845Y-82687471D01*
X161082895Y-82666594D01*
X161090408Y-82646438D01*
X161098385Y-82627003D01*
X161106826Y-82608290D01*
X161115730Y-82590298D01*
X161128324Y-82567431D01*
X161141742Y-82545846D01*
X161155984Y-82525543D01*
X161163405Y-82515842D01*
X161179174Y-82497219D01*
X161196179Y-82479633D01*
X161214421Y-82463086D01*
X161233900Y-82447577D01*
X161254614Y-82433105D01*
X161276566Y-82419672D01*
X161293841Y-82410278D01*
X161311811Y-82401468D01*
X161324184Y-82395967D01*
X161343343Y-82388381D01*
X161363224Y-82381593D01*
X161383827Y-82375604D01*
X161405150Y-82370413D01*
X161427195Y-82366021D01*
X161449961Y-82362427D01*
X161473448Y-82359632D01*
X161497657Y-82357636D01*
X161522587Y-82356438D01*
X161548238Y-82356039D01*
X161570243Y-82356377D01*
G37*
G36*
X160038329Y-81803073D02*
G01*
X160021423Y-81806248D01*
X159998611Y-81811011D01*
X159978856Y-81815774D01*
X159959672Y-81821330D01*
X159941120Y-81828474D01*
X159928389Y-81835130D01*
X159911926Y-81847174D01*
X159898622Y-81861691D01*
X159896695Y-81864380D01*
X159887050Y-81881418D01*
X159879685Y-81900214D01*
X159874198Y-81919821D01*
X159873066Y-81924466D01*
X159869113Y-81944341D01*
X159866075Y-81966292D01*
X159864168Y-81987203D01*
X159862963Y-82009703D01*
X159862726Y-82016614D01*
X159862201Y-82036664D01*
X159861772Y-82060673D01*
X159861497Y-82082731D01*
X159861283Y-82107323D01*
X159861163Y-82127430D01*
X159861077Y-82148963D01*
X159861026Y-82171921D01*
X159861009Y-82196304D01*
X159861009Y-82417588D01*
X159870763Y-82413570D01*
X159890180Y-82405967D01*
X159909476Y-82398945D01*
X159928649Y-82392504D01*
X159947700Y-82386642D01*
X159966628Y-82381360D01*
X159990118Y-82375574D01*
X160013416Y-82370693D01*
X160032231Y-82367259D01*
X160051549Y-82364282D01*
X160071370Y-82361763D01*
X160091696Y-82359703D01*
X160112525Y-82358100D01*
X160133858Y-82356955D01*
X160155695Y-82356268D01*
X160178036Y-82356039D01*
X160188566Y-82356115D01*
X160209430Y-82356726D01*
X160230031Y-82357947D01*
X160250368Y-82359779D01*
X160270441Y-82362221D01*
X160290252Y-82365274D01*
X160309799Y-82368938D01*
X160329082Y-82373212D01*
X160348103Y-82378097D01*
X160376140Y-82386569D01*
X160403584Y-82396415D01*
X160430436Y-82407635D01*
X160456696Y-82420229D01*
X160482362Y-82434197D01*
X160499061Y-82444224D01*
X160523299Y-82460460D01*
X160546568Y-82478130D01*
X160561541Y-82490706D01*
X160576083Y-82503920D01*
X160590194Y-82517772D01*
X160603873Y-82532260D01*
X160617122Y-82547386D01*
X160629939Y-82563149D01*
X160642324Y-82579550D01*
X160654279Y-82596588D01*
X160665802Y-82614263D01*
X160676894Y-82632575D01*
X160687555Y-82651525D01*
X160697785Y-82671112D01*
X160707427Y-82691287D01*
X160716446Y-82712000D01*
X160724844Y-82733251D01*
X160732620Y-82755040D01*
X160739773Y-82777367D01*
X160746305Y-82800233D01*
X160752215Y-82823636D01*
X160757502Y-82847578D01*
X160762167Y-82872057D01*
X160766211Y-82897075D01*
X160769632Y-82922631D01*
X160772431Y-82948725D01*
X160774609Y-82975357D01*
X160776164Y-83002527D01*
X160777097Y-83030235D01*
X160777408Y-83058481D01*
X160777289Y-83078756D01*
X160776931Y-83098732D01*
X160775500Y-83137784D01*
X160773115Y-83175638D01*
X160769775Y-83212293D01*
X160765482Y-83247750D01*
X160760235Y-83282009D01*
X160754033Y-83315070D01*
X160746877Y-83346932D01*
X160738768Y-83377596D01*
X160729704Y-83407062D01*
X160719686Y-83435329D01*
X160708715Y-83462398D01*
X160696789Y-83488269D01*
X160683909Y-83512941D01*
X160670075Y-83536415D01*
X160655286Y-83558691D01*
X160639559Y-83579631D01*
X160623031Y-83599220D01*
X160605701Y-83617458D01*
X160587570Y-83634345D01*
X160568637Y-83649881D01*
X160548903Y-83664066D01*
X160528368Y-83676900D01*
X160507031Y-83688384D01*
X160484893Y-83698516D01*
X160461953Y-83707297D01*
X160438212Y-83714727D01*
X160413669Y-83720807D01*
X160388325Y-83725535D01*
X160362180Y-83728913D01*
X160335233Y-83730939D01*
X160307485Y-83731615D01*
X160302335Y-83731588D01*
X160281949Y-83730947D01*
X160261898Y-83729451D01*
X160242183Y-83727100D01*
X160222804Y-83723894D01*
X160199052Y-83718685D01*
X160175825Y-83712140D01*
X160153123Y-83704259D01*
X160139641Y-83698971D01*
X160117494Y-83689452D01*
X160095753Y-83679050D01*
X160074418Y-83667766D01*
X160053488Y-83655599D01*
X160032963Y-83642550D01*
X160016836Y-83631475D01*
X160012814Y-83628560D01*
X159996290Y-83616005D01*
X159979063Y-83602014D01*
X159961134Y-83586589D01*
X159942503Y-83569728D01*
X159928069Y-83556141D01*
X159913239Y-83541747D01*
X159898015Y-83526546D01*
X159882396Y-83510538D01*
X159866382Y-83493722D01*
X159845866Y-83498607D01*
X159862474Y-83700352D01*
X159779920Y-83700352D01*
X159455566Y-83700352D01*
X159455566Y-83628544D01*
X159460163Y-83627596D01*
X159481846Y-83622797D01*
X159501360Y-83617902D01*
X159521910Y-83611903D01*
X159541936Y-83604730D01*
X159559613Y-83596304D01*
X159576405Y-83584617D01*
X159591349Y-83569446D01*
X159602600Y-83551852D01*
X159608140Y-83538805D01*
X159613957Y-83519490D01*
X159617895Y-83499920D01*
X159620674Y-83478091D01*
X159620914Y-83475161D01*
X159622196Y-83455056D01*
X159623055Y-83434997D01*
X159623723Y-83411932D01*
X159624120Y-83391317D01*
X159624395Y-83368778D01*
X159624547Y-83344315D01*
X159624582Y-83324706D01*
X159624582Y-83199165D01*
X159861009Y-83199165D01*
X159861018Y-83203445D01*
X159861352Y-83224101D01*
X159862383Y-83247250D01*
X159864100Y-83268614D01*
X159866972Y-83291281D01*
X159870778Y-83311517D01*
X159875283Y-83329879D01*
X159881519Y-83349778D01*
X159888915Y-83368516D01*
X159898622Y-83388209D01*
X159903599Y-83396735D01*
X159915566Y-83414381D01*
X159928242Y-83430473D01*
X159942975Y-83447173D01*
X159957240Y-83461970D01*
X159969581Y-83473930D01*
X159984327Y-83487210D01*
X160001445Y-83501229D01*
X160018468Y-83513657D01*
X160035398Y-83524497D01*
X160054785Y-83534969D01*
X160074355Y-83543914D01*
X160094108Y-83551333D01*
X160114044Y-83557225D01*
X160129620Y-83560711D01*
X160149659Y-83563867D01*
X160171708Y-83566041D01*
X160192208Y-83567123D01*
X160214184Y-83567483D01*
X160233113Y-83566938D01*
X160260361Y-83564073D01*
X160286235Y-83558752D01*
X160310736Y-83550975D01*
X160333863Y-83540743D01*
X160355616Y-83528054D01*
X160375995Y-83512910D01*
X160395000Y-83495311D01*
X160412631Y-83475255D01*
X160428889Y-83452744D01*
X160443772Y-83427776D01*
X160452882Y-83409811D01*
X160461403Y-83390842D01*
X160469337Y-83370870D01*
X160476684Y-83349894D01*
X160483443Y-83327914D01*
X160489613Y-83304930D01*
X160495197Y-83280943D01*
X160500192Y-83255952D01*
X160504600Y-83229957D01*
X160508420Y-83202959D01*
X160511653Y-83174957D01*
X160514297Y-83145951D01*
X160516354Y-83115941D01*
X160517824Y-83084928D01*
X160518705Y-83052911D01*
X160518999Y-83019891D01*
X160518640Y-82986857D01*
X160517564Y-82954800D01*
X160515770Y-82923720D01*
X160513259Y-82893617D01*
X160510031Y-82864491D01*
X160506085Y-82836342D01*
X160501421Y-82809170D01*
X160496040Y-82782975D01*
X160489942Y-82757757D01*
X160483126Y-82733516D01*
X160475592Y-82710252D01*
X160467342Y-82687965D01*
X160458373Y-82666655D01*
X160448688Y-82646321D01*
X160438284Y-82626965D01*
X160427164Y-82608586D01*
X160421312Y-82599780D01*
X160409119Y-82583008D01*
X160396273Y-82567353D01*
X160382775Y-82552817D01*
X160361304Y-82533109D01*
X160338365Y-82515917D01*
X160313957Y-82501241D01*
X160288081Y-82489081D01*
X160260737Y-82479437D01*
X160241692Y-82474405D01*
X160221994Y-82470491D01*
X160201644Y-82467696D01*
X160180641Y-82466019D01*
X160158985Y-82465460D01*
X160154973Y-82465473D01*
X160131663Y-82466138D01*
X160109658Y-82467798D01*
X160088959Y-82470454D01*
X160069564Y-82474106D01*
X160048587Y-82479626D01*
X160037115Y-82483312D01*
X160017664Y-82491049D01*
X159999008Y-82500423D01*
X159981146Y-82511432D01*
X159964079Y-82524078D01*
X159954683Y-82531993D01*
X159939453Y-82546909D01*
X159925765Y-82563182D01*
X159913621Y-82580810D01*
X159903018Y-82599793D01*
X159898834Y-82608404D01*
X159891186Y-82626734D01*
X159884500Y-82646540D01*
X159878775Y-82667824D01*
X159874013Y-82690584D01*
X159870778Y-82710679D01*
X159868489Y-82727731D01*
X159866056Y-82750977D01*
X159864453Y-82771119D01*
X159863155Y-82792635D01*
X159862163Y-82815525D01*
X159861476Y-82839789D01*
X159861095Y-82865427D01*
X159861009Y-82885557D01*
X159861009Y-83199165D01*
X159624582Y-83199165D01*
X159624582Y-81730777D01*
X159705670Y-81730777D01*
X160038329Y-81730777D01*
X160038329Y-81803073D01*
G37*
G36*
X158589480Y-81891977D02*
G01*
X158577730Y-81895249D01*
X158556263Y-81901637D01*
X158537510Y-81907820D01*
X158516726Y-81915742D01*
X158499111Y-81924218D01*
X158486593Y-81931881D01*
X158470336Y-81945551D01*
X158457101Y-81961831D01*
X158452431Y-81969647D01*
X158444378Y-81988213D01*
X158438599Y-82008268D01*
X158434630Y-82028753D01*
X158433028Y-82040332D01*
X158431024Y-82060820D01*
X158429722Y-82080753D01*
X158428753Y-82103286D01*
X158428219Y-82123184D01*
X158427899Y-82144746D01*
X158427792Y-82167972D01*
X158427792Y-83356946D01*
X158427798Y-83362819D01*
X158427959Y-83385320D01*
X158428333Y-83406234D01*
X158429101Y-83430143D01*
X158430203Y-83451571D01*
X158431966Y-83474011D01*
X158434630Y-83495676D01*
X158436470Y-83506346D01*
X158440927Y-83525764D01*
X158447183Y-83544543D01*
X158456612Y-83563087D01*
X158467269Y-83576931D01*
X158481747Y-83590285D01*
X158499111Y-83601677D01*
X158508530Y-83606305D01*
X158527222Y-83613907D01*
X158547234Y-83620759D01*
X158567104Y-83626781D01*
X158589480Y-83632940D01*
X158589480Y-83700352D01*
X158092202Y-83700352D01*
X158063918Y-83700260D01*
X158036339Y-83699985D01*
X158009467Y-83699527D01*
X157983300Y-83698886D01*
X157957840Y-83698062D01*
X157933085Y-83697054D01*
X157909037Y-83695864D01*
X157885695Y-83694490D01*
X157863058Y-83692933D01*
X157841128Y-83691192D01*
X157819904Y-83689269D01*
X157799385Y-83687162D01*
X157779573Y-83684873D01*
X157751178Y-83681094D01*
X157724372Y-83676904D01*
X157707159Y-83673851D01*
X157681818Y-83668814D01*
X157657053Y-83663227D01*
X157632863Y-83657090D01*
X157609248Y-83650404D01*
X157586209Y-83643168D01*
X157563744Y-83635383D01*
X157541856Y-83627048D01*
X157520542Y-83618164D01*
X157499804Y-83608730D01*
X157479641Y-83598746D01*
X157463799Y-83590175D01*
X157440624Y-83576774D01*
X157418153Y-83562721D01*
X157396386Y-83548015D01*
X157375323Y-83532656D01*
X157354964Y-83516645D01*
X157335309Y-83499981D01*
X157316358Y-83482664D01*
X157298111Y-83464695D01*
X157280569Y-83446074D01*
X157263730Y-83426800D01*
X157251220Y-83411618D01*
X157239092Y-83395994D01*
X157227346Y-83379928D01*
X157215981Y-83363418D01*
X157204997Y-83346467D01*
X157194396Y-83329072D01*
X157184176Y-83311234D01*
X157174337Y-83292954D01*
X157164881Y-83274232D01*
X157155805Y-83255066D01*
X157147112Y-83235458D01*
X157138800Y-83215407D01*
X157130870Y-83194914D01*
X157123321Y-83173978D01*
X157116154Y-83152599D01*
X157109369Y-83130777D01*
X157102980Y-83108458D01*
X157097004Y-83085707D01*
X157091440Y-83062525D01*
X157086288Y-83038911D01*
X157081548Y-83014867D01*
X157077220Y-82990391D01*
X157073305Y-82965484D01*
X157069801Y-82940146D01*
X157066710Y-82914376D01*
X157064031Y-82888175D01*
X157061764Y-82861543D01*
X157059910Y-82834480D01*
X157058467Y-82806986D01*
X157057437Y-82779060D01*
X157056818Y-82750703D01*
X157056801Y-82748293D01*
X157336515Y-82748293D01*
X157336583Y-82765428D01*
X157336944Y-82790816D01*
X157337614Y-82815826D01*
X157338593Y-82840458D01*
X157339881Y-82864713D01*
X157341478Y-82888589D01*
X157343384Y-82912088D01*
X157345599Y-82935209D01*
X157348124Y-82957952D01*
X157350957Y-82980318D01*
X157354100Y-83002305D01*
X157355188Y-83009551D01*
X157358687Y-83031042D01*
X157362538Y-83052164D01*
X157366742Y-83072916D01*
X157371297Y-83093300D01*
X157376204Y-83113314D01*
X157381463Y-83132959D01*
X157387075Y-83152234D01*
X157393038Y-83171141D01*
X157399354Y-83189678D01*
X157408322Y-83213820D01*
X157417947Y-83237175D01*
X157428258Y-83259860D01*
X157439257Y-83281872D01*
X157450942Y-83303213D01*
X157463315Y-83323882D01*
X157476374Y-83343879D01*
X157490120Y-83363205D01*
X157504554Y-83381859D01*
X157519567Y-83399673D01*
X157535054Y-83416480D01*
X157551013Y-83432280D01*
X157567446Y-83447072D01*
X157584352Y-83460856D01*
X157601732Y-83473633D01*
X157619584Y-83485403D01*
X157637910Y-83496164D01*
X157656618Y-83506079D01*
X157675860Y-83515307D01*
X157695636Y-83523848D01*
X157715946Y-83531702D01*
X157736790Y-83538869D01*
X157758169Y-83545349D01*
X157780083Y-83551142D01*
X157802530Y-83556248D01*
X157808232Y-83557420D01*
X157831520Y-83561737D01*
X157855570Y-83565457D01*
X157880383Y-83568583D01*
X157905960Y-83571113D01*
X157925644Y-83572620D01*
X157945756Y-83573792D01*
X157966299Y-83574629D01*
X157987270Y-83575132D01*
X158008671Y-83575299D01*
X158034606Y-83575215D01*
X158058924Y-83574963D01*
X158081623Y-83574544D01*
X158102704Y-83573956D01*
X158126780Y-83572985D01*
X158148328Y-83571752D01*
X158170848Y-83569926D01*
X158170848Y-81954992D01*
X158149698Y-81953733D01*
X158128258Y-81952641D01*
X158106528Y-81951718D01*
X158084508Y-81950962D01*
X158062198Y-81950374D01*
X158039598Y-81949955D01*
X158016708Y-81949703D01*
X157993528Y-81949619D01*
X157968350Y-81949939D01*
X157943618Y-81950901D01*
X157919333Y-81952504D01*
X157895495Y-81954748D01*
X157872103Y-81957633D01*
X157849157Y-81961159D01*
X157826658Y-81965327D01*
X157804606Y-81970135D01*
X157783000Y-81975585D01*
X157761841Y-81981676D01*
X157741128Y-81988408D01*
X157720861Y-81995781D01*
X157701041Y-82003795D01*
X157681668Y-82012450D01*
X157662741Y-82021747D01*
X157644261Y-82031684D01*
X157626200Y-82042318D01*
X157608655Y-82053704D01*
X157591624Y-82065842D01*
X157575109Y-82078732D01*
X157559110Y-82092373D01*
X157543625Y-82106766D01*
X157528656Y-82121911D01*
X157514201Y-82137808D01*
X157500262Y-82154456D01*
X157486838Y-82171857D01*
X157473930Y-82190009D01*
X157461536Y-82208913D01*
X157449658Y-82228569D01*
X157438295Y-82248977D01*
X157427447Y-82270136D01*
X157417115Y-82292047D01*
X157407355Y-82314724D01*
X157398224Y-82338179D01*
X157389723Y-82362412D01*
X157381852Y-82387424D01*
X157374611Y-82413215D01*
X157367999Y-82439784D01*
X157362017Y-82467131D01*
X157356665Y-82495257D01*
X157351942Y-82524162D01*
X157347849Y-82553845D01*
X157344386Y-82584307D01*
X157341552Y-82615547D01*
X157339348Y-82647566D01*
X157337774Y-82680363D01*
X157336829Y-82713939D01*
X157336515Y-82748293D01*
X157056801Y-82748293D01*
X157056612Y-82721915D01*
X157056832Y-82693466D01*
X157057490Y-82665517D01*
X157058587Y-82638069D01*
X157060123Y-82611120D01*
X157062098Y-82584671D01*
X157064512Y-82558722D01*
X157067365Y-82533273D01*
X157070656Y-82508324D01*
X157074387Y-82483875D01*
X157078556Y-82459926D01*
X157083164Y-82436477D01*
X157088211Y-82413528D01*
X157093697Y-82391078D01*
X157099622Y-82369129D01*
X157105986Y-82347679D01*
X157112788Y-82326730D01*
X157120037Y-82306242D01*
X157127740Y-82286178D01*
X157135898Y-82266537D01*
X157144509Y-82247320D01*
X157153575Y-82228527D01*
X157163095Y-82210157D01*
X157173068Y-82192211D01*
X157183496Y-82174689D01*
X157194379Y-82157590D01*
X157205715Y-82140914D01*
X157217505Y-82124663D01*
X157229750Y-82108835D01*
X157242449Y-82093430D01*
X157255602Y-82078449D01*
X157269209Y-82063892D01*
X157283270Y-82049758D01*
X157297699Y-82036050D01*
X157312533Y-82022770D01*
X157327771Y-82009916D01*
X157343414Y-81997490D01*
X157359462Y-81985492D01*
X157375914Y-81973921D01*
X157392771Y-81962777D01*
X157410032Y-81952061D01*
X157427697Y-81941772D01*
X157445768Y-81931911D01*
X157464242Y-81922477D01*
X157483121Y-81913471D01*
X157502405Y-81904892D01*
X157522093Y-81896740D01*
X157542186Y-81889016D01*
X157562684Y-81881719D01*
X157583751Y-81874798D01*
X157605556Y-81868324D01*
X157628097Y-81862296D01*
X157651374Y-81856715D01*
X157675388Y-81851580D01*
X157700139Y-81846892D01*
X157725626Y-81842650D01*
X157751850Y-81838855D01*
X157778810Y-81835506D01*
X157806507Y-81832604D01*
X157834940Y-81830148D01*
X157864110Y-81828138D01*
X157894016Y-81826576D01*
X157924659Y-81825459D01*
X157956039Y-81824790D01*
X157988155Y-81824566D01*
X158589480Y-81824566D01*
X158589480Y-81891977D01*
G37*
G36*
X156185177Y-82356377D02*
G01*
X156206861Y-82357390D01*
X156228225Y-82359079D01*
X156249268Y-82361443D01*
X156269990Y-82364482D01*
X156290392Y-82368198D01*
X156310473Y-82372588D01*
X156330234Y-82377654D01*
X156349674Y-82383396D01*
X156368794Y-82389813D01*
X156387593Y-82396906D01*
X156406071Y-82404674D01*
X156424229Y-82413117D01*
X156442067Y-82422236D01*
X156459584Y-82432031D01*
X156476780Y-82442501D01*
X156493510Y-82453532D01*
X156509753Y-82465131D01*
X156525506Y-82477300D01*
X156540771Y-82490037D01*
X156555548Y-82503342D01*
X156569836Y-82517216D01*
X156583636Y-82531659D01*
X156596947Y-82546670D01*
X156609770Y-82562250D01*
X156622104Y-82578399D01*
X156633950Y-82595116D01*
X156645307Y-82612402D01*
X156656176Y-82630257D01*
X156666556Y-82648680D01*
X156676448Y-82667672D01*
X156685852Y-82687232D01*
X156694725Y-82707209D01*
X156703025Y-82727570D01*
X156710753Y-82748318D01*
X156717909Y-82769450D01*
X156724492Y-82790969D01*
X156730502Y-82812872D01*
X156735941Y-82835161D01*
X156740806Y-82857836D01*
X156745100Y-82880896D01*
X156748821Y-82904341D01*
X156751969Y-82928172D01*
X156754545Y-82952388D01*
X156756549Y-82976990D01*
X156757980Y-83001977D01*
X156758838Y-83027350D01*
X156759125Y-83053108D01*
X156758984Y-83073892D01*
X156758562Y-83094358D01*
X156757858Y-83114505D01*
X156756873Y-83134334D01*
X156754058Y-83173035D01*
X156750118Y-83210461D01*
X156745052Y-83246613D01*
X156738860Y-83281490D01*
X156731542Y-83315093D01*
X156723099Y-83347421D01*
X156713529Y-83378474D01*
X156702834Y-83408252D01*
X156691013Y-83436756D01*
X156678066Y-83463985D01*
X156663994Y-83489940D01*
X156648795Y-83514620D01*
X156632471Y-83538025D01*
X156615021Y-83560156D01*
X156596465Y-83580919D01*
X156576820Y-83600342D01*
X156556088Y-83618425D01*
X156534268Y-83635169D01*
X156511361Y-83650574D01*
X156487366Y-83664639D01*
X156462284Y-83677364D01*
X156436113Y-83688750D01*
X156408855Y-83698796D01*
X156380510Y-83707503D01*
X156351077Y-83714871D01*
X156320556Y-83720898D01*
X156288948Y-83725587D01*
X156256251Y-83728936D01*
X156222468Y-83730945D01*
X156187596Y-83731615D01*
X156161493Y-83731149D01*
X156135939Y-83729752D01*
X156110935Y-83727424D01*
X156086480Y-83724165D01*
X156062574Y-83719975D01*
X156039219Y-83714853D01*
X156016413Y-83708801D01*
X155994156Y-83701817D01*
X155972403Y-83694009D01*
X155951108Y-83685483D01*
X155930271Y-83676240D01*
X155909892Y-83666280D01*
X155889971Y-83655602D01*
X155870508Y-83644206D01*
X155851503Y-83632093D01*
X155832956Y-83619263D01*
X155819001Y-83609019D01*
X155800007Y-83594265D01*
X155780571Y-83578260D01*
X155765703Y-83565434D01*
X155750586Y-83551904D01*
X155735220Y-83537670D01*
X155719606Y-83522733D01*
X155703742Y-83507091D01*
X155687629Y-83490744D01*
X155671267Y-83473694D01*
X155755286Y-83379905D01*
X155760844Y-83386079D01*
X155777535Y-83403948D01*
X155794252Y-83420838D01*
X155810995Y-83436749D01*
X155827763Y-83451681D01*
X155844557Y-83465634D01*
X155861377Y-83478609D01*
X155878223Y-83490604D01*
X155895094Y-83501621D01*
X155911991Y-83511659D01*
X155934561Y-83523520D01*
X155940200Y-83526224D01*
X155963197Y-83536185D01*
X155986896Y-83544772D01*
X156011298Y-83551984D01*
X156036401Y-83557823D01*
X156055690Y-83561301D01*
X156075373Y-83564006D01*
X156095452Y-83565938D01*
X156115925Y-83567097D01*
X156136794Y-83567483D01*
X156153269Y-83567235D01*
X156177251Y-83565933D01*
X156200358Y-83563514D01*
X156222589Y-83559980D01*
X156243944Y-83555328D01*
X156264423Y-83549561D01*
X156284026Y-83542677D01*
X156302754Y-83534678D01*
X156320606Y-83525561D01*
X156337581Y-83515329D01*
X156353681Y-83503980D01*
X156373717Y-83487341D01*
X156392302Y-83469176D01*
X156405290Y-83454550D01*
X156417461Y-83439065D01*
X156428817Y-83422722D01*
X156439357Y-83405520D01*
X156449082Y-83387459D01*
X156457990Y-83368540D01*
X156466083Y-83348762D01*
X156473360Y-83328125D01*
X156477738Y-83313854D01*
X156483774Y-83291825D01*
X156489175Y-83269049D01*
X156493941Y-83245526D01*
X156498071Y-83221256D01*
X156501566Y-83196239D01*
X156504425Y-83170474D01*
X156506649Y-83143963D01*
X156508238Y-83116705D01*
X156509191Y-83088699D01*
X156509508Y-83059947D01*
X156509508Y-83036011D01*
X155643912Y-83036011D01*
X155644184Y-83024053D01*
X155644893Y-83000564D01*
X155645825Y-82977643D01*
X155646977Y-82955291D01*
X155648351Y-82933508D01*
X155649459Y-82918774D01*
X155901832Y-82918774D01*
X156502670Y-82918774D01*
X156501655Y-82904957D01*
X156499221Y-82877953D01*
X156496244Y-82851789D01*
X156492725Y-82826464D01*
X156488665Y-82801979D01*
X156484062Y-82778333D01*
X156478918Y-82755527D01*
X156473232Y-82733560D01*
X156467003Y-82712433D01*
X156460233Y-82692146D01*
X156452921Y-82672698D01*
X156445067Y-82654090D01*
X156432270Y-82627751D01*
X156418254Y-82603302D01*
X156403018Y-82580742D01*
X156392232Y-82566782D01*
X156375214Y-82547531D01*
X156357192Y-82530306D01*
X156338166Y-82515108D01*
X156318135Y-82501936D01*
X156297099Y-82490790D01*
X156275058Y-82481671D01*
X156252013Y-82474579D01*
X156227963Y-82469513D01*
X156202909Y-82466473D01*
X156176850Y-82465460D01*
X156165326Y-82465664D01*
X156143115Y-82467297D01*
X156122019Y-82470564D01*
X156102037Y-82475464D01*
X156083169Y-82481998D01*
X156065416Y-82490164D01*
X156044791Y-82502670D01*
X156025908Y-82517728D01*
X156011833Y-82531390D01*
X155998674Y-82546487D01*
X155986432Y-82563019D01*
X155975105Y-82580987D01*
X155964694Y-82600389D01*
X155955199Y-82621226D01*
X155946620Y-82643497D01*
X155938957Y-82667204D01*
X155935435Y-82679636D01*
X155930451Y-82699106D01*
X155925829Y-82719564D01*
X155921567Y-82741009D01*
X155917666Y-82763442D01*
X155914125Y-82786862D01*
X155910945Y-82811269D01*
X155908126Y-82836664D01*
X155905668Y-82863047D01*
X155903570Y-82890417D01*
X155901832Y-82918774D01*
X155649459Y-82918774D01*
X155649946Y-82912293D01*
X155651763Y-82891647D01*
X155653801Y-82871569D01*
X155656060Y-82852060D01*
X155659864Y-82823863D01*
X155664166Y-82796945D01*
X155668966Y-82771307D01*
X155674264Y-82746948D01*
X155680060Y-82723869D01*
X155684193Y-82709069D01*
X155690779Y-82687471D01*
X155697828Y-82666594D01*
X155705342Y-82646438D01*
X155713319Y-82627003D01*
X155721759Y-82608290D01*
X155730664Y-82590298D01*
X155743257Y-82567431D01*
X155756676Y-82545846D01*
X155770918Y-82525543D01*
X155778339Y-82515842D01*
X155794108Y-82497219D01*
X155811113Y-82479633D01*
X155829355Y-82463086D01*
X155848833Y-82447577D01*
X155869548Y-82433105D01*
X155891500Y-82419672D01*
X155908774Y-82410278D01*
X155926745Y-82401468D01*
X155939117Y-82395967D01*
X155958277Y-82388381D01*
X155978158Y-82381593D01*
X155998760Y-82375604D01*
X156020084Y-82370413D01*
X156042129Y-82366021D01*
X156064895Y-82362427D01*
X156088382Y-82359632D01*
X156112591Y-82357636D01*
X156137521Y-82356438D01*
X156163172Y-82356039D01*
X156185177Y-82356377D01*
G37*
G36*
X154977129Y-82387302D02*
G01*
X154977129Y-82454713D01*
X154999471Y-82460340D01*
X155019238Y-82465864D01*
X155039043Y-82472179D01*
X155057384Y-82479224D01*
X155066522Y-82483534D01*
X155084153Y-82494960D01*
X155098212Y-82508721D01*
X155105600Y-82519193D01*
X155113638Y-82537809D01*
X155117746Y-82558615D01*
X155118790Y-82578300D01*
X155118094Y-82599767D01*
X155116308Y-82619367D01*
X155113423Y-82639456D01*
X155109997Y-82657435D01*
X155104746Y-82679020D01*
X155099149Y-82699259D01*
X155092617Y-82720760D01*
X155086275Y-82740195D01*
X155081665Y-82753666D01*
X154842307Y-83462459D01*
X154562404Y-82782487D01*
X154554121Y-82762005D01*
X154546672Y-82742692D01*
X154538835Y-82721060D01*
X154532200Y-82701110D01*
X154525979Y-82679963D01*
X154523814Y-82671601D01*
X154518899Y-82650229D01*
X154515388Y-82629591D01*
X154513281Y-82609685D01*
X154512579Y-82590512D01*
X154513678Y-82569858D01*
X154517738Y-82548193D01*
X154524791Y-82529146D01*
X154536515Y-82510584D01*
X154543842Y-82502585D01*
X154559784Y-82489919D01*
X154577392Y-82479993D01*
X154598641Y-82470925D01*
X154619130Y-82464025D01*
X154642147Y-82457721D01*
X154657171Y-82454224D01*
X154657171Y-82387302D01*
X154143284Y-82387302D01*
X154143284Y-82454224D01*
X154162558Y-82458850D01*
X154182830Y-82465288D01*
X154203080Y-82474020D01*
X154220215Y-82484217D01*
X154225838Y-82488418D01*
X154242049Y-82503145D01*
X154256460Y-82519738D01*
X154269069Y-82536962D01*
X154279876Y-82553734D01*
X154283479Y-82559737D01*
X154294665Y-82579481D01*
X154304563Y-82598112D01*
X154314986Y-82618722D01*
X154323703Y-82636636D01*
X154332755Y-82655816D01*
X154342143Y-82676264D01*
X154351867Y-82697979D01*
X154814951Y-83731615D01*
X154977129Y-83731615D01*
X155349355Y-82690163D01*
X155356453Y-82670614D01*
X155363277Y-82652267D01*
X155371947Y-82629675D01*
X155380129Y-82609219D01*
X155387823Y-82590901D01*
X155396753Y-82571009D01*
X155406462Y-82551546D01*
X155410904Y-82543617D01*
X155422414Y-82525116D01*
X155434473Y-82509179D01*
X155448697Y-82494316D01*
X155460241Y-82484999D01*
X155477049Y-82474665D01*
X155495299Y-82466582D01*
X155513822Y-82460361D01*
X155534729Y-82454935D01*
X155537910Y-82454224D01*
X155537910Y-82387302D01*
X154977129Y-82387302D01*
G37*
%TO.C,Majed*%
G36*
X160725091Y-73631009D02*
G01*
X160772321Y-73711816D01*
X160738461Y-73775911D01*
X160668170Y-73766062D01*
X160609783Y-73688597D01*
X160611027Y-73653045D01*
X160679442Y-73618937D01*
X160725091Y-73631009D01*
G37*
G36*
X160793747Y-74624766D02*
G01*
X160845854Y-74676967D01*
X160975389Y-74741398D01*
X161028846Y-74762696D01*
X161079121Y-74845824D01*
X161100530Y-75015712D01*
X161099583Y-75179928D01*
X161063971Y-75269285D01*
X160977949Y-75319972D01*
X160885052Y-75365736D01*
X160803888Y-75433795D01*
X160776755Y-75467271D01*
X160689216Y-75489081D01*
X160617553Y-75408083D01*
X160568193Y-75354069D01*
X160448713Y-75320092D01*
X160414981Y-75319094D01*
X160348741Y-75295216D01*
X160321316Y-75216024D01*
X160317711Y-75050682D01*
X160320456Y-74976476D01*
X160349767Y-74817457D01*
X160415066Y-74748463D01*
X160491789Y-74710639D01*
X160616303Y-74622693D01*
X160664272Y-74583609D01*
X160731535Y-74561807D01*
X160793747Y-74624766D01*
G37*
G36*
X161589297Y-75244576D02*
G01*
X161591541Y-75470731D01*
X161583868Y-75617954D01*
X161562939Y-75708846D01*
X161525415Y-75766009D01*
X161467956Y-75812045D01*
X161445301Y-75826407D01*
X161344709Y-75865274D01*
X161192099Y-75889949D01*
X160965768Y-75902926D01*
X160644012Y-75906697D01*
X160546622Y-75906583D01*
X160279622Y-75903543D01*
X160102306Y-75893927D01*
X159993276Y-75874496D01*
X159931133Y-75842011D01*
X159894478Y-75793232D01*
X159871599Y-75698188D01*
X159868862Y-75672055D01*
X160064426Y-75672055D01*
X160684187Y-75672055D01*
X160953517Y-75668775D01*
X161163531Y-75655976D01*
X161285190Y-75631770D01*
X161333774Y-75594329D01*
X161340263Y-75560902D01*
X161348693Y-75422648D01*
X161351012Y-75213405D01*
X161346599Y-74963728D01*
X161329596Y-74410854D01*
X160713661Y-74410854D01*
X160097726Y-74410854D01*
X160081076Y-75041455D01*
X160064426Y-75672055D01*
X159868862Y-75672055D01*
X159851945Y-75510530D01*
X159838644Y-75259901D01*
X159833753Y-74974049D01*
X159833936Y-74850026D01*
X159837229Y-74586995D01*
X159847080Y-74412343D01*
X159866612Y-74304965D01*
X159898950Y-74243755D01*
X159947218Y-74207606D01*
X160028792Y-74186488D01*
X160208804Y-74165967D01*
X160452769Y-74152024D01*
X160731952Y-74146882D01*
X160935036Y-74147950D01*
X161174797Y-74155244D01*
X161331993Y-74171805D01*
X161427884Y-74200372D01*
X161483730Y-74243681D01*
X161502728Y-74275712D01*
X161540481Y-74421794D01*
X161567155Y-74670477D01*
X161583664Y-75028937D01*
X161588483Y-75213405D01*
X161589297Y-75244576D01*
G37*
G36*
X161469506Y-73620255D02*
G01*
X161705921Y-73719335D01*
X161889684Y-73856591D01*
X161898640Y-73866269D01*
X161982455Y-73972175D01*
X162042574Y-74092121D01*
X162082767Y-74246743D01*
X162106807Y-74456677D01*
X162118465Y-74742559D01*
X162121513Y-75125026D01*
X162121338Y-75198211D01*
X162109167Y-75597523D01*
X162068455Y-75897751D01*
X161986084Y-76113985D01*
X161848935Y-76261315D01*
X161643889Y-76354830D01*
X161357828Y-76409621D01*
X160977633Y-76440777D01*
X160955459Y-76442016D01*
X160534174Y-76458864D01*
X160210139Y-76455579D01*
X159965539Y-76430376D01*
X159782560Y-76381470D01*
X159643386Y-76307077D01*
X159611340Y-76283624D01*
X159499572Y-76183697D01*
X159418423Y-76065133D01*
X159362573Y-75908209D01*
X159326704Y-75693203D01*
X159305499Y-75400390D01*
X159293638Y-75010048D01*
X159290204Y-74783639D01*
X159294056Y-74456136D01*
X159316368Y-74215065D01*
X159363660Y-74040755D01*
X159442451Y-73913536D01*
X159559258Y-73813736D01*
X159720602Y-73721684D01*
X159874927Y-73663270D01*
X160063596Y-73626625D01*
X160239594Y-73619973D01*
X160369617Y-73644315D01*
X160420358Y-73700652D01*
X160393766Y-73770831D01*
X160265701Y-73833030D01*
X160029755Y-73853579D01*
X160006173Y-73853990D01*
X159821130Y-73898364D01*
X159646660Y-74031648D01*
X159468591Y-74209717D01*
X159490795Y-75018224D01*
X159501047Y-75311701D01*
X159528533Y-75657997D01*
X159583704Y-75910036D01*
X159681167Y-76081570D01*
X159835528Y-76186348D01*
X160061393Y-76238124D01*
X160373368Y-76250648D01*
X160786060Y-76237671D01*
X160975113Y-76228213D01*
X161327824Y-76198285D01*
X161584791Y-76144132D01*
X161759700Y-76050370D01*
X161866236Y-75901616D01*
X161918087Y-75682486D01*
X161928938Y-75377596D01*
X161912475Y-74971563D01*
X161891290Y-74679847D01*
X161861681Y-74409324D01*
X161828044Y-74200762D01*
X161794061Y-74081819D01*
X161702530Y-73963897D01*
X161489081Y-73842863D01*
X161187463Y-73782361D01*
X161062864Y-73758469D01*
X160974201Y-73703523D01*
X160977327Y-73639864D01*
X161082910Y-73587388D01*
X161230085Y-73575916D01*
X161469506Y-73620255D01*
G37*
G36*
X165380662Y-70360836D02*
G01*
X165679483Y-70678484D01*
X166205518Y-71360508D01*
X166214136Y-71371681D01*
X166625582Y-72085321D01*
X166647668Y-72123629D01*
X166978218Y-72930829D01*
X167203924Y-73789782D01*
X167230832Y-73982733D01*
X167249688Y-74117949D01*
X167278286Y-74533418D01*
X167287951Y-74988541D01*
X167278691Y-75444647D01*
X167250515Y-75863069D01*
X167203430Y-76205137D01*
X167202765Y-76208553D01*
X167144980Y-76428183D01*
X166980139Y-77054711D01*
X166653549Y-77856358D01*
X166229231Y-78603995D01*
X165713416Y-79288122D01*
X165112341Y-79899241D01*
X164432237Y-80427852D01*
X164316652Y-80503907D01*
X164000817Y-80695170D01*
X163683428Y-80866800D01*
X163388889Y-81006867D01*
X163141605Y-81103443D01*
X162965980Y-81144598D01*
X162796109Y-81156812D01*
X162796109Y-80687528D01*
X162796109Y-80218244D01*
X163016086Y-80163903D01*
X163042728Y-80156976D01*
X163189993Y-80092308D01*
X163236063Y-80002587D01*
X163227570Y-79954852D01*
X163178303Y-79917209D01*
X163062469Y-79899828D01*
X162854770Y-79895612D01*
X162473476Y-79895612D01*
X162473476Y-80563025D01*
X162473404Y-80663154D01*
X162468439Y-80950332D01*
X162446272Y-81147310D01*
X162393951Y-81275247D01*
X162298521Y-81355300D01*
X162147028Y-81408628D01*
X161926519Y-81456387D01*
X161658943Y-81508232D01*
X161467104Y-81527960D01*
X161350091Y-81495402D01*
X161287105Y-81394374D01*
X161257349Y-81208691D01*
X161240027Y-80922170D01*
X161218601Y-80611779D01*
X161186437Y-80386947D01*
X161134893Y-80223931D01*
X161055109Y-80094829D01*
X160938224Y-79971737D01*
X160935355Y-79969063D01*
X160649292Y-79773496D01*
X160340872Y-79691155D01*
X160021705Y-79722996D01*
X159703403Y-79869976D01*
X159661504Y-79898464D01*
X159489261Y-80055543D01*
X159372288Y-80254254D01*
X159299805Y-80519072D01*
X159261035Y-80874472D01*
X159237642Y-81133423D01*
X159203652Y-81304269D01*
X159161163Y-81362124D01*
X159152628Y-81361464D01*
X159049819Y-81337350D01*
X158874932Y-81285504D01*
X158660495Y-81215457D01*
X158198128Y-81038340D01*
X157431070Y-80649078D01*
X156726038Y-80166534D01*
X156090629Y-79598859D01*
X155532440Y-78954210D01*
X155330412Y-78649710D01*
X157643160Y-78649710D01*
X157666420Y-78817725D01*
X157720263Y-78897356D01*
X157864024Y-78942378D01*
X157946049Y-78935183D01*
X158002629Y-78883329D01*
X158015278Y-78750675D01*
X157988881Y-78603403D01*
X157898442Y-78513746D01*
X157755841Y-78523466D01*
X157718168Y-78541853D01*
X157643160Y-78649710D01*
X155330412Y-78649710D01*
X155112703Y-78321574D01*
X159842620Y-78321574D01*
X159842639Y-78571483D01*
X159848608Y-78750675D01*
X159849245Y-78769800D01*
X159861717Y-78883718D01*
X159901083Y-78963997D01*
X160012658Y-79015704D01*
X160052790Y-79012368D01*
X160088684Y-78988222D01*
X160107297Y-78932177D01*
X160559810Y-78932177D01*
X160629475Y-79078568D01*
X160770450Y-79174275D01*
X160913246Y-79174881D01*
X161022232Y-79087402D01*
X161065624Y-78923164D01*
X161030626Y-78788319D01*
X160915337Y-78692585D01*
X160747663Y-78686657D01*
X160714687Y-78696876D01*
X160591955Y-78792540D01*
X160559810Y-78932177D01*
X160107297Y-78932177D01*
X160110048Y-78923894D01*
X160119607Y-78800114D01*
X160120082Y-78597610D01*
X160114196Y-78297113D01*
X160108813Y-78082672D01*
X160099595Y-77849946D01*
X160094714Y-77798026D01*
X160678122Y-77798026D01*
X160688834Y-78047806D01*
X160703387Y-78170521D01*
X160742399Y-78372247D01*
X160790484Y-78463686D01*
X160849558Y-78449630D01*
X160852098Y-78446707D01*
X160877185Y-78355970D01*
X160888941Y-78192867D01*
X160888455Y-77995280D01*
X160881611Y-77881106D01*
X161886871Y-77881106D01*
X161892775Y-78143215D01*
X161897679Y-78192867D01*
X161920336Y-78422261D01*
X161969625Y-78593328D01*
X161972619Y-78597610D01*
X162103961Y-78785430D01*
X162256530Y-78923164D01*
X162332397Y-78991654D01*
X162584886Y-79125043D01*
X162663588Y-79150018D01*
X162832466Y-79183628D01*
X162991937Y-79169399D01*
X163199412Y-79105507D01*
X163384644Y-79030528D01*
X163481269Y-78954855D01*
X163493969Y-78856851D01*
X163438145Y-78711072D01*
X163433738Y-78701805D01*
X163377059Y-78560514D01*
X163377468Y-78487688D01*
X163595347Y-78487688D01*
X163624638Y-78591516D01*
X163695371Y-78670505D01*
X163820102Y-78707325D01*
X163937281Y-78637674D01*
X163980383Y-78556805D01*
X163969777Y-78439819D01*
X163919532Y-78385349D01*
X164944539Y-78385349D01*
X164945535Y-78556805D01*
X164946000Y-78636833D01*
X164952173Y-78810907D01*
X164964042Y-78921701D01*
X164982591Y-78983345D01*
X165008802Y-79009969D01*
X165043660Y-79015704D01*
X165105247Y-79010079D01*
X165191413Y-78976597D01*
X165191491Y-78976517D01*
X165203796Y-78907488D01*
X165214506Y-78740285D01*
X165222966Y-78493934D01*
X165228523Y-78187463D01*
X165230520Y-77839900D01*
X165230819Y-77573824D01*
X165234148Y-77236207D01*
X165244201Y-76990668D01*
X165264648Y-76821707D01*
X165299162Y-76713819D01*
X165351415Y-76651504D01*
X165425078Y-76619258D01*
X165523823Y-76601579D01*
X165627083Y-76563877D01*
X165689601Y-76446392D01*
X165692049Y-76428183D01*
X165690408Y-76363083D01*
X165647685Y-76330495D01*
X165538542Y-76321973D01*
X165337638Y-76329071D01*
X164966548Y-76346651D01*
X164950781Y-77681177D01*
X164949722Y-77777485D01*
X164946808Y-78042325D01*
X164944539Y-78385349D01*
X163919532Y-78385349D01*
X163892276Y-78355801D01*
X163778182Y-78331296D01*
X163657797Y-78392848D01*
X163595347Y-78487688D01*
X163377468Y-78487688D01*
X163377649Y-78455495D01*
X163435000Y-78324106D01*
X163492581Y-78177394D01*
X163524772Y-77973190D01*
X163507743Y-77790211D01*
X163445400Y-77658438D01*
X163341652Y-77607852D01*
X163320128Y-77647606D01*
X163301779Y-77776053D01*
X163294723Y-77962481D01*
X163293859Y-78050450D01*
X163278541Y-78234030D01*
X163234821Y-78357107D01*
X163150738Y-78461095D01*
X163141024Y-78470589D01*
X162956046Y-78583065D01*
X162764157Y-78589192D01*
X162590797Y-78487759D01*
X162555903Y-78448304D01*
X162513300Y-78367774D01*
X162488268Y-78248120D01*
X162476447Y-78063307D01*
X162473476Y-77787295D01*
X162471293Y-77623274D01*
X162460214Y-77399758D01*
X162441882Y-77239808D01*
X162418682Y-77170288D01*
X162396103Y-77164768D01*
X162282816Y-77180597D01*
X162125380Y-77231856D01*
X161886871Y-77327288D01*
X161886871Y-77881106D01*
X160881611Y-77881106D01*
X160876815Y-77801095D01*
X160855108Y-77648196D01*
X160824424Y-77574468D01*
X160763038Y-77560777D01*
X160703918Y-77631977D01*
X160678122Y-77798026D01*
X160094714Y-77798026D01*
X160085722Y-77702380D01*
X160063617Y-77620762D01*
X160029704Y-77585880D01*
X159980405Y-77578521D01*
X159977748Y-77578531D01*
X159924893Y-77588247D01*
X159890138Y-77630594D01*
X159868628Y-77726742D01*
X159855512Y-77897863D01*
X159845934Y-78165127D01*
X159842620Y-78321574D01*
X155112703Y-78321574D01*
X155059071Y-78240739D01*
X154854260Y-77824542D01*
X157728700Y-77824542D01*
X157733857Y-77951123D01*
X157749400Y-78070720D01*
X157790773Y-78196005D01*
X157839821Y-78246003D01*
X157880798Y-78208993D01*
X157897957Y-78073255D01*
X157898041Y-78063416D01*
X157914932Y-77956549D01*
X157972849Y-77848302D01*
X158088664Y-77714718D01*
X158279250Y-77531840D01*
X158299493Y-77513074D01*
X158506753Y-77306038D01*
X158629357Y-77151437D01*
X158663824Y-77054699D01*
X158606677Y-77021247D01*
X158584575Y-77029419D01*
X158482608Y-77093488D01*
X158324760Y-77207375D01*
X158134610Y-77354438D01*
X158085784Y-77393362D01*
X157906185Y-77540018D01*
X157798028Y-77644056D01*
X157744478Y-77730542D01*
X157728700Y-77824542D01*
X154854260Y-77824542D01*
X154678117Y-77466602D01*
X154397179Y-76639953D01*
X154369097Y-76533782D01*
X154318797Y-76325077D01*
X154283408Y-76133202D01*
X154260352Y-75931329D01*
X154247053Y-75692632D01*
X154240934Y-75390284D01*
X154239418Y-74997459D01*
X154239719Y-74773400D01*
X154243098Y-74435026D01*
X154252350Y-74172941D01*
X154261869Y-74058891D01*
X155140913Y-74058891D01*
X155141370Y-74323074D01*
X155145273Y-74706694D01*
X155154890Y-74992616D01*
X155172285Y-75193371D01*
X155199520Y-75321488D01*
X155238657Y-75389498D01*
X155291760Y-75409932D01*
X155360890Y-75395318D01*
X155372114Y-75386939D01*
X155396420Y-75322242D01*
X155414052Y-75186460D01*
X155415942Y-75151140D01*
X156548765Y-75151140D01*
X156549611Y-75164226D01*
X156609215Y-75295848D01*
X156751594Y-75473389D01*
X156960977Y-75684066D01*
X157221592Y-75915097D01*
X157517669Y-76153698D01*
X157833437Y-76387086D01*
X158153123Y-76602478D01*
X158460957Y-76787092D01*
X158741168Y-76928143D01*
X158852054Y-76975886D01*
X159061031Y-77054699D01*
X159071799Y-77058760D01*
X159193361Y-77080426D01*
X159219013Y-77039390D01*
X159151027Y-76934155D01*
X158991677Y-76763225D01*
X158880180Y-76644846D01*
X158571669Y-76215206D01*
X158367805Y-75749184D01*
X158268841Y-75260121D01*
X158271735Y-75026789D01*
X158455231Y-75026789D01*
X158456886Y-75249925D01*
X158467476Y-75480372D01*
X158493023Y-75654903D01*
X158539391Y-75809001D01*
X158612445Y-75978149D01*
X158656527Y-76066653D01*
X158933441Y-76476995D01*
X159291660Y-76828175D01*
X159621078Y-77039390D01*
X159704305Y-77092753D01*
X159738333Y-77109374D01*
X159941985Y-77199055D01*
X160126446Y-77253695D01*
X160337192Y-77283529D01*
X160619702Y-77298795D01*
X160983189Y-77294276D01*
X161362361Y-77233690D01*
X161705588Y-77102200D01*
X162051244Y-76888815D01*
X162388859Y-76593566D01*
X162674137Y-76215435D01*
X162867329Y-75798622D01*
X162970835Y-75357772D01*
X162987054Y-74907527D01*
X162918388Y-74462531D01*
X162767236Y-74037428D01*
X162535998Y-73646861D01*
X162227075Y-73305473D01*
X161842866Y-73027908D01*
X161744413Y-72985024D01*
X162181033Y-72985024D01*
X162192717Y-73038757D01*
X162275717Y-73147670D01*
X162437623Y-73323803D01*
X162527144Y-73422113D01*
X162837629Y-73859770D01*
X163043643Y-74328848D01*
X163144940Y-74815711D01*
X163144254Y-74907527D01*
X163141274Y-75306725D01*
X163032400Y-75788253D01*
X162818069Y-76246661D01*
X162498037Y-76668314D01*
X162490003Y-76676941D01*
X162360595Y-76828386D01*
X162279759Y-76946902D01*
X162264698Y-77007485D01*
X162300235Y-77007937D01*
X162422800Y-76967044D01*
X162452895Y-76953758D01*
X162870005Y-76953758D01*
X162891412Y-77024739D01*
X163010313Y-77152577D01*
X163223801Y-77334096D01*
X163404954Y-77484272D01*
X163549716Y-77625927D01*
X163632048Y-77746250D01*
X163671548Y-77868637D01*
X163697533Y-77972059D01*
X163698178Y-77973190D01*
X163755731Y-78074047D01*
X163815635Y-78071324D01*
X163862437Y-77970326D01*
X163881328Y-77777485D01*
X163881238Y-77760045D01*
X163869364Y-77641286D01*
X163823004Y-77544263D01*
X163721459Y-77439530D01*
X163544030Y-77297641D01*
X163420840Y-77204457D01*
X163197006Y-77045782D01*
X163040291Y-76955360D01*
X162936807Y-76926011D01*
X162872666Y-76950555D01*
X162870005Y-76953758D01*
X162452895Y-76953758D01*
X162607637Y-76885443D01*
X162830846Y-76773033D01*
X162842793Y-76766692D01*
X163097960Y-76635052D01*
X163260006Y-76561628D01*
X163336346Y-76544708D01*
X163334389Y-76582580D01*
X163261549Y-76673531D01*
X163229097Y-76713291D01*
X163212085Y-76776572D01*
X163257989Y-76856334D01*
X163378637Y-76983929D01*
X163441047Y-77044901D01*
X163636573Y-77210572D01*
X163774744Y-77281272D01*
X163852422Y-77255203D01*
X163859218Y-77238617D01*
X163862425Y-77118024D01*
X163835501Y-76940854D01*
X163788331Y-76749181D01*
X163730800Y-76585080D01*
X163672794Y-76490627D01*
X163613210Y-76430103D01*
X163601958Y-76348126D01*
X163705347Y-76287990D01*
X163773993Y-76252677D01*
X163822668Y-76179687D01*
X163832407Y-76154139D01*
X163906380Y-76052574D01*
X164037219Y-75903430D01*
X164205945Y-75729021D01*
X164416900Y-75514227D01*
X164641737Y-75261570D01*
X164781696Y-75065170D01*
X164842242Y-74916955D01*
X164828838Y-74808854D01*
X164819655Y-74793313D01*
X164720965Y-74670324D01*
X164556131Y-74497676D01*
X164346776Y-74295236D01*
X164114524Y-74082871D01*
X163880999Y-73880448D01*
X163667827Y-73707834D01*
X163652440Y-73696785D01*
X164350612Y-73696785D01*
X164350620Y-73710981D01*
X164356725Y-73918380D01*
X164386609Y-74060320D01*
X164458458Y-74185891D01*
X164590457Y-74344181D01*
X164708652Y-74467542D01*
X164820392Y-74560557D01*
X164883760Y-74583620D01*
X164900184Y-74543832D01*
X164919310Y-74406194D01*
X164932379Y-74196337D01*
X164937218Y-73940393D01*
X164939294Y-73668431D01*
X164948683Y-73478884D01*
X164969874Y-73356395D01*
X165007351Y-73275466D01*
X165065600Y-73210599D01*
X165070994Y-73205649D01*
X165256922Y-73106018D01*
X165454109Y-73113356D01*
X165630918Y-73226759D01*
X165657483Y-73256567D01*
X165703202Y-73326658D01*
X165732648Y-73420357D01*
X165749332Y-73561088D01*
X165756767Y-73772274D01*
X165758465Y-74077337D01*
X165758224Y-74217103D01*
X165754535Y-74480236D01*
X165743707Y-74658687D01*
X165722329Y-74775494D01*
X165686993Y-74853693D01*
X165634287Y-74916325D01*
X165633538Y-74916955D01*
X165565273Y-74974382D01*
X165442053Y-75017870D01*
X165258260Y-75012114D01*
X165230722Y-75009121D01*
X165074114Y-75004920D01*
X164974043Y-75047357D01*
X164879091Y-75155934D01*
X164859322Y-75183697D01*
X164786887Y-75344947D01*
X164822749Y-75466018D01*
X164968863Y-75555614D01*
X165101078Y-75594008D01*
X165414649Y-75607247D01*
X165723338Y-75527735D01*
X165995135Y-75366444D01*
X166198027Y-75134345D01*
X166215988Y-75099219D01*
X166272764Y-74906196D01*
X166314443Y-74635455D01*
X166340032Y-74317475D01*
X166348538Y-73982733D01*
X166338968Y-73661708D01*
X166310328Y-73384879D01*
X166261625Y-73182723D01*
X166255006Y-73165798D01*
X166086859Y-72880982D01*
X165854810Y-72674840D01*
X165580514Y-72553359D01*
X165285626Y-72522525D01*
X164991800Y-72588324D01*
X164720693Y-72756744D01*
X164613047Y-72861281D01*
X164459012Y-73084151D01*
X164375653Y-73352190D01*
X164350612Y-73696785D01*
X163652440Y-73696785D01*
X163496630Y-73584898D01*
X163303088Y-73467545D01*
X163040933Y-73322952D01*
X162775169Y-73188818D01*
X162531862Y-73077593D01*
X162337081Y-73001727D01*
X162216895Y-72973672D01*
X162181033Y-72985024D01*
X161744413Y-72985024D01*
X161619585Y-72930652D01*
X162732662Y-72930652D01*
X162751267Y-72997267D01*
X162762233Y-73007334D01*
X162825874Y-73028057D01*
X162919562Y-72987447D01*
X163070246Y-72875189D01*
X163325982Y-72662611D01*
X163512618Y-72487203D01*
X163628873Y-72343941D01*
X163688524Y-72215691D01*
X163705347Y-72085321D01*
X163698117Y-71980964D01*
X163657879Y-71854642D01*
X163594921Y-71810598D01*
X163523705Y-71866272D01*
X163491329Y-71951084D01*
X163471603Y-72099265D01*
X163469999Y-72124807D01*
X163468816Y-72127892D01*
X163428260Y-72233619D01*
X163317893Y-72362193D01*
X163139739Y-72515848D01*
X163122728Y-72530520D01*
X162932225Y-72690063D01*
X162790221Y-72831719D01*
X162732662Y-72930652D01*
X161619585Y-72930652D01*
X161385773Y-72828809D01*
X161060099Y-72757644D01*
X160593341Y-72740968D01*
X160126492Y-72810304D01*
X159701208Y-72962350D01*
X159608182Y-73011194D01*
X159208672Y-73294886D01*
X158867612Y-73658983D01*
X158612445Y-74075429D01*
X158556392Y-74201505D01*
X158503339Y-74356185D01*
X158472703Y-74521637D01*
X158458622Y-74733344D01*
X158455231Y-75026789D01*
X158271735Y-75026789D01*
X158275028Y-74761359D01*
X158386619Y-74266240D01*
X158603866Y-73788106D01*
X158927020Y-73340300D01*
X158942242Y-73322857D01*
X159061457Y-73175824D01*
X159129817Y-73071798D01*
X159132912Y-73032332D01*
X159120324Y-73033185D01*
X158991830Y-73074396D01*
X158922266Y-73107372D01*
X158794520Y-73167928D01*
X158551687Y-73300529D01*
X158286622Y-73458950D01*
X158022621Y-73629941D01*
X157782974Y-73800250D01*
X157563731Y-73978248D01*
X157322385Y-74198026D01*
X157087903Y-74432177D01*
X156876792Y-74662632D01*
X156705560Y-74871324D01*
X156590715Y-75040182D01*
X156548765Y-75151140D01*
X155415942Y-75151140D01*
X155425741Y-74968050D01*
X155432218Y-74655467D01*
X155434215Y-74237167D01*
X155434757Y-73875460D01*
X155438965Y-73554319D01*
X155450690Y-73322151D01*
X155457310Y-73276751D01*
X157370012Y-73276751D01*
X157370407Y-73334682D01*
X157378944Y-73539081D01*
X157396344Y-73682289D01*
X157419581Y-73736258D01*
X157456375Y-73728514D01*
X157552617Y-73638757D01*
X157631551Y-73471408D01*
X157677630Y-73255434D01*
X157686864Y-73077446D01*
X157658030Y-72957135D01*
X157578079Y-72858939D01*
X157576306Y-72857280D01*
X157474720Y-72784774D01*
X157409656Y-72777600D01*
X157405230Y-72784892D01*
X157397324Y-72827020D01*
X157387325Y-72880303D01*
X157374756Y-73054713D01*
X157370012Y-73276751D01*
X155457310Y-73276751D01*
X155473784Y-73163765D01*
X155512096Y-73063968D01*
X155569478Y-73007569D01*
X155649778Y-72979376D01*
X155756848Y-72964197D01*
X155776601Y-72961714D01*
X155897901Y-72919197D01*
X155932830Y-72827020D01*
X155930924Y-72796493D01*
X155898410Y-72739419D01*
X155804043Y-72708518D01*
X155620100Y-72691803D01*
X155515922Y-72689330D01*
X155332932Y-72704702D01*
X155224142Y-72742982D01*
X155218009Y-72748793D01*
X155190789Y-72801320D01*
X155170489Y-72901643D01*
X155156231Y-73063663D01*
X155147135Y-73301277D01*
X155142322Y-73628387D01*
X155140913Y-74058891D01*
X154261869Y-74058891D01*
X154270080Y-73960518D01*
X154298895Y-73771131D01*
X154341403Y-73578156D01*
X154400208Y-73354965D01*
X154474400Y-73106319D01*
X154720134Y-72453936D01*
X154903179Y-72075992D01*
X157555463Y-72075992D01*
X157557445Y-72252970D01*
X157568470Y-72373513D01*
X157597482Y-72480052D01*
X157662355Y-72575147D01*
X157782522Y-72685940D01*
X157977418Y-72839575D01*
X158049917Y-72894485D01*
X158234080Y-73024903D01*
X158318634Y-73077446D01*
X158380081Y-73115630D01*
X158461367Y-73149653D01*
X158486685Y-73148273D01*
X158544313Y-73107372D01*
X158506633Y-73014738D01*
X158378172Y-72877183D01*
X158163459Y-72701518D01*
X158047057Y-72610291D01*
X159911973Y-72610291D01*
X160009735Y-72616687D01*
X160117832Y-72606723D01*
X160244377Y-72563048D01*
X160260386Y-72552438D01*
X160291807Y-72515848D01*
X160215047Y-72509409D01*
X160134894Y-72518836D01*
X159980405Y-72563048D01*
X159924011Y-72588765D01*
X159911973Y-72610291D01*
X158047057Y-72610291D01*
X157984060Y-72560919D01*
X157853380Y-72435701D01*
X157781111Y-72323026D01*
X157745338Y-72196420D01*
X157741726Y-72177061D01*
X157691465Y-72030835D01*
X157623273Y-71976443D01*
X157582839Y-71991861D01*
X157555463Y-72075992D01*
X154903179Y-72075992D01*
X155027679Y-71818930D01*
X155374161Y-71250722D01*
X155424905Y-71179559D01*
X155586105Y-70971337D01*
X155775448Y-70745078D01*
X155976000Y-70519032D01*
X156170822Y-70311450D01*
X156342980Y-70140581D01*
X156475536Y-70024676D01*
X156551554Y-69981986D01*
X156569100Y-70011163D01*
X156589153Y-70137826D01*
X156602548Y-70345607D01*
X156607425Y-70613501D01*
X156607439Y-70629759D01*
X156619109Y-70999379D01*
X156657997Y-71276939D01*
X156732109Y-71485292D01*
X156849448Y-71647293D01*
X157018019Y-71785796D01*
X157177393Y-71881790D01*
X157291105Y-71920061D01*
X157330937Y-71888063D01*
X157286853Y-71785796D01*
X157279382Y-71774067D01*
X157247689Y-71713399D01*
X157223822Y-71636135D01*
X157216443Y-71589295D01*
X157366940Y-71589295D01*
X157440405Y-71730069D01*
X157515428Y-71781522D01*
X157662526Y-71785484D01*
X157810181Y-71682902D01*
X157866907Y-71580952D01*
X157864259Y-71436408D01*
X157785617Y-71320192D01*
X157646974Y-71272517D01*
X157636317Y-71272698D01*
X157481368Y-71324124D01*
X157386086Y-71441818D01*
X157366940Y-71589295D01*
X157216443Y-71589295D01*
X157206391Y-71525489D01*
X157194007Y-71364673D01*
X157185280Y-71136900D01*
X157178820Y-70825381D01*
X157173238Y-70413330D01*
X157172540Y-70350773D01*
X157172009Y-70061460D01*
X157179304Y-69862389D01*
X157197255Y-69730640D01*
X157228693Y-69643290D01*
X157276448Y-69577418D01*
X157354550Y-69511474D01*
X157540382Y-69451793D01*
X157734020Y-69486419D01*
X157897278Y-69613153D01*
X157938205Y-69669928D01*
X157971554Y-69738682D01*
X157993747Y-69831445D01*
X158006441Y-69966872D01*
X158011293Y-70163619D01*
X158009960Y-70440341D01*
X158004100Y-70815694D01*
X158000335Y-71119384D01*
X158000176Y-71415101D01*
X158002837Y-71580952D01*
X158003935Y-71649371D01*
X158011296Y-71803582D01*
X158021940Y-71859122D01*
X158025278Y-71858741D01*
X158098330Y-71819864D01*
X158213851Y-71736621D01*
X158252179Y-71705608D01*
X158362315Y-71598071D01*
X158441014Y-71475015D01*
X158493365Y-71316108D01*
X158524456Y-71101023D01*
X158539379Y-70809429D01*
X158543222Y-70420996D01*
X158543216Y-70417373D01*
X159335139Y-70417373D01*
X159335346Y-70621104D01*
X159337817Y-70921884D01*
X159345102Y-71136985D01*
X159359685Y-71287000D01*
X159384050Y-71392525D01*
X159420682Y-71474154D01*
X159472065Y-71552482D01*
X159494611Y-71581899D01*
X159653637Y-71737164D01*
X159836357Y-71860450D01*
X159915547Y-71898762D01*
X160132699Y-71970908D01*
X160263933Y-71955494D01*
X160496538Y-71955494D01*
X160511919Y-72190010D01*
X160523887Y-72272794D01*
X160570412Y-72446541D01*
X160632429Y-72504388D01*
X160638175Y-72504089D01*
X160682775Y-72464457D01*
X160706605Y-72345229D01*
X160713661Y-72127892D01*
X160712664Y-72023232D01*
X160695935Y-71765092D01*
X160657607Y-71614632D01*
X160596423Y-71565819D01*
X160543710Y-71615621D01*
X160508390Y-71754759D01*
X160496538Y-71955494D01*
X160263933Y-71955494D01*
X160275563Y-71954128D01*
X160347384Y-71847086D01*
X160351407Y-71648447D01*
X160308900Y-71525688D01*
X160156386Y-71389679D01*
X160081290Y-71344558D01*
X159971349Y-71248907D01*
X159899256Y-71122360D01*
X159890817Y-71085165D01*
X160402460Y-71085165D01*
X160424695Y-71221960D01*
X160496423Y-71295557D01*
X160622755Y-71332050D01*
X160733214Y-71292070D01*
X160744153Y-71279630D01*
X160777707Y-71158848D01*
X160739571Y-71028240D01*
X160644805Y-70946648D01*
X160586730Y-70936673D01*
X160466059Y-70978077D01*
X160402460Y-71085165D01*
X159890817Y-71085165D01*
X159858668Y-70943478D01*
X159843240Y-70690820D01*
X159846627Y-70342947D01*
X159849842Y-70227736D01*
X159860044Y-69972485D01*
X159875625Y-69802400D01*
X159901338Y-69693737D01*
X159941935Y-69622750D01*
X160002167Y-69565695D01*
X160032064Y-69543053D01*
X160232156Y-69459992D01*
X160427870Y-69482499D01*
X160592082Y-69608603D01*
X160639564Y-69678791D01*
X160685166Y-69798862D01*
X160707647Y-69968698D01*
X160713661Y-70221872D01*
X160713802Y-70283885D01*
X160719936Y-70501402D01*
X160741033Y-70642313D01*
X160785142Y-70739847D01*
X160860312Y-70827230D01*
X160974020Y-70985312D01*
X160994847Y-71158848D01*
X160996487Y-71172515D01*
X160910188Y-71388913D01*
X160899202Y-71408397D01*
X160848699Y-71549106D01*
X160850256Y-71659555D01*
X160897034Y-71712165D01*
X160982195Y-71679354D01*
X161053002Y-71612155D01*
X161133948Y-71494333D01*
X161186702Y-71348157D01*
X163319950Y-71348157D01*
X163379897Y-71481762D01*
X163405953Y-71517033D01*
X163537495Y-71608851D01*
X163673360Y-71607190D01*
X163779700Y-71521319D01*
X163822668Y-71360508D01*
X163808611Y-71273045D01*
X163724111Y-71153523D01*
X163595032Y-71096998D01*
X163458410Y-71114683D01*
X163351279Y-71217790D01*
X163345731Y-71228471D01*
X163319950Y-71348157D01*
X161186702Y-71348157D01*
X161190762Y-71336906D01*
X161227756Y-71120494D01*
X161249243Y-70825720D01*
X161259535Y-70433205D01*
X161261149Y-70279083D01*
X161257480Y-69930200D01*
X161237057Y-69668967D01*
X161193619Y-69473881D01*
X161120901Y-69323442D01*
X161012639Y-69196146D01*
X160862570Y-69070493D01*
X160625128Y-68940931D01*
X160320772Y-68882892D01*
X160012215Y-68920067D01*
X159727693Y-69048458D01*
X159495446Y-69264065D01*
X159441073Y-69337683D01*
X159396715Y-69414089D01*
X159366875Y-69504311D01*
X159348674Y-69629049D01*
X159339236Y-69809005D01*
X159335684Y-70064879D01*
X159335139Y-70417373D01*
X158543216Y-70417373D01*
X158542967Y-70275960D01*
X158538104Y-69946385D01*
X158523300Y-69703593D01*
X158493685Y-69525197D01*
X158444389Y-69388809D01*
X158370541Y-69272042D01*
X158267272Y-69152508D01*
X158191634Y-69064385D01*
X158170950Y-69000987D01*
X158219540Y-68947126D01*
X158351427Y-68887298D01*
X158580632Y-68805996D01*
X158621342Y-68792392D01*
X158718143Y-68764568D01*
X158826384Y-68742349D01*
X158959302Y-68725112D01*
X159130130Y-68712234D01*
X159352104Y-68703094D01*
X159638457Y-68697068D01*
X160002426Y-68693534D01*
X160457244Y-68691871D01*
X161016147Y-68691455D01*
X161517793Y-68691854D01*
X161981342Y-68693529D01*
X162347994Y-68696933D01*
X162628565Y-68702517D01*
X162833870Y-68710729D01*
X162974725Y-68722020D01*
X163061945Y-68736840D01*
X163106345Y-68755637D01*
X163118742Y-68778861D01*
X163167632Y-68845657D01*
X163304899Y-68939144D01*
X163508198Y-69042856D01*
X163921573Y-69256037D01*
X164436154Y-69582173D01*
X164935661Y-69959691D01*
X165289971Y-70279083D01*
X165380662Y-70360836D01*
G37*
%TD*%
M02*
