%TF.GenerationSoftware,KiCad,Pcbnew,7.0.10*%
%TF.CreationDate,2024-01-18T02:20:14-05:00*%
%TF.ProjectId,Dattalogger_Board,44617474-616c-46f6-9767-65725f426f61,1*%
%TF.SameCoordinates,Original*%
%TF.FileFunction,Legend,Top*%
%TF.FilePolarity,Positive*%
%FSLAX46Y46*%
G04 Gerber Fmt 4.6, Leading zero omitted, Abs format (unit mm)*
G04 Created by KiCad (PCBNEW 7.0.10) date 2024-01-18 02:20:14*
%MOMM*%
%LPD*%
G01*
G04 APERTURE LIST*
%ADD10C,0.150000*%
%ADD11C,0.100000*%
%ADD12C,0.120000*%
%ADD13C,0.200000*%
%ADD14C,0.127000*%
G04 APERTURE END LIST*
D10*
X133722112Y-76918512D02*
X133684017Y-76994702D01*
X133684017Y-76994702D02*
X133684017Y-77108988D01*
X133684017Y-77108988D02*
X133722112Y-77223274D01*
X133722112Y-77223274D02*
X133798302Y-77299464D01*
X133798302Y-77299464D02*
X133874493Y-77337559D01*
X133874493Y-77337559D02*
X134026874Y-77375655D01*
X134026874Y-77375655D02*
X134141160Y-77375655D01*
X134141160Y-77375655D02*
X134293541Y-77337559D01*
X134293541Y-77337559D02*
X134369731Y-77299464D01*
X134369731Y-77299464D02*
X134445922Y-77223274D01*
X134445922Y-77223274D02*
X134484017Y-77108988D01*
X134484017Y-77108988D02*
X134484017Y-77032797D01*
X134484017Y-77032797D02*
X134445922Y-76918512D01*
X134445922Y-76918512D02*
X134407826Y-76880416D01*
X134407826Y-76880416D02*
X134141160Y-76880416D01*
X134141160Y-76880416D02*
X134141160Y-77032797D01*
X134484017Y-76537559D02*
X133684017Y-76537559D01*
X133684017Y-76537559D02*
X134484017Y-76080416D01*
X134484017Y-76080416D02*
X133684017Y-76080416D01*
X134484017Y-75699464D02*
X133684017Y-75699464D01*
X133684017Y-75699464D02*
X133684017Y-75508988D01*
X133684017Y-75508988D02*
X133722112Y-75394702D01*
X133722112Y-75394702D02*
X133798302Y-75318512D01*
X133798302Y-75318512D02*
X133874493Y-75280417D01*
X133874493Y-75280417D02*
X134026874Y-75242321D01*
X134026874Y-75242321D02*
X134141160Y-75242321D01*
X134141160Y-75242321D02*
X134293541Y-75280417D01*
X134293541Y-75280417D02*
X134369731Y-75318512D01*
X134369731Y-75318512D02*
X134445922Y-75394702D01*
X134445922Y-75394702D02*
X134484017Y-75508988D01*
X134484017Y-75508988D02*
X134484017Y-75699464D01*
X133692374Y-74775276D02*
X134492374Y-74508609D01*
X134492374Y-74508609D02*
X133692374Y-74241943D01*
X134416183Y-73518133D02*
X134454279Y-73556229D01*
X134454279Y-73556229D02*
X134492374Y-73670514D01*
X134492374Y-73670514D02*
X134492374Y-73746705D01*
X134492374Y-73746705D02*
X134454279Y-73860991D01*
X134454279Y-73860991D02*
X134378088Y-73937181D01*
X134378088Y-73937181D02*
X134301898Y-73975276D01*
X134301898Y-73975276D02*
X134149517Y-74013372D01*
X134149517Y-74013372D02*
X134035231Y-74013372D01*
X134035231Y-74013372D02*
X133882850Y-73975276D01*
X133882850Y-73975276D02*
X133806659Y-73937181D01*
X133806659Y-73937181D02*
X133730469Y-73860991D01*
X133730469Y-73860991D02*
X133692374Y-73746705D01*
X133692374Y-73746705D02*
X133692374Y-73670514D01*
X133692374Y-73670514D02*
X133730469Y-73556229D01*
X133730469Y-73556229D02*
X133768564Y-73518133D01*
X134416183Y-72718133D02*
X134454279Y-72756229D01*
X134454279Y-72756229D02*
X134492374Y-72870514D01*
X134492374Y-72870514D02*
X134492374Y-72946705D01*
X134492374Y-72946705D02*
X134454279Y-73060991D01*
X134454279Y-73060991D02*
X134378088Y-73137181D01*
X134378088Y-73137181D02*
X134301898Y-73175276D01*
X134301898Y-73175276D02*
X134149517Y-73213372D01*
X134149517Y-73213372D02*
X134035231Y-73213372D01*
X134035231Y-73213372D02*
X133882850Y-73175276D01*
X133882850Y-73175276D02*
X133806659Y-73137181D01*
X133806659Y-73137181D02*
X133730469Y-73060991D01*
X133730469Y-73060991D02*
X133692374Y-72946705D01*
X133692374Y-72946705D02*
X133692374Y-72870514D01*
X133692374Y-72870514D02*
X133730469Y-72756229D01*
X133730469Y-72756229D02*
X133768564Y-72718133D01*
X159094385Y-85659196D02*
X159056289Y-85697292D01*
X159056289Y-85697292D02*
X158942004Y-85735387D01*
X158942004Y-85735387D02*
X158865813Y-85735387D01*
X158865813Y-85735387D02*
X158751527Y-85697292D01*
X158751527Y-85697292D02*
X158675337Y-85621101D01*
X158675337Y-85621101D02*
X158637242Y-85544911D01*
X158637242Y-85544911D02*
X158599146Y-85392530D01*
X158599146Y-85392530D02*
X158599146Y-85278244D01*
X158599146Y-85278244D02*
X158637242Y-85125863D01*
X158637242Y-85125863D02*
X158675337Y-85049672D01*
X158675337Y-85049672D02*
X158751527Y-84973482D01*
X158751527Y-84973482D02*
X158865813Y-84935387D01*
X158865813Y-84935387D02*
X158942004Y-84935387D01*
X158942004Y-84935387D02*
X159056289Y-84973482D01*
X159056289Y-84973482D02*
X159094385Y-85011577D01*
X159399146Y-85011577D02*
X159437242Y-84973482D01*
X159437242Y-84973482D02*
X159513432Y-84935387D01*
X159513432Y-84935387D02*
X159703908Y-84935387D01*
X159703908Y-84935387D02*
X159780099Y-84973482D01*
X159780099Y-84973482D02*
X159818194Y-85011577D01*
X159818194Y-85011577D02*
X159856289Y-85087768D01*
X159856289Y-85087768D02*
X159856289Y-85163958D01*
X159856289Y-85163958D02*
X159818194Y-85278244D01*
X159818194Y-85278244D02*
X159361051Y-85735387D01*
X159361051Y-85735387D02*
X159856289Y-85735387D01*
X160427718Y-86002053D02*
X160237242Y-86002053D01*
X160237242Y-86002053D02*
X160237242Y-84859196D01*
X160237242Y-84859196D02*
X160427718Y-84859196D01*
X160694384Y-85011577D02*
X160732480Y-84973482D01*
X160732480Y-84973482D02*
X160808670Y-84935387D01*
X160808670Y-84935387D02*
X160999146Y-84935387D01*
X160999146Y-84935387D02*
X161075337Y-84973482D01*
X161075337Y-84973482D02*
X161113432Y-85011577D01*
X161113432Y-85011577D02*
X161151527Y-85087768D01*
X161151527Y-85087768D02*
X161151527Y-85163958D01*
X161151527Y-85163958D02*
X161113432Y-85278244D01*
X161113432Y-85278244D02*
X160656289Y-85735387D01*
X160656289Y-85735387D02*
X161151527Y-85735387D01*
X161456289Y-85011577D02*
X161494385Y-84973482D01*
X161494385Y-84973482D02*
X161570575Y-84935387D01*
X161570575Y-84935387D02*
X161761051Y-84935387D01*
X161761051Y-84935387D02*
X161837242Y-84973482D01*
X161837242Y-84973482D02*
X161875337Y-85011577D01*
X161875337Y-85011577D02*
X161913432Y-85087768D01*
X161913432Y-85087768D02*
X161913432Y-85163958D01*
X161913432Y-85163958D02*
X161875337Y-85278244D01*
X161875337Y-85278244D02*
X161418194Y-85735387D01*
X161418194Y-85735387D02*
X161913432Y-85735387D01*
X162256290Y-85202053D02*
X162256290Y-86002053D01*
X162256290Y-85240149D02*
X162332480Y-85202053D01*
X162332480Y-85202053D02*
X162484861Y-85202053D01*
X162484861Y-85202053D02*
X162561052Y-85240149D01*
X162561052Y-85240149D02*
X162599147Y-85278244D01*
X162599147Y-85278244D02*
X162637242Y-85354434D01*
X162637242Y-85354434D02*
X162637242Y-85583006D01*
X162637242Y-85583006D02*
X162599147Y-85659196D01*
X162599147Y-85659196D02*
X162561052Y-85697292D01*
X162561052Y-85697292D02*
X162484861Y-85735387D01*
X162484861Y-85735387D02*
X162332480Y-85735387D01*
X162332480Y-85735387D02*
X162256290Y-85697292D01*
X163246766Y-85316339D02*
X162980100Y-85316339D01*
X162980100Y-85735387D02*
X162980100Y-84935387D01*
X162980100Y-84935387D02*
X163361052Y-84935387D01*
X163589623Y-86002053D02*
X163780099Y-86002053D01*
X163780099Y-86002053D02*
X163780099Y-84859196D01*
X163780099Y-84859196D02*
X163589623Y-84859196D01*
X169545000Y-78105000D02*
X166370000Y-78105000D01*
X169545000Y-82550000D02*
X169545000Y-78105000D01*
X162560000Y-82550000D02*
X169545000Y-82550000D01*
X162560000Y-78105000D02*
X162560000Y-82550000D01*
X166370000Y-78105000D02*
X162560000Y-78105000D01*
X166370000Y-82550000D02*
X166370000Y-78105000D01*
X152266667Y-64421104D02*
X152228571Y-64459200D01*
X152228571Y-64459200D02*
X152114286Y-64497295D01*
X152114286Y-64497295D02*
X152038095Y-64497295D01*
X152038095Y-64497295D02*
X151923809Y-64459200D01*
X151923809Y-64459200D02*
X151847619Y-64383009D01*
X151847619Y-64383009D02*
X151809524Y-64306819D01*
X151809524Y-64306819D02*
X151771428Y-64154438D01*
X151771428Y-64154438D02*
X151771428Y-64040152D01*
X151771428Y-64040152D02*
X151809524Y-63887771D01*
X151809524Y-63887771D02*
X151847619Y-63811580D01*
X151847619Y-63811580D02*
X151923809Y-63735390D01*
X151923809Y-63735390D02*
X152038095Y-63697295D01*
X152038095Y-63697295D02*
X152114286Y-63697295D01*
X152114286Y-63697295D02*
X152228571Y-63735390D01*
X152228571Y-63735390D02*
X152266667Y-63773485D01*
X152533333Y-63697295D02*
X153028571Y-63697295D01*
X153028571Y-63697295D02*
X152761905Y-64002057D01*
X152761905Y-64002057D02*
X152876190Y-64002057D01*
X152876190Y-64002057D02*
X152952381Y-64040152D01*
X152952381Y-64040152D02*
X152990476Y-64078247D01*
X152990476Y-64078247D02*
X153028571Y-64154438D01*
X153028571Y-64154438D02*
X153028571Y-64344914D01*
X153028571Y-64344914D02*
X152990476Y-64421104D01*
X152990476Y-64421104D02*
X152952381Y-64459200D01*
X152952381Y-64459200D02*
X152876190Y-64497295D01*
X152876190Y-64497295D02*
X152647619Y-64497295D01*
X152647619Y-64497295D02*
X152571428Y-64459200D01*
X152571428Y-64459200D02*
X152533333Y-64421104D01*
X159767233Y-75064112D02*
X159500566Y-74683159D01*
X159310090Y-75064112D02*
X159310090Y-74264112D01*
X159310090Y-74264112D02*
X159614852Y-74264112D01*
X159614852Y-74264112D02*
X159691042Y-74302207D01*
X159691042Y-74302207D02*
X159729137Y-74340302D01*
X159729137Y-74340302D02*
X159767233Y-74416493D01*
X159767233Y-74416493D02*
X159767233Y-74530778D01*
X159767233Y-74530778D02*
X159729137Y-74606969D01*
X159729137Y-74606969D02*
X159691042Y-74645064D01*
X159691042Y-74645064D02*
X159614852Y-74683159D01*
X159614852Y-74683159D02*
X159310090Y-74683159D01*
X160033899Y-74264112D02*
X160529137Y-74264112D01*
X160529137Y-74264112D02*
X160262471Y-74568874D01*
X160262471Y-74568874D02*
X160376756Y-74568874D01*
X160376756Y-74568874D02*
X160452947Y-74606969D01*
X160452947Y-74606969D02*
X160491042Y-74645064D01*
X160491042Y-74645064D02*
X160529137Y-74721255D01*
X160529137Y-74721255D02*
X160529137Y-74911731D01*
X160529137Y-74911731D02*
X160491042Y-74987921D01*
X160491042Y-74987921D02*
X160452947Y-75026017D01*
X160452947Y-75026017D02*
X160376756Y-75064112D01*
X160376756Y-75064112D02*
X160148185Y-75064112D01*
X160148185Y-75064112D02*
X160071994Y-75026017D01*
X160071994Y-75026017D02*
X160033899Y-74987921D01*
X161100566Y-75330778D02*
X160910090Y-75330778D01*
X160910090Y-75330778D02*
X160910090Y-74187921D01*
X160910090Y-74187921D02*
X161100566Y-74187921D01*
X161748185Y-74530778D02*
X161748185Y-75064112D01*
X161557709Y-74226017D02*
X161367232Y-74797445D01*
X161367232Y-74797445D02*
X161862471Y-74797445D01*
X162167233Y-74987921D02*
X162205328Y-75026017D01*
X162205328Y-75026017D02*
X162167233Y-75064112D01*
X162167233Y-75064112D02*
X162129137Y-75026017D01*
X162129137Y-75026017D02*
X162167233Y-74987921D01*
X162167233Y-74987921D02*
X162167233Y-75064112D01*
X162471994Y-74264112D02*
X163005328Y-74264112D01*
X163005328Y-74264112D02*
X162662470Y-75064112D01*
X163310090Y-75064112D02*
X163310090Y-74264112D01*
X163767233Y-75064112D02*
X163424375Y-74606969D01*
X163767233Y-74264112D02*
X163310090Y-74721255D01*
X164033899Y-75330778D02*
X164224375Y-75330778D01*
X164224375Y-75330778D02*
X164224375Y-74187921D01*
X164224375Y-74187921D02*
X164033899Y-74187921D01*
X159270953Y-71805595D02*
X159004286Y-71424642D01*
X158813810Y-71805595D02*
X158813810Y-71005595D01*
X158813810Y-71005595D02*
X159118572Y-71005595D01*
X159118572Y-71005595D02*
X159194762Y-71043690D01*
X159194762Y-71043690D02*
X159232857Y-71081785D01*
X159232857Y-71081785D02*
X159270953Y-71157976D01*
X159270953Y-71157976D02*
X159270953Y-71272261D01*
X159270953Y-71272261D02*
X159232857Y-71348452D01*
X159232857Y-71348452D02*
X159194762Y-71386547D01*
X159194762Y-71386547D02*
X159118572Y-71424642D01*
X159118572Y-71424642D02*
X158813810Y-71424642D01*
X159956667Y-71272261D02*
X159956667Y-71805595D01*
X159766191Y-70967500D02*
X159575714Y-71538928D01*
X159575714Y-71538928D02*
X160070953Y-71538928D01*
X160604286Y-72072261D02*
X160413810Y-72072261D01*
X160413810Y-72072261D02*
X160413810Y-70929404D01*
X160413810Y-70929404D02*
X160604286Y-70929404D01*
X161251905Y-71272261D02*
X161251905Y-71805595D01*
X161061429Y-70967500D02*
X160870952Y-71538928D01*
X160870952Y-71538928D02*
X161366191Y-71538928D01*
X161670953Y-71729404D02*
X161709048Y-71767500D01*
X161709048Y-71767500D02*
X161670953Y-71805595D01*
X161670953Y-71805595D02*
X161632857Y-71767500D01*
X161632857Y-71767500D02*
X161670953Y-71729404D01*
X161670953Y-71729404D02*
X161670953Y-71805595D01*
X161975714Y-71005595D02*
X162509048Y-71005595D01*
X162509048Y-71005595D02*
X162166190Y-71805595D01*
X162813810Y-71805595D02*
X162813810Y-71005595D01*
X163270953Y-71805595D02*
X162928095Y-71348452D01*
X163270953Y-71005595D02*
X162813810Y-71462738D01*
X163537619Y-72072261D02*
X163728095Y-72072261D01*
X163728095Y-72072261D02*
X163728095Y-70929404D01*
X163728095Y-70929404D02*
X163537619Y-70929404D01*
X159407169Y-64599770D02*
X159407169Y-63799770D01*
X159407169Y-63799770D02*
X159597645Y-63799770D01*
X159597645Y-63799770D02*
X159711931Y-63837865D01*
X159711931Y-63837865D02*
X159788121Y-63914055D01*
X159788121Y-63914055D02*
X159826216Y-63990246D01*
X159826216Y-63990246D02*
X159864312Y-64142627D01*
X159864312Y-64142627D02*
X159864312Y-64256913D01*
X159864312Y-64256913D02*
X159826216Y-64409294D01*
X159826216Y-64409294D02*
X159788121Y-64485484D01*
X159788121Y-64485484D02*
X159711931Y-64561675D01*
X159711931Y-64561675D02*
X159597645Y-64599770D01*
X159597645Y-64599770D02*
X159407169Y-64599770D01*
X160169073Y-63875960D02*
X160207169Y-63837865D01*
X160207169Y-63837865D02*
X160283359Y-63799770D01*
X160283359Y-63799770D02*
X160473835Y-63799770D01*
X160473835Y-63799770D02*
X160550026Y-63837865D01*
X160550026Y-63837865D02*
X160588121Y-63875960D01*
X160588121Y-63875960D02*
X160626216Y-63952151D01*
X160626216Y-63952151D02*
X160626216Y-64028341D01*
X160626216Y-64028341D02*
X160588121Y-64142627D01*
X160588121Y-64142627D02*
X160130978Y-64599770D01*
X160130978Y-64599770D02*
X160626216Y-64599770D01*
X161197645Y-64866436D02*
X161007169Y-64866436D01*
X161007169Y-64866436D02*
X161007169Y-63723579D01*
X161007169Y-63723579D02*
X161197645Y-63723579D01*
X161883359Y-64599770D02*
X161502407Y-64599770D01*
X161502407Y-64599770D02*
X161502407Y-63799770D01*
X162150026Y-64180722D02*
X162416692Y-64180722D01*
X162530978Y-64599770D02*
X162150026Y-64599770D01*
X162150026Y-64599770D02*
X162150026Y-63799770D01*
X162150026Y-63799770D02*
X162530978Y-63799770D01*
X162873836Y-64599770D02*
X162873836Y-63799770D01*
X162873836Y-63799770D02*
X163064312Y-63799770D01*
X163064312Y-63799770D02*
X163178598Y-63837865D01*
X163178598Y-63837865D02*
X163254788Y-63914055D01*
X163254788Y-63914055D02*
X163292883Y-63990246D01*
X163292883Y-63990246D02*
X163330979Y-64142627D01*
X163330979Y-64142627D02*
X163330979Y-64256913D01*
X163330979Y-64256913D02*
X163292883Y-64409294D01*
X163292883Y-64409294D02*
X163254788Y-64485484D01*
X163254788Y-64485484D02*
X163178598Y-64561675D01*
X163178598Y-64561675D02*
X163064312Y-64599770D01*
X163064312Y-64599770D02*
X162873836Y-64599770D01*
X163597645Y-64866436D02*
X163788121Y-64866436D01*
X163788121Y-64866436D02*
X163788121Y-63723579D01*
X163788121Y-63723579D02*
X163597645Y-63723579D01*
X166544874Y-78430195D02*
X166811541Y-79230195D01*
X166811541Y-79230195D02*
X167078207Y-78430195D01*
X167802017Y-79154004D02*
X167763921Y-79192100D01*
X167763921Y-79192100D02*
X167649636Y-79230195D01*
X167649636Y-79230195D02*
X167573445Y-79230195D01*
X167573445Y-79230195D02*
X167459159Y-79192100D01*
X167459159Y-79192100D02*
X167382969Y-79115909D01*
X167382969Y-79115909D02*
X167344874Y-79039719D01*
X167344874Y-79039719D02*
X167306778Y-78887338D01*
X167306778Y-78887338D02*
X167306778Y-78773052D01*
X167306778Y-78773052D02*
X167344874Y-78620671D01*
X167344874Y-78620671D02*
X167382969Y-78544480D01*
X167382969Y-78544480D02*
X167459159Y-78468290D01*
X167459159Y-78468290D02*
X167573445Y-78430195D01*
X167573445Y-78430195D02*
X167649636Y-78430195D01*
X167649636Y-78430195D02*
X167763921Y-78468290D01*
X167763921Y-78468290D02*
X167802017Y-78506385D01*
X168602017Y-79154004D02*
X168563921Y-79192100D01*
X168563921Y-79192100D02*
X168449636Y-79230195D01*
X168449636Y-79230195D02*
X168373445Y-79230195D01*
X168373445Y-79230195D02*
X168259159Y-79192100D01*
X168259159Y-79192100D02*
X168182969Y-79115909D01*
X168182969Y-79115909D02*
X168144874Y-79039719D01*
X168144874Y-79039719D02*
X168106778Y-78887338D01*
X168106778Y-78887338D02*
X168106778Y-78773052D01*
X168106778Y-78773052D02*
X168144874Y-78620671D01*
X168144874Y-78620671D02*
X168182969Y-78544480D01*
X168182969Y-78544480D02*
X168259159Y-78468290D01*
X168259159Y-78468290D02*
X168373445Y-78430195D01*
X168373445Y-78430195D02*
X168449636Y-78430195D01*
X168449636Y-78430195D02*
X168563921Y-78468290D01*
X168563921Y-78468290D02*
X168602017Y-78506385D01*
X166659160Y-80518195D02*
X166659160Y-79718195D01*
X166659160Y-79718195D02*
X166925826Y-80289623D01*
X166925826Y-80289623D02*
X167192493Y-79718195D01*
X167192493Y-79718195D02*
X167192493Y-80518195D01*
X167725827Y-79718195D02*
X167878208Y-79718195D01*
X167878208Y-79718195D02*
X167954398Y-79756290D01*
X167954398Y-79756290D02*
X168030589Y-79832480D01*
X168030589Y-79832480D02*
X168068684Y-79984861D01*
X168068684Y-79984861D02*
X168068684Y-80251528D01*
X168068684Y-80251528D02*
X168030589Y-80403909D01*
X168030589Y-80403909D02*
X167954398Y-80480100D01*
X167954398Y-80480100D02*
X167878208Y-80518195D01*
X167878208Y-80518195D02*
X167725827Y-80518195D01*
X167725827Y-80518195D02*
X167649636Y-80480100D01*
X167649636Y-80480100D02*
X167573446Y-80403909D01*
X167573446Y-80403909D02*
X167535350Y-80251528D01*
X167535350Y-80251528D02*
X167535350Y-79984861D01*
X167535350Y-79984861D02*
X167573446Y-79832480D01*
X167573446Y-79832480D02*
X167649636Y-79756290D01*
X167649636Y-79756290D02*
X167725827Y-79718195D01*
X168373445Y-80480100D02*
X168487731Y-80518195D01*
X168487731Y-80518195D02*
X168678207Y-80518195D01*
X168678207Y-80518195D02*
X168754398Y-80480100D01*
X168754398Y-80480100D02*
X168792493Y-80442004D01*
X168792493Y-80442004D02*
X168830588Y-80365814D01*
X168830588Y-80365814D02*
X168830588Y-80289623D01*
X168830588Y-80289623D02*
X168792493Y-80213433D01*
X168792493Y-80213433D02*
X168754398Y-80175338D01*
X168754398Y-80175338D02*
X168678207Y-80137242D01*
X168678207Y-80137242D02*
X168525826Y-80099147D01*
X168525826Y-80099147D02*
X168449636Y-80061052D01*
X168449636Y-80061052D02*
X168411541Y-80022957D01*
X168411541Y-80022957D02*
X168373445Y-79946766D01*
X168373445Y-79946766D02*
X168373445Y-79870576D01*
X168373445Y-79870576D02*
X168411541Y-79794385D01*
X168411541Y-79794385D02*
X168449636Y-79756290D01*
X168449636Y-79756290D02*
X168525826Y-79718195D01*
X168525826Y-79718195D02*
X168716303Y-79718195D01*
X168716303Y-79718195D02*
X168830588Y-79756290D01*
X169173446Y-80518195D02*
X169173446Y-79718195D01*
X167078207Y-81044290D02*
X167002017Y-81006195D01*
X167002017Y-81006195D02*
X166887731Y-81006195D01*
X166887731Y-81006195D02*
X166773445Y-81044290D01*
X166773445Y-81044290D02*
X166697255Y-81120480D01*
X166697255Y-81120480D02*
X166659160Y-81196671D01*
X166659160Y-81196671D02*
X166621064Y-81349052D01*
X166621064Y-81349052D02*
X166621064Y-81463338D01*
X166621064Y-81463338D02*
X166659160Y-81615719D01*
X166659160Y-81615719D02*
X166697255Y-81691909D01*
X166697255Y-81691909D02*
X166773445Y-81768100D01*
X166773445Y-81768100D02*
X166887731Y-81806195D01*
X166887731Y-81806195D02*
X166963922Y-81806195D01*
X166963922Y-81806195D02*
X167078207Y-81768100D01*
X167078207Y-81768100D02*
X167116303Y-81730004D01*
X167116303Y-81730004D02*
X167116303Y-81463338D01*
X167116303Y-81463338D02*
X166963922Y-81463338D01*
X167459160Y-81806195D02*
X167459160Y-81006195D01*
X167459160Y-81006195D02*
X167916303Y-81806195D01*
X167916303Y-81806195D02*
X167916303Y-81006195D01*
X168297255Y-81806195D02*
X168297255Y-81006195D01*
X168297255Y-81006195D02*
X168487731Y-81006195D01*
X168487731Y-81006195D02*
X168602017Y-81044290D01*
X168602017Y-81044290D02*
X168678207Y-81120480D01*
X168678207Y-81120480D02*
X168716302Y-81196671D01*
X168716302Y-81196671D02*
X168754398Y-81349052D01*
X168754398Y-81349052D02*
X168754398Y-81463338D01*
X168754398Y-81463338D02*
X168716302Y-81615719D01*
X168716302Y-81615719D02*
X168678207Y-81691909D01*
X168678207Y-81691909D02*
X168602017Y-81768100D01*
X168602017Y-81768100D02*
X168487731Y-81806195D01*
X168487731Y-81806195D02*
X168297255Y-81806195D01*
X162849160Y-79233295D02*
X162849160Y-78433295D01*
X162849160Y-78433295D02*
X163115826Y-79004723D01*
X163115826Y-79004723D02*
X163382493Y-78433295D01*
X163382493Y-78433295D02*
X163382493Y-79233295D01*
X163763446Y-79233295D02*
X163763446Y-78433295D01*
X164106302Y-79195200D02*
X164220588Y-79233295D01*
X164220588Y-79233295D02*
X164411064Y-79233295D01*
X164411064Y-79233295D02*
X164487255Y-79195200D01*
X164487255Y-79195200D02*
X164525350Y-79157104D01*
X164525350Y-79157104D02*
X164563445Y-79080914D01*
X164563445Y-79080914D02*
X164563445Y-79004723D01*
X164563445Y-79004723D02*
X164525350Y-78928533D01*
X164525350Y-78928533D02*
X164487255Y-78890438D01*
X164487255Y-78890438D02*
X164411064Y-78852342D01*
X164411064Y-78852342D02*
X164258683Y-78814247D01*
X164258683Y-78814247D02*
X164182493Y-78776152D01*
X164182493Y-78776152D02*
X164144398Y-78738057D01*
X164144398Y-78738057D02*
X164106302Y-78661866D01*
X164106302Y-78661866D02*
X164106302Y-78585676D01*
X164106302Y-78585676D02*
X164144398Y-78509485D01*
X164144398Y-78509485D02*
X164182493Y-78471390D01*
X164182493Y-78471390D02*
X164258683Y-78433295D01*
X164258683Y-78433295D02*
X164449160Y-78433295D01*
X164449160Y-78433295D02*
X164563445Y-78471390D01*
X165058684Y-78433295D02*
X165211065Y-78433295D01*
X165211065Y-78433295D02*
X165287255Y-78471390D01*
X165287255Y-78471390D02*
X165363446Y-78547580D01*
X165363446Y-78547580D02*
X165401541Y-78699961D01*
X165401541Y-78699961D02*
X165401541Y-78966628D01*
X165401541Y-78966628D02*
X165363446Y-79119009D01*
X165363446Y-79119009D02*
X165287255Y-79195200D01*
X165287255Y-79195200D02*
X165211065Y-79233295D01*
X165211065Y-79233295D02*
X165058684Y-79233295D01*
X165058684Y-79233295D02*
X164982493Y-79195200D01*
X164982493Y-79195200D02*
X164906303Y-79119009D01*
X164906303Y-79119009D02*
X164868207Y-78966628D01*
X164868207Y-78966628D02*
X164868207Y-78699961D01*
X164868207Y-78699961D02*
X164906303Y-78547580D01*
X164906303Y-78547580D02*
X164982493Y-78471390D01*
X164982493Y-78471390D02*
X165058684Y-78433295D01*
X162811064Y-80483200D02*
X162925350Y-80521295D01*
X162925350Y-80521295D02*
X163115826Y-80521295D01*
X163115826Y-80521295D02*
X163192017Y-80483200D01*
X163192017Y-80483200D02*
X163230112Y-80445104D01*
X163230112Y-80445104D02*
X163268207Y-80368914D01*
X163268207Y-80368914D02*
X163268207Y-80292723D01*
X163268207Y-80292723D02*
X163230112Y-80216533D01*
X163230112Y-80216533D02*
X163192017Y-80178438D01*
X163192017Y-80178438D02*
X163115826Y-80140342D01*
X163115826Y-80140342D02*
X162963445Y-80102247D01*
X162963445Y-80102247D02*
X162887255Y-80064152D01*
X162887255Y-80064152D02*
X162849160Y-80026057D01*
X162849160Y-80026057D02*
X162811064Y-79949866D01*
X162811064Y-79949866D02*
X162811064Y-79873676D01*
X162811064Y-79873676D02*
X162849160Y-79797485D01*
X162849160Y-79797485D02*
X162887255Y-79759390D01*
X162887255Y-79759390D02*
X162963445Y-79721295D01*
X162963445Y-79721295D02*
X163153922Y-79721295D01*
X163153922Y-79721295D02*
X163268207Y-79759390D01*
X164068208Y-80445104D02*
X164030112Y-80483200D01*
X164030112Y-80483200D02*
X163915827Y-80521295D01*
X163915827Y-80521295D02*
X163839636Y-80521295D01*
X163839636Y-80521295D02*
X163725350Y-80483200D01*
X163725350Y-80483200D02*
X163649160Y-80407009D01*
X163649160Y-80407009D02*
X163611065Y-80330819D01*
X163611065Y-80330819D02*
X163572969Y-80178438D01*
X163572969Y-80178438D02*
X163572969Y-80064152D01*
X163572969Y-80064152D02*
X163611065Y-79911771D01*
X163611065Y-79911771D02*
X163649160Y-79835580D01*
X163649160Y-79835580D02*
X163725350Y-79759390D01*
X163725350Y-79759390D02*
X163839636Y-79721295D01*
X163839636Y-79721295D02*
X163915827Y-79721295D01*
X163915827Y-79721295D02*
X164030112Y-79759390D01*
X164030112Y-79759390D02*
X164068208Y-79797485D01*
X164411065Y-80521295D02*
X164411065Y-79721295D01*
X164868208Y-80521295D02*
X164525350Y-80064152D01*
X164868208Y-79721295D02*
X164411065Y-80178438D01*
X163306303Y-81809295D02*
X163039636Y-81428342D01*
X162849160Y-81809295D02*
X162849160Y-81009295D01*
X162849160Y-81009295D02*
X163153922Y-81009295D01*
X163153922Y-81009295D02*
X163230112Y-81047390D01*
X163230112Y-81047390D02*
X163268207Y-81085485D01*
X163268207Y-81085485D02*
X163306303Y-81161676D01*
X163306303Y-81161676D02*
X163306303Y-81275961D01*
X163306303Y-81275961D02*
X163268207Y-81352152D01*
X163268207Y-81352152D02*
X163230112Y-81390247D01*
X163230112Y-81390247D02*
X163153922Y-81428342D01*
X163153922Y-81428342D02*
X162849160Y-81428342D01*
X163649160Y-81390247D02*
X163915826Y-81390247D01*
X164030112Y-81809295D02*
X163649160Y-81809295D01*
X163649160Y-81809295D02*
X163649160Y-81009295D01*
X163649160Y-81009295D02*
X164030112Y-81009295D01*
X164334874Y-81771200D02*
X164449160Y-81809295D01*
X164449160Y-81809295D02*
X164639636Y-81809295D01*
X164639636Y-81809295D02*
X164715827Y-81771200D01*
X164715827Y-81771200D02*
X164753922Y-81733104D01*
X164753922Y-81733104D02*
X164792017Y-81656914D01*
X164792017Y-81656914D02*
X164792017Y-81580723D01*
X164792017Y-81580723D02*
X164753922Y-81504533D01*
X164753922Y-81504533D02*
X164715827Y-81466438D01*
X164715827Y-81466438D02*
X164639636Y-81428342D01*
X164639636Y-81428342D02*
X164487255Y-81390247D01*
X164487255Y-81390247D02*
X164411065Y-81352152D01*
X164411065Y-81352152D02*
X164372970Y-81314057D01*
X164372970Y-81314057D02*
X164334874Y-81237866D01*
X164334874Y-81237866D02*
X164334874Y-81161676D01*
X164334874Y-81161676D02*
X164372970Y-81085485D01*
X164372970Y-81085485D02*
X164411065Y-81047390D01*
X164411065Y-81047390D02*
X164487255Y-81009295D01*
X164487255Y-81009295D02*
X164677732Y-81009295D01*
X164677732Y-81009295D02*
X164792017Y-81047390D01*
X165134875Y-81390247D02*
X165401541Y-81390247D01*
X165515827Y-81809295D02*
X165134875Y-81809295D01*
X165134875Y-81809295D02*
X165134875Y-81009295D01*
X165134875Y-81009295D02*
X165515827Y-81009295D01*
X165744399Y-81009295D02*
X166201542Y-81009295D01*
X165972970Y-81809295D02*
X165972970Y-81009295D01*
X165130401Y-77733458D02*
X165130401Y-76933458D01*
X165968496Y-77657267D02*
X165930400Y-77695363D01*
X165930400Y-77695363D02*
X165816115Y-77733458D01*
X165816115Y-77733458D02*
X165739924Y-77733458D01*
X165739924Y-77733458D02*
X165625638Y-77695363D01*
X165625638Y-77695363D02*
X165549448Y-77619172D01*
X165549448Y-77619172D02*
X165511353Y-77542982D01*
X165511353Y-77542982D02*
X165473257Y-77390601D01*
X165473257Y-77390601D02*
X165473257Y-77276315D01*
X165473257Y-77276315D02*
X165511353Y-77123934D01*
X165511353Y-77123934D02*
X165549448Y-77047743D01*
X165549448Y-77047743D02*
X165625638Y-76971553D01*
X165625638Y-76971553D02*
X165739924Y-76933458D01*
X165739924Y-76933458D02*
X165816115Y-76933458D01*
X165816115Y-76933458D02*
X165930400Y-76971553D01*
X165930400Y-76971553D02*
X165968496Y-77009648D01*
X166273257Y-77695363D02*
X166387543Y-77733458D01*
X166387543Y-77733458D02*
X166578019Y-77733458D01*
X166578019Y-77733458D02*
X166654210Y-77695363D01*
X166654210Y-77695363D02*
X166692305Y-77657267D01*
X166692305Y-77657267D02*
X166730400Y-77581077D01*
X166730400Y-77581077D02*
X166730400Y-77504886D01*
X166730400Y-77504886D02*
X166692305Y-77428696D01*
X166692305Y-77428696D02*
X166654210Y-77390601D01*
X166654210Y-77390601D02*
X166578019Y-77352505D01*
X166578019Y-77352505D02*
X166425638Y-77314410D01*
X166425638Y-77314410D02*
X166349448Y-77276315D01*
X166349448Y-77276315D02*
X166311353Y-77238220D01*
X166311353Y-77238220D02*
X166273257Y-77162029D01*
X166273257Y-77162029D02*
X166273257Y-77085839D01*
X166273257Y-77085839D02*
X166311353Y-77009648D01*
X166311353Y-77009648D02*
X166349448Y-76971553D01*
X166349448Y-76971553D02*
X166425638Y-76933458D01*
X166425638Y-76933458D02*
X166616115Y-76933458D01*
X166616115Y-76933458D02*
X166730400Y-76971553D01*
X167073258Y-77733458D02*
X167073258Y-76933458D01*
X167073258Y-76933458D02*
X167378020Y-76933458D01*
X167378020Y-76933458D02*
X167454210Y-76971553D01*
X167454210Y-76971553D02*
X167492305Y-77009648D01*
X167492305Y-77009648D02*
X167530401Y-77085839D01*
X167530401Y-77085839D02*
X167530401Y-77200124D01*
X167530401Y-77200124D02*
X167492305Y-77276315D01*
X167492305Y-77276315D02*
X167454210Y-77314410D01*
X167454210Y-77314410D02*
X167378020Y-77352505D01*
X167378020Y-77352505D02*
X167073258Y-77352505D01*
X174407677Y-79176936D02*
X174369582Y-79253126D01*
X174369582Y-79253126D02*
X174369582Y-79367412D01*
X174369582Y-79367412D02*
X174407677Y-79481698D01*
X174407677Y-79481698D02*
X174483867Y-79557888D01*
X174483867Y-79557888D02*
X174560058Y-79595983D01*
X174560058Y-79595983D02*
X174712439Y-79634079D01*
X174712439Y-79634079D02*
X174826725Y-79634079D01*
X174826725Y-79634079D02*
X174979106Y-79595983D01*
X174979106Y-79595983D02*
X175055296Y-79557888D01*
X175055296Y-79557888D02*
X175131487Y-79481698D01*
X175131487Y-79481698D02*
X175169582Y-79367412D01*
X175169582Y-79367412D02*
X175169582Y-79291221D01*
X175169582Y-79291221D02*
X175131487Y-79176936D01*
X175131487Y-79176936D02*
X175093391Y-79138840D01*
X175093391Y-79138840D02*
X174826725Y-79138840D01*
X174826725Y-79138840D02*
X174826725Y-79291221D01*
X175169582Y-78795983D02*
X174369582Y-78795983D01*
X174369582Y-78795983D02*
X175169582Y-78338840D01*
X175169582Y-78338840D02*
X174369582Y-78338840D01*
X175169582Y-77957888D02*
X174369582Y-77957888D01*
X174369582Y-77957888D02*
X174369582Y-77767412D01*
X174369582Y-77767412D02*
X174407677Y-77653126D01*
X174407677Y-77653126D02*
X174483867Y-77576936D01*
X174483867Y-77576936D02*
X174560058Y-77538841D01*
X174560058Y-77538841D02*
X174712439Y-77500745D01*
X174712439Y-77500745D02*
X174826725Y-77500745D01*
X174826725Y-77500745D02*
X174979106Y-77538841D01*
X174979106Y-77538841D02*
X175055296Y-77576936D01*
X175055296Y-77576936D02*
X175131487Y-77653126D01*
X175131487Y-77653126D02*
X175169582Y-77767412D01*
X175169582Y-77767412D02*
X175169582Y-77957888D01*
X174369582Y-82645484D02*
X175169582Y-82378817D01*
X175169582Y-82378817D02*
X174369582Y-82112151D01*
X175093391Y-81388341D02*
X175131487Y-81426437D01*
X175131487Y-81426437D02*
X175169582Y-81540722D01*
X175169582Y-81540722D02*
X175169582Y-81616913D01*
X175169582Y-81616913D02*
X175131487Y-81731199D01*
X175131487Y-81731199D02*
X175055296Y-81807389D01*
X175055296Y-81807389D02*
X174979106Y-81845484D01*
X174979106Y-81845484D02*
X174826725Y-81883580D01*
X174826725Y-81883580D02*
X174712439Y-81883580D01*
X174712439Y-81883580D02*
X174560058Y-81845484D01*
X174560058Y-81845484D02*
X174483867Y-81807389D01*
X174483867Y-81807389D02*
X174407677Y-81731199D01*
X174407677Y-81731199D02*
X174369582Y-81616913D01*
X174369582Y-81616913D02*
X174369582Y-81540722D01*
X174369582Y-81540722D02*
X174407677Y-81426437D01*
X174407677Y-81426437D02*
X174445772Y-81388341D01*
X175093391Y-80588341D02*
X175131487Y-80626437D01*
X175131487Y-80626437D02*
X175169582Y-80740722D01*
X175169582Y-80740722D02*
X175169582Y-80816913D01*
X175169582Y-80816913D02*
X175131487Y-80931199D01*
X175131487Y-80931199D02*
X175055296Y-81007389D01*
X175055296Y-81007389D02*
X174979106Y-81045484D01*
X174979106Y-81045484D02*
X174826725Y-81083580D01*
X174826725Y-81083580D02*
X174712439Y-81083580D01*
X174712439Y-81083580D02*
X174560058Y-81045484D01*
X174560058Y-81045484D02*
X174483867Y-81007389D01*
X174483867Y-81007389D02*
X174407677Y-80931199D01*
X174407677Y-80931199D02*
X174369582Y-80816913D01*
X174369582Y-80816913D02*
X174369582Y-80740722D01*
X174369582Y-80740722D02*
X174407677Y-80626437D01*
X174407677Y-80626437D02*
X174445772Y-80588341D01*
X175116200Y-88648935D02*
X175154295Y-88534649D01*
X175154295Y-88534649D02*
X175154295Y-88344173D01*
X175154295Y-88344173D02*
X175116200Y-88267982D01*
X175116200Y-88267982D02*
X175078104Y-88229887D01*
X175078104Y-88229887D02*
X175001914Y-88191792D01*
X175001914Y-88191792D02*
X174925723Y-88191792D01*
X174925723Y-88191792D02*
X174849533Y-88229887D01*
X174849533Y-88229887D02*
X174811438Y-88267982D01*
X174811438Y-88267982D02*
X174773342Y-88344173D01*
X174773342Y-88344173D02*
X174735247Y-88496554D01*
X174735247Y-88496554D02*
X174697152Y-88572744D01*
X174697152Y-88572744D02*
X174659057Y-88610839D01*
X174659057Y-88610839D02*
X174582866Y-88648935D01*
X174582866Y-88648935D02*
X174506676Y-88648935D01*
X174506676Y-88648935D02*
X174430485Y-88610839D01*
X174430485Y-88610839D02*
X174392390Y-88572744D01*
X174392390Y-88572744D02*
X174354295Y-88496554D01*
X174354295Y-88496554D02*
X174354295Y-88306077D01*
X174354295Y-88306077D02*
X174392390Y-88191792D01*
X175078104Y-87391791D02*
X175116200Y-87429887D01*
X175116200Y-87429887D02*
X175154295Y-87544172D01*
X175154295Y-87544172D02*
X175154295Y-87620363D01*
X175154295Y-87620363D02*
X175116200Y-87734649D01*
X175116200Y-87734649D02*
X175040009Y-87810839D01*
X175040009Y-87810839D02*
X174963819Y-87848934D01*
X174963819Y-87848934D02*
X174811438Y-87887030D01*
X174811438Y-87887030D02*
X174697152Y-87887030D01*
X174697152Y-87887030D02*
X174544771Y-87848934D01*
X174544771Y-87848934D02*
X174468580Y-87810839D01*
X174468580Y-87810839D02*
X174392390Y-87734649D01*
X174392390Y-87734649D02*
X174354295Y-87620363D01*
X174354295Y-87620363D02*
X174354295Y-87544172D01*
X174354295Y-87544172D02*
X174392390Y-87429887D01*
X174392390Y-87429887D02*
X174430485Y-87391791D01*
X175154295Y-87048934D02*
X174354295Y-87048934D01*
X175154295Y-86591791D02*
X174697152Y-86934649D01*
X174354295Y-86591791D02*
X174811438Y-87048934D01*
X175093447Y-85473935D02*
X175131542Y-85359649D01*
X175131542Y-85359649D02*
X175131542Y-85169173D01*
X175131542Y-85169173D02*
X175093447Y-85092982D01*
X175093447Y-85092982D02*
X175055351Y-85054887D01*
X175055351Y-85054887D02*
X174979161Y-85016792D01*
X174979161Y-85016792D02*
X174902970Y-85016792D01*
X174902970Y-85016792D02*
X174826780Y-85054887D01*
X174826780Y-85054887D02*
X174788685Y-85092982D01*
X174788685Y-85092982D02*
X174750589Y-85169173D01*
X174750589Y-85169173D02*
X174712494Y-85321554D01*
X174712494Y-85321554D02*
X174674399Y-85397744D01*
X174674399Y-85397744D02*
X174636304Y-85435839D01*
X174636304Y-85435839D02*
X174560113Y-85473935D01*
X174560113Y-85473935D02*
X174483923Y-85473935D01*
X174483923Y-85473935D02*
X174407732Y-85435839D01*
X174407732Y-85435839D02*
X174369637Y-85397744D01*
X174369637Y-85397744D02*
X174331542Y-85321554D01*
X174331542Y-85321554D02*
X174331542Y-85131077D01*
X174331542Y-85131077D02*
X174369637Y-85016792D01*
X175131542Y-84673934D02*
X174331542Y-84673934D01*
X174331542Y-84673934D02*
X174331542Y-84483458D01*
X174331542Y-84483458D02*
X174369637Y-84369172D01*
X174369637Y-84369172D02*
X174445827Y-84292982D01*
X174445827Y-84292982D02*
X174522018Y-84254887D01*
X174522018Y-84254887D02*
X174674399Y-84216791D01*
X174674399Y-84216791D02*
X174788685Y-84216791D01*
X174788685Y-84216791D02*
X174941066Y-84254887D01*
X174941066Y-84254887D02*
X175017256Y-84292982D01*
X175017256Y-84292982D02*
X175093447Y-84369172D01*
X175093447Y-84369172D02*
X175131542Y-84483458D01*
X175131542Y-84483458D02*
X175131542Y-84673934D01*
X174902970Y-83912030D02*
X174902970Y-83531077D01*
X175131542Y-83988220D02*
X174331542Y-83721553D01*
X174331542Y-83721553D02*
X175131542Y-83454887D01*
X134236064Y-93150485D02*
X134274160Y-93112390D01*
X134274160Y-93112390D02*
X134350350Y-93074295D01*
X134350350Y-93074295D02*
X134540826Y-93074295D01*
X134540826Y-93074295D02*
X134617017Y-93112390D01*
X134617017Y-93112390D02*
X134655112Y-93150485D01*
X134655112Y-93150485D02*
X134693207Y-93226676D01*
X134693207Y-93226676D02*
X134693207Y-93302866D01*
X134693207Y-93302866D02*
X134655112Y-93417152D01*
X134655112Y-93417152D02*
X134197969Y-93874295D01*
X134197969Y-93874295D02*
X134693207Y-93874295D01*
X136848936Y-93074295D02*
X137344174Y-93074295D01*
X137344174Y-93074295D02*
X137077508Y-93379057D01*
X137077508Y-93379057D02*
X137191793Y-93379057D01*
X137191793Y-93379057D02*
X137267984Y-93417152D01*
X137267984Y-93417152D02*
X137306079Y-93455247D01*
X137306079Y-93455247D02*
X137344174Y-93531438D01*
X137344174Y-93531438D02*
X137344174Y-93721914D01*
X137344174Y-93721914D02*
X137306079Y-93798104D01*
X137306079Y-93798104D02*
X137267984Y-93836200D01*
X137267984Y-93836200D02*
X137191793Y-93874295D01*
X137191793Y-93874295D02*
X136963222Y-93874295D01*
X136963222Y-93874295D02*
X136887031Y-93836200D01*
X136887031Y-93836200D02*
X136848936Y-93798104D01*
X139937345Y-93310385D02*
X139937345Y-93843719D01*
X139746869Y-93005624D02*
X139556392Y-93577052D01*
X139556392Y-93577052D02*
X140051631Y-93577052D01*
X142422322Y-93074295D02*
X142041370Y-93074295D01*
X142041370Y-93074295D02*
X142003274Y-93455247D01*
X142003274Y-93455247D02*
X142041370Y-93417152D01*
X142041370Y-93417152D02*
X142117560Y-93379057D01*
X142117560Y-93379057D02*
X142308036Y-93379057D01*
X142308036Y-93379057D02*
X142384227Y-93417152D01*
X142384227Y-93417152D02*
X142422322Y-93455247D01*
X142422322Y-93455247D02*
X142460417Y-93531438D01*
X142460417Y-93531438D02*
X142460417Y-93721914D01*
X142460417Y-93721914D02*
X142422322Y-93798104D01*
X142422322Y-93798104D02*
X142384227Y-93836200D01*
X142384227Y-93836200D02*
X142308036Y-93874295D01*
X142308036Y-93874295D02*
X142117560Y-93874295D01*
X142117560Y-93874295D02*
X142041370Y-93836200D01*
X142041370Y-93836200D02*
X142003274Y-93798104D01*
X145105416Y-93074295D02*
X144953035Y-93074295D01*
X144953035Y-93074295D02*
X144876844Y-93112390D01*
X144876844Y-93112390D02*
X144838749Y-93150485D01*
X144838749Y-93150485D02*
X144762559Y-93264771D01*
X144762559Y-93264771D02*
X144724463Y-93417152D01*
X144724463Y-93417152D02*
X144724463Y-93721914D01*
X144724463Y-93721914D02*
X144762559Y-93798104D01*
X144762559Y-93798104D02*
X144800654Y-93836200D01*
X144800654Y-93836200D02*
X144876844Y-93874295D01*
X144876844Y-93874295D02*
X145029225Y-93874295D01*
X145029225Y-93874295D02*
X145105416Y-93836200D01*
X145105416Y-93836200D02*
X145143511Y-93798104D01*
X145143511Y-93798104D02*
X145181606Y-93721914D01*
X145181606Y-93721914D02*
X145181606Y-93531438D01*
X145181606Y-93531438D02*
X145143511Y-93455247D01*
X145143511Y-93455247D02*
X145105416Y-93417152D01*
X145105416Y-93417152D02*
X145029225Y-93379057D01*
X145029225Y-93379057D02*
X144876844Y-93379057D01*
X144876844Y-93379057D02*
X144800654Y-93417152D01*
X144800654Y-93417152D02*
X144762559Y-93455247D01*
X144762559Y-93455247D02*
X144724463Y-93531438D01*
X147146800Y-93059007D02*
X147680134Y-93059007D01*
X147680134Y-93059007D02*
X147337276Y-93859007D01*
X149830021Y-93417152D02*
X149753831Y-93379057D01*
X149753831Y-93379057D02*
X149715736Y-93340961D01*
X149715736Y-93340961D02*
X149677640Y-93264771D01*
X149677640Y-93264771D02*
X149677640Y-93226676D01*
X149677640Y-93226676D02*
X149715736Y-93150485D01*
X149715736Y-93150485D02*
X149753831Y-93112390D01*
X149753831Y-93112390D02*
X149830021Y-93074295D01*
X149830021Y-93074295D02*
X149982402Y-93074295D01*
X149982402Y-93074295D02*
X150058593Y-93112390D01*
X150058593Y-93112390D02*
X150096688Y-93150485D01*
X150096688Y-93150485D02*
X150134783Y-93226676D01*
X150134783Y-93226676D02*
X150134783Y-93264771D01*
X150134783Y-93264771D02*
X150096688Y-93340961D01*
X150096688Y-93340961D02*
X150058593Y-93379057D01*
X150058593Y-93379057D02*
X149982402Y-93417152D01*
X149982402Y-93417152D02*
X149830021Y-93417152D01*
X149830021Y-93417152D02*
X149753831Y-93455247D01*
X149753831Y-93455247D02*
X149715736Y-93493342D01*
X149715736Y-93493342D02*
X149677640Y-93569533D01*
X149677640Y-93569533D02*
X149677640Y-93721914D01*
X149677640Y-93721914D02*
X149715736Y-93798104D01*
X149715736Y-93798104D02*
X149753831Y-93836200D01*
X149753831Y-93836200D02*
X149830021Y-93874295D01*
X149830021Y-93874295D02*
X149982402Y-93874295D01*
X149982402Y-93874295D02*
X150058593Y-93836200D01*
X150058593Y-93836200D02*
X150096688Y-93798104D01*
X150096688Y-93798104D02*
X150134783Y-93721914D01*
X150134783Y-93721914D02*
X150134783Y-93569533D01*
X150134783Y-93569533D02*
X150096688Y-93493342D01*
X150096688Y-93493342D02*
X150058593Y-93455247D01*
X150058593Y-93455247D02*
X149982402Y-93417152D01*
X151918334Y-93112390D02*
X151842144Y-93074295D01*
X151842144Y-93074295D02*
X151727858Y-93074295D01*
X151727858Y-93074295D02*
X151613572Y-93112390D01*
X151613572Y-93112390D02*
X151537382Y-93188580D01*
X151537382Y-93188580D02*
X151499287Y-93264771D01*
X151499287Y-93264771D02*
X151461191Y-93417152D01*
X151461191Y-93417152D02*
X151461191Y-93531438D01*
X151461191Y-93531438D02*
X151499287Y-93683819D01*
X151499287Y-93683819D02*
X151537382Y-93760009D01*
X151537382Y-93760009D02*
X151613572Y-93836200D01*
X151613572Y-93836200D02*
X151727858Y-93874295D01*
X151727858Y-93874295D02*
X151804049Y-93874295D01*
X151804049Y-93874295D02*
X151918334Y-93836200D01*
X151918334Y-93836200D02*
X151956430Y-93798104D01*
X151956430Y-93798104D02*
X151956430Y-93531438D01*
X151956430Y-93531438D02*
X151804049Y-93531438D01*
X152299287Y-93874295D02*
X152299287Y-93074295D01*
X152299287Y-93074295D02*
X152756430Y-93874295D01*
X152756430Y-93874295D02*
X152756430Y-93074295D01*
X153137382Y-93874295D02*
X153137382Y-93074295D01*
X153137382Y-93074295D02*
X153327858Y-93074295D01*
X153327858Y-93074295D02*
X153442144Y-93112390D01*
X153442144Y-93112390D02*
X153518334Y-93188580D01*
X153518334Y-93188580D02*
X153556429Y-93264771D01*
X153556429Y-93264771D02*
X153594525Y-93417152D01*
X153594525Y-93417152D02*
X153594525Y-93531438D01*
X153594525Y-93531438D02*
X153556429Y-93683819D01*
X153556429Y-93683819D02*
X153518334Y-93760009D01*
X153518334Y-93760009D02*
X153442144Y-93836200D01*
X153442144Y-93836200D02*
X153327858Y-93874295D01*
X153327858Y-93874295D02*
X153137382Y-93874295D01*
X154479874Y-93074295D02*
X154746541Y-93874295D01*
X154746541Y-93874295D02*
X155013207Y-93074295D01*
X155737017Y-93798104D02*
X155698921Y-93836200D01*
X155698921Y-93836200D02*
X155584636Y-93874295D01*
X155584636Y-93874295D02*
X155508445Y-93874295D01*
X155508445Y-93874295D02*
X155394159Y-93836200D01*
X155394159Y-93836200D02*
X155317969Y-93760009D01*
X155317969Y-93760009D02*
X155279874Y-93683819D01*
X155279874Y-93683819D02*
X155241778Y-93531438D01*
X155241778Y-93531438D02*
X155241778Y-93417152D01*
X155241778Y-93417152D02*
X155279874Y-93264771D01*
X155279874Y-93264771D02*
X155317969Y-93188580D01*
X155317969Y-93188580D02*
X155394159Y-93112390D01*
X155394159Y-93112390D02*
X155508445Y-93074295D01*
X155508445Y-93074295D02*
X155584636Y-93074295D01*
X155584636Y-93074295D02*
X155698921Y-93112390D01*
X155698921Y-93112390D02*
X155737017Y-93150485D01*
X156537017Y-93798104D02*
X156498921Y-93836200D01*
X156498921Y-93836200D02*
X156384636Y-93874295D01*
X156384636Y-93874295D02*
X156308445Y-93874295D01*
X156308445Y-93874295D02*
X156194159Y-93836200D01*
X156194159Y-93836200D02*
X156117969Y-93760009D01*
X156117969Y-93760009D02*
X156079874Y-93683819D01*
X156079874Y-93683819D02*
X156041778Y-93531438D01*
X156041778Y-93531438D02*
X156041778Y-93417152D01*
X156041778Y-93417152D02*
X156079874Y-93264771D01*
X156079874Y-93264771D02*
X156117969Y-93188580D01*
X156117969Y-93188580D02*
X156194159Y-93112390D01*
X156194159Y-93112390D02*
X156308445Y-93074295D01*
X156308445Y-93074295D02*
X156384636Y-93074295D01*
X156384636Y-93074295D02*
X156498921Y-93112390D01*
X156498921Y-93112390D02*
X156537017Y-93150485D01*
X160728207Y-93112390D02*
X160652017Y-93074295D01*
X160652017Y-93074295D02*
X160537731Y-93074295D01*
X160537731Y-93074295D02*
X160423445Y-93112390D01*
X160423445Y-93112390D02*
X160347255Y-93188580D01*
X160347255Y-93188580D02*
X160309160Y-93264771D01*
X160309160Y-93264771D02*
X160271064Y-93417152D01*
X160271064Y-93417152D02*
X160271064Y-93531438D01*
X160271064Y-93531438D02*
X160309160Y-93683819D01*
X160309160Y-93683819D02*
X160347255Y-93760009D01*
X160347255Y-93760009D02*
X160423445Y-93836200D01*
X160423445Y-93836200D02*
X160537731Y-93874295D01*
X160537731Y-93874295D02*
X160613922Y-93874295D01*
X160613922Y-93874295D02*
X160728207Y-93836200D01*
X160728207Y-93836200D02*
X160766303Y-93798104D01*
X160766303Y-93798104D02*
X160766303Y-93531438D01*
X160766303Y-93531438D02*
X160613922Y-93531438D01*
X161109160Y-93874295D02*
X161109160Y-93074295D01*
X161109160Y-93074295D02*
X161566303Y-93874295D01*
X161566303Y-93874295D02*
X161566303Y-93074295D01*
X161947255Y-93874295D02*
X161947255Y-93074295D01*
X161947255Y-93074295D02*
X162137731Y-93074295D01*
X162137731Y-93074295D02*
X162252017Y-93112390D01*
X162252017Y-93112390D02*
X162328207Y-93188580D01*
X162328207Y-93188580D02*
X162366302Y-93264771D01*
X162366302Y-93264771D02*
X162404398Y-93417152D01*
X162404398Y-93417152D02*
X162404398Y-93531438D01*
X162404398Y-93531438D02*
X162366302Y-93683819D01*
X162366302Y-93683819D02*
X162328207Y-93760009D01*
X162328207Y-93760009D02*
X162252017Y-93836200D01*
X162252017Y-93836200D02*
X162137731Y-93874295D01*
X162137731Y-93874295D02*
X161947255Y-93874295D01*
X163030149Y-93042587D02*
X163296816Y-93842587D01*
X163296816Y-93842587D02*
X163563482Y-93042587D01*
X164287292Y-93766396D02*
X164249196Y-93804492D01*
X164249196Y-93804492D02*
X164134911Y-93842587D01*
X164134911Y-93842587D02*
X164058720Y-93842587D01*
X164058720Y-93842587D02*
X163944434Y-93804492D01*
X163944434Y-93804492D02*
X163868244Y-93728301D01*
X163868244Y-93728301D02*
X163830149Y-93652111D01*
X163830149Y-93652111D02*
X163792053Y-93499730D01*
X163792053Y-93499730D02*
X163792053Y-93385444D01*
X163792053Y-93385444D02*
X163830149Y-93233063D01*
X163830149Y-93233063D02*
X163868244Y-93156872D01*
X163868244Y-93156872D02*
X163944434Y-93080682D01*
X163944434Y-93080682D02*
X164058720Y-93042587D01*
X164058720Y-93042587D02*
X164134911Y-93042587D01*
X164134911Y-93042587D02*
X164249196Y-93080682D01*
X164249196Y-93080682D02*
X164287292Y-93118777D01*
X165087292Y-93766396D02*
X165049196Y-93804492D01*
X165049196Y-93804492D02*
X164934911Y-93842587D01*
X164934911Y-93842587D02*
X164858720Y-93842587D01*
X164858720Y-93842587D02*
X164744434Y-93804492D01*
X164744434Y-93804492D02*
X164668244Y-93728301D01*
X164668244Y-93728301D02*
X164630149Y-93652111D01*
X164630149Y-93652111D02*
X164592053Y-93499730D01*
X164592053Y-93499730D02*
X164592053Y-93385444D01*
X164592053Y-93385444D02*
X164630149Y-93233063D01*
X164630149Y-93233063D02*
X164668244Y-93156872D01*
X164668244Y-93156872D02*
X164744434Y-93080682D01*
X164744434Y-93080682D02*
X164858720Y-93042587D01*
X164858720Y-93042587D02*
X164934911Y-93042587D01*
X164934911Y-93042587D02*
X165049196Y-93080682D01*
X165049196Y-93080682D02*
X165087292Y-93118777D01*
X166481303Y-93874295D02*
X166214636Y-93493342D01*
X166024160Y-93874295D02*
X166024160Y-93074295D01*
X166024160Y-93074295D02*
X166328922Y-93074295D01*
X166328922Y-93074295D02*
X166405112Y-93112390D01*
X166405112Y-93112390D02*
X166443207Y-93150485D01*
X166443207Y-93150485D02*
X166481303Y-93226676D01*
X166481303Y-93226676D02*
X166481303Y-93340961D01*
X166481303Y-93340961D02*
X166443207Y-93417152D01*
X166443207Y-93417152D02*
X166405112Y-93455247D01*
X166405112Y-93455247D02*
X166328922Y-93493342D01*
X166328922Y-93493342D02*
X166024160Y-93493342D01*
X166747969Y-93074295D02*
X167281303Y-93874295D01*
X167281303Y-93074295D02*
X166747969Y-93874295D01*
X168449874Y-93074295D02*
X168907017Y-93074295D01*
X168678445Y-93874295D02*
X168678445Y-93074295D01*
X169097493Y-93074295D02*
X169630827Y-93874295D01*
X169630827Y-93074295D02*
X169097493Y-93874295D01*
X158966191Y-89186104D02*
X158928095Y-89224200D01*
X158928095Y-89224200D02*
X158813810Y-89262295D01*
X158813810Y-89262295D02*
X158737619Y-89262295D01*
X158737619Y-89262295D02*
X158623333Y-89224200D01*
X158623333Y-89224200D02*
X158547143Y-89148009D01*
X158547143Y-89148009D02*
X158509048Y-89071819D01*
X158509048Y-89071819D02*
X158470952Y-88919438D01*
X158470952Y-88919438D02*
X158470952Y-88805152D01*
X158470952Y-88805152D02*
X158509048Y-88652771D01*
X158509048Y-88652771D02*
X158547143Y-88576580D01*
X158547143Y-88576580D02*
X158623333Y-88500390D01*
X158623333Y-88500390D02*
X158737619Y-88462295D01*
X158737619Y-88462295D02*
X158813810Y-88462295D01*
X158813810Y-88462295D02*
X158928095Y-88500390D01*
X158928095Y-88500390D02*
X158966191Y-88538485D01*
X159651905Y-88728961D02*
X159651905Y-89262295D01*
X159461429Y-88424200D02*
X159270952Y-88995628D01*
X159270952Y-88995628D02*
X159766191Y-88995628D01*
X160299524Y-89528961D02*
X160109048Y-89528961D01*
X160109048Y-89528961D02*
X160109048Y-88386104D01*
X160109048Y-88386104D02*
X160299524Y-88386104D01*
X160756667Y-88462295D02*
X160832857Y-88462295D01*
X160832857Y-88462295D02*
X160909048Y-88500390D01*
X160909048Y-88500390D02*
X160947143Y-88538485D01*
X160947143Y-88538485D02*
X160985238Y-88614676D01*
X160985238Y-88614676D02*
X161023333Y-88767057D01*
X161023333Y-88767057D02*
X161023333Y-88957533D01*
X161023333Y-88957533D02*
X160985238Y-89109914D01*
X160985238Y-89109914D02*
X160947143Y-89186104D01*
X160947143Y-89186104D02*
X160909048Y-89224200D01*
X160909048Y-89224200D02*
X160832857Y-89262295D01*
X160832857Y-89262295D02*
X160756667Y-89262295D01*
X160756667Y-89262295D02*
X160680476Y-89224200D01*
X160680476Y-89224200D02*
X160642381Y-89186104D01*
X160642381Y-89186104D02*
X160604286Y-89109914D01*
X160604286Y-89109914D02*
X160566190Y-88957533D01*
X160566190Y-88957533D02*
X160566190Y-88767057D01*
X160566190Y-88767057D02*
X160604286Y-88614676D01*
X160604286Y-88614676D02*
X160642381Y-88538485D01*
X160642381Y-88538485D02*
X160680476Y-88500390D01*
X160680476Y-88500390D02*
X160756667Y-88462295D01*
X161366191Y-89186104D02*
X161404286Y-89224200D01*
X161404286Y-89224200D02*
X161366191Y-89262295D01*
X161366191Y-89262295D02*
X161328095Y-89224200D01*
X161328095Y-89224200D02*
X161366191Y-89186104D01*
X161366191Y-89186104D02*
X161366191Y-89262295D01*
X162166190Y-89262295D02*
X161709047Y-89262295D01*
X161937619Y-89262295D02*
X161937619Y-88462295D01*
X161937619Y-88462295D02*
X161861428Y-88576580D01*
X161861428Y-88576580D02*
X161785238Y-88652771D01*
X161785238Y-88652771D02*
X161709047Y-88690866D01*
X162851905Y-88728961D02*
X162851905Y-89262295D01*
X162509048Y-88728961D02*
X162509048Y-89148009D01*
X162509048Y-89148009D02*
X162547143Y-89224200D01*
X162547143Y-89224200D02*
X162623333Y-89262295D01*
X162623333Y-89262295D02*
X162737619Y-89262295D01*
X162737619Y-89262295D02*
X162813810Y-89224200D01*
X162813810Y-89224200D02*
X162851905Y-89186104D01*
X163499524Y-88843247D02*
X163232858Y-88843247D01*
X163232858Y-89262295D02*
X163232858Y-88462295D01*
X163232858Y-88462295D02*
X163613810Y-88462295D01*
X163842381Y-89528961D02*
X164032857Y-89528961D01*
X164032857Y-89528961D02*
X164032857Y-88386104D01*
X164032857Y-88386104D02*
X163842381Y-88386104D01*
X164350153Y-64599770D02*
X164350153Y-63799770D01*
X164350153Y-63799770D02*
X164540629Y-63799770D01*
X164540629Y-63799770D02*
X164654915Y-63837865D01*
X164654915Y-63837865D02*
X164731105Y-63914055D01*
X164731105Y-63914055D02*
X164769200Y-63990246D01*
X164769200Y-63990246D02*
X164807296Y-64142627D01*
X164807296Y-64142627D02*
X164807296Y-64256913D01*
X164807296Y-64256913D02*
X164769200Y-64409294D01*
X164769200Y-64409294D02*
X164731105Y-64485484D01*
X164731105Y-64485484D02*
X164654915Y-64561675D01*
X164654915Y-64561675D02*
X164540629Y-64599770D01*
X164540629Y-64599770D02*
X164350153Y-64599770D01*
X165569200Y-64599770D02*
X165112057Y-64599770D01*
X165340629Y-64599770D02*
X165340629Y-63799770D01*
X165340629Y-63799770D02*
X165264438Y-63914055D01*
X165264438Y-63914055D02*
X165188248Y-63990246D01*
X165188248Y-63990246D02*
X165112057Y-64028341D01*
X166140629Y-64866436D02*
X165950153Y-64866436D01*
X165950153Y-64866436D02*
X165950153Y-63723579D01*
X165950153Y-63723579D02*
X166140629Y-63723579D01*
X166826343Y-64599770D02*
X166445391Y-64599770D01*
X166445391Y-64599770D02*
X166445391Y-63799770D01*
X167093010Y-64180722D02*
X167359676Y-64180722D01*
X167473962Y-64599770D02*
X167093010Y-64599770D01*
X167093010Y-64599770D02*
X167093010Y-63799770D01*
X167093010Y-63799770D02*
X167473962Y-63799770D01*
X167816820Y-64599770D02*
X167816820Y-63799770D01*
X167816820Y-63799770D02*
X168007296Y-63799770D01*
X168007296Y-63799770D02*
X168121582Y-63837865D01*
X168121582Y-63837865D02*
X168197772Y-63914055D01*
X168197772Y-63914055D02*
X168235867Y-63990246D01*
X168235867Y-63990246D02*
X168273963Y-64142627D01*
X168273963Y-64142627D02*
X168273963Y-64256913D01*
X168273963Y-64256913D02*
X168235867Y-64409294D01*
X168235867Y-64409294D02*
X168197772Y-64485484D01*
X168197772Y-64485484D02*
X168121582Y-64561675D01*
X168121582Y-64561675D02*
X168007296Y-64599770D01*
X168007296Y-64599770D02*
X167816820Y-64599770D01*
X168540629Y-64866436D02*
X168731105Y-64866436D01*
X168731105Y-64866436D02*
X168731105Y-63723579D01*
X168731105Y-63723579D02*
X168540629Y-63723579D01*
X164480278Y-71784933D02*
X164213611Y-71403980D01*
X164023135Y-71784933D02*
X164023135Y-70984933D01*
X164023135Y-70984933D02*
X164327897Y-70984933D01*
X164327897Y-70984933D02*
X164404087Y-71023028D01*
X164404087Y-71023028D02*
X164442182Y-71061123D01*
X164442182Y-71061123D02*
X164480278Y-71137314D01*
X164480278Y-71137314D02*
X164480278Y-71251599D01*
X164480278Y-71251599D02*
X164442182Y-71327790D01*
X164442182Y-71327790D02*
X164404087Y-71365885D01*
X164404087Y-71365885D02*
X164327897Y-71403980D01*
X164327897Y-71403980D02*
X164023135Y-71403980D01*
X165165992Y-70984933D02*
X165013611Y-70984933D01*
X165013611Y-70984933D02*
X164937420Y-71023028D01*
X164937420Y-71023028D02*
X164899325Y-71061123D01*
X164899325Y-71061123D02*
X164823135Y-71175409D01*
X164823135Y-71175409D02*
X164785039Y-71327790D01*
X164785039Y-71327790D02*
X164785039Y-71632552D01*
X164785039Y-71632552D02*
X164823135Y-71708742D01*
X164823135Y-71708742D02*
X164861230Y-71746838D01*
X164861230Y-71746838D02*
X164937420Y-71784933D01*
X164937420Y-71784933D02*
X165089801Y-71784933D01*
X165089801Y-71784933D02*
X165165992Y-71746838D01*
X165165992Y-71746838D02*
X165204087Y-71708742D01*
X165204087Y-71708742D02*
X165242182Y-71632552D01*
X165242182Y-71632552D02*
X165242182Y-71442076D01*
X165242182Y-71442076D02*
X165204087Y-71365885D01*
X165204087Y-71365885D02*
X165165992Y-71327790D01*
X165165992Y-71327790D02*
X165089801Y-71289695D01*
X165089801Y-71289695D02*
X164937420Y-71289695D01*
X164937420Y-71289695D02*
X164861230Y-71327790D01*
X164861230Y-71327790D02*
X164823135Y-71365885D01*
X164823135Y-71365885D02*
X164785039Y-71442076D01*
X165813611Y-72051599D02*
X165623135Y-72051599D01*
X165623135Y-72051599D02*
X165623135Y-70908742D01*
X165623135Y-70908742D02*
X165813611Y-70908742D01*
X166537420Y-71784933D02*
X166080277Y-71784933D01*
X166308849Y-71784933D02*
X166308849Y-70984933D01*
X166308849Y-70984933D02*
X166232658Y-71099218D01*
X166232658Y-71099218D02*
X166156468Y-71175409D01*
X166156468Y-71175409D02*
X166080277Y-71213504D01*
X167032659Y-70984933D02*
X167108849Y-70984933D01*
X167108849Y-70984933D02*
X167185040Y-71023028D01*
X167185040Y-71023028D02*
X167223135Y-71061123D01*
X167223135Y-71061123D02*
X167261230Y-71137314D01*
X167261230Y-71137314D02*
X167299325Y-71289695D01*
X167299325Y-71289695D02*
X167299325Y-71480171D01*
X167299325Y-71480171D02*
X167261230Y-71632552D01*
X167261230Y-71632552D02*
X167223135Y-71708742D01*
X167223135Y-71708742D02*
X167185040Y-71746838D01*
X167185040Y-71746838D02*
X167108849Y-71784933D01*
X167108849Y-71784933D02*
X167032659Y-71784933D01*
X167032659Y-71784933D02*
X166956468Y-71746838D01*
X166956468Y-71746838D02*
X166918373Y-71708742D01*
X166918373Y-71708742D02*
X166880278Y-71632552D01*
X166880278Y-71632552D02*
X166842182Y-71480171D01*
X166842182Y-71480171D02*
X166842182Y-71289695D01*
X166842182Y-71289695D02*
X166880278Y-71137314D01*
X166880278Y-71137314D02*
X166918373Y-71061123D01*
X166918373Y-71061123D02*
X166956468Y-71023028D01*
X166956468Y-71023028D02*
X167032659Y-70984933D01*
X167642183Y-71784933D02*
X167642183Y-70984933D01*
X168099326Y-71784933D02*
X167756468Y-71327790D01*
X168099326Y-70984933D02*
X167642183Y-71442076D01*
X168365992Y-72051599D02*
X168556468Y-72051599D01*
X168556468Y-72051599D02*
X168556468Y-70908742D01*
X168556468Y-70908742D02*
X168365992Y-70908742D01*
X164505552Y-68574541D02*
X164238885Y-68193588D01*
X164048409Y-68574541D02*
X164048409Y-67774541D01*
X164048409Y-67774541D02*
X164353171Y-67774541D01*
X164353171Y-67774541D02*
X164429361Y-67812636D01*
X164429361Y-67812636D02*
X164467456Y-67850731D01*
X164467456Y-67850731D02*
X164505552Y-67926922D01*
X164505552Y-67926922D02*
X164505552Y-68041207D01*
X164505552Y-68041207D02*
X164467456Y-68117398D01*
X164467456Y-68117398D02*
X164429361Y-68155493D01*
X164429361Y-68155493D02*
X164353171Y-68193588D01*
X164353171Y-68193588D02*
X164048409Y-68193588D01*
X164772218Y-67774541D02*
X165305552Y-67774541D01*
X165305552Y-67774541D02*
X164962694Y-68574541D01*
X165838885Y-68841207D02*
X165648409Y-68841207D01*
X165648409Y-68841207D02*
X165648409Y-67698350D01*
X165648409Y-67698350D02*
X165838885Y-67698350D01*
X166067456Y-67774541D02*
X166562694Y-67774541D01*
X166562694Y-67774541D02*
X166296028Y-68079303D01*
X166296028Y-68079303D02*
X166410313Y-68079303D01*
X166410313Y-68079303D02*
X166486504Y-68117398D01*
X166486504Y-68117398D02*
X166524599Y-68155493D01*
X166524599Y-68155493D02*
X166562694Y-68231684D01*
X166562694Y-68231684D02*
X166562694Y-68422160D01*
X166562694Y-68422160D02*
X166524599Y-68498350D01*
X166524599Y-68498350D02*
X166486504Y-68536446D01*
X166486504Y-68536446D02*
X166410313Y-68574541D01*
X166410313Y-68574541D02*
X166181742Y-68574541D01*
X166181742Y-68574541D02*
X166105551Y-68536446D01*
X166105551Y-68536446D02*
X166067456Y-68498350D01*
X166829361Y-67774541D02*
X167324599Y-67774541D01*
X167324599Y-67774541D02*
X167057933Y-68079303D01*
X167057933Y-68079303D02*
X167172218Y-68079303D01*
X167172218Y-68079303D02*
X167248409Y-68117398D01*
X167248409Y-68117398D02*
X167286504Y-68155493D01*
X167286504Y-68155493D02*
X167324599Y-68231684D01*
X167324599Y-68231684D02*
X167324599Y-68422160D01*
X167324599Y-68422160D02*
X167286504Y-68498350D01*
X167286504Y-68498350D02*
X167248409Y-68536446D01*
X167248409Y-68536446D02*
X167172218Y-68574541D01*
X167172218Y-68574541D02*
X166943647Y-68574541D01*
X166943647Y-68574541D02*
X166867456Y-68536446D01*
X166867456Y-68536446D02*
X166829361Y-68498350D01*
X167819838Y-67774541D02*
X167896028Y-67774541D01*
X167896028Y-67774541D02*
X167972219Y-67812636D01*
X167972219Y-67812636D02*
X168010314Y-67850731D01*
X168010314Y-67850731D02*
X168048409Y-67926922D01*
X168048409Y-67926922D02*
X168086504Y-68079303D01*
X168086504Y-68079303D02*
X168086504Y-68269779D01*
X168086504Y-68269779D02*
X168048409Y-68422160D01*
X168048409Y-68422160D02*
X168010314Y-68498350D01*
X168010314Y-68498350D02*
X167972219Y-68536446D01*
X167972219Y-68536446D02*
X167896028Y-68574541D01*
X167896028Y-68574541D02*
X167819838Y-68574541D01*
X167819838Y-68574541D02*
X167743647Y-68536446D01*
X167743647Y-68536446D02*
X167705552Y-68498350D01*
X167705552Y-68498350D02*
X167667457Y-68422160D01*
X167667457Y-68422160D02*
X167629361Y-68269779D01*
X167629361Y-68269779D02*
X167629361Y-68079303D01*
X167629361Y-68079303D02*
X167667457Y-67926922D01*
X167667457Y-67926922D02*
X167705552Y-67850731D01*
X167705552Y-67850731D02*
X167743647Y-67812636D01*
X167743647Y-67812636D02*
X167819838Y-67774541D01*
X168353171Y-68841207D02*
X168543647Y-68841207D01*
X168543647Y-68841207D02*
X168543647Y-67698350D01*
X168543647Y-67698350D02*
X168353171Y-67698350D01*
X159311740Y-68723452D02*
X159045073Y-68342499D01*
X158854597Y-68723452D02*
X158854597Y-67923452D01*
X158854597Y-67923452D02*
X159159359Y-67923452D01*
X159159359Y-67923452D02*
X159235549Y-67961547D01*
X159235549Y-67961547D02*
X159273644Y-67999642D01*
X159273644Y-67999642D02*
X159311740Y-68075833D01*
X159311740Y-68075833D02*
X159311740Y-68190118D01*
X159311740Y-68190118D02*
X159273644Y-68266309D01*
X159273644Y-68266309D02*
X159235549Y-68304404D01*
X159235549Y-68304404D02*
X159159359Y-68342499D01*
X159159359Y-68342499D02*
X158854597Y-68342499D01*
X160035549Y-67923452D02*
X159654597Y-67923452D01*
X159654597Y-67923452D02*
X159616501Y-68304404D01*
X159616501Y-68304404D02*
X159654597Y-68266309D01*
X159654597Y-68266309D02*
X159730787Y-68228214D01*
X159730787Y-68228214D02*
X159921263Y-68228214D01*
X159921263Y-68228214D02*
X159997454Y-68266309D01*
X159997454Y-68266309D02*
X160035549Y-68304404D01*
X160035549Y-68304404D02*
X160073644Y-68380595D01*
X160073644Y-68380595D02*
X160073644Y-68571071D01*
X160073644Y-68571071D02*
X160035549Y-68647261D01*
X160035549Y-68647261D02*
X159997454Y-68685357D01*
X159997454Y-68685357D02*
X159921263Y-68723452D01*
X159921263Y-68723452D02*
X159730787Y-68723452D01*
X159730787Y-68723452D02*
X159654597Y-68685357D01*
X159654597Y-68685357D02*
X159616501Y-68647261D01*
X160645073Y-68990118D02*
X160454597Y-68990118D01*
X160454597Y-68990118D02*
X160454597Y-67847261D01*
X160454597Y-67847261D02*
X160645073Y-67847261D01*
X160873644Y-67923452D02*
X161368882Y-67923452D01*
X161368882Y-67923452D02*
X161102216Y-68228214D01*
X161102216Y-68228214D02*
X161216501Y-68228214D01*
X161216501Y-68228214D02*
X161292692Y-68266309D01*
X161292692Y-68266309D02*
X161330787Y-68304404D01*
X161330787Y-68304404D02*
X161368882Y-68380595D01*
X161368882Y-68380595D02*
X161368882Y-68571071D01*
X161368882Y-68571071D02*
X161330787Y-68647261D01*
X161330787Y-68647261D02*
X161292692Y-68685357D01*
X161292692Y-68685357D02*
X161216501Y-68723452D01*
X161216501Y-68723452D02*
X160987930Y-68723452D01*
X160987930Y-68723452D02*
X160911739Y-68685357D01*
X160911739Y-68685357D02*
X160873644Y-68647261D01*
X161635549Y-67923452D02*
X162130787Y-67923452D01*
X162130787Y-67923452D02*
X161864121Y-68228214D01*
X161864121Y-68228214D02*
X161978406Y-68228214D01*
X161978406Y-68228214D02*
X162054597Y-68266309D01*
X162054597Y-68266309D02*
X162092692Y-68304404D01*
X162092692Y-68304404D02*
X162130787Y-68380595D01*
X162130787Y-68380595D02*
X162130787Y-68571071D01*
X162130787Y-68571071D02*
X162092692Y-68647261D01*
X162092692Y-68647261D02*
X162054597Y-68685357D01*
X162054597Y-68685357D02*
X161978406Y-68723452D01*
X161978406Y-68723452D02*
X161749835Y-68723452D01*
X161749835Y-68723452D02*
X161673644Y-68685357D01*
X161673644Y-68685357D02*
X161635549Y-68647261D01*
X162626026Y-67923452D02*
X162702216Y-67923452D01*
X162702216Y-67923452D02*
X162778407Y-67961547D01*
X162778407Y-67961547D02*
X162816502Y-67999642D01*
X162816502Y-67999642D02*
X162854597Y-68075833D01*
X162854597Y-68075833D02*
X162892692Y-68228214D01*
X162892692Y-68228214D02*
X162892692Y-68418690D01*
X162892692Y-68418690D02*
X162854597Y-68571071D01*
X162854597Y-68571071D02*
X162816502Y-68647261D01*
X162816502Y-68647261D02*
X162778407Y-68685357D01*
X162778407Y-68685357D02*
X162702216Y-68723452D01*
X162702216Y-68723452D02*
X162626026Y-68723452D01*
X162626026Y-68723452D02*
X162549835Y-68685357D01*
X162549835Y-68685357D02*
X162511740Y-68647261D01*
X162511740Y-68647261D02*
X162473645Y-68571071D01*
X162473645Y-68571071D02*
X162435549Y-68418690D01*
X162435549Y-68418690D02*
X162435549Y-68228214D01*
X162435549Y-68228214D02*
X162473645Y-68075833D01*
X162473645Y-68075833D02*
X162511740Y-67999642D01*
X162511740Y-67999642D02*
X162549835Y-67961547D01*
X162549835Y-67961547D02*
X162626026Y-67923452D01*
X163159359Y-68990118D02*
X163349835Y-68990118D01*
X163349835Y-68990118D02*
X163349835Y-67847261D01*
X163349835Y-67847261D02*
X163159359Y-67847261D01*
X170469160Y-76729295D02*
X170469160Y-75929295D01*
X171307255Y-76653104D02*
X171269159Y-76691200D01*
X171269159Y-76691200D02*
X171154874Y-76729295D01*
X171154874Y-76729295D02*
X171078683Y-76729295D01*
X171078683Y-76729295D02*
X170964397Y-76691200D01*
X170964397Y-76691200D02*
X170888207Y-76615009D01*
X170888207Y-76615009D02*
X170850112Y-76538819D01*
X170850112Y-76538819D02*
X170812016Y-76386438D01*
X170812016Y-76386438D02*
X170812016Y-76272152D01*
X170812016Y-76272152D02*
X170850112Y-76119771D01*
X170850112Y-76119771D02*
X170888207Y-76043580D01*
X170888207Y-76043580D02*
X170964397Y-75967390D01*
X170964397Y-75967390D02*
X171078683Y-75929295D01*
X171078683Y-75929295D02*
X171154874Y-75929295D01*
X171154874Y-75929295D02*
X171269159Y-75967390D01*
X171269159Y-75967390D02*
X171307255Y-76005485D01*
X171612016Y-76691200D02*
X171726302Y-76729295D01*
X171726302Y-76729295D02*
X171916778Y-76729295D01*
X171916778Y-76729295D02*
X171992969Y-76691200D01*
X171992969Y-76691200D02*
X172031064Y-76653104D01*
X172031064Y-76653104D02*
X172069159Y-76576914D01*
X172069159Y-76576914D02*
X172069159Y-76500723D01*
X172069159Y-76500723D02*
X172031064Y-76424533D01*
X172031064Y-76424533D02*
X171992969Y-76386438D01*
X171992969Y-76386438D02*
X171916778Y-76348342D01*
X171916778Y-76348342D02*
X171764397Y-76310247D01*
X171764397Y-76310247D02*
X171688207Y-76272152D01*
X171688207Y-76272152D02*
X171650112Y-76234057D01*
X171650112Y-76234057D02*
X171612016Y-76157866D01*
X171612016Y-76157866D02*
X171612016Y-76081676D01*
X171612016Y-76081676D02*
X171650112Y-76005485D01*
X171650112Y-76005485D02*
X171688207Y-75967390D01*
X171688207Y-75967390D02*
X171764397Y-75929295D01*
X171764397Y-75929295D02*
X171954874Y-75929295D01*
X171954874Y-75929295D02*
X172069159Y-75967390D01*
X172412017Y-76729295D02*
X172412017Y-75929295D01*
X172412017Y-75929295D02*
X172716779Y-75929295D01*
X172716779Y-75929295D02*
X172792969Y-75967390D01*
X172792969Y-75967390D02*
X172831064Y-76005485D01*
X172831064Y-76005485D02*
X172869160Y-76081676D01*
X172869160Y-76081676D02*
X172869160Y-76195961D01*
X172869160Y-76195961D02*
X172831064Y-76272152D01*
X172831064Y-76272152D02*
X172792969Y-76310247D01*
X172792969Y-76310247D02*
X172716779Y-76348342D01*
X172716779Y-76348342D02*
X172412017Y-76348342D01*
X171910715Y-89456477D02*
X171910715Y-88656477D01*
X172253571Y-88732667D02*
X172291667Y-88694572D01*
X172291667Y-88694572D02*
X172367857Y-88656477D01*
X172367857Y-88656477D02*
X172558333Y-88656477D01*
X172558333Y-88656477D02*
X172634524Y-88694572D01*
X172634524Y-88694572D02*
X172672619Y-88732667D01*
X172672619Y-88732667D02*
X172710714Y-88808858D01*
X172710714Y-88808858D02*
X172710714Y-88885048D01*
X172710714Y-88885048D02*
X172672619Y-88999334D01*
X172672619Y-88999334D02*
X172215476Y-89456477D01*
X172215476Y-89456477D02*
X172710714Y-89456477D01*
X173510715Y-89380286D02*
X173472619Y-89418382D01*
X173472619Y-89418382D02*
X173358334Y-89456477D01*
X173358334Y-89456477D02*
X173282143Y-89456477D01*
X173282143Y-89456477D02*
X173167857Y-89418382D01*
X173167857Y-89418382D02*
X173091667Y-89342191D01*
X173091667Y-89342191D02*
X173053572Y-89266001D01*
X173053572Y-89266001D02*
X173015476Y-89113620D01*
X173015476Y-89113620D02*
X173015476Y-88999334D01*
X173015476Y-88999334D02*
X173053572Y-88846953D01*
X173053572Y-88846953D02*
X173091667Y-88770762D01*
X173091667Y-88770762D02*
X173167857Y-88694572D01*
X173167857Y-88694572D02*
X173282143Y-88656477D01*
X173282143Y-88656477D02*
X173358334Y-88656477D01*
X173358334Y-88656477D02*
X173472619Y-88694572D01*
X173472619Y-88694572D02*
X173510715Y-88732667D01*
X170731138Y-92743302D02*
X171378757Y-92743302D01*
X171378757Y-92743302D02*
X171454947Y-92705207D01*
X171454947Y-92705207D02*
X171493043Y-92667112D01*
X171493043Y-92667112D02*
X171531138Y-92590921D01*
X171531138Y-92590921D02*
X171531138Y-92438540D01*
X171531138Y-92438540D02*
X171493043Y-92362350D01*
X171493043Y-92362350D02*
X171454947Y-92324255D01*
X171454947Y-92324255D02*
X171378757Y-92286159D01*
X171378757Y-92286159D02*
X170731138Y-92286159D01*
X171302566Y-91943303D02*
X171302566Y-91562350D01*
X171531138Y-92019493D02*
X170731138Y-91752826D01*
X170731138Y-91752826D02*
X171531138Y-91486160D01*
X171531138Y-90762350D02*
X171150185Y-91029017D01*
X171531138Y-91219493D02*
X170731138Y-91219493D01*
X170731138Y-91219493D02*
X170731138Y-90914731D01*
X170731138Y-90914731D02*
X170769233Y-90838541D01*
X170769233Y-90838541D02*
X170807328Y-90800446D01*
X170807328Y-90800446D02*
X170883519Y-90762350D01*
X170883519Y-90762350D02*
X170997804Y-90762350D01*
X170997804Y-90762350D02*
X171073995Y-90800446D01*
X171073995Y-90800446D02*
X171112090Y-90838541D01*
X171112090Y-90838541D02*
X171150185Y-90914731D01*
X171150185Y-90914731D02*
X171150185Y-91219493D01*
X170731138Y-90533779D02*
X170731138Y-90076636D01*
X171531138Y-90305208D02*
X170731138Y-90305208D01*
X157247390Y-92001792D02*
X157209295Y-92077982D01*
X157209295Y-92077982D02*
X157209295Y-92192268D01*
X157209295Y-92192268D02*
X157247390Y-92306554D01*
X157247390Y-92306554D02*
X157323580Y-92382744D01*
X157323580Y-92382744D02*
X157399771Y-92420839D01*
X157399771Y-92420839D02*
X157552152Y-92458935D01*
X157552152Y-92458935D02*
X157666438Y-92458935D01*
X157666438Y-92458935D02*
X157818819Y-92420839D01*
X157818819Y-92420839D02*
X157895009Y-92382744D01*
X157895009Y-92382744D02*
X157971200Y-92306554D01*
X157971200Y-92306554D02*
X158009295Y-92192268D01*
X158009295Y-92192268D02*
X158009295Y-92116077D01*
X158009295Y-92116077D02*
X157971200Y-92001792D01*
X157971200Y-92001792D02*
X157933104Y-91963696D01*
X157933104Y-91963696D02*
X157666438Y-91963696D01*
X157666438Y-91963696D02*
X157666438Y-92116077D01*
X158009295Y-91620839D02*
X157209295Y-91620839D01*
X157209295Y-91620839D02*
X157209295Y-91316077D01*
X157209295Y-91316077D02*
X157247390Y-91239887D01*
X157247390Y-91239887D02*
X157285485Y-91201792D01*
X157285485Y-91201792D02*
X157361676Y-91163696D01*
X157361676Y-91163696D02*
X157475961Y-91163696D01*
X157475961Y-91163696D02*
X157552152Y-91201792D01*
X157552152Y-91201792D02*
X157590247Y-91239887D01*
X157590247Y-91239887D02*
X157628342Y-91316077D01*
X157628342Y-91316077D02*
X157628342Y-91620839D01*
X158009295Y-90820839D02*
X157209295Y-90820839D01*
X157209295Y-90287506D02*
X157209295Y-90135125D01*
X157209295Y-90135125D02*
X157247390Y-90058935D01*
X157247390Y-90058935D02*
X157323580Y-89982744D01*
X157323580Y-89982744D02*
X157475961Y-89944649D01*
X157475961Y-89944649D02*
X157742628Y-89944649D01*
X157742628Y-89944649D02*
X157895009Y-89982744D01*
X157895009Y-89982744D02*
X157971200Y-90058935D01*
X157971200Y-90058935D02*
X158009295Y-90135125D01*
X158009295Y-90135125D02*
X158009295Y-90287506D01*
X158009295Y-90287506D02*
X157971200Y-90363697D01*
X157971200Y-90363697D02*
X157895009Y-90439887D01*
X157895009Y-90439887D02*
X157742628Y-90477983D01*
X157742628Y-90477983D02*
X157475961Y-90477983D01*
X157475961Y-90477983D02*
X157323580Y-90439887D01*
X157323580Y-90439887D02*
X157247390Y-90363697D01*
X157247390Y-90363697D02*
X157209295Y-90287506D01*
X148844048Y-83801342D02*
X148844048Y-84182295D01*
X148577381Y-83382295D02*
X148844048Y-83801342D01*
X148844048Y-83801342D02*
X149110714Y-83382295D01*
X149339285Y-83458485D02*
X149377381Y-83420390D01*
X149377381Y-83420390D02*
X149453571Y-83382295D01*
X149453571Y-83382295D02*
X149644047Y-83382295D01*
X149644047Y-83382295D02*
X149720238Y-83420390D01*
X149720238Y-83420390D02*
X149758333Y-83458485D01*
X149758333Y-83458485D02*
X149796428Y-83534676D01*
X149796428Y-83534676D02*
X149796428Y-83610866D01*
X149796428Y-83610866D02*
X149758333Y-83725152D01*
X149758333Y-83725152D02*
X149301190Y-84182295D01*
X149301190Y-84182295D02*
X149796428Y-84182295D01*
D11*
X151377856Y-84184895D02*
X150920713Y-84184895D01*
X151149285Y-84184895D02*
X151149285Y-83384895D01*
X151149285Y-83384895D02*
X151073094Y-83499180D01*
X151073094Y-83499180D02*
X150996904Y-83575371D01*
X150996904Y-83575371D02*
X150920713Y-83613466D01*
X152063571Y-83384895D02*
X151911190Y-83384895D01*
X151911190Y-83384895D02*
X151834999Y-83422990D01*
X151834999Y-83422990D02*
X151796904Y-83461085D01*
X151796904Y-83461085D02*
X151720714Y-83575371D01*
X151720714Y-83575371D02*
X151682618Y-83727752D01*
X151682618Y-83727752D02*
X151682618Y-84032514D01*
X151682618Y-84032514D02*
X151720714Y-84108704D01*
X151720714Y-84108704D02*
X151758809Y-84146800D01*
X151758809Y-84146800D02*
X151834999Y-84184895D01*
X151834999Y-84184895D02*
X151987380Y-84184895D01*
X151987380Y-84184895D02*
X152063571Y-84146800D01*
X152063571Y-84146800D02*
X152101666Y-84108704D01*
X152101666Y-84108704D02*
X152139761Y-84032514D01*
X152139761Y-84032514D02*
X152139761Y-83842038D01*
X152139761Y-83842038D02*
X152101666Y-83765847D01*
X152101666Y-83765847D02*
X152063571Y-83727752D01*
X152063571Y-83727752D02*
X151987380Y-83689657D01*
X151987380Y-83689657D02*
X151834999Y-83689657D01*
X151834999Y-83689657D02*
X151758809Y-83727752D01*
X151758809Y-83727752D02*
X151720714Y-83765847D01*
X151720714Y-83765847D02*
X151682618Y-83842038D01*
X153092143Y-84184895D02*
X153092143Y-83384895D01*
X153092143Y-83384895D02*
X153358809Y-83956323D01*
X153358809Y-83956323D02*
X153625476Y-83384895D01*
X153625476Y-83384895D02*
X153625476Y-84184895D01*
X154006429Y-84184895D02*
X154006429Y-83384895D01*
X154006429Y-83765847D02*
X154463572Y-83765847D01*
X154463572Y-84184895D02*
X154463572Y-83384895D01*
X154768333Y-83651561D02*
X155187381Y-83651561D01*
X155187381Y-83651561D02*
X154768333Y-84184895D01*
X154768333Y-84184895D02*
X155187381Y-84184895D01*
D10*
X134601342Y-87375951D02*
X134982295Y-87375951D01*
X134182295Y-87642618D02*
X134601342Y-87375951D01*
X134601342Y-87375951D02*
X134182295Y-87109285D01*
X134982295Y-86423571D02*
X134982295Y-86880714D01*
X134982295Y-86652142D02*
X134182295Y-86652142D01*
X134182295Y-86652142D02*
X134296580Y-86728333D01*
X134296580Y-86728333D02*
X134372771Y-86804523D01*
X134372771Y-86804523D02*
X134410866Y-86880714D01*
D11*
X134184895Y-85978571D02*
X134184895Y-85483333D01*
X134184895Y-85483333D02*
X134489657Y-85749999D01*
X134489657Y-85749999D02*
X134489657Y-85635714D01*
X134489657Y-85635714D02*
X134527752Y-85559523D01*
X134527752Y-85559523D02*
X134565847Y-85521428D01*
X134565847Y-85521428D02*
X134642038Y-85483333D01*
X134642038Y-85483333D02*
X134832514Y-85483333D01*
X134832514Y-85483333D02*
X134908704Y-85521428D01*
X134908704Y-85521428D02*
X134946800Y-85559523D01*
X134946800Y-85559523D02*
X134984895Y-85635714D01*
X134984895Y-85635714D02*
X134984895Y-85864285D01*
X134984895Y-85864285D02*
X134946800Y-85940476D01*
X134946800Y-85940476D02*
X134908704Y-85978571D01*
X134261085Y-85178571D02*
X134222990Y-85140475D01*
X134222990Y-85140475D02*
X134184895Y-85064285D01*
X134184895Y-85064285D02*
X134184895Y-84873809D01*
X134184895Y-84873809D02*
X134222990Y-84797618D01*
X134222990Y-84797618D02*
X134261085Y-84759523D01*
X134261085Y-84759523D02*
X134337276Y-84721428D01*
X134337276Y-84721428D02*
X134413466Y-84721428D01*
X134413466Y-84721428D02*
X134527752Y-84759523D01*
X134527752Y-84759523D02*
X134984895Y-85216666D01*
X134984895Y-85216666D02*
X134984895Y-84721428D01*
X134908704Y-84378570D02*
X134946800Y-84340475D01*
X134946800Y-84340475D02*
X134984895Y-84378570D01*
X134984895Y-84378570D02*
X134946800Y-84416666D01*
X134946800Y-84416666D02*
X134908704Y-84378570D01*
X134908704Y-84378570D02*
X134984895Y-84378570D01*
X134184895Y-84073809D02*
X134184895Y-83540475D01*
X134184895Y-83540475D02*
X134984895Y-83883333D01*
X134184895Y-82892856D02*
X134184895Y-83045237D01*
X134184895Y-83045237D02*
X134222990Y-83121428D01*
X134222990Y-83121428D02*
X134261085Y-83159523D01*
X134261085Y-83159523D02*
X134375371Y-83235713D01*
X134375371Y-83235713D02*
X134527752Y-83273809D01*
X134527752Y-83273809D02*
X134832514Y-83273809D01*
X134832514Y-83273809D02*
X134908704Y-83235713D01*
X134908704Y-83235713D02*
X134946800Y-83197618D01*
X134946800Y-83197618D02*
X134984895Y-83121428D01*
X134984895Y-83121428D02*
X134984895Y-82969047D01*
X134984895Y-82969047D02*
X134946800Y-82892856D01*
X134946800Y-82892856D02*
X134908704Y-82854761D01*
X134908704Y-82854761D02*
X134832514Y-82816666D01*
X134832514Y-82816666D02*
X134642038Y-82816666D01*
X134642038Y-82816666D02*
X134565847Y-82854761D01*
X134565847Y-82854761D02*
X134527752Y-82892856D01*
X134527752Y-82892856D02*
X134489657Y-82969047D01*
X134489657Y-82969047D02*
X134489657Y-83121428D01*
X134489657Y-83121428D02*
X134527752Y-83197618D01*
X134527752Y-83197618D02*
X134565847Y-83235713D01*
X134565847Y-83235713D02*
X134642038Y-83273809D01*
X134527752Y-82359523D02*
X134489657Y-82435713D01*
X134489657Y-82435713D02*
X134451561Y-82473808D01*
X134451561Y-82473808D02*
X134375371Y-82511904D01*
X134375371Y-82511904D02*
X134337276Y-82511904D01*
X134337276Y-82511904D02*
X134261085Y-82473808D01*
X134261085Y-82473808D02*
X134222990Y-82435713D01*
X134222990Y-82435713D02*
X134184895Y-82359523D01*
X134184895Y-82359523D02*
X134184895Y-82207142D01*
X134184895Y-82207142D02*
X134222990Y-82130951D01*
X134222990Y-82130951D02*
X134261085Y-82092856D01*
X134261085Y-82092856D02*
X134337276Y-82054761D01*
X134337276Y-82054761D02*
X134375371Y-82054761D01*
X134375371Y-82054761D02*
X134451561Y-82092856D01*
X134451561Y-82092856D02*
X134489657Y-82130951D01*
X134489657Y-82130951D02*
X134527752Y-82207142D01*
X134527752Y-82207142D02*
X134527752Y-82359523D01*
X134527752Y-82359523D02*
X134565847Y-82435713D01*
X134565847Y-82435713D02*
X134603942Y-82473808D01*
X134603942Y-82473808D02*
X134680133Y-82511904D01*
X134680133Y-82511904D02*
X134832514Y-82511904D01*
X134832514Y-82511904D02*
X134908704Y-82473808D01*
X134908704Y-82473808D02*
X134946800Y-82435713D01*
X134946800Y-82435713D02*
X134984895Y-82359523D01*
X134984895Y-82359523D02*
X134984895Y-82207142D01*
X134984895Y-82207142D02*
X134946800Y-82130951D01*
X134946800Y-82130951D02*
X134908704Y-82092856D01*
X134908704Y-82092856D02*
X134832514Y-82054761D01*
X134832514Y-82054761D02*
X134680133Y-82054761D01*
X134680133Y-82054761D02*
X134603942Y-82092856D01*
X134603942Y-82092856D02*
X134565847Y-82130951D01*
X134565847Y-82130951D02*
X134527752Y-82207142D01*
X134984895Y-81102379D02*
X134184895Y-81102379D01*
X134984895Y-80645236D02*
X134527752Y-80988094D01*
X134184895Y-80645236D02*
X134642038Y-81102379D01*
X134984895Y-80302379D02*
X134184895Y-80302379D01*
X134565847Y-80302379D02*
X134565847Y-79845236D01*
X134984895Y-79845236D02*
X134184895Y-79845236D01*
X134451561Y-79540475D02*
X134451561Y-79121427D01*
X134451561Y-79121427D02*
X134984895Y-79540475D01*
X134984895Y-79540475D02*
X134984895Y-79121427D01*
D10*
X146075476Y-70691635D02*
X146075476Y-71339254D01*
X146075476Y-71339254D02*
X146113571Y-71415444D01*
X146113571Y-71415444D02*
X146151666Y-71453540D01*
X146151666Y-71453540D02*
X146227857Y-71491635D01*
X146227857Y-71491635D02*
X146380238Y-71491635D01*
X146380238Y-71491635D02*
X146456428Y-71453540D01*
X146456428Y-71453540D02*
X146494523Y-71415444D01*
X146494523Y-71415444D02*
X146532619Y-71339254D01*
X146532619Y-71339254D02*
X146532619Y-70691635D01*
X147256428Y-70958301D02*
X147256428Y-71491635D01*
X147065952Y-70653540D02*
X146875475Y-71224968D01*
X146875475Y-71224968D02*
X147370714Y-71224968D01*
X148215951Y-71253723D02*
X148596904Y-71253723D01*
X148139761Y-71482295D02*
X148406428Y-70682295D01*
X148406428Y-70682295D02*
X148673094Y-71482295D01*
X148825475Y-70682295D02*
X149282618Y-70682295D01*
X149054046Y-71482295D02*
X149054046Y-70682295D01*
X149549285Y-71482295D02*
X149549285Y-70682295D01*
X149549285Y-70682295D02*
X149815951Y-71253723D01*
X149815951Y-71253723D02*
X150082618Y-70682295D01*
X150082618Y-70682295D02*
X150082618Y-71482295D01*
X150768333Y-71444200D02*
X150692142Y-71482295D01*
X150692142Y-71482295D02*
X150539761Y-71482295D01*
X150539761Y-71482295D02*
X150463571Y-71444200D01*
X150463571Y-71444200D02*
X150425475Y-71368009D01*
X150425475Y-71368009D02*
X150425475Y-71063247D01*
X150425475Y-71063247D02*
X150463571Y-70987057D01*
X150463571Y-70987057D02*
X150539761Y-70948961D01*
X150539761Y-70948961D02*
X150692142Y-70948961D01*
X150692142Y-70948961D02*
X150768333Y-70987057D01*
X150768333Y-70987057D02*
X150806428Y-71063247D01*
X150806428Y-71063247D02*
X150806428Y-71139438D01*
X150806428Y-71139438D02*
X150425475Y-71215628D01*
X151492142Y-70948961D02*
X151492142Y-71596580D01*
X151492142Y-71596580D02*
X151454047Y-71672771D01*
X151454047Y-71672771D02*
X151415951Y-71710866D01*
X151415951Y-71710866D02*
X151339761Y-71748961D01*
X151339761Y-71748961D02*
X151225475Y-71748961D01*
X151225475Y-71748961D02*
X151149285Y-71710866D01*
X151492142Y-71444200D02*
X151415951Y-71482295D01*
X151415951Y-71482295D02*
X151263570Y-71482295D01*
X151263570Y-71482295D02*
X151187380Y-71444200D01*
X151187380Y-71444200D02*
X151149285Y-71406104D01*
X151149285Y-71406104D02*
X151111189Y-71329914D01*
X151111189Y-71329914D02*
X151111189Y-71101342D01*
X151111189Y-71101342D02*
X151149285Y-71025152D01*
X151149285Y-71025152D02*
X151187380Y-70987057D01*
X151187380Y-70987057D02*
X151263570Y-70948961D01*
X151263570Y-70948961D02*
X151415951Y-70948961D01*
X151415951Y-70948961D02*
X151492142Y-70987057D01*
X152215952Y-71482295D02*
X152215952Y-71063247D01*
X152215952Y-71063247D02*
X152177857Y-70987057D01*
X152177857Y-70987057D02*
X152101666Y-70948961D01*
X152101666Y-70948961D02*
X151949285Y-70948961D01*
X151949285Y-70948961D02*
X151873095Y-70987057D01*
X152215952Y-71444200D02*
X152139761Y-71482295D01*
X152139761Y-71482295D02*
X151949285Y-71482295D01*
X151949285Y-71482295D02*
X151873095Y-71444200D01*
X151873095Y-71444200D02*
X151834999Y-71368009D01*
X151834999Y-71368009D02*
X151834999Y-71291819D01*
X151834999Y-71291819D02*
X151873095Y-71215628D01*
X151873095Y-71215628D02*
X151949285Y-71177533D01*
X151949285Y-71177533D02*
X152139761Y-71177533D01*
X152139761Y-71177533D02*
X152215952Y-71139438D01*
X152520714Y-70682295D02*
X153015952Y-70682295D01*
X153015952Y-70682295D02*
X152749286Y-70987057D01*
X152749286Y-70987057D02*
X152863571Y-70987057D01*
X152863571Y-70987057D02*
X152939762Y-71025152D01*
X152939762Y-71025152D02*
X152977857Y-71063247D01*
X152977857Y-71063247D02*
X153015952Y-71139438D01*
X153015952Y-71139438D02*
X153015952Y-71329914D01*
X153015952Y-71329914D02*
X152977857Y-71406104D01*
X152977857Y-71406104D02*
X152939762Y-71444200D01*
X152939762Y-71444200D02*
X152863571Y-71482295D01*
X152863571Y-71482295D02*
X152635000Y-71482295D01*
X152635000Y-71482295D02*
X152558809Y-71444200D01*
X152558809Y-71444200D02*
X152520714Y-71406104D01*
X153320714Y-70758485D02*
X153358810Y-70720390D01*
X153358810Y-70720390D02*
X153435000Y-70682295D01*
X153435000Y-70682295D02*
X153625476Y-70682295D01*
X153625476Y-70682295D02*
X153701667Y-70720390D01*
X153701667Y-70720390D02*
X153739762Y-70758485D01*
X153739762Y-70758485D02*
X153777857Y-70834676D01*
X153777857Y-70834676D02*
X153777857Y-70910866D01*
X153777857Y-70910866D02*
X153739762Y-71025152D01*
X153739762Y-71025152D02*
X153282619Y-71482295D01*
X153282619Y-71482295D02*
X153777857Y-71482295D01*
X154235000Y-71025152D02*
X154158810Y-70987057D01*
X154158810Y-70987057D02*
X154120715Y-70948961D01*
X154120715Y-70948961D02*
X154082619Y-70872771D01*
X154082619Y-70872771D02*
X154082619Y-70834676D01*
X154082619Y-70834676D02*
X154120715Y-70758485D01*
X154120715Y-70758485D02*
X154158810Y-70720390D01*
X154158810Y-70720390D02*
X154235000Y-70682295D01*
X154235000Y-70682295D02*
X154387381Y-70682295D01*
X154387381Y-70682295D02*
X154463572Y-70720390D01*
X154463572Y-70720390D02*
X154501667Y-70758485D01*
X154501667Y-70758485D02*
X154539762Y-70834676D01*
X154539762Y-70834676D02*
X154539762Y-70872771D01*
X154539762Y-70872771D02*
X154501667Y-70948961D01*
X154501667Y-70948961D02*
X154463572Y-70987057D01*
X154463572Y-70987057D02*
X154387381Y-71025152D01*
X154387381Y-71025152D02*
X154235000Y-71025152D01*
X154235000Y-71025152D02*
X154158810Y-71063247D01*
X154158810Y-71063247D02*
X154120715Y-71101342D01*
X154120715Y-71101342D02*
X154082619Y-71177533D01*
X154082619Y-71177533D02*
X154082619Y-71329914D01*
X154082619Y-71329914D02*
X154120715Y-71406104D01*
X154120715Y-71406104D02*
X154158810Y-71444200D01*
X154158810Y-71444200D02*
X154235000Y-71482295D01*
X154235000Y-71482295D02*
X154387381Y-71482295D01*
X154387381Y-71482295D02*
X154463572Y-71444200D01*
X154463572Y-71444200D02*
X154501667Y-71406104D01*
X154501667Y-71406104D02*
X154539762Y-71329914D01*
X154539762Y-71329914D02*
X154539762Y-71177533D01*
X154539762Y-71177533D02*
X154501667Y-71101342D01*
X154501667Y-71101342D02*
X154463572Y-71063247D01*
X154463572Y-71063247D02*
X154387381Y-71025152D01*
X154882620Y-71482295D02*
X154882620Y-70682295D01*
X154882620Y-70682295D02*
X155187382Y-70682295D01*
X155187382Y-70682295D02*
X155263572Y-70720390D01*
X155263572Y-70720390D02*
X155301667Y-70758485D01*
X155301667Y-70758485D02*
X155339763Y-70834676D01*
X155339763Y-70834676D02*
X155339763Y-70948961D01*
X155339763Y-70948961D02*
X155301667Y-71025152D01*
X155301667Y-71025152D02*
X155263572Y-71063247D01*
X155263572Y-71063247D02*
X155187382Y-71101342D01*
X155187382Y-71101342D02*
X154882620Y-71101342D01*
X155682620Y-71177533D02*
X156292144Y-71177533D01*
X156635000Y-71253723D02*
X157015953Y-71253723D01*
X156558810Y-71482295D02*
X156825477Y-70682295D01*
X156825477Y-70682295D02*
X157092143Y-71482295D01*
X157358810Y-70682295D02*
X157358810Y-71329914D01*
X157358810Y-71329914D02*
X157396905Y-71406104D01*
X157396905Y-71406104D02*
X157435000Y-71444200D01*
X157435000Y-71444200D02*
X157511191Y-71482295D01*
X157511191Y-71482295D02*
X157663572Y-71482295D01*
X157663572Y-71482295D02*
X157739762Y-71444200D01*
X157739762Y-71444200D02*
X157777857Y-71406104D01*
X157777857Y-71406104D02*
X157815953Y-71329914D01*
X157815953Y-71329914D02*
X157815953Y-70682295D01*
X135915476Y-63697295D02*
X135915476Y-64344914D01*
X135915476Y-64344914D02*
X135953571Y-64421104D01*
X135953571Y-64421104D02*
X135991666Y-64459200D01*
X135991666Y-64459200D02*
X136067857Y-64497295D01*
X136067857Y-64497295D02*
X136220238Y-64497295D01*
X136220238Y-64497295D02*
X136296428Y-64459200D01*
X136296428Y-64459200D02*
X136334523Y-64421104D01*
X136334523Y-64421104D02*
X136372619Y-64344914D01*
X136372619Y-64344914D02*
X136372619Y-63697295D01*
X136677380Y-63697295D02*
X137172618Y-63697295D01*
X137172618Y-63697295D02*
X136905952Y-64002057D01*
X136905952Y-64002057D02*
X137020237Y-64002057D01*
X137020237Y-64002057D02*
X137096428Y-64040152D01*
X137096428Y-64040152D02*
X137134523Y-64078247D01*
X137134523Y-64078247D02*
X137172618Y-64154438D01*
X137172618Y-64154438D02*
X137172618Y-64344914D01*
X137172618Y-64344914D02*
X137134523Y-64421104D01*
X137134523Y-64421104D02*
X137096428Y-64459200D01*
X137096428Y-64459200D02*
X137020237Y-64497295D01*
X137020237Y-64497295D02*
X136791666Y-64497295D01*
X136791666Y-64497295D02*
X136715475Y-64459200D01*
X136715475Y-64459200D02*
X136677380Y-64421104D01*
D11*
X138112856Y-63776085D02*
X138150952Y-63737990D01*
X138150952Y-63737990D02*
X138227142Y-63699895D01*
X138227142Y-63699895D02*
X138417618Y-63699895D01*
X138417618Y-63699895D02*
X138493809Y-63737990D01*
X138493809Y-63737990D02*
X138531904Y-63776085D01*
X138531904Y-63776085D02*
X138569999Y-63852276D01*
X138569999Y-63852276D02*
X138569999Y-63928466D01*
X138569999Y-63928466D02*
X138531904Y-64042752D01*
X138531904Y-64042752D02*
X138074761Y-64499895D01*
X138074761Y-64499895D02*
X138569999Y-64499895D01*
X139255714Y-63966561D02*
X139255714Y-64499895D01*
X139065238Y-63661800D02*
X138874761Y-64233228D01*
X138874761Y-64233228D02*
X139370000Y-64233228D01*
X140055714Y-64499895D02*
X139674762Y-64499895D01*
X139674762Y-64499895D02*
X139674762Y-63699895D01*
X140779524Y-64423704D02*
X140741428Y-64461800D01*
X140741428Y-64461800D02*
X140627143Y-64499895D01*
X140627143Y-64499895D02*
X140550952Y-64499895D01*
X140550952Y-64499895D02*
X140436666Y-64461800D01*
X140436666Y-64461800D02*
X140360476Y-64385609D01*
X140360476Y-64385609D02*
X140322381Y-64309419D01*
X140322381Y-64309419D02*
X140284285Y-64157038D01*
X140284285Y-64157038D02*
X140284285Y-64042752D01*
X140284285Y-64042752D02*
X140322381Y-63890371D01*
X140322381Y-63890371D02*
X140360476Y-63814180D01*
X140360476Y-63814180D02*
X140436666Y-63737990D01*
X140436666Y-63737990D02*
X140550952Y-63699895D01*
X140550952Y-63699895D02*
X140627143Y-63699895D01*
X140627143Y-63699895D02*
X140741428Y-63737990D01*
X140741428Y-63737990D02*
X140779524Y-63776085D01*
X141541428Y-64499895D02*
X141084285Y-64499895D01*
X141312857Y-64499895D02*
X141312857Y-63699895D01*
X141312857Y-63699895D02*
X141236666Y-63814180D01*
X141236666Y-63814180D02*
X141160476Y-63890371D01*
X141160476Y-63890371D02*
X141084285Y-63928466D01*
X142036667Y-63699895D02*
X142112857Y-63699895D01*
X142112857Y-63699895D02*
X142189048Y-63737990D01*
X142189048Y-63737990D02*
X142227143Y-63776085D01*
X142227143Y-63776085D02*
X142265238Y-63852276D01*
X142265238Y-63852276D02*
X142303333Y-64004657D01*
X142303333Y-64004657D02*
X142303333Y-64195133D01*
X142303333Y-64195133D02*
X142265238Y-64347514D01*
X142265238Y-64347514D02*
X142227143Y-64423704D01*
X142227143Y-64423704D02*
X142189048Y-64461800D01*
X142189048Y-64461800D02*
X142112857Y-64499895D01*
X142112857Y-64499895D02*
X142036667Y-64499895D01*
X142036667Y-64499895D02*
X141960476Y-64461800D01*
X141960476Y-64461800D02*
X141922381Y-64423704D01*
X141922381Y-64423704D02*
X141884286Y-64347514D01*
X141884286Y-64347514D02*
X141846190Y-64195133D01*
X141846190Y-64195133D02*
X141846190Y-64004657D01*
X141846190Y-64004657D02*
X141884286Y-63852276D01*
X141884286Y-63852276D02*
X141922381Y-63776085D01*
X141922381Y-63776085D02*
X141960476Y-63737990D01*
X141960476Y-63737990D02*
X142036667Y-63699895D01*
X142608095Y-63776085D02*
X142646191Y-63737990D01*
X142646191Y-63737990D02*
X142722381Y-63699895D01*
X142722381Y-63699895D02*
X142912857Y-63699895D01*
X142912857Y-63699895D02*
X142989048Y-63737990D01*
X142989048Y-63737990D02*
X143027143Y-63776085D01*
X143027143Y-63776085D02*
X143065238Y-63852276D01*
X143065238Y-63852276D02*
X143065238Y-63928466D01*
X143065238Y-63928466D02*
X143027143Y-64042752D01*
X143027143Y-64042752D02*
X142570000Y-64499895D01*
X142570000Y-64499895D02*
X143065238Y-64499895D01*
X143789048Y-63699895D02*
X143408096Y-63699895D01*
X143408096Y-63699895D02*
X143370000Y-64080847D01*
X143370000Y-64080847D02*
X143408096Y-64042752D01*
X143408096Y-64042752D02*
X143484286Y-64004657D01*
X143484286Y-64004657D02*
X143674762Y-64004657D01*
X143674762Y-64004657D02*
X143750953Y-64042752D01*
X143750953Y-64042752D02*
X143789048Y-64080847D01*
X143789048Y-64080847D02*
X143827143Y-64157038D01*
X143827143Y-64157038D02*
X143827143Y-64347514D01*
X143827143Y-64347514D02*
X143789048Y-64423704D01*
X143789048Y-64423704D02*
X143750953Y-64461800D01*
X143750953Y-64461800D02*
X143674762Y-64499895D01*
X143674762Y-64499895D02*
X143484286Y-64499895D01*
X143484286Y-64499895D02*
X143408096Y-64461800D01*
X143408096Y-64461800D02*
X143370000Y-64423704D01*
D10*
X136550476Y-78937295D02*
X136550476Y-79584914D01*
X136550476Y-79584914D02*
X136588571Y-79661104D01*
X136588571Y-79661104D02*
X136626666Y-79699200D01*
X136626666Y-79699200D02*
X136702857Y-79737295D01*
X136702857Y-79737295D02*
X136855238Y-79737295D01*
X136855238Y-79737295D02*
X136931428Y-79699200D01*
X136931428Y-79699200D02*
X136969523Y-79661104D01*
X136969523Y-79661104D02*
X137007619Y-79584914D01*
X137007619Y-79584914D02*
X137007619Y-78937295D01*
X137350475Y-79013485D02*
X137388571Y-78975390D01*
X137388571Y-78975390D02*
X137464761Y-78937295D01*
X137464761Y-78937295D02*
X137655237Y-78937295D01*
X137655237Y-78937295D02*
X137731428Y-78975390D01*
X137731428Y-78975390D02*
X137769523Y-79013485D01*
X137769523Y-79013485D02*
X137807618Y-79089676D01*
X137807618Y-79089676D02*
X137807618Y-79165866D01*
X137807618Y-79165866D02*
X137769523Y-79280152D01*
X137769523Y-79280152D02*
X137312380Y-79737295D01*
X137312380Y-79737295D02*
X137807618Y-79737295D01*
D11*
X138804999Y-79739895D02*
X138804999Y-78939895D01*
X138804999Y-78939895D02*
X138995475Y-78939895D01*
X138995475Y-78939895D02*
X139109761Y-78977990D01*
X139109761Y-78977990D02*
X139185951Y-79054180D01*
X139185951Y-79054180D02*
X139224046Y-79130371D01*
X139224046Y-79130371D02*
X139262142Y-79282752D01*
X139262142Y-79282752D02*
X139262142Y-79397038D01*
X139262142Y-79397038D02*
X139224046Y-79549419D01*
X139224046Y-79549419D02*
X139185951Y-79625609D01*
X139185951Y-79625609D02*
X139109761Y-79701800D01*
X139109761Y-79701800D02*
X138995475Y-79739895D01*
X138995475Y-79739895D02*
X138804999Y-79739895D01*
X139566903Y-79701800D02*
X139681189Y-79739895D01*
X139681189Y-79739895D02*
X139871665Y-79739895D01*
X139871665Y-79739895D02*
X139947856Y-79701800D01*
X139947856Y-79701800D02*
X139985951Y-79663704D01*
X139985951Y-79663704D02*
X140024046Y-79587514D01*
X140024046Y-79587514D02*
X140024046Y-79511323D01*
X140024046Y-79511323D02*
X139985951Y-79435133D01*
X139985951Y-79435133D02*
X139947856Y-79397038D01*
X139947856Y-79397038D02*
X139871665Y-79358942D01*
X139871665Y-79358942D02*
X139719284Y-79320847D01*
X139719284Y-79320847D02*
X139643094Y-79282752D01*
X139643094Y-79282752D02*
X139604999Y-79244657D01*
X139604999Y-79244657D02*
X139566903Y-79168466D01*
X139566903Y-79168466D02*
X139566903Y-79092276D01*
X139566903Y-79092276D02*
X139604999Y-79016085D01*
X139604999Y-79016085D02*
X139643094Y-78977990D01*
X139643094Y-78977990D02*
X139719284Y-78939895D01*
X139719284Y-78939895D02*
X139909761Y-78939895D01*
X139909761Y-78939895D02*
X140024046Y-78977990D01*
X140785951Y-79739895D02*
X140328808Y-79739895D01*
X140557380Y-79739895D02*
X140557380Y-78939895D01*
X140557380Y-78939895D02*
X140481189Y-79054180D01*
X140481189Y-79054180D02*
X140404999Y-79130371D01*
X140404999Y-79130371D02*
X140328808Y-79168466D01*
X141052618Y-78939895D02*
X141547856Y-78939895D01*
X141547856Y-78939895D02*
X141281190Y-79244657D01*
X141281190Y-79244657D02*
X141395475Y-79244657D01*
X141395475Y-79244657D02*
X141471666Y-79282752D01*
X141471666Y-79282752D02*
X141509761Y-79320847D01*
X141509761Y-79320847D02*
X141547856Y-79397038D01*
X141547856Y-79397038D02*
X141547856Y-79587514D01*
X141547856Y-79587514D02*
X141509761Y-79663704D01*
X141509761Y-79663704D02*
X141471666Y-79701800D01*
X141471666Y-79701800D02*
X141395475Y-79739895D01*
X141395475Y-79739895D02*
X141166904Y-79739895D01*
X141166904Y-79739895D02*
X141090713Y-79701800D01*
X141090713Y-79701800D02*
X141052618Y-79663704D01*
X141814523Y-78939895D02*
X142309761Y-78939895D01*
X142309761Y-78939895D02*
X142043095Y-79244657D01*
X142043095Y-79244657D02*
X142157380Y-79244657D01*
X142157380Y-79244657D02*
X142233571Y-79282752D01*
X142233571Y-79282752D02*
X142271666Y-79320847D01*
X142271666Y-79320847D02*
X142309761Y-79397038D01*
X142309761Y-79397038D02*
X142309761Y-79587514D01*
X142309761Y-79587514D02*
X142271666Y-79663704D01*
X142271666Y-79663704D02*
X142233571Y-79701800D01*
X142233571Y-79701800D02*
X142157380Y-79739895D01*
X142157380Y-79739895D02*
X141928809Y-79739895D01*
X141928809Y-79739895D02*
X141852618Y-79701800D01*
X141852618Y-79701800D02*
X141814523Y-79663704D01*
X142576428Y-78939895D02*
X143109762Y-78939895D01*
X143109762Y-78939895D02*
X142766904Y-79739895D01*
X143376428Y-79701800D02*
X143490714Y-79739895D01*
X143490714Y-79739895D02*
X143681190Y-79739895D01*
X143681190Y-79739895D02*
X143757381Y-79701800D01*
X143757381Y-79701800D02*
X143795476Y-79663704D01*
X143795476Y-79663704D02*
X143833571Y-79587514D01*
X143833571Y-79587514D02*
X143833571Y-79511323D01*
X143833571Y-79511323D02*
X143795476Y-79435133D01*
X143795476Y-79435133D02*
X143757381Y-79397038D01*
X143757381Y-79397038D02*
X143681190Y-79358942D01*
X143681190Y-79358942D02*
X143528809Y-79320847D01*
X143528809Y-79320847D02*
X143452619Y-79282752D01*
X143452619Y-79282752D02*
X143414524Y-79244657D01*
X143414524Y-79244657D02*
X143376428Y-79168466D01*
X143376428Y-79168466D02*
X143376428Y-79092276D01*
X143376428Y-79092276D02*
X143414524Y-79016085D01*
X143414524Y-79016085D02*
X143452619Y-78977990D01*
X143452619Y-78977990D02*
X143528809Y-78939895D01*
X143528809Y-78939895D02*
X143719286Y-78939895D01*
X143719286Y-78939895D02*
X143833571Y-78977990D01*
X143985953Y-79816085D02*
X144595476Y-79816085D01*
D10*
X135915476Y-71317295D02*
X135915476Y-71964914D01*
X135915476Y-71964914D02*
X135953571Y-72041104D01*
X135953571Y-72041104D02*
X135991666Y-72079200D01*
X135991666Y-72079200D02*
X136067857Y-72117295D01*
X136067857Y-72117295D02*
X136220238Y-72117295D01*
X136220238Y-72117295D02*
X136296428Y-72079200D01*
X136296428Y-72079200D02*
X136334523Y-72041104D01*
X136334523Y-72041104D02*
X136372619Y-71964914D01*
X136372619Y-71964914D02*
X136372619Y-71317295D01*
X137172618Y-72117295D02*
X136715475Y-72117295D01*
X136944047Y-72117295D02*
X136944047Y-71317295D01*
X136944047Y-71317295D02*
X136867856Y-71431580D01*
X136867856Y-71431580D02*
X136791666Y-71507771D01*
X136791666Y-71507771D02*
X136715475Y-71545866D01*
D11*
X138112856Y-71396085D02*
X138150952Y-71357990D01*
X138150952Y-71357990D02*
X138227142Y-71319895D01*
X138227142Y-71319895D02*
X138417618Y-71319895D01*
X138417618Y-71319895D02*
X138493809Y-71357990D01*
X138493809Y-71357990D02*
X138531904Y-71396085D01*
X138531904Y-71396085D02*
X138569999Y-71472276D01*
X138569999Y-71472276D02*
X138569999Y-71548466D01*
X138569999Y-71548466D02*
X138531904Y-71662752D01*
X138531904Y-71662752D02*
X138074761Y-72119895D01*
X138074761Y-72119895D02*
X138569999Y-72119895D01*
X139255714Y-71586561D02*
X139255714Y-72119895D01*
X139065238Y-71281800D02*
X138874761Y-71853228D01*
X138874761Y-71853228D02*
X139370000Y-71853228D01*
X140055714Y-72119895D02*
X139674762Y-72119895D01*
X139674762Y-72119895D02*
X139674762Y-71319895D01*
X140779524Y-72043704D02*
X140741428Y-72081800D01*
X140741428Y-72081800D02*
X140627143Y-72119895D01*
X140627143Y-72119895D02*
X140550952Y-72119895D01*
X140550952Y-72119895D02*
X140436666Y-72081800D01*
X140436666Y-72081800D02*
X140360476Y-72005609D01*
X140360476Y-72005609D02*
X140322381Y-71929419D01*
X140322381Y-71929419D02*
X140284285Y-71777038D01*
X140284285Y-71777038D02*
X140284285Y-71662752D01*
X140284285Y-71662752D02*
X140322381Y-71510371D01*
X140322381Y-71510371D02*
X140360476Y-71434180D01*
X140360476Y-71434180D02*
X140436666Y-71357990D01*
X140436666Y-71357990D02*
X140550952Y-71319895D01*
X140550952Y-71319895D02*
X140627143Y-71319895D01*
X140627143Y-71319895D02*
X140741428Y-71357990D01*
X140741428Y-71357990D02*
X140779524Y-71396085D01*
X141541428Y-72119895D02*
X141084285Y-72119895D01*
X141312857Y-72119895D02*
X141312857Y-71319895D01*
X141312857Y-71319895D02*
X141236666Y-71434180D01*
X141236666Y-71434180D02*
X141160476Y-71510371D01*
X141160476Y-71510371D02*
X141084285Y-71548466D01*
X142036667Y-71319895D02*
X142112857Y-71319895D01*
X142112857Y-71319895D02*
X142189048Y-71357990D01*
X142189048Y-71357990D02*
X142227143Y-71396085D01*
X142227143Y-71396085D02*
X142265238Y-71472276D01*
X142265238Y-71472276D02*
X142303333Y-71624657D01*
X142303333Y-71624657D02*
X142303333Y-71815133D01*
X142303333Y-71815133D02*
X142265238Y-71967514D01*
X142265238Y-71967514D02*
X142227143Y-72043704D01*
X142227143Y-72043704D02*
X142189048Y-72081800D01*
X142189048Y-72081800D02*
X142112857Y-72119895D01*
X142112857Y-72119895D02*
X142036667Y-72119895D01*
X142036667Y-72119895D02*
X141960476Y-72081800D01*
X141960476Y-72081800D02*
X141922381Y-72043704D01*
X141922381Y-72043704D02*
X141884286Y-71967514D01*
X141884286Y-71967514D02*
X141846190Y-71815133D01*
X141846190Y-71815133D02*
X141846190Y-71624657D01*
X141846190Y-71624657D02*
X141884286Y-71472276D01*
X141884286Y-71472276D02*
X141922381Y-71396085D01*
X141922381Y-71396085D02*
X141960476Y-71357990D01*
X141960476Y-71357990D02*
X142036667Y-71319895D01*
X142608095Y-71396085D02*
X142646191Y-71357990D01*
X142646191Y-71357990D02*
X142722381Y-71319895D01*
X142722381Y-71319895D02*
X142912857Y-71319895D01*
X142912857Y-71319895D02*
X142989048Y-71357990D01*
X142989048Y-71357990D02*
X143027143Y-71396085D01*
X143027143Y-71396085D02*
X143065238Y-71472276D01*
X143065238Y-71472276D02*
X143065238Y-71548466D01*
X143065238Y-71548466D02*
X143027143Y-71662752D01*
X143027143Y-71662752D02*
X142570000Y-72119895D01*
X142570000Y-72119895D02*
X143065238Y-72119895D01*
X143789048Y-71319895D02*
X143408096Y-71319895D01*
X143408096Y-71319895D02*
X143370000Y-71700847D01*
X143370000Y-71700847D02*
X143408096Y-71662752D01*
X143408096Y-71662752D02*
X143484286Y-71624657D01*
X143484286Y-71624657D02*
X143674762Y-71624657D01*
X143674762Y-71624657D02*
X143750953Y-71662752D01*
X143750953Y-71662752D02*
X143789048Y-71700847D01*
X143789048Y-71700847D02*
X143827143Y-71777038D01*
X143827143Y-71777038D02*
X143827143Y-71967514D01*
X143827143Y-71967514D02*
X143789048Y-72043704D01*
X143789048Y-72043704D02*
X143750953Y-72081800D01*
X143750953Y-72081800D02*
X143674762Y-72119895D01*
X143674762Y-72119895D02*
X143484286Y-72119895D01*
X143484286Y-72119895D02*
X143408096Y-72081800D01*
X143408096Y-72081800D02*
X143370000Y-72043704D01*
D10*
X141471667Y-86087295D02*
X141205000Y-85706342D01*
X141014524Y-86087295D02*
X141014524Y-85287295D01*
X141014524Y-85287295D02*
X141319286Y-85287295D01*
X141319286Y-85287295D02*
X141395476Y-85325390D01*
X141395476Y-85325390D02*
X141433571Y-85363485D01*
X141433571Y-85363485D02*
X141471667Y-85439676D01*
X141471667Y-85439676D02*
X141471667Y-85553961D01*
X141471667Y-85553961D02*
X141433571Y-85630152D01*
X141433571Y-85630152D02*
X141395476Y-85668247D01*
X141395476Y-85668247D02*
X141319286Y-85706342D01*
X141319286Y-85706342D02*
X141014524Y-85706342D01*
X141776428Y-85363485D02*
X141814524Y-85325390D01*
X141814524Y-85325390D02*
X141890714Y-85287295D01*
X141890714Y-85287295D02*
X142081190Y-85287295D01*
X142081190Y-85287295D02*
X142157381Y-85325390D01*
X142157381Y-85325390D02*
X142195476Y-85363485D01*
X142195476Y-85363485D02*
X142233571Y-85439676D01*
X142233571Y-85439676D02*
X142233571Y-85515866D01*
X142233571Y-85515866D02*
X142195476Y-85630152D01*
X142195476Y-85630152D02*
X141738333Y-86087295D01*
X141738333Y-86087295D02*
X142233571Y-86087295D01*
D11*
X141006186Y-88798123D02*
X140549043Y-88798123D01*
X140777615Y-88798123D02*
X140777615Y-87998123D01*
X140777615Y-87998123D02*
X140701424Y-88112408D01*
X140701424Y-88112408D02*
X140625234Y-88188599D01*
X140625234Y-88188599D02*
X140549043Y-88226694D01*
X141501425Y-87998123D02*
X141577615Y-87998123D01*
X141577615Y-87998123D02*
X141653806Y-88036218D01*
X141653806Y-88036218D02*
X141691901Y-88074313D01*
X141691901Y-88074313D02*
X141729996Y-88150504D01*
X141729996Y-88150504D02*
X141768091Y-88302885D01*
X141768091Y-88302885D02*
X141768091Y-88493361D01*
X141768091Y-88493361D02*
X141729996Y-88645742D01*
X141729996Y-88645742D02*
X141691901Y-88721932D01*
X141691901Y-88721932D02*
X141653806Y-88760028D01*
X141653806Y-88760028D02*
X141577615Y-88798123D01*
X141577615Y-88798123D02*
X141501425Y-88798123D01*
X141501425Y-88798123D02*
X141425234Y-88760028D01*
X141425234Y-88760028D02*
X141387139Y-88721932D01*
X141387139Y-88721932D02*
X141349044Y-88645742D01*
X141349044Y-88645742D02*
X141310948Y-88493361D01*
X141310948Y-88493361D02*
X141310948Y-88302885D01*
X141310948Y-88302885D02*
X141349044Y-88150504D01*
X141349044Y-88150504D02*
X141387139Y-88074313D01*
X141387139Y-88074313D02*
X141425234Y-88036218D01*
X141425234Y-88036218D02*
X141501425Y-87998123D01*
X142110949Y-88798123D02*
X142110949Y-87998123D01*
X142568092Y-88798123D02*
X142225234Y-88340980D01*
X142568092Y-87998123D02*
X142110949Y-88455266D01*
D10*
X137661667Y-86087295D02*
X137395000Y-85706342D01*
X137204524Y-86087295D02*
X137204524Y-85287295D01*
X137204524Y-85287295D02*
X137509286Y-85287295D01*
X137509286Y-85287295D02*
X137585476Y-85325390D01*
X137585476Y-85325390D02*
X137623571Y-85363485D01*
X137623571Y-85363485D02*
X137661667Y-85439676D01*
X137661667Y-85439676D02*
X137661667Y-85553961D01*
X137661667Y-85553961D02*
X137623571Y-85630152D01*
X137623571Y-85630152D02*
X137585476Y-85668247D01*
X137585476Y-85668247D02*
X137509286Y-85706342D01*
X137509286Y-85706342D02*
X137204524Y-85706342D01*
X138423571Y-86087295D02*
X137966428Y-86087295D01*
X138195000Y-86087295D02*
X138195000Y-85287295D01*
X138195000Y-85287295D02*
X138118809Y-85401580D01*
X138118809Y-85401580D02*
X138042619Y-85477771D01*
X138042619Y-85477771D02*
X137966428Y-85515866D01*
D11*
X137160232Y-88766352D02*
X136703089Y-88766352D01*
X136931661Y-88766352D02*
X136931661Y-87966352D01*
X136931661Y-87966352D02*
X136855470Y-88080637D01*
X136855470Y-88080637D02*
X136779280Y-88156828D01*
X136779280Y-88156828D02*
X136703089Y-88194923D01*
X137655471Y-87966352D02*
X137731661Y-87966352D01*
X137731661Y-87966352D02*
X137807852Y-88004447D01*
X137807852Y-88004447D02*
X137845947Y-88042542D01*
X137845947Y-88042542D02*
X137884042Y-88118733D01*
X137884042Y-88118733D02*
X137922137Y-88271114D01*
X137922137Y-88271114D02*
X137922137Y-88461590D01*
X137922137Y-88461590D02*
X137884042Y-88613971D01*
X137884042Y-88613971D02*
X137845947Y-88690161D01*
X137845947Y-88690161D02*
X137807852Y-88728257D01*
X137807852Y-88728257D02*
X137731661Y-88766352D01*
X137731661Y-88766352D02*
X137655471Y-88766352D01*
X137655471Y-88766352D02*
X137579280Y-88728257D01*
X137579280Y-88728257D02*
X137541185Y-88690161D01*
X137541185Y-88690161D02*
X137503090Y-88613971D01*
X137503090Y-88613971D02*
X137464994Y-88461590D01*
X137464994Y-88461590D02*
X137464994Y-88271114D01*
X137464994Y-88271114D02*
X137503090Y-88118733D01*
X137503090Y-88118733D02*
X137541185Y-88042542D01*
X137541185Y-88042542D02*
X137579280Y-88004447D01*
X137579280Y-88004447D02*
X137655471Y-87966352D01*
X138264995Y-88766352D02*
X138264995Y-87966352D01*
X138722138Y-88766352D02*
X138379280Y-88309209D01*
X138722138Y-87966352D02*
X138264995Y-88423495D01*
D10*
X131642295Y-91071666D02*
X132213723Y-91071666D01*
X132213723Y-91071666D02*
X132328009Y-91109761D01*
X132328009Y-91109761D02*
X132404200Y-91185952D01*
X132404200Y-91185952D02*
X132442295Y-91300237D01*
X132442295Y-91300237D02*
X132442295Y-91376428D01*
X131908961Y-90347856D02*
X132442295Y-90347856D01*
X131604200Y-90538332D02*
X132175628Y-90728809D01*
X132175628Y-90728809D02*
X132175628Y-90233570D01*
X171178333Y-66872295D02*
X171178333Y-67443723D01*
X171178333Y-67443723D02*
X171140238Y-67558009D01*
X171140238Y-67558009D02*
X171064047Y-67634200D01*
X171064047Y-67634200D02*
X170949762Y-67672295D01*
X170949762Y-67672295D02*
X170873571Y-67672295D01*
X171483095Y-66872295D02*
X171978333Y-66872295D01*
X171978333Y-66872295D02*
X171711667Y-67177057D01*
X171711667Y-67177057D02*
X171825952Y-67177057D01*
X171825952Y-67177057D02*
X171902143Y-67215152D01*
X171902143Y-67215152D02*
X171940238Y-67253247D01*
X171940238Y-67253247D02*
X171978333Y-67329438D01*
X171978333Y-67329438D02*
X171978333Y-67519914D01*
X171978333Y-67519914D02*
X171940238Y-67596104D01*
X171940238Y-67596104D02*
X171902143Y-67634200D01*
X171902143Y-67634200D02*
X171825952Y-67672295D01*
X171825952Y-67672295D02*
X171597381Y-67672295D01*
X171597381Y-67672295D02*
X171521190Y-67634200D01*
X171521190Y-67634200D02*
X171483095Y-67596104D01*
X158947295Y-91706666D02*
X159518723Y-91706666D01*
X159518723Y-91706666D02*
X159633009Y-91744761D01*
X159633009Y-91744761D02*
X159709200Y-91820952D01*
X159709200Y-91820952D02*
X159747295Y-91935237D01*
X159747295Y-91935237D02*
X159747295Y-92011428D01*
X159023485Y-91363809D02*
X158985390Y-91325713D01*
X158985390Y-91325713D02*
X158947295Y-91249523D01*
X158947295Y-91249523D02*
X158947295Y-91059047D01*
X158947295Y-91059047D02*
X158985390Y-90982856D01*
X158985390Y-90982856D02*
X159023485Y-90944761D01*
X159023485Y-90944761D02*
X159099676Y-90906666D01*
X159099676Y-90906666D02*
X159175866Y-90906666D01*
X159175866Y-90906666D02*
X159290152Y-90944761D01*
X159290152Y-90944761D02*
X159747295Y-91401904D01*
X159747295Y-91401904D02*
X159747295Y-90906666D01*
X172453333Y-77032295D02*
X172453333Y-77603723D01*
X172453333Y-77603723D02*
X172415238Y-77718009D01*
X172415238Y-77718009D02*
X172339047Y-77794200D01*
X172339047Y-77794200D02*
X172224762Y-77832295D01*
X172224762Y-77832295D02*
X172148571Y-77832295D01*
X173253333Y-77832295D02*
X172796190Y-77832295D01*
X173024762Y-77832295D02*
X173024762Y-77032295D01*
X173024762Y-77032295D02*
X172948571Y-77146580D01*
X172948571Y-77146580D02*
X172872381Y-77222771D01*
X172872381Y-77222771D02*
X172796190Y-77260866D01*
X156711667Y-64646104D02*
X156673571Y-64684200D01*
X156673571Y-64684200D02*
X156559286Y-64722295D01*
X156559286Y-64722295D02*
X156483095Y-64722295D01*
X156483095Y-64722295D02*
X156368809Y-64684200D01*
X156368809Y-64684200D02*
X156292619Y-64608009D01*
X156292619Y-64608009D02*
X156254524Y-64531819D01*
X156254524Y-64531819D02*
X156216428Y-64379438D01*
X156216428Y-64379438D02*
X156216428Y-64265152D01*
X156216428Y-64265152D02*
X156254524Y-64112771D01*
X156254524Y-64112771D02*
X156292619Y-64036580D01*
X156292619Y-64036580D02*
X156368809Y-63960390D01*
X156368809Y-63960390D02*
X156483095Y-63922295D01*
X156483095Y-63922295D02*
X156559286Y-63922295D01*
X156559286Y-63922295D02*
X156673571Y-63960390D01*
X156673571Y-63960390D02*
X156711667Y-63998485D01*
X157435476Y-63922295D02*
X157054524Y-63922295D01*
X157054524Y-63922295D02*
X157016428Y-64303247D01*
X157016428Y-64303247D02*
X157054524Y-64265152D01*
X157054524Y-64265152D02*
X157130714Y-64227057D01*
X157130714Y-64227057D02*
X157321190Y-64227057D01*
X157321190Y-64227057D02*
X157397381Y-64265152D01*
X157397381Y-64265152D02*
X157435476Y-64303247D01*
X157435476Y-64303247D02*
X157473571Y-64379438D01*
X157473571Y-64379438D02*
X157473571Y-64569914D01*
X157473571Y-64569914D02*
X157435476Y-64646104D01*
X157435476Y-64646104D02*
X157397381Y-64684200D01*
X157397381Y-64684200D02*
X157321190Y-64722295D01*
X157321190Y-64722295D02*
X157130714Y-64722295D01*
X157130714Y-64722295D02*
X157054524Y-64684200D01*
X157054524Y-64684200D02*
X157016428Y-64646104D01*
D11*
X155606904Y-68084895D02*
X155149761Y-68084895D01*
X155378333Y-68084895D02*
X155378333Y-67284895D01*
X155378333Y-67284895D02*
X155302142Y-67399180D01*
X155302142Y-67399180D02*
X155225952Y-67475371D01*
X155225952Y-67475371D02*
X155149761Y-67513466D01*
X156102143Y-67284895D02*
X156178333Y-67284895D01*
X156178333Y-67284895D02*
X156254524Y-67322990D01*
X156254524Y-67322990D02*
X156292619Y-67361085D01*
X156292619Y-67361085D02*
X156330714Y-67437276D01*
X156330714Y-67437276D02*
X156368809Y-67589657D01*
X156368809Y-67589657D02*
X156368809Y-67780133D01*
X156368809Y-67780133D02*
X156330714Y-67932514D01*
X156330714Y-67932514D02*
X156292619Y-68008704D01*
X156292619Y-68008704D02*
X156254524Y-68046800D01*
X156254524Y-68046800D02*
X156178333Y-68084895D01*
X156178333Y-68084895D02*
X156102143Y-68084895D01*
X156102143Y-68084895D02*
X156025952Y-68046800D01*
X156025952Y-68046800D02*
X155987857Y-68008704D01*
X155987857Y-68008704D02*
X155949762Y-67932514D01*
X155949762Y-67932514D02*
X155911666Y-67780133D01*
X155911666Y-67780133D02*
X155911666Y-67589657D01*
X155911666Y-67589657D02*
X155949762Y-67437276D01*
X155949762Y-67437276D02*
X155987857Y-67361085D01*
X155987857Y-67361085D02*
X156025952Y-67322990D01*
X156025952Y-67322990D02*
X156102143Y-67284895D01*
X156864048Y-67284895D02*
X156940238Y-67284895D01*
X156940238Y-67284895D02*
X157016429Y-67322990D01*
X157016429Y-67322990D02*
X157054524Y-67361085D01*
X157054524Y-67361085D02*
X157092619Y-67437276D01*
X157092619Y-67437276D02*
X157130714Y-67589657D01*
X157130714Y-67589657D02*
X157130714Y-67780133D01*
X157130714Y-67780133D02*
X157092619Y-67932514D01*
X157092619Y-67932514D02*
X157054524Y-68008704D01*
X157054524Y-68008704D02*
X157016429Y-68046800D01*
X157016429Y-68046800D02*
X156940238Y-68084895D01*
X156940238Y-68084895D02*
X156864048Y-68084895D01*
X156864048Y-68084895D02*
X156787857Y-68046800D01*
X156787857Y-68046800D02*
X156749762Y-68008704D01*
X156749762Y-68008704D02*
X156711667Y-67932514D01*
X156711667Y-67932514D02*
X156673571Y-67780133D01*
X156673571Y-67780133D02*
X156673571Y-67589657D01*
X156673571Y-67589657D02*
X156711667Y-67437276D01*
X156711667Y-67437276D02*
X156749762Y-67361085D01*
X156749762Y-67361085D02*
X156787857Y-67322990D01*
X156787857Y-67322990D02*
X156864048Y-67284895D01*
X157473572Y-67551561D02*
X157473572Y-68084895D01*
X157473572Y-67627752D02*
X157511667Y-67589657D01*
X157511667Y-67589657D02*
X157587857Y-67551561D01*
X157587857Y-67551561D02*
X157702143Y-67551561D01*
X157702143Y-67551561D02*
X157778334Y-67589657D01*
X157778334Y-67589657D02*
X157816429Y-67665847D01*
X157816429Y-67665847D02*
X157816429Y-68084895D01*
X158464048Y-67665847D02*
X158197382Y-67665847D01*
X158197382Y-68084895D02*
X158197382Y-67284895D01*
X158197382Y-67284895D02*
X158578334Y-67284895D01*
X151085713Y-67361085D02*
X151123809Y-67322990D01*
X151123809Y-67322990D02*
X151199999Y-67284895D01*
X151199999Y-67284895D02*
X151390475Y-67284895D01*
X151390475Y-67284895D02*
X151466666Y-67322990D01*
X151466666Y-67322990D02*
X151504761Y-67361085D01*
X151504761Y-67361085D02*
X151542856Y-67437276D01*
X151542856Y-67437276D02*
X151542856Y-67513466D01*
X151542856Y-67513466D02*
X151504761Y-67627752D01*
X151504761Y-67627752D02*
X151047618Y-68084895D01*
X151047618Y-68084895D02*
X151542856Y-68084895D01*
X151847618Y-67361085D02*
X151885714Y-67322990D01*
X151885714Y-67322990D02*
X151961904Y-67284895D01*
X151961904Y-67284895D02*
X152152380Y-67284895D01*
X152152380Y-67284895D02*
X152228571Y-67322990D01*
X152228571Y-67322990D02*
X152266666Y-67361085D01*
X152266666Y-67361085D02*
X152304761Y-67437276D01*
X152304761Y-67437276D02*
X152304761Y-67513466D01*
X152304761Y-67513466D02*
X152266666Y-67627752D01*
X152266666Y-67627752D02*
X151809523Y-68084895D01*
X151809523Y-68084895D02*
X152304761Y-68084895D01*
X152647619Y-67551561D02*
X152647619Y-68351561D01*
X152647619Y-67589657D02*
X152723809Y-67551561D01*
X152723809Y-67551561D02*
X152876190Y-67551561D01*
X152876190Y-67551561D02*
X152952381Y-67589657D01*
X152952381Y-67589657D02*
X152990476Y-67627752D01*
X152990476Y-67627752D02*
X153028571Y-67703942D01*
X153028571Y-67703942D02*
X153028571Y-67932514D01*
X153028571Y-67932514D02*
X152990476Y-68008704D01*
X152990476Y-68008704D02*
X152952381Y-68046800D01*
X152952381Y-68046800D02*
X152876190Y-68084895D01*
X152876190Y-68084895D02*
X152723809Y-68084895D01*
X152723809Y-68084895D02*
X152647619Y-68046800D01*
X153638095Y-67665847D02*
X153371429Y-67665847D01*
X153371429Y-68084895D02*
X153371429Y-67284895D01*
X153371429Y-67284895D02*
X153752381Y-67284895D01*
D10*
X147821667Y-64421104D02*
X147783571Y-64459200D01*
X147783571Y-64459200D02*
X147669286Y-64497295D01*
X147669286Y-64497295D02*
X147593095Y-64497295D01*
X147593095Y-64497295D02*
X147478809Y-64459200D01*
X147478809Y-64459200D02*
X147402619Y-64383009D01*
X147402619Y-64383009D02*
X147364524Y-64306819D01*
X147364524Y-64306819D02*
X147326428Y-64154438D01*
X147326428Y-64154438D02*
X147326428Y-64040152D01*
X147326428Y-64040152D02*
X147364524Y-63887771D01*
X147364524Y-63887771D02*
X147402619Y-63811580D01*
X147402619Y-63811580D02*
X147478809Y-63735390D01*
X147478809Y-63735390D02*
X147593095Y-63697295D01*
X147593095Y-63697295D02*
X147669286Y-63697295D01*
X147669286Y-63697295D02*
X147783571Y-63735390D01*
X147783571Y-63735390D02*
X147821667Y-63773485D01*
X148583571Y-64497295D02*
X148126428Y-64497295D01*
X148355000Y-64497295D02*
X148355000Y-63697295D01*
X148355000Y-63697295D02*
X148278809Y-63811580D01*
X148278809Y-63811580D02*
X148202619Y-63887771D01*
X148202619Y-63887771D02*
X148126428Y-63925866D01*
D11*
X146640714Y-67399895D02*
X146716904Y-67399895D01*
X146716904Y-67399895D02*
X146793095Y-67437990D01*
X146793095Y-67437990D02*
X146831190Y-67476085D01*
X146831190Y-67476085D02*
X146869285Y-67552276D01*
X146869285Y-67552276D02*
X146907380Y-67704657D01*
X146907380Y-67704657D02*
X146907380Y-67895133D01*
X146907380Y-67895133D02*
X146869285Y-68047514D01*
X146869285Y-68047514D02*
X146831190Y-68123704D01*
X146831190Y-68123704D02*
X146793095Y-68161800D01*
X146793095Y-68161800D02*
X146716904Y-68199895D01*
X146716904Y-68199895D02*
X146640714Y-68199895D01*
X146640714Y-68199895D02*
X146564523Y-68161800D01*
X146564523Y-68161800D02*
X146526428Y-68123704D01*
X146526428Y-68123704D02*
X146488333Y-68047514D01*
X146488333Y-68047514D02*
X146450237Y-67895133D01*
X146450237Y-67895133D02*
X146450237Y-67704657D01*
X146450237Y-67704657D02*
X146488333Y-67552276D01*
X146488333Y-67552276D02*
X146526428Y-67476085D01*
X146526428Y-67476085D02*
X146564523Y-67437990D01*
X146564523Y-67437990D02*
X146640714Y-67399895D01*
X147250238Y-68123704D02*
X147288333Y-68161800D01*
X147288333Y-68161800D02*
X147250238Y-68199895D01*
X147250238Y-68199895D02*
X147212142Y-68161800D01*
X147212142Y-68161800D02*
X147250238Y-68123704D01*
X147250238Y-68123704D02*
X147250238Y-68199895D01*
X148050237Y-68199895D02*
X147593094Y-68199895D01*
X147821666Y-68199895D02*
X147821666Y-67399895D01*
X147821666Y-67399895D02*
X147745475Y-67514180D01*
X147745475Y-67514180D02*
X147669285Y-67590371D01*
X147669285Y-67590371D02*
X147593094Y-67628466D01*
X148735952Y-67666561D02*
X148735952Y-68199895D01*
X148393095Y-67666561D02*
X148393095Y-68085609D01*
X148393095Y-68085609D02*
X148431190Y-68161800D01*
X148431190Y-68161800D02*
X148507380Y-68199895D01*
X148507380Y-68199895D02*
X148621666Y-68199895D01*
X148621666Y-68199895D02*
X148697857Y-68161800D01*
X148697857Y-68161800D02*
X148735952Y-68123704D01*
X149383571Y-67780847D02*
X149116905Y-67780847D01*
X149116905Y-68199895D02*
X149116905Y-67399895D01*
X149116905Y-67399895D02*
X149497857Y-67399895D01*
X130422856Y-71700847D02*
X130537142Y-71738942D01*
X130537142Y-71738942D02*
X130575237Y-71777038D01*
X130575237Y-71777038D02*
X130613333Y-71853228D01*
X130613333Y-71853228D02*
X130613333Y-71967514D01*
X130613333Y-71967514D02*
X130575237Y-72043704D01*
X130575237Y-72043704D02*
X130537142Y-72081800D01*
X130537142Y-72081800D02*
X130460952Y-72119895D01*
X130460952Y-72119895D02*
X130156190Y-72119895D01*
X130156190Y-72119895D02*
X130156190Y-71319895D01*
X130156190Y-71319895D02*
X130422856Y-71319895D01*
X130422856Y-71319895D02*
X130499047Y-71357990D01*
X130499047Y-71357990D02*
X130537142Y-71396085D01*
X130537142Y-71396085D02*
X130575237Y-71472276D01*
X130575237Y-71472276D02*
X130575237Y-71548466D01*
X130575237Y-71548466D02*
X130537142Y-71624657D01*
X130537142Y-71624657D02*
X130499047Y-71662752D01*
X130499047Y-71662752D02*
X130422856Y-71700847D01*
X130422856Y-71700847D02*
X130156190Y-71700847D01*
X131299047Y-72119895D02*
X131299047Y-71700847D01*
X131299047Y-71700847D02*
X131260952Y-71624657D01*
X131260952Y-71624657D02*
X131184761Y-71586561D01*
X131184761Y-71586561D02*
X131032380Y-71586561D01*
X131032380Y-71586561D02*
X130956190Y-71624657D01*
X131299047Y-72081800D02*
X131222856Y-72119895D01*
X131222856Y-72119895D02*
X131032380Y-72119895D01*
X131032380Y-72119895D02*
X130956190Y-72081800D01*
X130956190Y-72081800D02*
X130918094Y-72005609D01*
X130918094Y-72005609D02*
X130918094Y-71929419D01*
X130918094Y-71929419D02*
X130956190Y-71853228D01*
X130956190Y-71853228D02*
X131032380Y-71815133D01*
X131032380Y-71815133D02*
X131222856Y-71815133D01*
X131222856Y-71815133D02*
X131299047Y-71777038D01*
X131565714Y-71586561D02*
X131870476Y-71586561D01*
X131680000Y-71319895D02*
X131680000Y-72005609D01*
X131680000Y-72005609D02*
X131718095Y-72081800D01*
X131718095Y-72081800D02*
X131794285Y-72119895D01*
X131794285Y-72119895D02*
X131870476Y-72119895D01*
X132022857Y-71586561D02*
X132327619Y-71586561D01*
X132137143Y-71319895D02*
X132137143Y-72005609D01*
X132137143Y-72005609D02*
X132175238Y-72081800D01*
X132175238Y-72081800D02*
X132251428Y-72119895D01*
X132251428Y-72119895D02*
X132327619Y-72119895D01*
X132899048Y-72081800D02*
X132822857Y-72119895D01*
X132822857Y-72119895D02*
X132670476Y-72119895D01*
X132670476Y-72119895D02*
X132594286Y-72081800D01*
X132594286Y-72081800D02*
X132556190Y-72005609D01*
X132556190Y-72005609D02*
X132556190Y-71700847D01*
X132556190Y-71700847D02*
X132594286Y-71624657D01*
X132594286Y-71624657D02*
X132670476Y-71586561D01*
X132670476Y-71586561D02*
X132822857Y-71586561D01*
X132822857Y-71586561D02*
X132899048Y-71624657D01*
X132899048Y-71624657D02*
X132937143Y-71700847D01*
X132937143Y-71700847D02*
X132937143Y-71777038D01*
X132937143Y-71777038D02*
X132556190Y-71853228D01*
X133280000Y-72119895D02*
X133280000Y-71586561D01*
X133280000Y-71738942D02*
X133318095Y-71662752D01*
X133318095Y-71662752D02*
X133356190Y-71624657D01*
X133356190Y-71624657D02*
X133432381Y-71586561D01*
X133432381Y-71586561D02*
X133508571Y-71586561D01*
X133699047Y-71586561D02*
X133889523Y-72119895D01*
X134080000Y-71586561D02*
X133889523Y-72119895D01*
X133889523Y-72119895D02*
X133813333Y-72310371D01*
X133813333Y-72310371D02*
X133775238Y-72348466D01*
X133775238Y-72348466D02*
X133699047Y-72386561D01*
D12*
%TO.C,R5*%
X161697936Y-69115000D02*
X162152064Y-69115000D01*
X161697936Y-70585000D02*
X162152064Y-70585000D01*
%TO.C,R4*%
X162152064Y-73760000D02*
X161697936Y-73760000D01*
X162152064Y-72290000D02*
X161697936Y-72290000D01*
%TO.C,R3*%
X162152064Y-75465000D02*
X161697936Y-75465000D01*
X162152064Y-76935000D02*
X161697936Y-76935000D01*
%TO.C,D2*%
X162925000Y-65080000D02*
X160240000Y-65080000D01*
X160240000Y-65080000D02*
X160240000Y-67000000D01*
X160240000Y-67000000D02*
X162925000Y-67000000D01*
%TO.C,C4*%
X161551252Y-86260000D02*
X161028748Y-86260000D01*
X161551252Y-87730000D02*
X161028748Y-87730000D01*
%TO.C,C2*%
X161551252Y-83085000D02*
X161028748Y-83085000D01*
X161551252Y-84555000D02*
X161028748Y-84555000D01*
%TO.C,Y2*%
X147850000Y-88160000D02*
X155100000Y-88160000D01*
X155100000Y-84560000D02*
X147850000Y-84560000D01*
X147850000Y-84560000D02*
X147850000Y-88160000D01*
%TO.C,Y1*%
X130280000Y-87735000D02*
X133880000Y-87735000D01*
X130280000Y-80485000D02*
X130280000Y-87735000D01*
X133880000Y-87735000D02*
X133880000Y-80485000D01*
D13*
%TO.C,U4*%
X146660000Y-74035000D02*
G75*
G03*
X146460000Y-74035000I-100000J0D01*
G01*
X146460000Y-74035000D02*
G75*
G03*
X146660000Y-74035000I100000J0D01*
G01*
D14*
X155900000Y-80335000D02*
X155900000Y-80230000D01*
X155900000Y-80335000D02*
X155795000Y-80335000D01*
X155900000Y-73335000D02*
X155900000Y-73440000D01*
X155900000Y-73335000D02*
X155795000Y-73335000D01*
X148900000Y-80335000D02*
X149005000Y-80335000D01*
X148900000Y-80335000D02*
X148900000Y-80230000D01*
X148900000Y-73335000D02*
X149005000Y-73335000D01*
X148900000Y-73335000D02*
X148900000Y-73440000D01*
D12*
%TO.C,U3*%
X140335000Y-65220000D02*
X143060000Y-65220000D01*
X143060000Y-65220000D02*
X143060000Y-65480000D01*
X140335000Y-70670000D02*
X137610000Y-70670000D01*
X140335000Y-70670000D02*
X143060000Y-70670000D01*
X143060000Y-70670000D02*
X143060000Y-70410000D01*
X137610000Y-65220000D02*
X137610000Y-65480000D01*
X140335000Y-65220000D02*
X137610000Y-65220000D01*
X137610000Y-65480000D02*
X135935000Y-65480000D01*
X137610000Y-70670000D02*
X137610000Y-70410000D01*
D14*
%TO.C,U2*%
X138335000Y-80030000D02*
X142335000Y-80030000D01*
X138335000Y-85070000D02*
X142335000Y-85070000D01*
D13*
X135990000Y-80055000D02*
G75*
G03*
X135790000Y-80055000I-100000J0D01*
G01*
X135790000Y-80055000D02*
G75*
G03*
X135990000Y-80055000I100000J0D01*
G01*
D12*
%TO.C,U1*%
X140335000Y-72840000D02*
X143060000Y-72840000D01*
X143060000Y-72840000D02*
X143060000Y-73100000D01*
X140335000Y-78290000D02*
X137610000Y-78290000D01*
X140335000Y-78290000D02*
X143060000Y-78290000D01*
X143060000Y-78290000D02*
X143060000Y-78030000D01*
X137610000Y-72840000D02*
X137610000Y-73100000D01*
X140335000Y-72840000D02*
X137610000Y-72840000D01*
X137610000Y-73100000D02*
X135935000Y-73100000D01*
X137610000Y-78290000D02*
X137610000Y-78030000D01*
%TO.C,R7*%
X165962064Y-69115000D02*
X165507936Y-69115000D01*
X165962064Y-70585000D02*
X165507936Y-70585000D01*
%TO.C,R6*%
X165507936Y-73760000D02*
X165962064Y-73760000D01*
X165507936Y-72290000D02*
X165962064Y-72290000D01*
%TO.C,R2*%
X141832064Y-87730000D02*
X141377936Y-87730000D01*
X141832064Y-86260000D02*
X141377936Y-86260000D01*
%TO.C,R1*%
X137567936Y-86260000D02*
X138022064Y-86260000D01*
X137567936Y-87730000D02*
X138022064Y-87730000D01*
%TO.C,J4*%
X133300000Y-92770000D02*
X133300000Y-91440000D01*
X156280000Y-92770000D02*
X156280000Y-90110000D01*
X135900000Y-92770000D02*
X135900000Y-90110000D01*
X135900000Y-90110000D02*
X156280000Y-90110000D01*
X135900000Y-92770000D02*
X156280000Y-92770000D01*
X134630000Y-92770000D02*
X133300000Y-92770000D01*
%TO.C,J3*%
X171445000Y-67900000D02*
X174045000Y-67900000D01*
X168845000Y-69230000D02*
X168845000Y-67900000D01*
X168845000Y-70500000D02*
X171445000Y-70500000D01*
X168845000Y-70500000D02*
X168845000Y-75640000D01*
X168845000Y-67900000D02*
X170175000Y-67900000D01*
X174045000Y-67900000D02*
X174045000Y-75640000D01*
X168845000Y-75640000D02*
X174045000Y-75640000D01*
X171445000Y-70500000D02*
X171445000Y-67900000D01*
%TO.C,J2*%
X162570000Y-90110000D02*
X170250000Y-90110000D01*
X161300000Y-92770000D02*
X159970000Y-92770000D01*
X170250000Y-92770000D02*
X170250000Y-90110000D01*
X162570000Y-92770000D02*
X162570000Y-90110000D01*
X159970000Y-92770000D02*
X159970000Y-91440000D01*
X162570000Y-92770000D02*
X170250000Y-92770000D01*
%TO.C,J1*%
X174050000Y-80655000D02*
X174050000Y-88335000D01*
X171390000Y-79385000D02*
X171390000Y-78055000D01*
X171390000Y-88335000D02*
X174050000Y-88335000D01*
X171390000Y-80655000D02*
X174050000Y-80655000D01*
X171390000Y-78055000D02*
X172720000Y-78055000D01*
X171390000Y-80655000D02*
X171390000Y-88335000D01*
%TO.C,D1*%
X164050000Y-67000000D02*
X166735000Y-67000000D01*
X164050000Y-65080000D02*
X164050000Y-67000000D01*
X166735000Y-65080000D02*
X164050000Y-65080000D01*
%TO.C,C5*%
X156583748Y-65305000D02*
X157106252Y-65305000D01*
X156583748Y-66775000D02*
X157106252Y-66775000D01*
%TO.C,C3*%
X152138748Y-65305000D02*
X152661252Y-65305000D01*
X152138748Y-66775000D02*
X152661252Y-66775000D01*
%TO.C,C1*%
X147693748Y-65420000D02*
X148216252Y-65420000D01*
X147693748Y-66890000D02*
X148216252Y-66890000D01*
%TO.C,BT1*%
X133410000Y-72325000D02*
X133410000Y-73655000D01*
X132080000Y-72325000D02*
X133410000Y-72325000D01*
X130810000Y-72325000D02*
X130750000Y-72325000D01*
X130810000Y-74925000D02*
X133410000Y-74925000D01*
X130810000Y-72325000D02*
X130810000Y-74925000D01*
X133410000Y-74925000D02*
X133410000Y-77525000D01*
X130750000Y-72325000D02*
X130750000Y-77525000D01*
X133410000Y-77525000D02*
X130750000Y-77525000D01*
%TD*%
M02*
