%TF.GenerationSoftware,KiCad,Pcbnew,7.0.10*%
%TF.CreationDate,2024-01-18T02:20:14-05:00*%
%TF.ProjectId,Dattalogger_Board,44617474-616c-46f6-9767-65725f426f61,1*%
%TF.SameCoordinates,Original*%
%TF.FileFunction,Soldermask,Top*%
%TF.FilePolarity,Negative*%
%FSLAX46Y46*%
G04 Gerber Fmt 4.6, Leading zero omitted, Abs format (unit mm)*
G04 Created by KiCad (PCBNEW 7.0.10) date 2024-01-18 02:20:14*
%MOMM*%
%LPD*%
G01*
G04 APERTURE LIST*
G04 Aperture macros list*
%AMRoundRect*
0 Rectangle with rounded corners*
0 $1 Rounding radius*
0 $2 $3 $4 $5 $6 $7 $8 $9 X,Y pos of 4 corners*
0 Add a 4 corners polygon primitive as box body*
4,1,4,$2,$3,$4,$5,$6,$7,$8,$9,$2,$3,0*
0 Add four circle primitives for the rounded corners*
1,1,$1+$1,$2,$3*
1,1,$1+$1,$4,$5*
1,1,$1+$1,$6,$7*
1,1,$1+$1,$8,$9*
0 Add four rect primitives between the rounded corners*
20,1,$1+$1,$2,$3,$4,$5,0*
20,1,$1+$1,$4,$5,$6,$7,0*
20,1,$1+$1,$6,$7,$8,$9,0*
20,1,$1+$1,$8,$9,$2,$3,0*%
G04 Aperture macros list end*
%ADD10RoundRect,0.250000X-0.262500X-0.450000X0.262500X-0.450000X0.262500X0.450000X-0.262500X0.450000X0*%
%ADD11RoundRect,0.250000X0.262500X0.450000X-0.262500X0.450000X-0.262500X-0.450000X0.262500X-0.450000X0*%
%ADD12RoundRect,0.243750X-0.243750X-0.456250X0.243750X-0.456250X0.243750X0.456250X-0.243750X0.456250X0*%
%ADD13RoundRect,0.250000X0.250000X0.475000X-0.250000X0.475000X-0.250000X-0.475000X0.250000X-0.475000X0*%
%ADD14R,3.500000X2.400000*%
%ADD15R,2.400000X3.500000*%
%ADD16RoundRect,0.135720X-0.241280X-0.701280X0.241280X-0.701280X0.241280X0.701280X-0.241280X0.701280X0*%
%ADD17RoundRect,0.052780X-0.784220X-0.324220X0.784220X-0.324220X0.784220X0.324220X-0.784220X0.324220X0*%
%ADD18RoundRect,0.150000X-0.650000X-0.150000X0.650000X-0.150000X0.650000X0.150000X-0.650000X0.150000X0*%
%ADD19RoundRect,0.055580X-1.031420X-0.341420X1.031420X-0.341420X1.031420X0.341420X-1.031420X0.341420X0*%
%ADD20O,1.700000X1.700000*%
%ADD21R,1.700000X1.700000*%
%ADD22C,2.100000*%
%ADD23RoundRect,0.250000X-0.250000X-0.475000X0.250000X-0.475000X0.250000X0.475000X-0.250000X0.475000X0*%
G04 APERTURE END LIST*
D10*
%TO.C,R5*%
X161012500Y-69850000D03*
X162837500Y-69850000D03*
%TD*%
D11*
%TO.C,R4*%
X162837500Y-73025000D03*
X161012500Y-73025000D03*
%TD*%
%TO.C,R3*%
X161012500Y-76200000D03*
X162837500Y-76200000D03*
%TD*%
D12*
%TO.C,D2*%
X162862500Y-66040000D03*
X160987500Y-66040000D03*
%TD*%
D13*
%TO.C,C4*%
X162240000Y-86995000D03*
X160340000Y-86995000D03*
%TD*%
%TO.C,C2*%
X162240000Y-83820000D03*
X160340000Y-83820000D03*
%TD*%
D14*
%TO.C,Y2*%
X149800000Y-86360000D03*
X155000000Y-86360000D03*
%TD*%
D15*
%TO.C,Y1*%
X132080000Y-80585000D03*
X132080000Y-85785000D03*
%TD*%
D16*
%TO.C,U4*%
X149600000Y-72665000D03*
X150400000Y-72665000D03*
X151200000Y-72665000D03*
X152000000Y-72665000D03*
X152800000Y-72665000D03*
X153600000Y-72665000D03*
X154400000Y-72665000D03*
X155200000Y-72665000D03*
D17*
X156570000Y-74035000D03*
X156570000Y-74835000D03*
X156570000Y-75635000D03*
X156570000Y-76435000D03*
X156570000Y-77235000D03*
X156570000Y-78035000D03*
X156570000Y-78835000D03*
X156570000Y-79635000D03*
D16*
X155200000Y-81005000D03*
X154400000Y-81005000D03*
X153600000Y-81005000D03*
X152800000Y-81005000D03*
X152000000Y-81005000D03*
X151200000Y-81005000D03*
X150400000Y-81005000D03*
X149600000Y-81005000D03*
D17*
X148230000Y-79635000D03*
X148230000Y-78835000D03*
X148230000Y-78035000D03*
X148230000Y-77235000D03*
X148230000Y-76435000D03*
X148230000Y-75635000D03*
X148230000Y-74835000D03*
X148230000Y-74035000D03*
%TD*%
D18*
%TO.C,U3*%
X143935000Y-66040000D03*
X143935000Y-67310000D03*
X143935000Y-68580000D03*
X143935000Y-69850000D03*
X136735000Y-69850000D03*
X136735000Y-68580000D03*
X136735000Y-67310000D03*
X136735000Y-66040000D03*
%TD*%
D19*
%TO.C,U2*%
X137860000Y-80645000D03*
X137860000Y-81915000D03*
X137860000Y-83185000D03*
X137860000Y-84455000D03*
X142810000Y-84455000D03*
X142810000Y-83185000D03*
X142810000Y-81915000D03*
X142810000Y-80645000D03*
%TD*%
D18*
%TO.C,U1*%
X143935000Y-73660000D03*
X143935000Y-74930000D03*
X143935000Y-76200000D03*
X143935000Y-77470000D03*
X136735000Y-77470000D03*
X136735000Y-76200000D03*
X136735000Y-74930000D03*
X136735000Y-73660000D03*
%TD*%
D11*
%TO.C,R7*%
X164822500Y-69850000D03*
X166647500Y-69850000D03*
%TD*%
D10*
%TO.C,R6*%
X166647500Y-73025000D03*
X164822500Y-73025000D03*
%TD*%
D11*
%TO.C,R2*%
X142517500Y-86995000D03*
X140692500Y-86995000D03*
%TD*%
D10*
%TO.C,R1*%
X136882500Y-86995000D03*
X138707500Y-86995000D03*
%TD*%
D20*
%TO.C,J4*%
X154950000Y-91440000D03*
X152410000Y-91440000D03*
X149870000Y-91440000D03*
X147330000Y-91440000D03*
X144790000Y-91440000D03*
X142250000Y-91440000D03*
X139710000Y-91440000D03*
X137170000Y-91440000D03*
D21*
X134630000Y-91440000D03*
%TD*%
D20*
%TO.C,J3*%
X172715000Y-74310000D03*
X170175000Y-74310000D03*
X172715000Y-71770000D03*
X170175000Y-71770000D03*
X172715000Y-69230000D03*
D21*
X170175000Y-69230000D03*
%TD*%
%TO.C,J2*%
X161300000Y-91440000D03*
D20*
X163840000Y-91440000D03*
X166380000Y-91440000D03*
X168920000Y-91440000D03*
%TD*%
D21*
%TO.C,J1*%
X172720000Y-79385000D03*
D20*
X172720000Y-81925000D03*
X172720000Y-84465000D03*
X172720000Y-87005000D03*
%TD*%
D22*
%TO.C,H4*%
X175260000Y-93980000D03*
%TD*%
%TO.C,H3*%
X175260000Y-63500000D03*
%TD*%
%TO.C,H2*%
X129540000Y-93980000D03*
%TD*%
%TO.C,H1*%
X129540000Y-63500000D03*
%TD*%
D12*
%TO.C,D1*%
X164797500Y-66040000D03*
X166672500Y-66040000D03*
%TD*%
D23*
%TO.C,C5*%
X157795000Y-66040000D03*
X155895000Y-66040000D03*
%TD*%
%TO.C,C3*%
X153350000Y-66040000D03*
X151450000Y-66040000D03*
%TD*%
%TO.C,C1*%
X148905000Y-66155000D03*
X147005000Y-66155000D03*
%TD*%
D21*
%TO.C,BT1*%
X132080000Y-73655000D03*
D20*
X132080000Y-76195000D03*
%TD*%
M02*
